<?xml version="1.0" standalone="no"?>
<!DOCTYPE svg PUBLIC "-//W3C//DTD SVG 1.1//EN" "http://www.w3.org/Graphics/SVG/1.1/DTD/svg11.dtd" >
<svg>
<metadata>
Created by FontForge 20090914 at Tue Mar  1 16:18:53 2016
 By www-data
(c) 1999 Nick Curtis. All Rights Reserved. Generated by Fontographer 3.52 
</metadata>
<defs>
<font id="Creampuff" horiz-adv-x="317" >
  <font-face 
    font-family="Creampuff"
    font-weight="400"
    font-stretch="normal"
    units-per-em="1000"
    panose-1="0 0 0 0 0 0 0 0 0 0"
    ascent="800"
    descent="-200"
    x-height="354"
    cap-height="597"
    bbox="-202.999 -236.999 1241 797"
    underline-thickness="50"
    underline-position="-55"
    unicode-range="U+0020-U+F002"
  />
<missing-glyph 
 />
    <glyph glyph-name=".notdef" 
 />
    <glyph glyph-name="space" unicode=" " 
 />
    <glyph glyph-name="space" unicode="&#xa0;" 
 />
    <glyph glyph-name="exclam" unicode="!" horiz-adv-x="413" 
d="M238 37c-1.33301 -20 -9.66895 -35.332 -25.002 -45.999s-32.333 -18 -51 -22c-6 -1.33301 -12.167 -2.33301 -18.5 -3s-12.166 -1 -17.499 -1c-4.66699 0 -9.16699 0.166992 -13.5 0.5s-8.83301 1.16602 -13.5 2.49902c-20.667 4 -39.5 12.5 -56.5 25.5
s-24.833 31.167 -23.5 54.5c1.33301 22 10.333 38.333 27 49s34.667 17.667 54 21c4.66699 0.666992 9.33398 1.16699 14.001 1.5s9 0.5 13 0.5c5.33301 0 11 -0.333008 17 -1s12.333 -2 19 -4c19.333 -4.66699 37 -13.5 53 -26.5s23.333 -30.167 22 -51.5v0z
M393.997 458.001c0 -27.333 -7.66602 -51.3311 -22.999 -71.998s-32.333 -40 -51 -58c-1.33301 -2 -2.83301 -3.83301 -4.5 -5.5s-3.5 -3.16699 -5.5 -4.5c-24.667 -25.333 -48 -51.333 -70 -78s-42.333 -55.667 -61 -87h-51c0 2 0.166992 4.16699 0.5 6.5s0.5 4.5 0.5 6.5
l2 41.5l2 41.5c0 15.333 -0.333008 31 -1 47s-2 32 -4 48c0 1.33301 -0.166992 2.5 -0.5 3.5s-0.5 1.83301 -0.5 2.5c-2 11.333 -3.5 23.166 -4.5 35.499s-1.16699 28.166 -0.5 47.499c0.666992 34 14.167 61.5 40.5 82.5s55.166 33.833 86.499 38.5
c4.66699 0.666992 9.16699 1.16699 13.5 1.5s8.5 0.5 12.5 0.5h1.5h1.5c28.667 -0.666992 55.167 -9 79.5 -25s36.5 -40.333 36.5 -73v0z" />
    <glyph glyph-name="quotedbl" unicode="&#x22;" horiz-adv-x="463" 
d="M419 672c14.667 -10 25.1709 -21.5 31.5039 -34.5s9.5 -26.167 9.5 -39.5c0 -2.66699 -0.166992 -5.5 -0.5 -8.5s-0.833008 -5.83301 -1.5 -8.5c-3.33301 -18.667 -11.166 -36.834 -23.499 -54.501s-27.166 -32.167 -44.499 -43.5
c-22.667 -16 -47.334 -27.5 -74.001 -34.5s-54 -11.5 -82 -13.5l-28 51h2h2h10c3.33301 0 6.66602 0.333008 9.99902 1c16.667 0.666992 32.667 2.66699 48 6s29.333 10.333 42 21c3.33301 3.33301 5.83301 6.16602 7.5 8.49902s2.16699 4.5 1.5 6.5
c0 4.66699 -3.16699 8.5 -9.5 11.5s-13.166 5.5 -20.499 7.5c-1.33301 0.666992 -2.5 1.16699 -3.5 1.5s-2.16699 0.5 -3.5 0.5c-6.66699 1.33301 -13.167 3.33301 -19.5 6s-12.5 5.66699 -18.5 9c-4.66699 -16.667 -12.667 -32 -24 -46s-24.666 -26 -39.999 -36
c-22.667 -16 -47.334 -27.5 -74.001 -34.5s-54 -11.5 -82 -13.5l-28 51h2h2h10c3.33301 0 6.66602 0.333008 9.99902 1c16.667 0.666992 32.667 2.66699 48 6s29.333 10.333 42 21c3.33301 3.33301 5.83301 6.16602 7.5 8.49902s2.16699 4.5 1.5 6.5
c0 4.66699 -3.16699 8.5 -9.5 11.5s-13.166 5.5 -20.499 7.5c-1.33301 0.666992 -2.5 1.16699 -3.5 1.5s-2.16699 0.5 -3.5 0.5s-2.5 0.166992 -3.5 0.5s-2.16699 0.833008 -3.5 1.5c-17.333 4.66699 -32.833 12.667 -46.5 24s-19.834 27 -18.501 47
c1.33301 26 13 44.667 35 56s46.333 17 73 17c17.333 0 34.166 -2.16699 50.499 -6.5s29.833 -10.166 40.5 -17.499c3.33301 -1.33301 6.16602 -3 8.49902 -5s4.16602 -4.33301 5.49902 -7c10 12.667 23.667 21.834 41 27.501s35.666 8.5 54.999 8.5
c17.333 0 34 -2.16699 50 -6.5s29.333 -10.166 40 -17.499v0z" />
    <glyph glyph-name="numbersign" unicode="#" horiz-adv-x="500" 
 />
    <glyph glyph-name="dollar" unicode="$" horiz-adv-x="511" 
d="M488 400c-1.33301 -14 -8.00488 -24.334 -20.0049 -31.001s-25 -10 -39 -10h-4h-4c-4.66699 0.666992 -9 1.5 -13 2.5s-7.66699 2.5 -11 4.5c-2 1.33301 -4 2.5 -6 3.5s-4 2.16699 -6 3.5c-2.66699 0.666992 -5 1.66699 -7 3s-4 2.33301 -6 3
c2.66699 2 5.16699 3.66699 7.5 5s4.5 2.66602 6.5 3.99902c2.66699 2.66699 5 5.33398 7 8.00098s3.33301 6.66699 4 12v1.5v1.5v0.5v1.5c0 8 -2.83301 14.333 -8.5 19s-11.5 8.66699 -17.5 12c-1.33301 0 -2.5 0.166992 -3.5 0.5s-2.16699 0.833008 -3.5 1.5l-26 -74
c4.66699 -2.66699 9.16699 -5.5 13.5 -8.5l13.5 -9.5c30 -19.333 57.333 -41.166 82 -65.499s37 -54.833 37 -91.5c0 -4.66699 -0.166992 -9.5 -0.5 -14.5s-1.16602 -10.167 -2.49902 -15.5c-8 -38.667 -28.833 -68.334 -62.5 -89.001s-69.834 -34.667 -108.501 -42
c-16 -2.66699 -31.667 -4.5 -47 -5.5s-29.666 -1.16699 -42.999 -0.5l-43 -125l-34 11l40 118c-5.33301 0.666992 -10.5 1.66699 -15.5 3l-15.5 4c-33.333 8.66699 -63.5 23.834 -90.5 45.501s-39.5 51.5 -37.5 89.5c0.666992 23.333 9.83398 41.166 27.501 53.499
s36.834 18.166 57.501 17.499c12.667 -0.666992 23 -3.16699 31 -7.5s15.667 -10.166 23 -17.499c2 -2 3.83301 -4 5.5 -6s3.5 -4 5.5 -6c-2 -1.33301 -3.83301 -2.66602 -5.5 -3.99902s-3.5 -3 -5.5 -5c-5.33301 -4 -10 -8.5 -14 -13.5s-6.33301 -10.833 -7 -17.5v-4.5
v-4.5c0 -18.667 5.5 -34.5 16.5 -47.5s24.833 -22.5 41.5 -28.5l54 156l-1.5 1.5c-0.333008 0.333008 -0.833008 0.5 -1.5 0.5c-24.667 18 -47.5 37 -68.5 57s-31.5 45.667 -31.5 77c0 4 0.333008 8 1 12s1.33398 8.33301 2.00098 13c5.33301 26 19.833 46 43.5 60
s49.167 23.333 76.5 28c12 2.66699 23.833 4.33398 35.5 5.00098s22.5 1 32.5 1l34 100l35 -11l-31 -92c4.66699 -0.666992 9.33398 -1.5 14.001 -2.5s9.66699 -2.16699 15 -3.5c20 -5.33301 38.333 -14.333 55 -27s25 -30 25 -52
c-0.666992 -0.666992 -1 -1.83398 -1 -3.50098v-4.5v0zM325.995 138.999l0.000976562 2c0 0.666992 0.333008 1.66699 1 3v2v2c-0.666992 14 -4.83398 26.667 -12.501 38s-17.5 22 -29.5 32l-48 -140h6.5h7.5c17.333 2 33.5 7.83301 48.5 17.5s23.833 24.167 26.5 43.5v0z
M325.996 447.999c-9.33301 -2 -16.333 -5.33398 -21 -10.001s-7 -10.334 -7 -17.001c0 -2 0.5 -4.5 1.5 -7.5s2.16699 -5.83301 3.5 -8.5c0.666992 -1.33301 1.5 -2.66602 2.5 -3.99902s1.83301 -2.66602 2.5 -3.99902l18 51v0z" />
    <glyph glyph-name="percent" unicode="%" horiz-adv-x="500" 
 />
    <glyph glyph-name="ampersand" unicode="&#x26;" horiz-adv-x="842" 
d="M804 255c-0.666992 -2 -1.32715 -4.17578 -1.99414 -6.50879s-1 -4.83301 -1 -7.5c-0.666992 -2.66699 -1.33398 -5.16699 -2.00098 -7.5s-1.33398 -4.5 -2.00098 -6.5c-10.667 -42.667 -32 -73.334 -64 -92.001s-67.667 -28 -107 -28h-6h-6
c-2.66699 0 -5 0.166992 -7 0.5s-4 0.5 -6 0.5c-31.333 -45.333 -71.166 -75.5 -119.499 -90.5s-98.5 -23.5 -150.5 -25.5c-6 -0.666992 -12 -1 -18 -1h-18c-10.667 0 -21.5 0.5 -32.5 1.5s-21.833 2.16699 -32.5 3.5c-28.667 4 -56.334 12 -83.001 24
s-49.667 28.333 -69 49c-12.667 13.333 -22.334 28.166 -29.001 44.499s-10 33.166 -10 50.499c0 7.33301 0.666992 15 2 23s3.33301 16 6 24c10.667 30.667 30.167 54.834 58.5 72.501s58.5 31.167 90.5 40.5c12.667 4 25.334 7.16699 38.001 9.5l36 6.5
c-16.667 11.333 -31.167 25.5 -43.5 42.5s-18.5 35.833 -18.5 56.5c0 4.66699 0.5 9.5 1.5 14.5s2.16699 9.83301 3.5 14.5c10 28 30 49.833 60 65.5s62 26.834 96 33.501c21.333 4 41.833 6.83301 61.5 8.5s37.167 2.5 52.5 2.5c11.333 0 25 -0.5 41 -1.5
s32.667 -3.16699 50 -6.5c26.667 -5.33301 51.5 -14 74.5 -26s37.167 -29.333 42.5 -52c0 -1.33301 0.166992 -2.66602 0.5 -3.99902s0.5 -2.66602 0.5 -3.99902c0.666992 -1.33301 1 -2.66602 1 -3.99902v-4c0 -18.667 -8 -33.334 -24 -44.001s-33.667 -16.667 -53 -18
h-2.5h-2.5c-8.66699 0 -17 1.16699 -25 3.5s-15 5.83301 -21 10.5c-0.666992 0.666992 -1.66699 1.33398 -3 2.00098s-2.33301 1.33398 -3 2.00098c-1.33301 0.666992 -2.5 1.33398 -3.5 2.00098s-1.83301 1.33398 -2.5 2.00098
c-1.33301 0.666992 -2.5 1.33398 -3.5 2.00098s-1.83301 1.33398 -2.5 2.00098l2 2l2 2c6.66699 6 12.5 12.167 17.5 18.5s7.83301 14.166 8.5 23.499c0.666992 12 -3.5 21.5 -12.5 28.5s-19.167 11.5 -30.5 13.5c-3.33301 0.666992 -6.5 1.16699 -9.5 1.5
s-6.16699 0.5 -9.5 0.5c-5.33301 0 -10.5 -0.5 -15.5 -1.5s-10.167 -2.5 -15.5 -4.5c-22.667 -7.33301 -43.667 -21 -63 -41s-29.333 -41 -30 -63v-1.5v-1.5c0 -18.667 6.66699 -32.667 20 -42s28.333 -14 45 -14h55.5h55.5l-20 -59h-7.5h-6.5
c-29.333 0 -58 -1.33301 -86 -4s-55.333 -12 -82 -28c-20.667 -12 -38.334 -29 -53.001 -51s-21.667 -45 -21 -69c0 -8.66699 1.33301 -17.5 4 -26.5s6.66699 -17.833 12 -26.5c9.33301 -13.333 20.833 -23.166 34.5 -29.499s28.5 -9.5 44.5 -9.5c26 0 51 5.66699 75 17
s44.667 26.333 62 45c-16.667 3.33301 -30.834 5.66602 -42.501 6.99902s-22.834 2 -33.501 2c-8 0 -16.333 -0.666992 -25 -2s-18.334 -3 -29.001 -5c-1.33301 0 -2.66602 -0.333008 -3.99902 -1s-2.66602 -1 -3.99902 -1c-0.666992 -0.666992 -1.33398 -1 -2.00098 -1h-2
l-6 -2l-6 -2c0 3.33301 0.166992 6.33301 0.5 9s0.5 5.33398 0.5 8.00098c0 3.33301 0.166992 6.33301 0.5 9s0.5 5.33398 0.5 8.00098c6 34 23.667 59.833 53 77.5s61.333 28.5 96 32.5c5.33301 0.666992 11 1.16699 17 1.5s11.667 0.5 17 0.5
c7.33301 0 14.166 -0.166992 20.499 -0.5s12.833 -1.16602 19.5 -2.49902l61.5 -9.5c20.333 -3 40.5 -4.5 60.5 -4.5c10 0 20 0.5 30 1.5s19.667 2.5 29 4.5l29 5v0z" />
    <glyph glyph-name="quotesingle" unicode="'" horiz-adv-x="280" 
d="M219 672c14.667 -10 25.168 -21.499 31.501 -34.499s9.5 -26.167 9.5 -39.5c0 -2.66699 -0.166992 -5.5 -0.5 -8.5s-0.833008 -5.83301 -1.5 -8.5c-3.33301 -18.667 -11.166 -36.834 -23.499 -54.501s-27.166 -32.167 -44.499 -43.5
c-22.667 -16 -47.334 -27.5 -74.001 -34.5s-54 -11.5 -82 -13.5l-28 51h2h2h10c3.33301 0 6.66602 0.333008 9.99902 1c16.667 0.666992 32.667 2.66699 48 6s29.333 10.333 42 21c3.33301 3.33301 5.83301 6.16602 7.5 8.49902s2.16699 4.5 1.5 6.5
c0 4.66699 -3.16699 8.5 -9.5 11.5s-13.166 5.5 -20.499 7.5c-1.33301 0.666992 -2.5 1.16699 -3.5 1.5s-2.16699 0.5 -3.5 0.5s-2.5 0.166992 -3.5 0.5s-2.16699 0.833008 -3.5 1.5c-17.333 4.66699 -32.833 12.667 -46.5 24s-19.834 27 -18.501 47
c1.33301 26 13 44.667 35 56s46.333 17 73 17c17.333 0 34.166 -2.16699 50.499 -6.5s29.833 -10.166 40.5 -17.499v0z" />
    <glyph glyph-name="parenleft" unicode="(" horiz-adv-x="500" 
d="M478 646c-67.333 -48.667 -128 -115.165 -182 -199.498s-88.667 -172.166 -104 -263.499c-2.66699 -14.667 -4.66699 -29.5 -6 -44.5s-2 -29.833 -2 -44.5c0 -44.667 6.66699 -87.834 20 -129.501s34.333 -80.834 63 -117.501l-21 -30c-64 28 -115.333 73.167 -154 135.5
s-61.334 128.166 -68.001 197.499c-0.666992 6.66699 -1.16699 13.5 -1.5 20.5s-0.5 13.833 -0.5 20.5c0.666992 18.667 2.33398 37.167 5.00098 55.5s6.33398 35.833 11.001 52.5c26.667 89.333 78.834 167.5 156.501 234.5s160.5 113.5 248.5 139.5
c3.33301 0.666992 6.66602 1.5 9.99902 2.5s6.66602 1.83301 9.99902 2.5l15 -32v0z" />
    <glyph glyph-name="parenright" unicode=")" horiz-adv-x="500" 
d="M11 -150c68.667 50 130.668 118.166 186.001 204.499s89.666 176.5 102.999 270.5c2 12.667 3.5 25.667 4.5 39s1.5 26.333 1.5 39c0 44 -6.5 87 -19.5 129s-34.167 81.333 -63.5 118l21 28c64 -27.333 115.333 -72.5 154 -135.5s61 -129.833 67 -200.5
c0.666992 -6 1.16699 -12.167 1.5 -18.5s0.5 -12.5 0.5 -18.5c0 -18.667 -1.33301 -37.167 -4 -55.5s-6.66699 -36.166 -12 -53.499c-27.333 -90 -80 -168.5 -158 -235.5s-161.333 -113.167 -250 -138.5l-8 -2l-8 -2l-16 32v0z" />
    <glyph glyph-name="asterisk" unicode="*" horiz-adv-x="304" 
d="M290 627c0 -10.667 -3.83691 -20.001 -11.5039 -28.001s-17.167 -12 -28.5 -12c-4.66699 0 -9.16699 1.5 -13.5 4.5l-13.5 9.5c-4 3.33301 -8.16699 6.5 -12.5 9.5s-8.5 4.5 -12.5 4.5h-25l12 -21c2 -4 5.16699 -7 9.5 -9l13.5 -6
c0.666992 0 1.33398 -0.166992 2.00098 -0.5s1.33398 -0.5 2.00098 -0.5c7.33301 -2.66699 14 -6.33398 20 -11.001s9 -13 9 -25c0 -11.333 -3.83301 -20.833 -11.5 -28.5s-17.167 -11.5 -28.5 -11.5c-9.33301 0 -18 3.16699 -26 9.5s-12 14.5 -12 24.5
c0 2.66699 0.166992 5.33398 0.5 8.00098s0.833008 5.33398 1.5 8.00098s1.16699 5.33398 1.5 8.00098s0.5 5.33398 0.5 8.00098c0 4.66699 -0.833008 9 -2.5 13s-3.5 7.66699 -5.5 11l-2 4c-0.666992 1.33301 -1.66699 2.66602 -3 3.99902
c0 0.666992 -0.166992 1.33398 -0.5 2.00098s-0.833008 1.33398 -1.5 2.00098c-0.666992 -1.33301 -1.5 -2.83301 -2.5 -4.5s-1.83301 -3.16699 -2.5 -4.5c0 -0.666992 -0.166992 -1.16699 -0.5 -1.5l-1.5 -1.5c-2 -4 -3.83301 -7.83301 -5.5 -11.5
s-2.5 -7.83398 -2.5 -12.501c0 -2.66699 0.166992 -5.33398 0.5 -8.00098s0.833008 -5.33398 1.5 -8.00098c0 -3.33301 0.166992 -6.33301 0.5 -9s0.5 -5.33398 0.5 -8.00098c0 -12 -4.16699 -20.333 -12.5 -25s-17.5 -7.33398 -27.5 -8.00098h-1.5h-1.5
c-9.33301 0 -16.833 3.66699 -22.5 11s-9.16699 15.333 -10.5 24c-0.666992 1.33301 -1 3 -1 5v5c0 9.33301 3 16 9 20s12.667 7.33301 20 10h1h1c4.66699 2 9.33398 4.16699 14.001 6.5s8.33398 5.5 11.001 9.5l12 22h-25c-3.33301 0 -6.5 -0.833008 -9.5 -2.5l-9.5 -5.5
c-1.33301 -1.33301 -2.5 -2.33301 -3.5 -3s-2.16699 -1.66699 -3.5 -3c-4 -3.33301 -8.5 -6.5 -13.5 -9.5s-11.167 -4.5 -18.5 -4.5s-14 3 -20 9s-10 12.667 -12 20c-0.666992 2 -1.16699 3.83301 -1.5 5.5s-0.5 3.5 -0.5 5.5c0 10.667 4 20 12 28s17.333 12 28 12
c4 0 7.16699 -0.666992 9.5 -2s4.83301 -3 7.5 -5c1.33301 -0.666992 2.66602 -1.66699 3.99902 -3s3 -2.66602 5 -3.99902c4.66699 -3.33301 10.667 -6.5 18 -9.5s18.333 -4.5 33 -4.5l-13 22c-2 4 -5.16699 7 -9.5 9s-8.83301 3.66699 -13.5 5
c-0.666992 0.666992 -1.16699 1 -1.5 1h-1.5c-7.33301 2.66699 -14 6.33398 -20 11.001s-9 13 -9 25c0 11.333 4 20.833 12 28.5s17.333 11.5 28 11.5h1.5h1.5c8.66699 -0.666992 16.5 -4.16699 23.5 -10.5s10.5 -14.166 10.5 -23.499
c0 -2.66699 -0.166992 -5.33398 -0.5 -8.00098s-0.5 -5.33398 -0.5 -8.00098c-0.666992 -2.66699 -1.16699 -5.33398 -1.5 -8.00098s-0.5 -5.33398 -0.5 -8.00098c0 -4 0.5 -7.66699 1.5 -11s2.5 -6.33301 4.5 -9c0.666992 -2 1.66699 -4 3 -6l4 -6
c0 -0.666992 0.166992 -1.33398 0.5 -2.00098s0.833008 -1.33398 1.5 -2.00098c1.33301 2.66699 2.83301 5.33398 4.5 8.00098s3.16699 5.33398 4.5 8.00098s2.5 5.66699 3.5 9s1.5 7 1.5 11c0 2.66699 -0.166992 5.33398 -0.5 8.00098s-0.5 5.33398 -0.5 8.00098
c-0.666992 2.66699 -1.16699 5.33398 -1.5 8.00098s-0.5 5.33398 -0.5 8.00098c0 9.33301 3.5 17.166 10.5 23.499s14.833 9.83301 23.5 10.5h1.5h1.5c11.333 0 20.833 -3.83301 28.5 -11.5s11.5 -17.167 11.5 -28.5s-3 -19.333 -9 -24s-12.667 -8.66699 -20 -12
c-0.666992 0 -1.5 -0.166992 -2.5 -0.5s-1.83301 -0.5 -2.5 -0.5c-4.66699 -2 -8.83398 -4 -12.501 -6s-6.5 -4.66699 -8.5 -8l-13 -22h26c4 0 7.83301 1.16699 11.5 3.5s7.16699 4.83301 10.5 7.5c0.666992 0.666992 1.33398 1.16699 2.00098 1.5
s1.33398 0.833008 2.00098 1.5c4 3.33301 8.16699 6.5 12.5 9.5s8.83301 4.5 13.5 4.5c10.667 0 20 -4 28 -12s12 -17.333 12 -28v0z" />
    <glyph glyph-name="plus" unicode="+" horiz-adv-x="500" 
 />
    <glyph glyph-name="comma" unicode="," horiz-adv-x="280" 
d="M219 110c14.667 -10 25.167 -21.5029 31.5 -34.5029s9.5 -26.167 9.5 -39.5c0 -2.66699 -0.166992 -5.5 -0.5 -8.5s-0.833008 -5.83301 -1.5 -8.5c-3.33301 -18 -11.166 -35.833 -23.499 -53.5s-27.166 -32.167 -44.499 -43.5
c-22.667 -15.333 -47.334 -26.666 -74.001 -33.999s-54 -12 -82 -14l-28 50c0.666992 0.666992 1.33398 1 2.00098 1h2h10c3.33301 0 6.66602 0.333008 9.99902 1c16.667 0.666992 32.667 2.66699 48 6s29.333 10.333 42 21c3.33301 2.66699 5.83301 5.33398 7.5 8.00098
s2.16699 5 1.5 7c0 4.66699 -3.16699 8.5 -9.5 11.5s-13.166 5.5 -20.499 7.5c-1.33301 0.666992 -2.5 1.16699 -3.5 1.5s-2.16699 0.5 -3.5 0.5s-2.5 0.166992 -3.5 0.5s-2.16699 0.833008 -3.5 1.5c-17.333 4.66699 -32.833 12.5 -46.5 23.5s-19.834 26.5 -18.501 46.5
c1.33301 26 13.166 44.667 35.499 56s46.833 17 73.5 17c17.333 0 34 -2.16699 50 -6.5s29.333 -10.166 40 -17.499v0z" />
    <glyph glyph-name="hyphen" unicode="-" horiz-adv-x="225" 
d="M204 267h-166v91h166v-91v0z" />
    <glyph glyph-name="period" unicode="." horiz-adv-x="254" 
d="M238 37c-1.33301 -20 -9.66895 -35.332 -25.002 -45.999s-32.333 -18 -51 -22c-6 -1.33301 -12.167 -2.33301 -18.5 -3s-12.166 -1 -17.499 -1c-4.66699 0 -9.16699 0.166992 -13.5 0.5s-8.83301 1.16602 -13.5 2.49902c-20.667 4 -39.5 12.5 -56.5 25.5
s-24.833 31.167 -23.5 54.5c1.33301 22 10.333 38.333 27 49s34.667 17.667 54 21c4.66699 0.666992 9.33398 1.16699 14.001 1.5s9 0.5 13 0.5c5.33301 0 11 -0.333008 17 -1s12.333 -2 19 -4c19.333 -4.66699 37 -13.5 53 -26.5s23.333 -30.167 22 -51.5v0z" />
    <glyph glyph-name="slash" unicode="/" horiz-adv-x="300" 
d="M-30 -219l329 980h78l-330 -980h-77v0z" />
    <glyph glyph-name="zero" unicode="0" horiz-adv-x="623" 
d="M591 170c-4 -27.333 -15.499 -52.834 -34.499 -76.501s-42.833 -44.5 -71.5 -62.5c-29.333 -17.333 -60.666 -30.333 -93.999 -39s-67 -13.667 -101 -15h-8.5h-8.5c-12 0 -24 0.5 -36 1.5s-23.667 2.5 -35 4.5c-45.333 6.66699 -85.5 23.167 -120.5 49.5
s-52.5 64.833 -52.5 115.5c0 37.333 10.167 70.333 30.5 99s45.833 52.334 76.5 71.001c27.333 17.333 58.666 31 93.999 41s71.666 15 108.999 15c11.333 0 23.166 -0.333008 35.499 -1s24.833 -1.66699 37.5 -3c26.667 -3.33301 52.5 -9.66602 77.5 -18.999
s46.167 -23 63.5 -41c14.667 -14.667 25.167 -31.334 31.5 -50.001s9.5 -37.667 9.5 -57c0 -5.33301 -0.166992 -10.833 -0.5 -16.5s-1.16602 -11.167 -2.49902 -16.5v0zM392.001 235.999c0 3.33301 -0.166016 6.83496 -0.499023 10.502s-0.5 7.5 -0.5 11.5
c-2 12 -5.83301 23.167 -11.5 33.5s-15.5 15.5 -29.5 15.5c-3.33301 0 -7 -0.333008 -11 -1s-7.66699 -2 -11 -4c-7.33301 -2.66699 -14.666 -6.83398 -21.999 -12.501s-14.666 -12.5 -21.999 -20.5c-12.667 -14.667 -23.5 -31.834 -32.5 -51.501
s-15.833 -40.167 -20.5 -61.5c-2.66699 -9.33301 -4.5 -18.666 -5.5 -27.999s-1.5 -18.666 -1.5 -27.999c0 -4 0.166992 -8 0.5 -12s0.833008 -8.33301 1.5 -13c1.33301 -12 5.16602 -23.167 11.499 -33.5s16.166 -15.5 29.499 -15.5c11.333 0 22.166 3.33301 32.499 10
s20.833 16 31.5 28c12.667 15.333 23.667 33.166 33 53.499s16.333 40.833 21 61.5c2.66699 10 4.5 19.667 5.5 29s1.5 18.666 1.5 27.999v0z" />
    <glyph glyph-name="one" unicode="1" horiz-adv-x="365" 
d="M348 371l-32.001 -92.499l-32 -92.5l-32 -93l-32 -93h-195l41.5 123.5l43.5 122.5c0.666992 1.33301 1 2.5 1 3.5s0.333008 1.83301 1 2.5c0 2 0.166992 4.16699 0.5 6.5s0.5 4.16602 0.5 5.49902c0 10 -3 18.333 -9 25s-15.667 10 -29 10h-29h-30l18 52h52.5h51.5h26h26
c21.333 0 42.333 1 63 3s41.334 5.33301 62.001 10c4 1.33301 7.83301 2.33301 11.5 3l10.5 2c2 0.666992 3.83301 1.16699 5.5 1.5s3.5 0.5 5.5 0.5v0z" />
    <glyph glyph-name="two" unicode="2" horiz-adv-x="559" 
d="M533 256c-2 -30 -15.9951 -53.002 -41.9951 -69.002s-54.333 -27.667 -85 -35c-16 -3.33301 -31.667 -6 -47 -8s-29 -3.66699 -41 -5c-18.667 -1.33301 -37.167 -4.83301 -55.5 -10.5s-35.833 -13.167 -52.5 -22.5c31.333 -6.66699 62.833 -12.834 94.5 -18.501
s63.834 -9.5 96.501 -11.5c13.333 -0.666992 25.833 0.5 37.5 3.5s23.167 6.83301 34.5 11.5c2 0.666992 4.16699 1.5 6.5 2.5s4.5 1.83301 6.5 2.5c1.33301 0.666992 2.83301 1.33398 4.5 2.00098s3.5 1.33398 5.5 2.00098c-0.666992 -5.33301 -1.5 -10.666 -2.5 -15.999
s-2.16699 -10.666 -3.5 -15.999c-6.66699 -32.667 -24.5 -61 -53.5 -85s-60.167 -36.333 -93.5 -37h-2h-2c-32.667 0.666992 -59.334 3.83398 -80.001 9.50098s-40 12.167 -58 19.5c-0.666992 0 -1.33398 0.166992 -2.00098 0.5s-1.33398 0.5 -2.00098 0.5l-6 2
c-2 0.666992 -3.66699 1.33398 -5 2.00098c-12 4.66699 -24 8.83398 -36 12.501s-26 6.16699 -42 7.5c-2.66699 0.666992 -5.5 1 -8.5 1h-9.5c-10.667 0 -21.334 -0.833008 -32.001 -2.5s-21.334 -3.83398 -32.001 -6.50098c1.33301 3.33301 2.5 6.5 3.5 9.5
s1.83301 6.16699 2.5 9.5c0.666992 2 1.16699 3.83301 1.5 5.5s0.833008 3.16699 1.5 4.5c11.333 33.333 31.666 60.666 60.999 81.999s60.333 39.666 93 54.999l33 16l32 15l18 9c6.66699 3.33301 13.334 7 20.001 11c14.667 9.33301 27.834 20.166 39.501 32.499
s17.167 25.833 16.5 40.5c-0.666992 9.33301 -4.5 16.5 -11.5 21.5s-14.833 8.5 -23.5 10.5c-3.33301 0.666992 -6.5 1.16699 -9.5 1.5s-5.83301 0.5 -8.5 0.5c-4.66699 0 -9.66699 -0.333008 -15 -1s-11 -2 -17 -4c-9.33301 -2.66699 -18.166 -6.5 -26.499 -11.5
s-14.166 -11.5 -17.499 -19.5c0 -0.666992 -0.166992 -1.16699 -0.5 -1.5l-0.5 -0.5v-1.5v-1.5c0 -4 2.33301 -7.33301 7 -10s9.66699 -5 15 -7c4 -1.33301 7.66699 -2.5 11 -3.5s6 -1.83301 8 -2.5l-4 -6l-4 -6c-4.66699 -7.33301 -9.83398 -13.666 -15.501 -18.999
s-13.167 -9.66602 -22.5 -12.999c-2.66699 -1.33301 -5.5 -2.5 -8.5 -3.5s-5.83301 -1.5 -8.5 -1.5c-2.66699 -0.666992 -5.5 -1.16699 -8.5 -1.5s-5.83301 -0.5 -8.5 -0.5c-10.667 0 -20.667 2.16699 -30 6.5s-17.333 10.833 -24 19.5c-4 5.33301 -7 10.833 -9 16.5
s-3 11.834 -3 18.501v4c0 1.33301 0.333008 2.66602 1 3.99902c0 1.33301 0.166992 2.66602 0.5 3.99902s0.5 2.66602 0.5 3.99902c4 14 12.667 26.833 26 38.5s30 21.5 50 29.5c19.333 7.33301 40.666 13.166 63.999 17.499s47.666 6.5 72.999 6.5
c11.333 0 24.666 -0.666992 39.999 -2s31.333 -3.66602 48 -6.99902c30.667 -6.66699 58.5 -18.167 83.5 -34.5s36.167 -39.833 33.5 -70.5v0z" />
    <glyph glyph-name="three" unicode="3" horiz-adv-x="625" 
d="M596 265c-2.66699 -33.333 -16.5 -59.3301 -41.5 -77.9971s-52.167 -32.667 -81.5 -42c-6 -2 -12 -3.83301 -18 -5.5s-12 -3.16699 -18 -4.5c36.667 -8 68 -25.167 94 -51.5s38.333 -59.166 37 -98.499c-2.66699 -52 -25.667 -93.167 -69 -123.5
s-90.333 -52.166 -141 -65.499c-23.333 -6 -46.166 -10.333 -68.499 -13s-42.833 -4 -61.5 -4c-10.667 0 -22.167 0.5 -34.5 1.5s-24.833 2.83301 -37.5 5.5c-32 6.66699 -61.333 18.5 -88 35.5s-40 41.833 -40 74.5c0 3.33301 0.166992 6.83301 0.5 10.5
s0.833008 7.16699 1.5 10.5c4 19.333 14 34.5 30 45.5s33.333 17.167 52 18.5h3.5h3.5c12.667 0 24.834 -2.5 36.501 -7.5s21.167 -12.833 28.5 -23.5c1.33301 -1.33301 2.5 -2.66602 3.5 -3.99902s1.83301 -2.66602 2.5 -3.99902c0.666992 -0.666992 1.16699 -1.5 1.5 -2.5
s0.833008 -1.83301 1.5 -2.5l-4 -4c-1.33301 -1.33301 -2.66602 -3 -3.99902 -5c-6.66699 -6 -12.667 -12.833 -18 -20.5s-9 -15.5 -11 -23.5c0 -1.33301 -0.166992 -2.83301 -0.5 -4.5s-0.5 -3.16699 -0.5 -4.5c0 -6 1.66699 -11.833 5 -17.5s9.33301 -10.834 18 -15.501
c3.33301 -2 6.83301 -3.83301 10.5 -5.5s7.5 -2.83398 11.5 -3.50098c3.33301 -1.33301 6.83301 -2.16602 10.5 -2.49902s7.16699 -0.5 10.5 -0.5c16.667 0 32.834 4 48.501 12s29.5 17.667 41.5 29c14.667 12.667 28.334 30.167 41.001 52.5s21 45.166 25 68.499
c1.33301 4.66699 2.16602 9.16699 2.49902 13.5s0.5 8.83301 0.5 13.5c0 10 -1 19.667 -3 29s-5.66699 18 -11 26c-6 10 -13.333 17.5 -22 22.5s-18.667 7.5 -30 7.5h-32.5h-31.5l17 51c7.33301 0 14.833 0.5 22.5 1.5s15.167 2.16699 22.5 3.5
c32.667 6 62.167 18.167 88.5 36.5s38.833 46.166 37.5 83.499c-0.666992 17.333 -5.16699 30 -13.5 38s-21.5 12 -39.5 12c-2 0 -4.16699 -0.166992 -6.5 -0.5s-4.5 -0.5 -6.5 -0.5c-12.667 -2 -24.667 -6.83301 -36 -14.5s-19 -17.5 -23 -29.5
c-0.666992 -2 -1.16699 -4 -1.5 -6s-0.5 -3.66699 -0.5 -5c0.666992 -6.66699 3.5 -11.667 8.5 -15s10.5 -6.33301 16.5 -9c0.666992 0 1.33398 -0.166992 2.00098 -0.5l1 -0.5c2 -0.666992 3.66699 -1.33398 5 -2.00098l4 -2l-11.5 -10
c-3.66699 -3.33301 -7.5 -6.33301 -11.5 -9c-9.33301 -7.33301 -19 -13 -29 -17s-21.667 -6 -35 -6h-6.5c-2.33301 0 -4.83301 0.333008 -7.5 1c-16.667 2 -30.334 9.5 -41.001 22.5s-16 27.5 -16 43.5v4c0 1.33301 0.333008 2.66602 1 3.99902
c0 1.33301 0.166992 2.66602 0.5 3.99902s0.5 2.66602 0.5 3.99902c7.33301 24.667 23.166 43.834 47.499 57.501s50.166 23.167 77.499 28.5c16 3.33301 31.5 5.66602 46.5 6.99902s28.5 2 40.5 2c10.667 0 22.667 -0.5 36 -1.5s26.666 -2.83301 39.999 -5.5
c29.333 -6 56.166 -16.5 80.499 -31.5s36.5 -37.167 36.5 -66.5v-2.5v-2.5c-0.666992 -1.33301 -1 -2.33301 -1 -3v-3v0z" />
    <glyph glyph-name="four" unicode="4" horiz-adv-x="590" 
d="M564 375l-49.5 -142.5l-48.5 -142.5h88l-22 -64h-89l-80 -235h-197l86 235h-197l-28 64l339 285h198v0zM346 279l-223 -189h153l70 189v0z" />
    <glyph glyph-name="five" unicode="5" horiz-adv-x="668" 
d="M637 401c-4.66699 -25.333 -10.8379 -48.167 -18.5049 -68.5s-23.167 -38.5 -46.5 -54.5c-18.667 -12.667 -38.834 -21.334 -60.501 -26.001s-43.5 -7 -65.5 -7c-6 0 -12.167 0.166992 -18.5 0.5s-12.833 0.5 -19.5 0.5l-19.5 2l-18.5 2
c-6.66699 1.33301 -12.667 2.33301 -18 3s-10 0.666992 -14 0h-7c-2 0 -3.66699 -0.333008 -5 -1c-19.333 -3.33301 -33.166 -12.333 -41.499 -27s-15.166 -30.334 -20.499 -47.001c0 -1.33301 -0.333008 -2.66602 -1 -3.99902s-1 -2.66602 -1 -3.99902
c-1.33301 -3.33301 -2.33301 -6.5 -3 -9.5s-1.66699 -5.83301 -3 -8.5c17.333 9.33301 35.5 16.666 54.5 21.999s38.5 8.33301 58.5 9c2.66699 0.666992 5.5 1 8.5 1h8.5h6.5h6.5c22 -1.33301 43.5 -5.33301 64.5 -12s40.5 -16.334 58.5 -29.001
c24.667 -17.333 42.334 -36.666 53.001 -57.999s16 -43.666 16 -66.999v-5.5v-4.5c-2.66699 -36 -17.167 -70.833 -43.5 -104.5s-58.833 -58.834 -97.5 -75.501c-23.333 -10 -52.166 -18.667 -86.499 -26s-69.833 -11.666 -106.5 -12.999h-7.5h-7.5
c-32.667 0 -64.167 3.33301 -94.5 10s-56.166 17.667 -77.499 33c-10.667 8.66699 -19.334 19.167 -26.001 31.5s-11 24.833 -13 37.5c-0.666992 2 -1 4.16699 -1 6.5v6.5c0 13.333 3.33301 26.166 10 38.499s16.667 22.166 30 29.499c8.66699 4.66699 16.834 8 24.501 10
s15.167 3 22.5 3c16 0 31 -4 45 -12s27 -18 39 -30l-3.5 -3.5c-1 -1 -2.16699 -1.83301 -3.5 -2.5c-9.33301 -8.66699 -18 -17.834 -26 -27.501s-12 -19.5 -12 -29.5c0 -3.33301 0.5 -6.5 1.5 -9.5s2.5 -6.16699 4.5 -9.5s4.5 -6.5 7.5 -9.5s6.83301 -6.16699 11.5 -9.5
c8.66699 -5.33301 17.334 -9.33301 26.001 -12s17.334 -4 26.001 -4h2.5h2.5c26.667 1.33301 52.167 11.333 76.5 30s42.833 39.334 55.5 62.001c1.33301 1.33301 2.5 2.83301 3.5 4.5s1.83301 3.5 2.5 5.5c4.66699 8.66699 8.66699 17.834 12 27.501s6 19.5 8 29.5l2 16.5
c0.666992 5.66699 1 11.167 1 16.5c0 22.667 -5.83301 42.167 -17.5 58.5s-31.834 24.833 -60.501 25.5c-26 0.666992 -47.167 -6.16602 -63.5 -20.499s-30.833 -31.5 -43.5 -51.5l-46 19l118 341c23.333 -13.333 48.333 -23 75 -29s53.667 -9 81 -9h11.5
c3.66699 0 7.16699 0.333008 10.5 1c30 1.33301 59.667 5.5 89 12.5s57.333 15.5 84 25.5v0z" />
    <glyph glyph-name="six" unicode="6" horiz-adv-x="656" 
d="M608 520c3.33301 -4 6.33301 -7.83301 9 -11.5s4.66699 -7.5 6 -11.5s2.33301 -7.83301 3 -11.5s1 -7.5 1 -11.5c0 -20 -8.83301 -38.167 -26.5 -54.5s-37.5 -27.166 -59.5 -32.499c-2 -0.666992 -4.16699 -1.16699 -6.5 -1.5s-4.83301 -0.5 -7.5 -0.5h-2.5h-2.5
c-0.666992 -0.666992 -1.5 -1 -2.5 -1h-2.5c-4 0 -8 0.333008 -12 1l-12 2c-11.333 2 -22 5.66699 -32 11s-17 12.666 -21 21.999c-0.666992 3.33301 -1.83398 6.5 -3.50098 9.5s-3.16699 5.83301 -4.5 8.5c1.33301 0.666992 2.5 1.16699 3.5 1.5s2.16699 0.833008 3.5 1.5
c0.666992 0 1.33398 0.166992 2.00098 0.5s1.66699 0.5 3 0.5c10 4 19.667 8.66699 29 14s16.333 13.333 21 24c1.33301 3.33301 2.33301 6.16602 3 8.49902s1 4.5 1 6.5c-0.666992 8.66699 -5.16699 14.667 -13.5 18s-17.5 5 -27.5 5
c-37.333 0 -71.666 -13.667 -102.999 -41s-56.666 -57.666 -75.999 -90.999c-4.66699 -8 -8.83398 -15.833 -12.501 -23.5s-6.83398 -15.167 -9.50098 -22.5c16 6.66699 32.833 11.834 50.5 15.501s35.5 5.5 53.5 5.5c26.667 0 52.167 -4.5 76.5 -13.5
s44.833 -23.833 61.5 -44.5c11.333 -14.667 19.666 -29.834 24.999 -45.501s8 -31.5 8 -47.5v-2.5v-3.5c-2 -34.667 -13.333 -68.167 -34 -100.5s-46 -57.5 -76 -75.5c-22 -13.333 -45.667 -23.833 -71 -31.5s-50.666 -12.5 -75.999 -14.5h-8h-8
c-35.333 0 -69.5 6.83301 -102.5 20.5s-60.5 35.834 -82.5 66.501c-14.667 20.667 -25.5 42.667 -32.5 66s-10.5 47 -10.5 71v6.5v6.5c2 33.333 9.16699 66.166 21.5 98.499s28.5 61.833 48.5 88.5c40.667 53.333 92 94 154 122s126.333 42 193 42
c10 0 20.5 -0.333008 31.5 -1s22.167 -2 33.5 -4c18 -3.33301 35.5 -8.5 52.5 -15.5s31.5 -16.833 43.5 -29.5v0zM378 220c0 4.66699 -0.167969 9.33203 -0.500977 13.999s-1.16602 9.66699 -2.49902 15c-2.66699 14.667 -8 28.167 -16 40.5s-20.333 18.5 -37 18.5
c-22.667 0 -43 -9.33301 -61 -28s-33 -39.334 -45 -62.001c-5.33301 -10 -10 -20 -14 -30s-7 -19 -9 -27c-1.33301 -5.33301 -2.5 -10.833 -3.5 -16.5s-1.5 -11.5 -1.5 -17.5c-0.666992 -2.66699 -1 -5.5 -1 -8.5v-8.5v-5.5v-5.5c0.666992 -8.66699 2 -17.167 4 -25.5
s5 -16.166 9 -23.499c5.33301 -10 11.833 -17.167 19.5 -21.5s15.5 -6.16602 23.5 -5.49902c2.66699 0 5.16699 0.166992 7.5 0.5s4.5 0.833008 6.5 1.5c10.667 2.66699 21.167 7.66699 31.5 15s19.5 15.333 27.5 24c14.667 16 27.167 34.667 37.5 56s17.5 43 21.5 65
l2 17.5c0.666992 5.66699 1 11.5 1 17.5v0z" />
    <glyph glyph-name="seven" unicode="7" horiz-adv-x="581" 
d="M555 375l-466 -590l-62 44l342 406l-297 -2l50 142h433v0z" />
    <glyph glyph-name="eight" unicode="8" horiz-adv-x="595" 
d="M569 468c0 -28 -10.3369 -52.3311 -31.0039 -72.998s-43 -38 -67 -52l-21 -10c-6.66699 -3.33301 -13 -6.33301 -19 -9c16 -15.333 28.833 -33.833 38.5 -55.5s15.834 -43.834 18.501 -66.501c0 -3.33301 0.166992 -6.83301 0.5 -10.5s0.5 -7.16699 0.5 -10.5
c0 -8 -0.5 -15.833 -1.5 -23.5s-2.5 -15.167 -4.5 -22.5c-12 -44.667 -39.333 -79.834 -82 -105.501s-88.667 -41.5 -138 -47.5c-7.33301 -1.33301 -14.666 -2.16602 -21.999 -2.49902s-14.666 -0.5 -21.999 -0.5c-16.667 0 -32.834 1.16699 -48.501 3.5
s-30.167 6.16602 -43.5 11.499c-27.333 10 -50.833 26 -70.5 48s-29.5 48.333 -29.5 79c0 38.667 14.667 70.667 44 96s61.333 45 96 59c8.66699 3.33301 17.334 6.5 26.001 9.5s17 5.5 25 7.5c-14 14.667 -24.833 31.167 -32.5 49.5s-11.5 37.5 -11.5 57.5
c0 7.33301 0.666992 15 2 23s3.33301 16 6 24c11.333 32 34.5 58 69.5 78s72.5 33 112.5 39c9.33301 1.33301 18.333 2.33301 27 3s17.334 1 26.001 1c14 0 27.5 -0.833008 40.5 -2.5s24.833 -4.5 35.5 -8.5c20 -6.66699 37.667 -17.5 53 -32.5s23 -33.833 23 -56.5v0z
M305.996 118.002c0.666992 4 1.16406 7.83594 1.49707 11.5029s0.5 7.16699 0.5 10.5c0 19.333 -4.33301 37.166 -13 53.499s-19.667 32.166 -33 47.499c-1.33301 1.33301 -2.66602 2.83301 -3.99902 4.5s-2.66602 3.16699 -3.99902 4.5
c-27.333 -11.333 -52.666 -24.833 -75.999 -40.5s-41.333 -38.167 -54 -67.5c-2.66699 -6 -4.5 -12 -5.5 -18s-1.5 -12.333 -1.5 -19c0 -20 6.5 -37.833 19.5 -53.5s30.833 -23.5 53.5 -23.5c28.667 0 54 7.66699 76 23s35.333 37.666 40 66.999v0zM475.993 442.005
c1.33301 3.33301 2.5 6.66406 3.5 9.99707s1.5 6.66602 1.5 9.99902c0.666992 1.33301 1 3 1 5v5c0 12.667 -3.5 24 -10.5 34s-18.167 15 -33.5 15c-20.667 0 -38.334 -5.5 -53.001 -16.5s-25.667 -26.5 -33 -46.5c-0.666992 -1.33301 -1.16699 -2.66602 -1.5 -3.99902
s-0.5 -2.66602 -0.5 -3.99902c-0.666992 -2 -1 -3.66699 -1 -5v-4c0.666992 -12 4.5 -23.667 11.5 -35s14.833 -22.333 23.5 -33c1.33301 -1.33301 2.5 -2.66602 3.5 -3.99902s2.16699 -2.66602 3.5 -3.99902c2 1.33301 4.16699 2.5 6.5 3.5s4.5 2.16699 6.5 3.5
c16 8.66699 29.833 18 41.5 28s21.834 24 30.501 42v0z" />
    <glyph glyph-name="nine" unicode="9" horiz-adv-x="665" 
d="M633 148c-4.66699 -82 -37.832 -152.997 -99.499 -212.997s-130.167 -99.667 -205.5 -119c-16.667 -4.66699 -35.5 -8.5 -56.5 -11.5s-42.5 -4.5 -64.5 -4.5c-30.667 0.666992 -60.167 4.5 -88.5 11.5s-51.166 20.167 -68.499 39.5c-3.33301 4 -6.33301 7.83301 -9 11.5
s-4.66699 7.5 -6 11.5c-2 4 -3.33301 7.83301 -4 11.5s-1 7.5 -1 11.5c0.666992 20.667 10 39.167 28 55.5s37.667 27.166 59 32.499c2.66699 0.666992 5 1.16699 7 1.5s4 0.5 6 0.5c4.66699 0.666992 10 0.666992 16 0s12.333 -1.66699 19 -3
c10.667 -2 21 -5.83301 31 -11.5s16.667 -12.834 20 -21.501c2 -5.33301 3.66699 -9.16602 5 -11.499s2 -4.16602 2 -5.49902c0 -0.666992 -0.333008 -1.33398 -1 -2.00098s-1.66699 -1.33398 -3 -2.00098c-1.33301 0 -3 -0.333008 -5 -1s-4.66699 -1.33398 -8 -2.00098
c-10 -3.33301 -18.833 -8.16602 -26.5 -14.499s-13.167 -13.166 -16.5 -20.499c-1.33301 -2.66699 -2.33301 -5.16699 -3 -7.5s-1 -4.83301 -1 -7.5c0 -7.33301 3.16699 -13.333 9.5 -18s16.833 -7 31.5 -7c36.667 0 70.667 13.667 102 41s56.666 57.666 75.999 90.999
c4.66699 8 9 15.833 13 23.5s7.33301 15.167 10 22.5c-16 -6.66699 -32.833 -12 -50.5 -16s-35.5 -6 -53.5 -6c-26.667 0 -52 4.66699 -76 14s-44.667 24.666 -62 45.999c-11.333 14 -19.666 28.833 -24.999 44.5s-8 31.5 -8 47.5v3.5v2.5
c1.33301 35.333 12.666 69 33.999 101s46.666 57.333 75.999 76c19.333 12.667 40 22.667 62 30s44 12 66 14c5.33301 0.666992 10.833 1.16699 16.5 1.5s11.167 0.5 16.5 0.5c64 0 120.667 -20.333 170 -61s71.333 -100.667 66 -180v0zM463.002 210.003
c1.33301 6.66699 2.66797 14.502 4.00098 23.502s2 18.167 2 27.5v2.5v2.5c-0.666992 19.333 -4.83398 37 -12.501 53s-21.5 24 -41.5 24c-23.333 0 -44.5 -9.5 -63.5 -28.5s-34.5 -40.167 -46.5 -63.5c-4.66699 -8.66699 -8.5 -17.334 -11.5 -26.001s-5.5 -16.667 -7.5 -24
c-2 -6.66699 -3.5 -14.667 -4.5 -24s-1.5 -19 -1.5 -29v-2.5v-2.5c0.666992 -20 4.83398 -38.167 12.501 -54.5s21.5 -24.5 41.5 -24.5c23.333 0 44.333 9.66699 63 29s33.667 40.333 45 63c5.33301 9.33301 9.66602 18.666 12.999 27.999s6 18 8 26v0z" />
    <glyph glyph-name="colon" unicode=":" horiz-adv-x="352" 
d="M238 37c-1.33301 -20 -9.66895 -35.332 -25.002 -45.999s-32.333 -18 -51 -22c-6 -1.33301 -12.167 -2.33301 -18.5 -3s-12.166 -1 -17.499 -1c-4.66699 0 -9.16699 0.166992 -13.5 0.5s-8.83301 1.16602 -13.5 2.49902c-20.667 4 -39.5 12.5 -56.5 25.5
s-24.833 31.167 -23.5 54.5c1.33301 22 10.333 38.333 27 49s34.667 17.667 54 21c4.66699 0.666992 9.33398 1.16699 14.001 1.5s9 0.5 13 0.5c5.33301 0 11 -0.333008 17 -1s12.333 -2 19 -4c19.333 -4.66699 37 -13.5 53 -26.5s23.333 -30.167 22 -51.5v0z
M307.997 275.001c-1.33301 -24.667 -13.1709 -43.1689 -35.5039 -55.502s-46.833 -18.166 -73.5 -17.499h-2.5h-2.5c-27.333 0.666992 -52.166 8 -74.499 22s-32.5 34.667 -30.5 62c0.666992 22 9.33398 38.5 26.001 49.5s34.667 17.833 54 20.5
c4.66699 0.666992 9.33398 1.16699 14.001 1.5s9 0.5 13 0.5c5.33301 0 11 -0.333008 17 -1s11.667 -1.66699 17 -3c20 -4.66699 38.333 -13.667 55 -27s24.334 -30.666 23.001 -51.999v0z" />
    <glyph glyph-name="semicolon" unicode=";" horiz-adv-x="352" 
d="M230 110c14.667 -10 25.165 -21.502 31.498 -34.502s9.5 -26.167 9.5 -39.5c0 -2.66699 -0.166992 -5.5 -0.5 -8.5s-0.833008 -5.83301 -1.5 -8.5c-3.33301 -18 -11.166 -35.833 -23.499 -53.5s-27.166 -32.167 -44.499 -43.5
c-23.333 -15.333 -48.333 -26.666 -75 -33.999s-53.667 -12 -81 -14l-29 50c0.666992 0.666992 1.33398 1 2.00098 1h2h10c3.33301 0 6.66602 0.333008 9.99902 1c16.667 0.666992 32.667 2.66699 48 6s29.333 10.333 42 21c3.33301 2.66699 5.83301 5.33398 7.5 8.00098
s2.5 5 2.5 7c-0.666992 4.66699 -4.16699 8.66699 -10.5 12s-13.5 6 -21.5 8c-0.666992 0 -1.5 0.166992 -2.5 0.5s-1.83301 0.5 -2.5 0.5c-1.33301 0 -2.66602 0.166992 -3.99902 0.5s-2.33301 0.833008 -3 1.5c-17.333 4.66699 -32.833 12.5 -46.5 23.5
s-20.167 26.5 -19.5 46.5c1.33301 26 13.166 44.667 35.499 56s46.833 17 73.5 17h3.5h3.5c16 -0.666992 31.5 -3.16699 46.5 -7.5s27.5 -9.83301 37.5 -16.5v0zM335.998 274.998c-1.33301 -24.667 -13.1689 -43.168 -35.502 -55.501s-46.833 -18.166 -73.5 -17.499h-2.5
h-2.5c-27.333 0.666992 -52.166 8 -74.499 22s-32.5 34.667 -30.5 62c1.33301 22 10.333 38.333 27 49s34.667 17.667 54 21c4.66699 0.666992 9.33398 1.16699 14.001 1.5s9 0.5 13 0.5c5.33301 0 11 -0.333008 17 -1s12.333 -2 19 -4c19.333 -4.66699 37 -13.5 53 -26.5
s23.333 -30.167 22 -51.5v0z" />
    <glyph glyph-name="less" unicode="&#x3c;" horiz-adv-x="500" 
 />
    <glyph glyph-name="equal" unicode="=" horiz-adv-x="500" 
 />
    <glyph glyph-name="greater" unicode="&#x3e;" horiz-adv-x="500" 
 />
    <glyph glyph-name="question" unicode="?" horiz-adv-x="707" 
d="M269 37c-1.33301 -24.667 -13.167 -42.834 -35.5 -54.501s-46.833 -17.5 -73.5 -17.5c-28.667 0.666992 -54.667 7.83398 -78 21.501s-34.333 34.167 -33 61.5c0.666992 22 9.5 38.5 26.5 49.5s35.833 17.833 56.5 20.5c4 0.666992 8.16699 1.16699 12.5 1.5
s8.5 0.5 12.5 0.5c5.33301 0 11 -0.333008 17 -1s12.333 -2 19 -4c19.333 -4.66699 37 -13.5 53 -26.5s23.667 -30.167 23 -51.5v0zM672.999 392c-8.66699 -50.667 -35.668 -82.5 -81.001 -95.5s-95.333 -22.167 -150 -27.5
c-3.33301 -0.666992 -6.83301 -1.16699 -10.5 -1.5s-7.5 -0.5 -11.5 -0.5c-45.333 -4.66699 -88.166 -13.167 -128.499 -25.5s-67.166 -37.833 -80.499 -76.5l-3 -13h-59c0 1.33301 0.166992 2.33301 0.5 3s0.5 1.66699 0.5 3v2.5v2.5v2.5c0 1 0.333008 1.83301 1 2.5v2.5
v2.5c5.33301 32 20.166 57 44.499 75s51.5 35 81.5 51c1.33301 0.666992 2.83301 1.5 4.5 2.5s3.5 1.83301 5.5 2.5l21.5 10.5c7.66699 3.66699 15.5 7.83398 23.5 12.501c22 12.667 42.333 28.167 61 46.5s28 40.166 28 65.499c0 20 -7.33301 35.167 -22 45.5
s-30.667 16.833 -48 19.5c-4.66699 0.666992 -9.16699 1.16699 -13.5 1.5s-8.5 0.5 -12.5 0.5c-5.33301 0 -10.666 -0.333008 -15.999 -1s-11 -1.33398 -17 -2.00098c-18.667 -4 -36.667 -11.667 -54 -23s-29.333 -26 -36 -44c-1.33301 -3.33301 -2.33301 -6.5 -3 -9.5
s-1 -6.16699 -1 -9.5c0 -8.66699 3 -15.667 9 -21s13.333 -10.333 22 -15c2 -1.33301 4.16699 -2.5 6.5 -3.5s4.5 -2.16699 6.5 -3.5c-2.66699 -2.66699 -5.5 -5.16699 -8.5 -7.5l-8.5 -6.5c-11.333 -9.33301 -23 -17.166 -35 -23.499s-26.333 -10.166 -43 -11.499h-8.5
h-8.5c-24.667 2 -47.167 11.167 -67.5 27.5s-30.5 37.833 -30.5 64.5c0 4.66699 0.5 9.5 1.5 14.5s2.5 10.167 4.5 15.5c10.667 26.667 40.5 51.334 89.5 74.001s128.833 34 239.5 34c21.333 0 42.166 -0.833008 62.499 -2.5s39.833 -3.83398 58.5 -6.50098
c10 -2 20.833 -4.33301 32.5 -7s23.5 -6 35.5 -10c30 -10.667 57.333 -25.5 82 -44.5s37 -44.167 37 -75.5c0 -2.66699 -0.166992 -5.33398 -0.5 -8.00098s-0.833008 -5.66699 -1.5 -9v0z" />
    <glyph glyph-name="at" unicode="@" horiz-adv-x="975" 
d="M963 374c-8 -56 -25.8301 -108.671 -53.4971 -158.004s-62.5 -90.666 -104.5 -123.999c-6.66699 -5.33301 -13.167 -10.166 -19.5 -14.499s-12.833 -8.5 -19.5 -12.5c-20 -12 -39.667 -20.667 -59 -26s-38.333 -8 -57 -8c-28 0 -50.833 5.33301 -68.5 16
s-30.167 26.334 -37.5 47.001c-22.667 -21.333 -46.167 -37.166 -70.5 -47.499s-49.166 -15.5 -74.499 -15.5c-42.667 0 -77 14 -103 42s-39 66.333 -39 115c0 5.33301 0.333008 11.166 1 17.499l2 19.5c1.33301 9.33301 3.33301 18.833 6 28.5s5.66699 19.5 9 29.5
c10.667 28.667 25.834 57.167 45.501 85.5s43.167 54.5 70.5 78.5c11.333 9.33301 22.666 17.833 33.999 25.5s22.666 14.167 33.999 19.5c19.333 10 38.333 17.333 57 22s36.667 7 54 7c21.333 0 39.833 -3.5 55.5 -10.5s28.834 -17.167 39.501 -30.5l14 34h133l-142 -336
c-0.666992 -2.66699 -1.5 -5.16699 -2.5 -7.5s-1.83301 -5.16602 -2.5 -8.49902c-2 -4 -3.66699 -8.33301 -5 -13s-2.33301 -10 -3 -16v-0.5v-1.5v-2v-2c0 -4.66699 1 -8.16699 3 -10.5s5.33301 -3.5 10 -3.5c7.33301 0 17 2.16699 29 6.5s24.333 10.833 37 19.5
c39.333 26.667 71.5 60.834 96.5 102.501s41.167 88.5 48.5 140.5c1.33301 7.33301 2.16602 14.666 2.49902 21.999s0.5 14.333 0.5 21c0 31.333 -5.33301 59.833 -16 85.5s-26.667 49.167 -48 70.5c-23.333 23.333 -52.833 41.5 -88.5 54.5s-74.834 19.5 -117.501 19.5
c-56.667 0 -109.5 -8.83301 -158.5 -26.5s-94.5 -44.167 -136.5 -79.5c-44.667 -38 -80.667 -82.5 -108 -133.5s-45.333 -107.167 -54 -168.5c-1.33301 -10.667 -2.5 -20.834 -3.5 -30.501s-1.5 -19.167 -1.5 -28.5c0.666992 -36.667 7.16699 -69.667 19.5 -99
s31.166 -56.666 56.499 -81.999c30.667 -28.667 67.167 -50.5 109.5 -65.5s89.833 -22.5 142.5 -22.5c49.333 0 100 8.66699 152 26s108.333 45.666 169 84.999l44 -65c-66.667 -43.333 -129.667 -75.5 -189 -96.5s-118 -32.5 -176 -34.5h-8.5h-9.5
c-65.333 0 -123.5 8.16699 -174.5 24.5s-94.833 40.166 -131.5 71.499c-38.667 33.333 -68.167 72.333 -88.5 117s-30.5 94 -30.5 148c0 11.333 0.5 22.5 1.5 33.5s2.16699 22.167 3.5 33.5c10 70.667 34.167 136.834 72.5 198.501s89.833 116.167 154.5 163.5
c50.667 38 105 66.667 163 86s118.333 29 181 29c111.333 0 198.166 -27.667 260.499 -83s93.5 -129.666 93.5 -222.999c0 -9.33301 -0.333008 -19 -1 -29s-1.66699 -20 -3 -30v0zM603.003 366.996c0.666992 3.33301 1.16797 6.66699 1.50098 10s0.5 6.33301 0.5 9
c-0.666992 16 -4.66699 29.167 -12 39.5s-17.666 15.5 -30.999 15.5c-8 0 -15.333 -1.33301 -22 -4s-13.334 -6.66699 -20.001 -12c-5.33301 -4.66699 -10.666 -9.83398 -15.999 -15.501s-11 -12.167 -17 -19.5c-9.33301 -11.333 -18.166 -23.166 -26.499 -35.499
s-16.166 -24.5 -23.499 -36.5c-14 -24.667 -25.333 -48.667 -34 -72s-14.334 -44.333 -17.001 -63c-0.666992 -3.33301 -1.16699 -6.83301 -1.5 -10.5s-0.5 -7.16699 -0.5 -10.5c0.666992 -14.667 3.83398 -26.167 9.50098 -34.5s14.167 -12.5 25.5 -12.5
c7.33301 0 14.666 1.16699 21.999 3.5s14.666 5.83301 21.999 10.5c9.33301 6 19 14 29 24s20 21.667 30 35c7.33301 9.33301 14.166 19.166 20.499 29.499s12.166 20.5 17.499 30.5c12 21.333 21.5 42.333 28.5 63s11.833 39.334 14.5 56.001v0z" />
    <glyph glyph-name="A" unicode="A" horiz-adv-x="843" 
d="M931 209c-4 -51.333 -27.8457 -97.0049 -71.5127 -137.005s-91.167 -63.333 -142.5 -70c-4 0 -8.16699 -0.166992 -12.5 -0.5s-8.5 -0.5 -12.5 -0.5c-17.333 0 -34.166 2.5 -50.499 7.5s-32.166 12.833 -47.499 23.5c-24 18 -39.5 39.333 -46.5 64
s-12.167 50.334 -15.5 77.001c-0.666992 2 -1.16699 4.16699 -1.5 6.5s-0.5 4.5 -0.5 6.5h-168l-24 -31.5c-8.66699 -11 -18 -22.167 -28 -33.5c-25.333 -30 -54.166 -57.333 -86.499 -82s-65.833 -37 -100.5 -37h-3.5h-3.5c-1.33301 0 -2.5 0.166992 -3.5 0.5
s-2.16699 0.5 -3.5 0.5c-31.333 3.33301 -55.666 16.333 -72.999 39s-26 48.334 -26 77.001v3.5c0 1 0.333008 1.83301 1 2.5v3.5v2.5h0.5h1.5c2 0 4.5 0.166992 7.5 0.5s6.5 0.833008 10.5 1.5v0v0c4 0.666992 7.5 1.16699 10.5 1.5s5.5 0.5 7.5 0.5
c0.666992 -11.333 5.33398 -20 14.001 -26s18.334 -10 29.001 -12c2.66699 0 5.33398 -0.166992 8.00098 -0.5s5.33398 -0.5 8.00098 -0.5c21.333 0 40.833 4.83301 58.5 14.5s33.834 21.167 48.501 34.5c49.333 46 94.833 95.333 136.5 148l122.5 160l6.5 9l6.5 9
c-0.666992 14 -5.33398 25.833 -14.001 35.5s-19.667 16.834 -33 21.501c-5.33301 2 -11 3.5 -17 4.5s-12.333 1.16699 -19 0.5c-4.66699 0 -9.5 -0.333008 -14.5 -1l-15.5 -2c-30.667 -6.66699 -59.167 -21.167 -85.5 -43.5s-41.166 -48.166 -44.499 -77.499v-2.5v-3.5
c-0.666992 -0.666992 -1 -1.5 -1 -2.5v-2.5c0.666992 -22.667 9 -38.167 25 -46.5s33.333 -13.833 52 -16.5l12 -2c4 -0.666992 8 -1 12 -1c0.666992 -0.666992 1.5 -1 2.5 -1h2.5c-2 -1.33301 -4 -2.83301 -6 -4.5s-4 -3.5 -6 -5.5c-16 -14 -32.833 -26.833 -50.5 -38.5
s-38.167 -17.834 -61.5 -18.501c-32 -0.666992 -56.167 10 -72.5 32s-24.5 47 -24.5 75c0 7.33301 0.666992 14.833 2 22.5s3.33301 15.167 6 22.5c16 46.667 45.667 82.667 89 108s89.333 43 138 53c21.333 4.66699 42.333 8 63 10s40.334 3 59.001 3
c77.333 0 139 -18.833 185 -56.5s71.667 -96.167 77 -175.5c0.666992 -6 1 -12.167 1 -18.5s0.333008 -12.5 1 -18.5c0 -6.66699 0.166992 -13.667 0.5 -21s0.833008 -14.666 1.5 -21.999c1.33301 -22 3.33301 -44 6 -66s7 -43.667 13 -65
c2.66699 -9.33301 6.5 -16 11.5 -20s10.5 -6 16.5 -6c2.66699 0 5.33398 0.5 8.00098 1.5s5.33398 1.83301 8.00098 2.5l7 4.5c2.66699 1.66699 5.33398 3.5 8.00098 5.5c10.667 8 20.667 18.833 30 32.5s16.333 29.834 21 48.501l51 -7v0zM518.987 250.995
c-2 12.667 -3.83301 25.332 -5.5 37.999s-3.16699 25.334 -4.5 38.001c-2 12 -3.66699 24.333 -5 37l-4 38l-42.5 -71.5l-49.5 -79.5h111v0z" />
    <glyph glyph-name="B" unicode="B" horiz-adv-x="883" 
d="M910 454c0 -31.333 -11.4961 -57.3242 -34.4961 -77.9912s-48.167 -36.334 -75.5 -47.001c-5.33301 -2 -10.5 -3.83301 -15.5 -5.5s-9.83301 -3.16699 -14.5 -4.5c32.667 -12.667 59.334 -30 80.001 -52s30.667 -50 30 -84
c-0.666992 -30.667 -10.334 -57.334 -29.001 -80.001s-40.667 -41.334 -66 -56.001c-24.667 -14 -52.334 -25.167 -83.001 -33.5s-62.334 -12.833 -95.001 -13.5h-5h-6c-30.667 0 -61 4 -91 12s-56.667 20.333 -80 37c-18.667 -14 -40 -24.5 -64 -31.5
s-48.333 -11.167 -73 -12.5c-3.33301 -0.666992 -6.66602 -1 -9.99902 -1h-10c-10.667 0 -21.334 0.5 -32.001 1.5s-20.667 2.5 -30 4.5c-8.66699 1.33301 -16.834 3.33301 -24.501 6s-15.167 5.66699 -22.5 9c-4 2 -8 4.16699 -12 6.5s-8 4.5 -12 6.5l4 4l4 4
c11.333 11.333 21.5 23.166 30.5 35.499s16.167 26.166 21.5 41.499l26 76l27 77l26 76l26 76c5.33301 14.667 11.833 29 19.5 43s16.167 27.333 25.5 40c-8.66699 -2.66699 -17.834 -5.66699 -27.501 -9s-19.167 -7.33301 -28.5 -12c-26.667 -13.333 -51.5 -30 -74.5 -50
s-38.167 -42.333 -45.5 -67c-2 -6 -3.33301 -11.5 -4 -16.5s-1 -9.5 -1 -13.5c0 -8.66699 2 -15.667 6 -21s9.66699 -10.333 17 -15c4 -2.66699 8.33301 -5.33398 13 -8.00098l15 -9c-2.66699 -2.66699 -5.16699 -5.33398 -7.5 -8.00098l-7.5 -9
c-9.33301 -10.667 -21.166 -19.5 -35.499 -26.5s-28.833 -11.167 -43.5 -12.5h-6.5h-6.5c-17.333 0 -34 4.16699 -50 12.5s-28.333 21.166 -37 38.499c-2.66699 6 -4.83398 12.5 -6.50098 19.5s-2.5 14.5 -2.5 22.5c0 9.33301 1 18.666 3 27.999s5.33301 19.333 10 30
c13.333 30 36.5 57.667 69.5 83s72.167 47.333 117.5 66c45.333 18 95.333 32.167 150 42.5s110.667 15.5 168 15.5c58.667 0 111.667 -2.5 159 -7.5s87.333 -13.167 120 -24.5l6 -2c2 -0.666992 4 -1.66699 6 -3c22.667 -8.66699 43.167 -21 61.5 -37
s27.5 -37.333 27.5 -64v0zM644.004 219.009c0 27.333 -8.16504 49.1699 -24.498 65.5029s-38.5 24.5 -66.5 24.5c-2.66699 0 -5.5 -0.166992 -8.5 -0.5s-5.83301 -0.5 -8.5 -0.5c-3.33301 -0.666992 -6.33301 -1.33398 -9 -2.00098s-5.66699 -1.33398 -9 -2.00098l-68 -199
c8.66699 -7.33301 18 -12.666 28 -15.999s20.333 -5 31 -5c16 0 31.667 3.16699 47 9.5s28.666 14.5 39.999 24.5c15.333 13.333 27.166 28.666 35.499 45.999s12.5 35.666 12.5 54.999v0zM739.006 489.013c0 18 -6.16504 29.667 -18.498 35s-26.5 8 -42.5 8
c-26.667 0 -49.834 -9 -69.501 -27s-33.834 -39.333 -42.501 -64c-2 -6 -4.16699 -12.167 -6.5 -18.5s-4.5 -12.5 -6.5 -18.5c-2.66699 -6 -5.16699 -12.167 -7.5 -18.5s-4.5 -12.5 -6.5 -18.5h76c31.333 0 59.833 12.5 85.5 37.5s38.5 53.167 38.5 84.5v0z" />
    <glyph glyph-name="C" unicode="C" horiz-adv-x="563" 
d="M661 201c-40.667 -72.667 -90.4971 -124.328 -149.497 -154.995s-129.833 -46 -212.5 -46c-75.333 0 -142 23.833 -200 71.5s-87 111.834 -87 192.501c0 53.333 13.833 102.333 41.5 147s63.167 81.334 106.5 110.001c35.333 24.667 75.666 43.667 120.999 57
s92.333 20 141 20c8 0 15.833 -0.166992 23.5 -0.5s15.5 -0.833008 23.5 -1.5c27.333 -2 54.166 -6.83301 80.499 -14.5s49.833 -20.834 70.5 -39.501c10.667 -9.33301 18.334 -19.833 23.001 -31.5s7 -23.5 7 -35.5c0 -24.667 -9 -47.167 -27 -67.5
s-41.333 -30.833 -70 -31.5c-16.667 -0.666992 -31.334 2.16602 -44.001 8.49902s-24.667 14.166 -36 23.499c-2.66699 2 -5.33398 4.16699 -8.00098 6.5s-5.33398 4.83301 -8.00098 7.5c2 0.666992 3.83301 1.5 5.5 2.5s3.5 1.83301 5.5 2.5
c13.333 7.33301 25 15.166 35 23.499s18 20.5 24 36.5c1.33301 2.66699 2.16602 5.16699 2.49902 7.5s0.5 4.83301 0.5 7.5c0 11.333 -4.66699 20 -14 26s-20.666 9 -33.999 9c-36 0 -68 -14.333 -96 -43s-51.667 -60.334 -71 -95.001
c-8 -14.667 -15.167 -29.334 -21.5 -44.001s-11.833 -28 -16.5 -40c-5.33301 -14.667 -10.333 -31.334 -15 -50.001s-7.33398 -37.334 -8.00098 -56.001v-5.5v-5.5c0 -24.667 4.83301 -47.667 14.5 -69s27.5 -36.666 53.5 -45.999
c9.33301 -3.33301 18.833 -5.83301 28.5 -7.5s19.5 -2.5 29.5 -2.5h7.5c2.33301 0 4.5 0.333008 6.5 1c41.333 2.66699 80.666 17.167 117.999 43.5s65 56.833 83 91.5c0.666992 1.33301 1.33398 2.5 2.00098 3.5s1.33398 2.16699 2.00098 3.5
c0.666992 0.666992 1.33398 1.66699 2.00098 3l2 4l38 -14l20 -8v0z" />
    <glyph glyph-name="D" unicode="D" horiz-adv-x="993" 
d="M994 210c-28.667 -70 -75.8301 -121.335 -141.497 -154.002s-134.834 -50.667 -207.501 -54c-4.66699 -0.666992 -9.5 -1 -14.5 -1h-15.5c-22 0 -43.667 1.16699 -65 3.5s-42 5.83301 -62 10.5l-22.5 6c-7.66699 2 -14.834 4 -21.501 6
c-3.33301 0.666992 -6.5 1.66699 -9.5 3s-6.16699 2.33301 -9.5 3c-3.33301 -1.33301 -6.5 -2.66602 -9.5 -3.99902s-6.16699 -2.66602 -9.5 -3.99902c-2.66699 -1.33301 -5.5 -2.66602 -8.5 -3.99902s-6.16699 -2.66602 -9.5 -3.99902
c-23.333 -8.66699 -49.5 -16.167 -78.5 -22.5s-58.5 -10.166 -88.5 -11.499c-3.33301 -0.666992 -6.83301 -1 -10.5 -1h-11.5c-23.333 0.666992 -46.166 3.16699 -68.499 7.5s-42.833 11.166 -61.5 20.499c-16.667 9.33301 -29.667 20 -39 32s-15 24.333 -17 37
c-0.666992 1.33301 -1 2.83301 -1 4.5v4.5c0.666992 17.333 8.16699 33.333 22.5 48s35.166 25 62.499 31c9.33301 2 18.666 3.5 27.999 4.5s19 1.5 29 1.5c5.33301 0 10.5 -0.166992 15.5 -0.5s10.167 -0.833008 15.5 -1.5c16 -1.33301 31.5 -4 46.5 -8
s29.167 -9.33301 42.5 -16l33 91.5l31 91.5l16 46l16 46c4.66699 15.333 10.667 30.166 18 44.499s15.666 27.833 24.999 40.5c-9.33301 -2.66699 -19 -6 -29 -10s-20 -8.66699 -30 -14c-25.333 -12.667 -49.166 -28.834 -71.499 -48.501s-37.166 -41.5 -44.499 -65.5
l-3.5 -16c-1 -4.66699 -1.5 -9 -1.5 -13c0.666992 -8.66699 3 -15.834 7 -21.501s10 -11.167 18 -16.5c3.33301 -2.66699 7.33301 -5.16699 12 -7.5s9.66699 -5.16602 15 -8.49902l-4 -4c-1.33301 -1.33301 -2.33301 -2.66602 -3 -3.99902
c-14.667 -15.333 -29.834 -27.666 -45.501 -36.999s-35.5 -13.333 -59.5 -12c-30 1.33301 -52.667 11.333 -68 30s-23 40.334 -23 65.001c0 9.33301 1 18.666 3 27.999s5 18.666 9 27.999c26 58 68.333 101.667 127 131s120.667 50 186 62
c33.333 5.33301 66.5 9.16602 99.5 11.499s63.833 3.5 92.5 3.5c11.333 0 22.833 -0.166992 34.5 -0.5s23.5 -0.833008 35.5 -1.5c42.667 -2 84.5 -7 125.5 -15s77.833 -20.667 110.5 -38c41.333 -22 71 -50.333 89 -85s27 -71.667 27 -111
c0 -8.66699 -0.333008 -17.167 -1 -25.5s-2 -16.833 -4 -25.5c-2 -12.667 -4.83301 -25.5 -8.5 -38.5s-8.16699 -25.5 -13.5 -37.5v0zM247.004 98.998c-10.667 3.33301 -22 6.16602 -34 8.49902s-24 3.83301 -36 4.5c-2.66699 0.666992 -5.5 1 -8.5 1h-9.5
c-9.33301 0 -18.666 -0.666992 -27.999 -2s-18.333 -3.66602 -27 -6.99902c-7.33301 -2.66699 -13.833 -6.16699 -19.5 -10.5s-9.5 -9.5 -11.5 -15.5c-0.666992 -0.666992 -1 -1.5 -1 -2.5v-3.5c0 -6.66699 3.33301 -11.667 10 -15s14.334 -6 23.001 -8
c4.66699 -0.666992 9.16699 -1.16699 13.5 -1.5s8.16602 -0.5 11.499 -0.5h12c4 0 8 0.333008 12 1c17.333 2.66699 34.166 8.66699 50.499 18s30.5 20.333 42.5 33v0zM784.004 505.998c-4.66699 11.333 -11.167 19.335 -19.5 24.002s-17.166 7 -26.499 7h-4.5
c-1.66699 0 -3.5 -0.333008 -5.5 -1c-8 -1.33301 -15.833 -4.16602 -23.5 -8.49902s-14.5 -9.5 -20.5 -15.5c-4 -3.33301 -7.83301 -7.33301 -11.5 -12s-7.5 -10 -11.5 -16c-7.33301 -11.333 -14.833 -25.333 -22.5 -42s-15.5 -36.334 -23.5 -59.001l-20 -59.5l-20 -58.5
c-2.66699 -6.66699 -5 -13.167 -7 -19.5s-4.33301 -12.833 -7 -19.5l-13.5 -39.5l-13.5 -39.5c-4.66699 -14 -11 -26.833 -19 -38.5s-17.333 -22.5 -28 -32.5c9.33301 -2.66699 18.5 -4.83398 27.5 -6.50098s17.833 -2.5 26.5 -2.5c47.333 0 88.5 18.5 123.5 55.5
s62.833 77.5 83.5 121.5c5.33301 11.333 10 22.5 14 33.5s7.66699 21.833 11 32.5c0.666992 2 1.33398 4.16699 2.00098 6.5s1.33398 4.83301 2.00098 7.5c3.33301 12 6.66602 25 9.99902 39s5.66602 28.333 6.99902 43c0.666992 5.33301 1.16699 11 1.5 17
s0.5 11.667 0.5 17c0 12 -0.833008 23.667 -2.5 35s-4.83398 21.666 -9.50098 30.999v0z" />
    <glyph glyph-name="E" unicode="E" horiz-adv-x="566" 
d="M662 195c-32.667 -76 -77.332 -128.333 -133.999 -157s-124.334 -43 -203.001 -43c-17.333 0 -36.666 0.833008 -57.999 2.5s-43 5.16699 -65 10.5c-48 10.667 -92 29.334 -132 56.001s-60 64.667 -60 114c0 45.333 17.5 82.666 52.5 111.999s73.5 49 115.5 59
c10 2 19.833 3.66699 29.5 5s19.167 2 28.5 2c-16.667 10 -30.334 22.833 -41.001 38.5s-16 33.167 -16 52.5c0 3.33301 0.166992 6.5 0.5 9.5s0.833008 6.16699 1.5 9.5c8.66699 37.333 29.334 65.333 62.001 84s67.667 31.667 105 39c18 4 35.833 6.66699 53.5 8
s33.834 2 48.501 2c11.333 0 25.166 -0.833008 41.499 -2.5s33.166 -4.5 50.499 -8.5c30 -6.66699 57.167 -17.667 81.5 -33s36.5 -37 36.5 -65v-3.5v-4.5c-2.66699 -21.333 -11.5 -36.5 -26.5 -45.5s-31.833 -13.167 -50.5 -12.5h-6.5c-2.33301 0 -4.83301 0.333008 -7.5 1
c-6.66699 0.666992 -13.334 1.83398 -20.001 3.50098s-13 3.83398 -19 6.50098l-16.5 7.5c-3.66699 1.66699 -6.16699 3.16699 -7.5 4.5s-0.166016 3.33301 3.50098 6l17.5 13c6.66699 5.33301 11.5 10.833 14.5 16.5s4.16699 10.834 3.5 15.501
c0 11.333 -5.66699 21.166 -17 29.499s-24.666 12.5 -39.999 12.5c-31.333 0 -59.5 -9.83301 -84.5 -29.5s-37.833 -46.167 -38.5 -79.5c-0.666992 -27.333 9 -44.5 29 -51.5s41.667 -10.5 65 -10.5h13h13c4 0.666992 8.16699 1 12.5 1h12.5h13.5h12.5l-18 -53h-12.5h-13.5
c-20.667 0.666992 -40.834 0.5 -60.501 -0.5s-39.167 -5.16699 -58.5 -12.5c-7.33301 -2 -14.333 -4.83301 -21 -8.5s-13.667 -7.83398 -21 -12.501c-16.667 -12 -30 -25.833 -40 -41.5s-16 -31.834 -18 -48.501c-0.666992 -2.66699 -1 -5.16699 -1 -7.5v-7.5
c0 -22.667 7.33301 -43.167 22 -61.5s37 -30.166 67 -35.499c6.66699 -0.666992 13.167 -1.5 19.5 -2.5s12.5 -1.5 18.5 -1.5c45.333 0 87.5 13.667 126.5 41s66.833 61.666 83.5 102.999l53 -26v0z" />
    <glyph glyph-name="F" unicode="F" horiz-adv-x="846" 
d="M955 514c0 -26 -12.4951 -43.8359 -37.4951 -53.5029s-52.167 -14.834 -81.5 -15.501h-5.5h-5.5c-17.333 0 -33.833 1 -49.5 3s-28.834 4 -39.501 6c-1.33301 0 -2.83301 0.166992 -4.5 0.5s-3.16699 0.833008 -4.5 1.5c-4.66699 -8 -8.66699 -16.667 -12 -26l-10 -28
c-0.666992 -2 -1.33398 -4.16699 -2.00098 -6.5s-1.33398 -4.83301 -2.00098 -7.5c-2 -4 -3.66699 -8.16699 -5 -12.5l-4 -12.5h107l-19 -53h-107c-18 -52.667 -38.667 -102.167 -62 -148.5s-60.666 -85.166 -111.999 -116.499c-34.667 -21.333 -74 -36.5 -118 -45.5
s-92.667 -13.5 -146 -13.5c-12 0 -25.5 0.666992 -40.5 2s-30.167 3.33301 -45.5 6c-34.667 6.66699 -66.5 19.167 -95.5 37.5s-43.5 45.833 -43.5 82.5c0 29.333 9.5 52.5 28.5 69.5s41.167 25.5 66.5 25.5c11.333 -0.666992 22.833 -2.83398 34.5 -6.50098
s22.834 -9.16699 33.501 -16.5c-10 -11.333 -19 -23.166 -27 -35.499s-11.667 -24.833 -11 -37.5c0 -6.66699 1.66699 -13.5 5 -20.5s8.33301 -14.167 15 -21.5c8 -7.33301 16.667 -12.666 26 -15.999s18.666 -5 27.999 -5c17.333 0 34 4.5 50 13.5s29.667 19.833 41 32.5
c18 21.333 33.167 45 45.5 71s23.166 52.667 32.499 80l11.5 32l10.5 31h-91l19 53h90c14 37.333 29.167 67.5 45.5 90.5s33.833 40.833 52.5 53.5c-12.667 4.66699 -25.834 8 -39.501 10s-27.5 3 -41.5 3h-6h-6c-40 -2 -77.667 -13.333 -113 -34s-59.333 -50.667 -72 -90
c-1.33301 -4.66699 -2.66602 -9.83398 -3.99902 -15.501s-2 -11.5 -2 -17.5c-0.666992 -1.33301 -1 -3 -1 -5v-6v-3v-3c0.666992 -10 2.66699 -19.667 6 -29s8.66602 -17 15.999 -23l6.5 -4.5c2.33301 -1.66699 4.5 -3.5 6.5 -5.5l2 -2l2 -2
c1.33301 -1.33301 2.83301 -2.5 4.5 -3.5s3.16699 -2.16699 4.5 -3.5c-6.66699 -2 -13.5 -4.16699 -20.5 -6.5s-13.833 -4.16602 -20.5 -5.49902c-6.66699 -2 -13.334 -3.5 -20.001 -4.5s-13.667 -1.5 -21 -1.5c-4.66699 0 -9.83398 0.5 -15.501 1.5
s-11.167 2.16699 -16.5 3.5c-26.667 8.66699 -47.667 24.834 -63 48.501s-24 48.834 -26 75.501v5v6c0 7.33301 0.5 14.333 1.5 21s2.5 13.334 4.5 20.001c8 25.333 22.833 48.166 44.5 68.499s47.5 36.833 77.5 49.5c26.667 12 55.334 20.833 86.001 26.5
s61.667 8.5 93 8.5h8.5h9.5c32.667 -1.33301 64.834 -5.33301 96.501 -12s61.5 -15.667 89.5 -27c15.333 10 32.5 18 51.5 24s38.5 10.333 58.5 13c14 2 27.833 3.5 41.5 4.5s26.834 1.5 39.501 1.5c9.33301 0 21.166 -0.333008 35.499 -1s29.166 -2 44.499 -4
c24 -4 46.167 -11.5 66.5 -22.5s30.5 -28.167 30.5 -51.5v0zM900.005 516.997c1.33301 2 2.33398 3.99707 3.00098 5.99707s1 3.33301 1 4c0 4.66699 -2.83301 8.33398 -8.5 11.001s-11.834 4.33398 -18.501 5.00098c-4.66699 0.666992 -8.83398 1 -12.501 1h-9.5
c-16.667 0 -32.834 -4.16699 -48.501 -12.5s-29.5 -18.166 -41.5 -29.499c8.66699 -2.66699 18.834 -4.83398 30.501 -6.50098s23.834 -2.5 36.501 -2.5c14 0 27.167 1.83301 39.5 5.5s21.833 9.83398 28.5 18.501v0z" />
    <glyph glyph-name="G" unicode="G" horiz-adv-x="624" 
d="M683 378l-25 -72.5068l-25 -72.5l-26 -73.5l-25 -72.5c-27.333 -79.333 -76.833 -143.166 -148.5 -191.499s-148.5 -72.5 -230.5 -72.5c-14 0 -28 0.833008 -42 2.5s-28 4.16699 -42 7.5c-36.667 8.66699 -64 21.167 -82 37.5s-29 33.5 -33 51.5
c-0.666992 2.66699 -1.16699 5.5 -1.5 8.5s-0.5 5.83301 -0.5 8.5c0.666992 24.667 10 46.334 28 65.001s39.333 27.667 64 27c11.333 0 22.333 -2.16699 33 -6.5s21.334 -11.833 32.001 -22.5l4 -4c1.33301 -1.33301 3 -2.66602 5 -3.99902
c1.33301 -1.33301 2.66602 -2.83301 3.99902 -4.5s2.66602 -3.16699 3.99902 -4.5l-9 -4.5c-3.33301 -1.66699 -6.66602 -3.5 -9.99902 -5.5c-10.667 -6 -20.667 -13.333 -30 -22s-13.666 -19.667 -12.999 -33v-3.5v-2.5c1.33301 -11.333 6.16602 -19.666 14.499 -24.999
s17.833 -8.33301 28.5 -9c8.66699 -0.666992 17.834 0.833008 27.501 4.5s19.5 9.5 29.5 17.5c3.33301 2.66699 7 5.83398 11 9.50098l12 11.5c19.333 20.667 35 43.5 47 68.5s22.333 50.833 31 77.5c-10 -3.33301 -20.167 -6.33301 -30.5 -9s-20.833 -4.66699 -31.5 -6
c-5.33301 -0.666992 -10.5 -1.16699 -15.5 -1.5s-10.167 -0.5 -15.5 -0.5c-33.333 0 -65.166 6.83301 -95.499 20.5s-55.5 35.5 -75.5 65.5c-12.667 19.333 -21.834 39.666 -27.501 60.999s-8.5 43 -8.5 65c0 5.33301 0.166992 10.833 0.5 16.5s0.833008 11.167 1.5 16.5
c1.33301 11.333 3.33301 22.5 6 33.5s5.66699 21.833 9 32.5c21.333 61.333 60.5 111.5 117.5 150.5s117.167 64.167 180.5 75.5c14 2.66699 27.667 4.66699 41 6s26.333 2 39 2c12 0 28.167 -0.5 48.5 -1.5s41.5 -3.5 63.5 -7.5c32 -5.33301 61.5 -14.833 88.5 -28.5
s40.5 -34.167 40.5 -61.5c0 -20 -8.33301 -36.5 -25 -49.5s-35.334 -20.167 -56.001 -21.5h-2.5h-2.5c-8.66699 0.666992 -17.167 2.33398 -25.5 5.00098s-15.833 7 -22.5 13c-1.33301 1.33301 -2.66602 2.5 -3.99902 3.5s-2.66602 2.16699 -3.99902 3.5l-1 0.5
c-0.666992 0.333008 -1 0.833008 -1 1.5c-0.666992 0.666992 -1.5 1.33398 -2.5 2.00098s-1.83301 1.33398 -2.5 2.00098c5.33301 4.66699 10.333 9.66699 15 15s8.66699 10.666 12 15.999c3.33301 4.66699 5.66602 9.33398 6.99902 14.001s2 9 2 13
c0 7.33301 -3.66699 13.5 -11 18.5s-20 7.5 -38 7.5c-42.667 0 -82.834 -22.167 -120.501 -66.5s-67.5 -93.5 -89.5 -147.5l-4.5 -11c-1.66699 -4 -3.16699 -8 -4.5 -12c-0.666992 -1.33301 -1.16699 -2.5 -1.5 -3.5s-0.833008 -2.16699 -1.5 -3.5
c-4 -10.667 -7.83301 -22.334 -11.5 -35.001s-6.5 -25.334 -8.5 -38.001c-1.33301 -6.66699 -2.33301 -13.334 -3 -20.001s-1 -13 -1 -19c0 -5.33301 0.333008 -10.666 1 -15.999s1.66699 -10.666 3 -15.999c2.66699 -10 6.66699 -17 12 -21s11.333 -6 18 -6
c2 0 4.33301 0.166992 7 0.5s5 0.833008 7 1.5c6.66699 2.66699 13 6 19 10s11.333 8.66699 16 14c10 12 20.333 28.667 31 50s21.667 49.333 33 84l5 15l11 32l9.5 27c3 8.66699 5.16699 14.334 6.5 17.001h261v0z" />
    <glyph glyph-name="H" unicode="H" horiz-adv-x="905" 
d="M996 182c-12.667 -27.333 -27.1699 -54.166 -43.5029 -80.499s-36.833 -49.166 -61.5 -68.499c-17.333 -14 -38.166 -25.167 -62.499 -33.5s-49.166 -13.5 -74.499 -15.5c-4 -0.666992 -7.83301 -1 -11.5 -1h-10.5c-39.333 0 -74.5 10 -105.5 30s-46.5 53.667 -46.5 101
c0 19.333 2.83301 38.5 8.5 57.5s11.834 37.833 18.501 56.5l6 16.5l6 16.5h-111l-91 -261h-260l35.5 101.5l34.5 101.5l34.5 101l35.5 102c0.666992 1.33301 1.16699 2.5 1.5 3.5s0.5 2.16699 0.5 3.5c2 5.33301 3.83301 11 5.5 17s2.83398 12.333 3.50098 19
c0.666992 2.66699 1.16699 5.66699 1.5 9s0.5 6.66602 0.5 9.99902c0 12.667 -3 23.334 -9 32.001s-17 13 -33 13c-28 0 -54.333 -12.667 -79 -38s-41.667 -53.333 -51 -84c-2 -6.66699 -3.5 -13.334 -4.5 -20.001s-1.5 -13.334 -1.5 -20.001
c0 -18.667 4.83301 -35.167 14.5 -49.5s25.5 -24.166 47.5 -29.499c-10 -18 -21.5 -31.833 -34.5 -41.5s-26.167 -15.834 -39.5 -18.501c-2.66699 0 -5.16699 -0.166992 -7.5 -0.5s-4.83301 -0.5 -7.5 -0.5c-24.667 0.666992 -46.834 10.834 -66.501 30.501
s-30.167 47.167 -31.5 82.5c-2.66699 64 25.166 119.167 83.499 165.5s122.833 75.166 193.5 86.499c10 2 20.167 3.33301 30.5 4s20.5 1 30.5 1c35.333 0 68.166 -5.66699 98.499 -17s55.5 -29.666 75.5 -54.999c11.333 -14.667 19.5 -29.167 24.5 -43.5
s7.5 -29.166 7.5 -44.499s-2.16699 -30.833 -6.5 -46.5s-9.16602 -31.834 -14.499 -48.501h111l77 224h127.5h126.5l-36.5 -106.5l-36.5 -106.5l-36.5 -106.5l-36.5 -107.5c-2 -4.66699 -3.83301 -9.5 -5.5 -14.5s-2.5 -9.5 -2.5 -13.5c0 -3.33301 1.16699 -6 3.5 -8
s6.16602 -3 11.499 -3c3.33301 0 6.5 0.333008 9.5 1s6.16699 2 9.5 4c10 4.66699 19.833 12.167 29.5 22.5s18.5 21.166 26.5 32.499c6 8.66699 11.167 17 15.5 25s7.83301 15 10.5 21l2 4l2 4c0.666992 1.33301 1.33398 2.83301 2.00098 4.5s1.33398 3.16699 2.00098 4.5
l54 -25v0z" />
    <glyph glyph-name="I" unicode="I" horiz-adv-x="634" 
d="M749 565l-30.002 -86.999l-30 -88l-30 -87.5l-30 -87.5c-20.667 -58 -57.5 -104.167 -110.5 -138.5s-109.5 -57.166 -169.5 -68.499c-14.667 -2.66699 -29.334 -4.66699 -44.001 -6s-29 -2 -43 -2s-29.167 0.5 -45.5 1.5s-33.166 2.83301 -50.499 5.5
c-39.333 6 -75.5 17.833 -108.5 35.5s-49.5 45.834 -49.5 84.501c0 7.33301 0.833008 14.833 2.5 22.5s3.83398 15.834 6.50098 24.501c6 17.333 17 31.166 33 41.499s33.333 15.5 52 15.5h2h2h4h5c8.66699 -1.33301 17 -3.5 25 -6.5s15.333 -7.83301 22 -14.5l11 -9.5
c2 -1.66699 3 -3.16699 3 -4.5s-1.16699 -3 -3.5 -5s-6.16602 -4.66699 -11.499 -8c-8.66699 -7.33301 -15.834 -16 -21.501 -26s-9.5 -20 -11.5 -30c0 -2.66699 -0.166992 -5 -0.5 -7s-0.5 -4 -0.5 -6c0 -12 3.16699 -23.167 9.5 -33.5s16.5 -18.166 30.5 -23.499
c6 -2 12 -3.5 18 -4.5s11.667 -1.5 17 -1.5c31.333 0 59.5 11.667 84.5 35s44.833 48.666 59.5 75.999c3.33301 6.66699 6.5 13.334 9.5 20.001s5.5 13 7.5 19c9.33301 25.333 18.166 50.5 26.499 75.5l25.5 74.5l13.5 38l12.5 38c0.666992 2 1.33398 3.83301 2.00098 5.5
s1.33398 3.5 2.00098 5.5c1.33301 5.33301 2.83301 11 4.5 17s2.83398 12.333 3.50098 19c0.666992 3.33301 1.16699 6.66602 1.5 9.99902s0.5 6.66602 0.5 9.99902c0 11.333 -2.66699 21 -8 29s-15.333 12 -30 12c-32 0 -61.5 -14 -88.5 -42s-43.167 -59 -48.5 -93
c-0.666992 -4 -1.16699 -7.83301 -1.5 -11.5s-0.5 -7.16699 -0.5 -10.5c0 -6.66699 0.5 -13.167 1.5 -19.5s2.83301 -12.5 5.5 -18.5c6 -14.667 14.167 -24.5 24.5 -29.5s21.833 -9.16699 34.5 -12.5c2 -0.666992 4.16699 -1.16699 6.5 -1.5s4.5 -0.833008 6.5 -1.5
c-2 -2 -3.83301 -4 -5.5 -6s-3.16699 -4 -4.5 -6c-12.667 -13.333 -26 -24.833 -40 -34.5s-31.667 -14.834 -53 -15.501c-34.667 -0.666992 -60.334 11.5 -77.001 36.5s-25 52.833 -25 83.5c0 11.333 1 22.166 3 32.499s5 20.166 9 29.499
c27.333 66.667 73.5 113.334 138.5 140.001s133.833 40.667 206.5 42h7.5h6.5c41.333 0 81.5 -3 120.5 -9s74.167 -13.667 105.5 -23v0z" />
    <glyph glyph-name="J" unicode="J" horiz-adv-x="632" 
d="M754 585l-82.499 -240.006l-82.5 -240c-28 -79.333 -77.667 -143.166 -149 -191.499s-148 -72.5 -230 -72.5c-14 0 -28 0.833008 -42 2.5s-28 4.16699 -42 7.5c-2 0.666992 -4.16699 1.33398 -6.5 2.00098s-4.5 1 -6.5 1c-26.667 8 -51 20.5 -73 37.5s-33 39.5 -33 67.5
c0 3.33301 0.333008 7 1 11l2 12c5.33301 20.667 16.5 36.667 33.5 48s35.167 17 54.5 17c12 0 23.833 -2.16699 35.5 -6.5s22.167 -11.166 31.5 -20.499l18 -17c-2.66699 -1.33301 -5.5 -2.66602 -8.5 -3.99902s-6.16699 -2.66602 -9.5 -3.99902
c-11.333 -6.66699 -21.833 -14.334 -31.5 -23.001s-14.167 -20 -13.5 -34v-3.5v-2.5c1.33301 -11.333 6.33301 -19.666 15 -24.999s18.334 -8.33301 29.001 -9c23.333 -1.33301 45.166 8.16699 65.499 28.5s37.5 42.833 51.5 67.5c8 12.667 14.667 25.334 20 38.001
s9.66602 23.667 12.999 33l33.5 95.5l32.5 95.5l33.5 95.5l32.5 95.5c0.666992 2 1.33398 3.83301 2.00098 5.5s1.33398 3.5 2.00098 5.5c1.33301 4.66699 2.66602 9.83398 3.99902 15.501l4 16.5c0.666992 4 1.16699 8 1.5 12s0.5 7.66699 0.5 11c0 11.333 -2.5 21 -7.5 29
s-14.833 12 -29.5 12c-32 0 -61.5 -13.833 -88.5 -41.5s-43.5 -57.834 -49.5 -90.501c-0.666992 -4 -1.16699 -8 -1.5 -12s-0.5 -8 -0.5 -12c0 -6.66699 0.5 -13.167 1.5 -19.5s2.83301 -12.5 5.5 -18.5c6 -15.333 14.167 -25.5 24.5 -30.5s22.166 -9.16699 35.499 -12.5
c2 -0.666992 4.16699 -1.16699 6.5 -1.5s4.5 -0.833008 6.5 -1.5c-2 -2 -4 -4.16699 -6 -6.5s-4 -4.5 -6 -6.5c-6.66699 -7.33301 -13.667 -14.166 -21 -20.499s-15.666 -11.833 -24.999 -16.5c-8.66699 -4 -17 -6.83301 -25 -8.5s-15.667 -2.5 -23 -2.5
c-28 0 -51.5 10.833 -70.5 32.5s-29.167 48.5 -30.5 80.5c-0.666992 11.333 0.166016 22.666 2.49902 33.999s5.83301 23 10.5 35c26 66 71 112.167 135 138.5s132 40.5 204 42.5h10.5h10.5c41.333 0 81.333 -2.83301 120 -8.5s73.667 -13.167 105 -22.5v0z" />
    <glyph glyph-name="K" unicode="K" horiz-adv-x="899" 
d="M989 183c-0.666992 -1.33301 -1.16602 -2.49023 -1.49902 -3.49023s-0.833008 -2.16699 -1.5 -3.5c-12.667 -31.333 -28 -61.833 -46 -91.5s-42 -53.834 -72 -72.501c-16.667 -9.33301 -36.167 -16.666 -58.5 -21.999s-45.166 -8 -68.499 -8h-4h-3
c-26 0.666992 -51.167 5.16699 -75.5 13.5s-44.5 21.166 -60.5 38.499c-10.667 12 -19 25.5 -25 40.5s-9 30.5 -9 46.5c0 4.66699 0.333008 9.16699 1 13.5l2 13.5c3.33301 15.333 5.66602 28.666 6.99902 39.999s2 21.333 2 30c0 8 -0.666992 14.833 -2 20.5
s-3.66602 10.167 -6.99902 13.5c-4.66699 5.33301 -11.667 9.5 -21 12.5s-21 4.83301 -35 5.5l-93 -270h-260l70 202.5l69 203.5c0.666992 1.33301 1.16699 2.5 1.5 3.5s0.5 2.16699 0.5 3.5c2 5.33301 3.83301 11 5.5 17s2.83398 12.333 3.50098 19
c0.666992 2.66699 1.16699 5.66699 1.5 9s0.5 6.66602 0.5 9.99902c0 12.667 -3 23.334 -9 32.001s-17 13 -33 13c-27.333 0 -51.666 -10.167 -72.999 -30.5s-37 -42.5 -47 -66.5c-1.33301 -3.33301 -2.66602 -6.5 -3.99902 -9.5s-2.33301 -6.16699 -3 -9.5l-4.5 -20.5
c-1.66699 -7.66699 -2.83398 -15.5 -3.50098 -23.5v-5.5v-4.5c0 -14.667 2.83301 -28.334 8.5 -41.001s15.834 -20.667 30.501 -24c4 -0.666992 7.33301 -1.33398 10 -2.00098s5 -1.33398 7 -2.00098s3.33301 -1.16699 4 -1.5s1 -1.16602 1 -2.49902l-3 -6
c-1.33301 -2.66699 -3.66602 -6.66699 -6.99902 -12c-7.33301 -14 -17.5 -24.167 -30.5 -30.5s-26.5 -9.5 -40.5 -9.5h-2.5h-3.5c-16 1.33301 -31.333 6.16602 -46 14.499s-26.334 19.5 -35.001 33.5c-3.33301 6 -6.16602 11.833 -8.49902 17.5s-4.5 11.5 -6.5 17.5
c-1.33301 6 -2.33301 11.833 -3 17.5s-1 11.5 -1 17.5c0 38.667 13.167 75.167 39.5 109.5s55.166 61.5 86.499 81.5c2 1.33301 4.16699 2.66602 6.5 3.99902s4.5 2.66602 6.5 3.99902c23.333 12.667 50.166 23.834 80.499 33.501s61.5 15.5 93.5 17.5
c4.66699 0.666992 9.16699 1 13.5 1h12.5c34 0 66.333 -5.5 97 -16.5s56.334 -29.5 77.001 -55.5c11.333 -14.667 19.5 -29.334 24.5 -44.001s7.16699 -29.334 6.5 -44.001c0 -16.667 -2.5 -34 -7.5 -52s-10.5 -36.333 -16.5 -55c15.333 3.33301 30 9.33301 44 18
s27 18.334 39 29.001l11.5 12l20.5 22c0.666992 0 1.16699 0.333008 1.5 1s0.833008 1.33398 1.5 2.00098l20 22.5c6 7 9 11.5 9 13.5c26.667 34 55.5 65.167 86.5 93.5s69.833 42.5 116.5 42.5h5.5h4.5c25.333 -2.66699 48.333 -12.167 69 -28.5s30.667 -37.5 30 -63.5v-6
c0 -2 -0.333008 -3.66699 -1 -5c0 -2 -0.166992 -4 -0.5 -6s-0.833008 -4 -1.5 -6c-4 -14.667 -10.833 -27.834 -20.5 -39.501s-19.834 -22.834 -30.501 -33.501l-1.5 -1.5l-1.5 -1.5l-2 -2l-2 -2c-0.666992 1.33301 -1.16699 2.66602 -1.5 3.99902
s-0.833008 2.66602 -1.5 3.99902c-6 17.333 -13 32 -21 44s-21 18 -39 18c-3.33301 0 -6.83301 -0.166992 -10.5 -0.5s-7.83398 -1.16602 -12.501 -2.49902c-25.333 -6 -47.833 -16 -67.5 -30s-38.5 -29 -56.5 -45c-0.666992 -0.666992 -1.33398 -1.16699 -2.00098 -1.5
s-1.33398 -0.833008 -2.00098 -1.5c-12 -10.667 -24.333 -21 -37 -31s-26.334 -19 -41.001 -27c4.66699 -0.666992 9.5 -1.5 14.5 -2.5s9.83301 -2.16699 14.5 -3.5c24 -6.66699 47 -16.5 69 -29.5s38.333 -31.167 49 -54.5c2.66699 -6.66699 5.66699 -14.834 9 -24.501
l10 -29.5c6.66699 -17.333 14.167 -33 22.5 -47s18.833 -21 31.5 -21c15.333 0 28.5 6.5 39.5 19.5s20.167 27.5 27.5 43.5c4 8 7.33301 16 10 24l7 21l52 -19v0z" />
    <glyph glyph-name="L" unicode="L" horiz-adv-x="756" 
d="M849 440c-14.667 -38 -39.6709 -70.501 -75.0039 -97.501s-72.666 -46.833 -111.999 -59.5c-6.66699 -2 -13.5 -3.83301 -20.5 -5.5s-13.833 -3.16699 -20.5 -4.5c-5.33301 -32.667 -17.5 -63.667 -36.5 -93s-41.167 -54.666 -66.5 -75.999
c11.333 -9.33301 23.833 -15.833 37.5 -19.5s27.5 -5.5 41.5 -5.5c5.33301 0 10.666 0.166992 15.999 0.5s10.333 1.16602 15 2.49902c18 2.66699 35.5 6.83398 52.5 12.501s32.833 11.834 47.5 18.501c-0.666992 -2 -1.16699 -4 -1.5 -6s-0.833008 -4 -1.5 -6
c-0.666992 -4 -1.5 -7.83301 -2.5 -11.5l-3.5 -12.5c-8.66699 -38.667 -30.667 -67.667 -66 -87s-73.666 -28.666 -114.999 -27.999h-2.5h-3.5c-30.667 0.666992 -60.334 7.16699 -89.001 19.5s-50.667 30.833 -66 55.5c-5.33301 -0.666992 -10.666 -2.16699 -15.999 -4.5
s-11 -4.5 -17 -6.5c-2.66699 -1.33301 -5.66699 -2.66602 -9 -3.99902l-10 -4c-15.333 -4.66699 -33.333 -8.33398 -54 -11.001s-41.667 -4 -63 -4h-9.5h-8.5c-30 1.33301 -58.667 6 -86 14s-50 20.667 -68 38c-6.66699 7.33301 -12 15.333 -16 24s-6 18 -6 28
c0 3.33301 0.333008 6.66602 1 9.99902l2 10c8.66699 24.667 24.5 41.5 47.5 50.5s48.5 13.5 76.5 13.5c6 0 11.833 -0.166992 17.5 -0.5s11.5 -0.833008 17.5 -1.5c20 -2 39.333 -5 58 -9s35.667 -8.33301 51 -13l12 -4c4 -1.33301 7.66699 -2.66602 11 -3.99902l31 87
c-7.33301 0 -14.833 0.5 -22.5 1.5s-15.5 2.16699 -23.5 3.5c-31.333 5.33301 -61.5 15.5 -90.5 30.5s-51.833 36.5 -68.5 64.5c-7.33301 12 -12.666 24 -15.999 36s-5 23.333 -5 34c0 33.333 12.5 61.5 37.5 84.5s54.833 34.5 89.5 34.5c9.33301 0 18.833 -1 28.5 -3
s19.5 -5 29.5 -9c7.33301 -2.66699 12.833 -4.83398 16.5 -6.50098s5.83398 -3.16699 6.50098 -4.5c0.666992 0 1 -0.166992 1 -0.5v-0.5c-0.666992 -1.33301 -2.5 -3.33301 -5.5 -6l-13.5 -12c-10.667 -9.33301 -19.167 -19.333 -25.5 -30s-10.833 -21.667 -13.5 -33
c-0.666992 -4 -1.16699 -7.83301 -1.5 -11.5s-0.5 -7.16699 -0.5 -10.5c0.666992 -22.667 9.83398 -42.834 27.501 -60.501s43.5 -26.167 77.5 -25.5l4 11.5l4 11.5c15.333 41.333 32.333 81 51 119s46.667 71.333 84 100c20 14.667 44.167 27.334 72.5 38.001
s57.833 17.334 88.5 20.001c4.66699 0 9.16699 0.166992 13.5 0.5s8.5 0.5 12.5 0.5c27.333 0 53.166 -4.5 77.499 -13.5s44.5 -24.167 60.5 -45.5c8.66699 -10.667 14.834 -22.167 18.501 -34.5s5.5 -24.833 5.5 -37.5c0 -8.66699 -0.833008 -17.334 -2.5 -26.001
s-4.16699 -17.334 -7.5 -26.001v0zM263.996 106.999c-10.667 7.33301 -22.333 13.3311 -35 17.998s-25.667 8.66699 -39 12c-4.66699 1.33301 -10 2.33301 -16 3s-12.667 1 -20 1h-8.5c-3 0 -5.83301 -0.333008 -8.5 -1c-13.333 -1.33301 -25.833 -4.66602 -37.5 -9.99902
s-19.5 -13.333 -23.5 -24c-0.666992 -0.666992 -1 -1.5 -1 -2.5v-3.5c0 -5.33301 2.33301 -10.166 7 -14.499s9.66699 -7.83301 15 -10.5c2 -1.33301 4 -2.33301 6 -3l6 -2c6.66699 -2.66699 13.5 -4.5 20.5 -5.5s13.833 -1.5 20.5 -1.5h5.5
c1.66699 0 3.16699 0.333008 4.5 1c19.333 1.33301 38 6 56 14s34 17.667 48 29v0zM781.997 450.997c0.666992 1.33301 1.33398 3 2.00098 5s1.66699 4 3 6c1.33301 4.66699 2.66602 9.66699 3.99902 15s2.33301 10.666 3 15.999c0.666992 2 1 4 1 6v6c0 8 -2 15 -6 21
s-10.667 9 -20 9c-22.667 0 -42 -11.5 -58 -34.5s-29.333 -48.167 -40 -75.5c-6.66699 -17.333 -12.167 -34 -16.5 -50l-10.5 -40c31.333 11.333 57.833 26 79.5 44s38.167 36.667 49.5 56c2 2.66699 3.66699 5.33398 5 8.00098l4 8v0z" />
    <glyph glyph-name="M" unicode="M" horiz-adv-x="1076" 
d="M1172 201c-28.667 -58.667 -62.1729 -106.665 -100.506 -143.998s-93.166 -56 -164.499 -56c-48.667 0 -85.834 12.667 -111.501 38s-38.5 57.666 -38.5 96.999c0 11.333 1 23 3 35s5.33301 24.333 10 37l30 85.5l30 85.5l-320 -380c-4 18 -7.66699 36 -11 54l-10 54
c-1.33301 4.66699 -2.33301 9.5 -3 14.5s-1.66699 9.83301 -3 14.5c-7.33301 39.333 -15.5 78.5 -24.5 117.5s-20.833 76.833 -35.5 113.5l-17.5 -67c-6.33301 -24 -13.833 -48.333 -22.5 -73c-22 -61.333 -52.333 -117.166 -91 -167.499s-91 -75.5 -157 -75.5
c-3.33301 0 -6.66602 0.166992 -9.99902 0.5s-7 0.833008 -11 1.5c-26 4 -50.167 15 -72.5 33s-33.166 39.667 -32.499 65c0 6 0.666992 12.167 2 18.5s3.66602 12.833 6.99902 19.5c2 4.66699 3.66699 8.16699 5 10.5s2.33301 4.16602 3 5.49902
c0.666992 0.666992 1.33398 1.16699 2.00098 1.5s1.33398 0.5 2.00098 0.5c1.33301 0 3.16602 -1.16699 5.49902 -3.5s5.83301 -5.16602 10.5 -8.49902c13.333 -10.667 27.166 -18.334 41.499 -23.001s28.833 -7 43.5 -7c40 0 77.167 15.167 111.5 45.5
s58.166 65.166 71.499 104.499l19 52.5c6.66699 17.667 13.667 35.167 21 52.5l16 42l16 42c-11.333 16.667 -23.666 29.667 -36.999 39s-26.333 15.666 -39 18.999c-4.66699 1.33301 -9.16699 2.16602 -13.5 2.49902s-8.83301 0.5 -13.5 0.5
c-28.667 0 -54.667 -9.33301 -78 -28s-37.666 -39.334 -42.999 -62.001c-1.33301 -2.66699 -2.16602 -5.5 -2.49902 -8.5s-0.5 -6.16699 -0.5 -9.5c0.666992 -12.667 4.83398 -24.334 12.501 -35.001s20.834 -19 39.501 -25c10 -3.33301 20 -5.16602 30 -5.49902
s20 -0.166016 30 0.500977c2 0 4.16699 0.166992 6.5 0.5s4.83301 0.5 7.5 0.5c-0.666992 -0.666992 -1.16699 -1.5 -1.5 -2.5s-0.833008 -1.83301 -1.5 -2.5c-12 -22 -26.5 -41.833 -43.5 -59.5s-39.833 -26.167 -68.5 -25.5c-29.333 0.666992 -51 12.334 -65 35.001
s-22 47.667 -24 75v6.5v6.5c0 9.33301 0.666992 18.5 2 27.5s3.33301 17.5 6 25.5c20.667 60.667 57.334 104.834 110.001 132.501s108.334 44.167 167.001 49.5c8 0.666992 15.833 1.16699 23.5 1.5s15.5 0.5 23.5 0.5c83.333 0 147.166 -30 191.499 -90
s71.5 -127 81.5 -201l59.5 66l58.5 66l19.5 22l19.5 22l39.5 44l39.5 44c25.333 0.666992 50.5 0.833984 75.5 0.500977s50.167 -0.5 75.5 -0.5h38h38l-24.5 -70.5l-24.5 -71.5l-49.5 -142l-48.5 -142c0 -0.666992 -0.333008 -1.5 -1 -2.5s-1 -1.83301 -1 -2.5
c-2 -4.66699 -3.66699 -9 -5 -13s-2 -7.66699 -2 -11c0 -2.66699 1.16699 -5 3.5 -7s6.83301 -3 13.5 -3c14.667 0 29 7.16699 43 21.5s26.333 30.166 37 47.499c6 10 11.5 19.667 16.5 29s8.83301 17.333 11.5 24l54 -25v0z" />
    <glyph glyph-name="N" unicode="N" horiz-adv-x="800" 
d="M1028 564c-56.667 0 -98.499 -19.9971 -125.499 -59.9971s-49.167 -84.667 -66.5 -134l-129 -379l-51 78l-49 80c-1.33301 1.33301 -2.5 3 -3.5 5s-2.16699 4 -3.5 6l-80 129c-27.333 42.667 -57 83 -89 121c-6 -33.333 -14.333 -66.5 -25 -99.5l-33 -98.5l-7.5 -19.5
c-2.33301 -6.33301 -4.5 -12.833 -6.5 -19.5l-4 -10l-4 -10c-18.667 -40 -47.667 -76.5 -87 -109.5s-81.333 -49.5 -126 -49.5c-11.333 0 -22.5 1.16699 -33.5 3.5s-22.167 6.16602 -33.5 11.499c-20.667 10 -35.5 22 -44.5 36s-13.5 29 -13.5 45c0 10 1.5 20.167 4.5 30.5
s7.16699 20.833 12.5 31.5l17 -13l15 -11c9.33301 -6 19 -10.667 29 -14s22.667 -5 38 -5c42 -0.666992 80.333 14.666 115 45.999s58.334 66 71.001 104l20.5 55l20.5 54l17.5 43.5l16.5 42.5c-12.667 12 -27.834 22 -45.501 30s-35.834 13.333 -54.501 16
c-4 0.666992 -8.16699 1.16699 -12.5 1.5s-8.5 0.5 -12.5 0.5c-28.667 0 -53.834 -8.33301 -75.501 -25s-31.167 -43.667 -28.5 -81c1.33301 -22.667 10.166 -38 26.499 -46s34.166 -12.667 53.499 -14h22c7.33301 0 14.333 0.333008 21 1
c-11.333 -24 -25.5 -45.5 -42.5 -64.5s-40.833 -28.167 -71.5 -27.5c-30.667 1.33301 -53.167 13.666 -67.5 36.999s-21.833 48.666 -22.5 75.999v3.5v2.5c0 9.33301 0.833008 18.5 2.5 27.5s3.83398 17.5 6.50098 25.5c23.333 68 65 116.833 125 146.5
s126.667 44.5 200 44.5c74.667 0 140.834 -26.5 198.501 -79.5s101.834 -111.167 132.501 -174.5l8 -16.5c2.66699 -5.66699 5 -11.167 7 -16.5l85 230v-1c8 24 22.167 43.833 42.5 59.5s42.833 23.834 67.5 24.501c25.333 0 42.833 -6.16699 52.5 -18.5
s16.5 -29.5 20.5 -51.5v0z" />
    <glyph glyph-name="O" unicode="O" horiz-adv-x="770" 
d="M804 346c0 -93.333 -35.668 -168.332 -107.001 -224.999s-150 -93.334 -236 -110.001c-17.333 -4 -34.833 -6.83301 -52.5 -8.5s-35.167 -2.5 -52.5 -2.5c-8.66699 0 -17.5 0.166992 -26.5 0.5s-18.167 0.833008 -27.5 1.5c-71.333 6 -136.666 27.167 -195.999 63.5
s-89 96.5 -89 180.5c0 90 34.667 163.333 104 220s145.666 94 228.999 112c18 4 36 7 54 9s35.667 3 53 3c8 0 15.833 -0.166992 23.5 -0.5s15.5 -0.5 23.5 -0.5c74.667 -4.66699 143.334 -24.5 206.001 -59.5s94 -96.167 94 -183.5v0zM548.999 445.001
c0 5.33301 -0.169922 11.0029 -0.50293 17.0029s-1.16602 12.333 -2.49902 19c-2.66699 15.333 -8 29.333 -16 42s-20.667 19 -38 19c-30 0 -58 -14.5 -84 -43.5s-48.333 -61.167 -67 -96.5c-10.667 -20.667 -20 -40.834 -28 -60.501s-14 -36.167 -18 -49.5
c-8 -26.667 -14.167 -52 -18.5 -76s-6.5 -46.333 -6.5 -67c0 -34.667 5.5 -60.334 16.5 -77.001s24.833 -25 41.5 -25c12.667 0.666992 26.834 5.66699 42.501 15s31.5 22.666 47.5 39.999c2 2 4 4.16699 6 6.5s4 4.83301 6 7.5c22 27.333 41.833 59.5 59.5 96.5
s31.834 75.167 42.501 114.5c5.33301 20 9.5 40 12.5 60s4.5 39.333 4.5 58v0z" />
    <glyph glyph-name="P" unicode="P" horiz-adv-x="821" 
d="M890 381c-16 -46.667 -46.1602 -80.5 -90.4932 -101.5s-91.833 -34.5 -142.5 -40.5c-13.333 -1.33301 -26.5 -2.33301 -39.5 -3s-25.833 -1 -38.5 -1s-25.334 0.5 -38.001 1.5s-24.667 1.83301 -36 2.5l-13.5 -38l-12.5 -37l-13.5 -38l-13.5 -38
c-8.66699 -26.667 -28.667 -47.167 -60 -61.5s-65 -22.833 -101 -25.5c-4 -0.666992 -8.16699 -1 -12.5 -1h-12.5c-20.667 0 -40.334 2 -59.001 6s-34.667 9.66699 -48 17c-1.33301 0.666992 -2.5 1.33398 -3.5 2.00098s-2.16699 1.33398 -3.5 2.00098
c-0.666992 0 -1.16699 0.166992 -1.5 0.5l-1.5 1.5c-2 0.666992 -3.83301 1.5 -5.5 2.5s-3.5 1.83301 -5.5 2.5l6 6l6 6c10.667 10.667 20.167 21.834 28.5 33.501s14.833 24.834 19.5 39.501l52.5 152.5l52.5 151.5c5.33301 15.333 11.833 30.166 19.5 44.499
s16.167 27.833 25.5 40.5c-8.66699 -2.66699 -17.834 -5.83398 -27.501 -9.50098s-19.167 -7.83398 -28.5 -12.501c-26.667 -12.667 -51.5 -29 -74.5 -49s-38.167 -42.333 -45.5 -67l-3.5 -16c-1 -4.66699 -1.5 -9 -1.5 -13c0 -8.66699 2.16699 -15.834 6.5 -21.501
s10.166 -11.167 17.499 -16.5c4 -2.66699 8.16699 -5.16699 12.5 -7.5s9.16602 -5.16602 14.499 -8.49902c-14.667 -17.333 -30.334 -31.5 -47.001 -42.5s-37.667 -15.833 -63 -14.5c-30 1.33301 -52.833 11.166 -68.5 29.499s-23.5 39.833 -23.5 64.5
c0 9.33301 1 18.833 3 28.5s5.33301 19.167 10 28.5c12.667 30 35.5 57.667 68.5 83s72.167 47.333 117.5 66s95.5 33.167 150.5 43.5s110.833 15.5 167.5 15.5c78 0 142 -4.83301 192 -14.5s88.333 -23.167 115 -40.5c21.333 -12.667 36.666 -27.5 45.999 -44.5
s14 -35.167 14 -54.5c0 -8.66699 -0.833008 -17.5 -2.5 -26.5s-4.16699 -18.167 -7.5 -27.5v0zM731.007 447c3.33301 8 5.83301 15.333 7.5 22s2.5 13 2.5 19c0 13.333 -4.83301 23.5 -14.5 30.5s-24.5 10.5 -44.5 10.5c-28 0 -51 -9.16699 -69 -27.5
s-31.333 -39.833 -40 -64.5l-25 -72l-24 -72c53.333 5.33301 96 19.833 128 43.5s58.333 60.5 79 110.5v0z" />
    <glyph glyph-name="Q" unicode="Q" horiz-adv-x="773" 
d="M754 -19c-0.666992 -2.66699 -1.1709 -5.33398 -1.50391 -8.00098s-0.5 -5.66699 -0.5 -9c-1.33301 -7.33301 -2.5 -14.5 -3.5 -21.5s-2.5 -14.167 -4.5 -21.5c-12.667 -36 -35.167 -62.167 -67.5 -78.5s-66.5 -26.5 -102.5 -30.5
c-6.66699 -0.666992 -13.667 -1.16699 -21 -1.5s-14.333 -0.5 -21 -0.5c-22.667 0.666992 -43.667 2.5 -63 5.5s-35.333 6.83301 -48 11.5c-15.333 4.66699 -29.166 10.5 -41.499 17.5s-24.166 14.167 -35.499 21.5c-1.33301 0.666992 -2.66602 1.5 -3.99902 2.5
s-2.66602 1.83301 -3.99902 2.5c-0.666992 0.666992 -1.5 1.33398 -2.5 2.00098s-2.16699 1.33398 -3.5 2.00098c-18.667 12 -39 23.167 -61 33.5s-51.667 17.166 -89 20.499l-55 6c4 2.66699 8 5.16699 12 7.5s8 4.83301 12 7.5s8.16699 5.16699 12.5 7.5l12.5 6.5
c16 6.66699 32.667 11.667 50 15s35 5 53 5c13.333 0 26.666 -0.666992 39.999 -2s26.666 -3.33301 39.999 -6c17.333 -2.66699 34.833 -6.16699 52.5 -10.5s34.834 -8.83301 51.501 -13.5c14.667 -3.33301 28.834 -7 42.501 -11s27.167 -7.33301 40.5 -10
c10.667 -2.66699 21 -4.5 31 -5.5s19.333 -1.5 28 -1.5c14 0 27.5 1.5 40.5 4.5s25.833 7.16699 38.5 12.5c11.333 4.66699 23 10.5 35 17.5s24.333 14.833 37 23.5v-1zM800.996 350c0 -92.667 -35.668 -167.33 -107.001 -223.997s-150 -93.334 -236 -110.001
c-17.333 -4 -34.833 -6.83301 -52.5 -8.5s-35.167 -2.5 -52.5 -2.5c-8.66699 0 -17.5 0.166992 -26.5 0.5s-18.167 0.833008 -27.5 1.5c-71.333 6 -136.666 27.167 -195.999 63.5s-89 96.166 -89 179.499c0 90 34.667 163.333 104 220s145.666 94 228.999 112
c18 4 36 7 54 9s35.667 3 53 3c8 0 15.833 -0.166992 23.5 -0.5s15.5 -0.5 23.5 -0.5c74.667 -4.66699 143.334 -24.334 206.001 -59.001s94 -96 94 -184v0zM545.995 450.004c0 5.33301 -0.168945 10.999 -0.501953 16.999s-1.16602 12.333 -2.49902 19
c-2.66699 15.333 -7.83398 29.333 -15.501 42s-20.167 19 -37.5 19c-30.667 0 -59 -14.5 -85 -43.5s-48.333 -61.167 -67 -96.5c-10.667 -20.667 -20 -40.834 -28 -60.501s-14 -36.167 -18 -49.5l-5 -17.5c-2 -7 -4 -15.167 -6 -24.5l-6.5 -35.5
c-2.33301 -13 -3.83301 -26.167 -4.5 -39.5c-0.666992 -5.33301 -1.16699 -10.833 -1.5 -16.5s-0.5 -11.167 -0.5 -16.5c0 -22.667 3 -42.667 9 -60s17 -28.666 33 -33.999c2.66699 -0.666992 5.16699 -1.16699 7.5 -1.5s4.83301 -0.5 7.5 -0.5
c2 0 3.83301 0.166992 5.5 0.5s3.5 0.5 5.5 0.5c12.667 2.66699 25 8.33398 37 17.001s22.667 18 32 28c4.66699 4 8.83398 8.16699 12.501 12.5l9.5 11.5c22 27.333 41.833 59.5 59.5 96.5s31.834 75.167 42.501 114.5c5.33301 20 9.5 40 12.5 60s4.5 39.333 4.5 58v0z" />
    <glyph glyph-name="R" unicode="R" horiz-adv-x="904" 
d="M994 212c-2 -4.66699 -3.83105 -9.33496 -5.49805 -14.002s-3.5 -9.33398 -5.5 -14.001c-12.667 -29.333 -27.834 -57.666 -45.501 -84.999s-40.167 -49.666 -67.5 -66.999c-17.333 -10.667 -36.833 -18.834 -58.5 -24.501s-43.834 -8.5 -66.501 -8.5
c-44 0 -84 11.667 -120 35s-54 60.333 -54 111c0 7.33301 0.833008 15.666 2.5 24.999s3.5 18.666 5.5 27.999c0.666992 2 1.16699 4 1.5 6s0.5 4 0.5 6c2 8 3.5 15.833 4.5 23.5s1.5 14.834 1.5 21.501c0 7.33301 -0.833008 13.833 -2.5 19.5s-4.16699 10.834 -7.5 15.501
c-4 6 -10.667 10.5 -20 13.5s-21.666 4.83301 -36.999 5.5l-26 -75.5l-26 -75.5c-4.66699 -12.667 -9 -25.167 -13 -37.5s-8.33301 -24.833 -13 -37.5c-8.66699 -25.333 -28.167 -44.833 -58.5 -58.5s-62.833 -21.5 -97.5 -23.5c-4 -0.666992 -7.83301 -1 -11.5 -1h-11.5
c-20.667 0 -40.5 2 -59.5 6s-35.167 9.66699 -48.5 17c-2 1.33301 -3.83301 2.33301 -5.5 3s-3.5 1.66699 -5.5 3l-5 2.5c-2 1 -4 1.83301 -6 2.5l6 6l6 6c10.667 10.667 20.167 21.834 28.5 33.501s15.166 24.834 20.499 39.501l52.5 152.5l51.5 151.5
c5.33301 15.333 11.833 30.166 19.5 44.499s16.167 27.833 25.5 40.5c-8.66699 -2.66699 -17.667 -5.66699 -27 -9s-18.666 -7.33301 -27.999 -12c-26 -12.667 -50.667 -29.167 -74 -49.5s-38.666 -42.833 -45.999 -67.5c-2 -6 -3.33301 -11.5 -4 -16.5s-1 -9.5 -1 -13.5
c0 -8.66699 2 -15.834 6 -21.501s9.33301 -10.834 16 -15.501c4 -2.66699 8.33301 -5.16699 13 -7.5s9.66699 -5.16602 15 -8.49902c-14.667 -17.333 -30.334 -31.5 -47.001 -42.5s-37.667 -15.833 -63 -14.5c-30 1.33301 -52.833 11.166 -68.5 29.499
s-23.5 39.833 -23.5 64.5c0 9.33301 1.16699 18.833 3.5 28.5s5.5 19.167 9.5 28.5c13.333 30 36.333 57.667 69 83s72 47.333 118 66c45.333 18.667 95.333 33.167 150 43.5s110.667 15.5 168 15.5h1.5h1.5c17.333 0 42.333 -0.5 75 -1.5s67 -3.83301 103 -8.5
c50 -7.33301 95.667 -20.5 137 -39.5s62 -48.833 62 -89.5c0 -33.333 -12.833 -60.666 -38.5 -81.999s-53.5 -37 -83.5 -47c-8.66699 -2.66699 -17 -5 -25 -7s-15.667 -3.66699 -23 -5c11.333 -7.33301 21.333 -15.833 30 -25.5s15.334 -21.167 20.001 -34.5
c2.66699 -7.33301 5.5 -16 8.5 -26l9.5 -32c6 -18 13.167 -34.833 21.5 -50.5s18.833 -23.5 31.5 -23.5c5.33301 0.666992 11.166 2.83398 17.499 6.50098s13.166 9.83398 20.499 18.501c11.333 12.667 20 26.167 26 40.5s11.667 28.833 17 43.5
c0 1.33301 0.166992 2.5 0.5 3.5s0.833008 2.16699 1.5 3.5l51 -21v0zM738.002 484.999c0 18 -6.33301 29.833 -19 35.5s-26.667 8.5 -42 8.5c-36 0 -62.667 -12.167 -80 -36.5s-31.333 -51.166 -42 -80.499c-2.66699 -7.33301 -5.16699 -14.833 -7.5 -22.5
s-4.83301 -14.834 -7.5 -21.501c-0.666992 -1.33301 -1.16699 -2.5 -1.5 -3.5s-0.5 -1.83301 -0.5 -2.5h13h13c21.333 0 42 1 62 3s39.667 10 59 24c14.667 10.667 27.167 24.667 37.5 42s15.5 35.333 15.5 54v0z" />
    <glyph glyph-name="S" unicode="S" horiz-adv-x="685" 
d="M722 462c-4.66699 -16.667 -14.1709 -28.9883 -28.5039 -36.9883s-29.833 -12.667 -46.5 -14h-3.5h-3.5c-4.66699 0 -9.16699 0.333008 -13.5 1l-12.5 2c-4.66699 1.33301 -9.33398 3.16602 -14.001 5.49902s-9.33398 4.83301 -14.001 7.5
c-2.66699 1.33301 -5 2.66602 -7 3.99902s-4.33301 2.66602 -7 3.99902l10.5 7c3 2 5.83301 4 8.5 6c4 2.66699 7.33301 6 10 10s5 10 7 18c0.666992 2.66699 1.16699 5.16699 1.5 7.5s0.5 4.5 0.5 6.5c0 16.667 -8.16699 29.5 -24.5 38.5s-34.166 13.833 -53.499 14.5h-1.5
h-1.5c-16.667 0 -32.5 -3.5 -47.5 -10.5s-25.167 -18.167 -30.5 -33.5c-0.666992 -2.66699 -1.33398 -5.16699 -2.00098 -7.5s-1 -4.83301 -1 -7.5c0.666992 -12.667 5.66699 -24.334 15 -35.001s19.333 -20.334 30 -29.001l15 -11l13 -9
c4 -2.66699 8.16699 -5.66699 12.5 -9s8.83301 -6.33301 13.5 -9c32 -24 61.5 -51 88.5 -81s40.5 -67 40.5 -111c0 -10.667 -1 -21.5 -3 -32.5s-5 -22.833 -9 -35.5c-19.333 -56 -60.333 -100 -123 -132s-129.667 -50.667 -201 -56
c-7.33301 -0.666992 -14.666 -1.16699 -21.999 -1.5s-14.666 -0.5 -21.999 -0.5c-40.667 0 -79.5 4.66699 -116.5 14s-69.167 23.333 -96.5 42c-20 13.333 -35.833 30 -47.5 50s-18.5 40.667 -20.5 62c-0.666992 2 -1 4.16699 -1 6.5v7.5c0 25.333 7.5 48.666 22.5 69.999
s37.833 35.666 68.5 42.999c5.33301 1.33301 10.666 2.16602 15.999 2.49902s10.666 0.5 15.999 0.5c14 0 27.5 -2.16699 40.5 -6.5s23.833 -11.833 32.5 -22.5l8.5 -10c1.66699 -2 2.5 -3.66699 2.5 -5v-0.5c0 -0.333008 -0.333008 -0.833008 -1 -1.5
s-2.16699 -1.66699 -4.5 -3s-5.16602 -3.33301 -8.49902 -6c-0.666992 -0.666992 -1.5 -1.33398 -2.5 -2.00098s-2.16699 -1.33398 -3.5 -2.00098c-6.66699 -5.33301 -13.167 -11.833 -19.5 -19.5s-10.166 -15.834 -11.499 -24.501
c-0.666992 -5.33301 -1.5 -10.666 -2.5 -15.999s-1.5 -10.333 -1.5 -15c0.666992 -36.667 14.667 -64 42 -82s58 -27 92 -27h4h4c31.333 1.33301 60.666 10 87.999 26s45.333 40 54 72c1.33301 5.33301 2.33301 10.166 3 14.499s1 8.83301 1 13.5
c0 26.667 -9.83301 50.167 -29.5 70.5s-41.167 39.833 -64.5 58.5c-0.666992 0 -1.16699 0.166992 -1.5 0.5l-1.5 1.5l-1.5 1.5c-0.333008 0.333008 -0.833008 0.5 -1.5 0.5c-28 22 -53.667 45.5 -77 70.5s-35 55.833 -35 92.5
c0.666992 9.33301 1.83398 18.666 3.50098 27.999s4.16699 19.333 7.5 30c12.667 37.333 39.334 66 80.001 86s83.667 33 129 39c11.333 1.33301 22.333 2.33301 33 3s21.334 1 32.001 1c13.333 -0.666992 26.5 -1.5 39.5 -2.5s24.833 -2.5 35.5 -4.5
c4.66699 -0.666992 9.33398 -1.66699 14.001 -3l14 -4c24 -8 46 -19.5 66 -34.5s29.667 -35.5 29 -61.5c0 -3.33301 -0.166992 -7 -0.5 -11s-1.16602 -8.33301 -2.49902 -13v0z" />
    <glyph glyph-name="T" unicode="T" horiz-adv-x="842" 
d="M958 525c0 -18.667 -7 -33.0029 -21 -43.0029s-29.667 -17 -47 -21c-5.33301 -1.33301 -10.666 -2.33301 -15.999 -3s-10.333 -1.33398 -15 -2.00098c-6 -0.666992 -12 -1.16699 -18 -1.5s-12.333 -0.5 -19 -0.5c-10.667 0 -21.834 0.5 -33.501 1.5
s-23.5 2.83301 -35.5 5.5c-3.33301 0.666992 -7 1.5 -11 2.5s-8 2.16699 -12 3.5c-2 -3.33301 -3.66699 -6.83301 -5 -10.5s-3 -7.16699 -5 -10.5l-4 -11.5l-4 -10.5c-2.66699 -7.33301 -5.16699 -14.833 -7.5 -22.5l-7.5 -23.5c-2 -6.66699 -4.16699 -13.5 -6.5 -20.5
s-4.5 -13.833 -6.5 -20.5c-18.667 -54.667 -40.834 -107.667 -66.501 -159s-64.167 -92.666 -115.5 -123.999c-35.333 -20.667 -74.833 -35.667 -118.5 -45s-92.167 -14 -145.5 -14c-12.667 0 -26.334 0.666992 -41.001 2s-29.667 3 -45 5
c-35.333 7.33301 -67.5 20.333 -96.5 39s-43.5 46.334 -43.5 83.001c0 29.333 9.5 54.833 28.5 76.5s40.833 32.5 65.5 32.5c9.33301 0 18.833 -2 28.5 -6s19.167 -10 28.5 -18l3.5 -3.5l3.5 -3.5c0.666992 -1.33301 1.5 -2.5 2.5 -3.5l3.5 -3.5
c-8 -8.66699 -15.667 -18.167 -23 -28.5s-12 -20.5 -14 -30.5c-0.666992 -2.66699 -1 -5 -1 -7v-6c0 -6.66699 1.66699 -13.5 5 -20.5s8.33301 -13.833 15 -20.5c8 -7.33301 16.667 -12.833 26 -16.5s18.666 -5.5 27.999 -5.5c2.66699 0 5.16699 0.166992 7.5 0.5
s4.5 0.5 6.5 0.5c14.667 2.66699 28.667 8.16699 42 16.5s25 18.166 35 29.499c14.667 17.333 29 39.666 43 66.999s28 61 42 101c0.666992 1.33301 1.16699 2.83301 1.5 4.5s0.833008 3.5 1.5 5.5l10 31c3.33301 10.667 7 21.334 11 32.001
c10.667 32.667 24.167 64.334 40.5 95.001s38.5 55.334 66.5 74.001c-6.66699 2.66699 -13.5 4.83398 -20.5 6.50098s-13.833 3.16699 -20.5 4.5s-13.5 2.33301 -20.5 3s-13.833 1 -20.5 1c-22 -0.666992 -43.333 -4 -64 -10s-40.667 -15 -60 -27
c-22 -14.667 -40.833 -33.334 -56.5 -56.001s-23.5 -47.667 -23.5 -75c0 -2.66699 0.166992 -5.66699 0.5 -9s0.833008 -6.66602 1.5 -9.99902c2 -11.333 5.5 -20.333 10.5 -27s10.833 -13 17.5 -19l9.5 -7.5l9.5 -7.5c-1.33301 -0.666992 -2.66602 -1.16699 -3.99902 -1.5
s-2.33301 -0.5 -3 -0.5c-3.33301 -1.33301 -6.66602 -2.5 -9.99902 -3.5s-6.66602 -2.16699 -9.99902 -3.5c-8.66699 -2.66699 -17.5 -5 -26.5 -7s-18.167 -3 -27.5 -3c-4.66699 0 -9.83398 0.333008 -15.501 1s-11.5 2 -17.5 4c-27.333 8 -48.666 24.333 -63.999 49
s-23.666 50.667 -24.999 78v4v4c0 7.33301 0.5 14.333 1.5 21s2.5 13.334 4.5 20.001c8 25.333 22.833 48 44.5 68s47.5 37 77.5 51c27.333 11.333 56.166 19.833 86.499 25.5s61.5 8.5 93.5 8.5c35.333 0 70.333 -3.33301 105 -10s67.334 -16 98.001 -28
c15.333 10 32.5 17.833 51.5 23.5s38.5 9.83398 58.5 12.501c14 2 27.833 3.5 41.5 4.5s26.834 1.5 39.501 1.5c9.33301 0 21.166 -0.333008 35.499 -1s29.166 -2.33398 44.499 -5.00098c24 -4 46.167 -11.333 66.5 -22s30.5 -27.334 30.5 -50.001v0zM903 527.997
c1.33301 2 2.33398 3.83203 3.00098 5.49902s1 3.16699 1 4.5c0 4.66699 -2.83301 8 -8.5 10s-11.834 3.66699 -18.501 5c-4 0.666992 -8 1 -12 1h-10h-4h-4c-15.333 -2 -30.166 -7.16699 -44.499 -15.5s-26.833 -17.166 -37.5 -26.499c8.66699 -2.66699 19 -5 31 -7
s24.333 -3 37 -3c13.333 0 26.166 2 38.499 6s21.833 10.667 28.5 20v0z" />
    <glyph glyph-name="U" unicode="U" horiz-adv-x="929" 
d="M1030 204c-13.333 -27.333 -28.0029 -54.167 -44.0029 -80.5s-36.333 -49.166 -61 -68.499c-16.667 -13.333 -37 -24.333 -61 -33s-49 -14.334 -75 -17.001c-4 0 -8.16699 -0.166992 -12.5 -0.5s-8.5 -0.5 -12.5 -0.5c-36.667 0.666992 -69.834 9.83398 -99.501 27.501
s-46.5 47.5 -50.5 89.5c-26 -32.667 -59.333 -61.334 -100 -86.001s-83 -37.667 -127 -39h-3.5h-3.5c-10.667 0 -21.5 0.833008 -32.5 2.5s-21.833 4.5 -32.5 8.5c-32.667 12.667 -56.667 32.334 -72 59.001s-23 55.334 -23 86.001c0 12 1 24 3 36s5.33301 24 10 36
c6.66699 16.667 13.834 33 21.501 49l23.5 48c0.666992 2 1.66699 4.16699 3 6.5s2.33301 4.5 3 6.5c9.33301 18 18.166 36 26.499 54s15.5 36.333 21.5 55c2.66699 7.33301 4.66699 14.333 6 21s2 13 2 19c0 15.333 -4.83301 28.166 -14.5 38.499s-25.167 15.5 -46.5 15.5
c-36.667 0 -68.167 -12.667 -94.5 -38s-41.166 -55.666 -44.499 -90.999c-0.666992 -2.66699 -1 -5.16699 -1 -7.5v-6.5c0 -23.333 7.16699 -38 21.5 -44s31.5 -10 51.5 -12c2 0 3.83301 -0.166992 5.5 -0.5s3.16699 -0.5 4.5 -0.5c-2 -2 -4 -4.16699 -6 -6.5
s-3.66699 -4.5 -5 -6.5c-0.666992 -0.666992 -1.33398 -1.5 -2.00098 -2.5s-1.33398 -1.83301 -2.00098 -2.5c-1.33301 -1.33301 -2.66602 -2.83301 -3.99902 -4.5s-2.66602 -3.16699 -3.99902 -4.5c-11.333 -13.333 -23.166 -23.5 -35.499 -30.5s-24.5 -11.5 -36.5 -13.5
c-3.33301 -0.666992 -6.5 -1.16699 -9.5 -1.5s-6.16699 -0.5 -9.5 -0.5c-26.667 0 -50 10 -70 30s-30 45.333 -30 76c0 9.33301 1 18.666 3 27.999s5.33301 19 10 29c20 46.667 55.167 83.834 105.5 111.501s103.833 45.167 160.5 52.5
c10.667 1.33301 21.167 2.33301 31.5 3s20.5 1 30.5 1c21.333 0 42.166 -1.66699 62.499 -5s39.166 -8 56.499 -14c34.667 -12 62.334 -30.167 83.001 -54.5s31 -52.833 31 -85.5c0 -8.66699 -0.833008 -17.5 -2.5 -26.5s-4.16699 -18.167 -7.5 -27.5
c-6.66699 -17.333 -14 -34.5 -22 -51.5s-16.333 -33.833 -25 -50.5c-2 -2.66699 -3.66699 -5.33398 -5 -8.00098l-4 -8c-1.33301 -3.33301 -4.5 -9.5 -9.5 -18.5s-10.167 -19.167 -15.5 -30.5l-6.5 -15l-6.5 -15c-4 -10 -7.16699 -19.833 -9.5 -29.5
s-3.5 -18.167 -3.5 -25.5c0 -8.66699 2 -15.5 6 -20.5s10.667 -7.5 20 -7.5s21.833 5.16699 37.5 15.5s31.834 25.833 48.501 46.5c2 2 3.83301 4 5.5 6s3.16699 4 4.5 6c13.333 16.667 26.5 36 39.5 58s24.5 47 34.5 75l27.5 78l27.5 79c0.666992 2.66699 1.5 5.5 2.5 8.5
s1.83301 6.16699 2.5 9.5c5.33301 14 10.5 28.333 15.5 43l14.5 44h127.5h127.5l-73.5 -212l-73.5 -213c0 -0.666992 -0.333008 -1.5 -1 -2.5s-1 -1.83301 -1 -2.5c-2 -4.66699 -3.66699 -9 -5 -13s-2 -7.33301 -2 -10c0 -3.33301 1.33301 -6 4 -8s7.33398 -3 14.001 -3
c14.667 0 29 7.16699 43 21.5s26.333 30.166 37 47.499c6 10 11.333 19.667 16 29s8.33398 17.333 11.001 24l55 -25v0z" />
    <glyph glyph-name="V" unicode="V" horiz-adv-x="764" 
d="M813 375c-17.333 -50.667 -40.998 -100.331 -70.998 -148.998s-65 -91 -105 -127c-23.333 -20.667 -52.166 -40.167 -86.499 -58.5s-69.833 -31.166 -106.5 -38.499c-9.33301 -1.33301 -18.666 -2.5 -27.999 -3.5s-18.666 -1.5 -27.999 -1.5
c-27.333 0 -53.333 5.16699 -78 15.5s-45.667 28.166 -63 53.499c-10.667 14.667 -18.167 29.667 -22.5 45s-6.5 30.666 -6.5 45.999c0 10.667 1 21.5 3 32.5s4.66699 22.167 8 33.5c6 19.333 13.667 38.833 23 58.5s19 38.834 29 57.501l29.5 56.5
c9.66699 18.333 17.5 36.166 23.5 53.499c2.66699 6.66699 4.5 13 5.5 19s1.5 11.333 1.5 16c0 14.667 -5 26 -15 34s-25.333 12 -46 12c-34.667 0 -65.167 -11.667 -91.5 -35s-40.833 -52.333 -43.5 -87c-0.666992 -2.66699 -1 -5.16699 -1 -7.5v-7.5
c0 -23.333 7 -37.833 21 -43.5s31 -9.5 51 -11.5c1.33301 0 2.83301 -0.166992 4.5 -0.5s3.5 -0.5 5.5 -0.5c-2.66699 -2.66699 -5.33398 -5.5 -8.00098 -8.5s-5 -6.16699 -7 -9.5c-1.33301 -1.33301 -2.5 -2.83301 -3.5 -4.5s-2.16699 -3.16699 -3.5 -4.5
c-8.66699 -10 -17.834 -18.333 -27.501 -25s-19.167 -11.667 -28.5 -15c-6 -2 -12 -3.5 -18 -4.5s-11.667 -1.5 -17 -1.5c-26.667 0 -50 10.167 -70 30.5s-30 45.833 -30 76.5c0 8.66699 1 17.667 3 27s5 19 9 29c20.667 47.333 56.834 84.833 108.501 112.5
s106.5 45.167 164.5 52.5l27.5 2c9 0.666992 18.167 1 27.5 1c21.333 0 42.166 -1.5 62.499 -4.5s39.166 -7.83301 56.499 -14.5c34.667 -12 62.5 -30.167 83.5 -54.5s31.167 -52.833 30.5 -85.5c0 -8.66699 -0.833008 -17.5 -2.5 -26.5s-4.16699 -18.167 -7.5 -27.5
c-6.66699 -20.667 -15 -40.667 -25 -60l-31 -58l-39.5 -80c-11 -23.333 -17.833 -42.666 -20.5 -57.999v-2v-2c-0.666992 -0.666992 -1 -1.16699 -1 -1.5v-1.5c0.666992 -8 3.5 -14.167 8.5 -18.5s13.5 -6.5 25.5 -6.5c44.667 0 84.667 22.5 120 67.5
s62.666 94.5 81.999 148.5c10 26 17.5 51.833 22.5 77.5s7.5 48.5 7.5 68.5c0 28 -4 50.5 -12 67.5s-24.333 31.5 -49 43.5c2 2.66699 3.66699 5.16699 5 7.5s3 4.5 5 6.5c8 10.667 16.667 19.5 26 26.5s21.333 10.167 36 9.5h4.5h4.5c2.66699 0 5.16699 -0.333008 7.5 -1
s4.83301 -1.33398 7.5 -2.00098c9.33301 -2 18.333 -5.5 27 -10.5s16 -11.5 22 -19.5c9.33301 -14.667 16.166 -29.834 20.499 -45.501s6.5 -32.167 6.5 -49.5c0 -6 -0.333008 -12.333 -1 -19s-1.66699 -13 -3 -19c-2 -13.333 -4.66699 -26.333 -8 -39s-7 -25 -11 -37v0z
" />
    <glyph glyph-name="W" unicode="W" horiz-adv-x="1164" 
d="M1211 584c10.667 -15.333 18.335 -32.001 23.002 -50.001s7 -36.667 7 -56c0 -16 -1.5 -32.333 -4.5 -49s-7.16699 -33.334 -12.5 -50.001c-11.333 -36 -27 -71.5 -47 -106.5s-41 -66.5 -63 -94.5c-12.667 -16 -24.834 -30.667 -36.501 -44
s-22.834 -24.666 -33.501 -33.999c-36 -31.333 -75.333 -56.166 -118 -74.499s-88.334 -27.833 -137.001 -28.5c-40.667 0 -77 12.333 -109 37s-51.667 57.334 -59 98.001c-26.667 -37.333 -62 -69.333 -106 -96s-89.667 -40 -137 -40c-52 0 -91.667 15.5 -119 46.5
s-41 67.833 -41 110.5c0 11.333 1 23 3 35s5.33301 24 10 36c6.66699 17.333 14 34.333 22 51l24 49c1.33301 2 2.33301 3.66699 3 5s1.33398 3 2.00098 5c9.33301 18 18.166 36 26.499 54s15.833 36.333 22.5 55c2.66699 7.33301 4.66699 14.166 6 20.499s2 12.5 2 18.5
c-0.666992 16 -5.83398 29.167 -15.501 39.5s-25.167 15.5 -46.5 15.5c-36.667 0 -68.167 -12.667 -94.5 -38s-41.166 -55.666 -44.499 -90.999v-3.5v-3.5c-0.666992 -0.666992 -1 -1.5 -1 -2.5v-3.5c0.666992 -24 7.83398 -39 21.501 -45s30.834 -10 51.501 -12
c2 0 3.66699 -0.166992 5 -0.5s3 -0.5 5 -0.5c-2 -2 -4 -4.16699 -6 -6.5s-3.66699 -4.5 -5 -6.5c-0.666992 -0.666992 -1.33398 -1.5 -2.00098 -2.5s-1.33398 -1.83301 -2.00098 -2.5c-1.33301 -1.33301 -2.66602 -2.83301 -3.99902 -4.5s-2.66602 -3.16699 -3.99902 -4.5
c-9.33301 -10.667 -19 -19.5 -29 -26.5s-20.333 -11.833 -31 -14.5c-4.66699 -2 -9.5 -3.33301 -14.5 -4s-10.167 -1 -15.5 -1c-26.667 0 -50 10 -70 30s-30 45.333 -30 76c0 9.33301 1 18.666 3 27.999s5 19 9 29c20.667 47.333 56.834 84.833 108.501 112.5
s106.5 45.167 164.5 52.5l27.5 2c9 0.666992 18.167 1 27.5 1c21.333 0 42.166 -1.5 62.499 -4.5s39.5 -7.83301 57.5 -14.5c34.667 -12 62.167 -30.167 82.5 -54.5s30.5 -52.833 30.5 -85.5c0 -8.66699 -0.833008 -17.5 -2.5 -26.5s-4.16699 -18.167 -7.5 -27.5
c-6.66699 -20.667 -15 -40.667 -25 -60l-31 -58c-1.33301 -3.33301 -4.5 -9.5 -9.5 -18.5s-10.167 -19.167 -15.5 -30.5l-6.5 -14.5c-2.33301 -5 -4.5 -10.167 -6.5 -15.5c-4 -10 -7.16699 -19.667 -9.5 -29s-3.5 -17.666 -3.5 -24.999c0 -8.66699 2.16699 -15.667 6.5 -21
s11.166 -8 20.499 -8c6.66699 0 13.334 1.33301 20.001 4s13.334 6.33398 20.001 11.001c14 10 28 23.667 42 41s26.667 35.666 38 54.999c11.333 18 21.166 35.5 29.499 52.5s14.5 30.5 18.5 40.5l27 74c8.66699 24.667 17 49.667 25 75l19.5 56.5l19.5 56.5h257
l-56 -163.5l-57 -161.5l-23 -71c-6.66699 -20.667 -10 -37.667 -10 -51c0 -8.66699 2.83301 -15.334 8.5 -20.001s14.834 -7 27.501 -7c44.667 0 84.834 22.5 120.501 67.5s63.167 94.5 82.5 148.5c9.33301 26 16.666 51.833 21.999 77.5s8 48.5 8 68.5
c0 28 -4.16699 50.5 -12.5 67.5s-24.5 31.5 -48.5 43.5c1.33301 2 2.66602 3.83301 3.99902 5.5s2.33301 3.5 3 5.5c8 11.333 16.833 20.833 26.5 28.5s22.167 11.167 37.5 10.5h4.5h4.5c2.66699 0 5.33398 -0.333008 8.00098 -1l8 -2c9.33301 -2 18.166 -5.5 26.499 -10.5
s15.166 -11.5 20.499 -19.5v0z" />
    <glyph glyph-name="X" unicode="X" horiz-adv-x="834" 
d="M938 243c-17.333 -68.667 -52.9971 -126.667 -106.997 -174s-117.667 -71 -191 -71c-66 0 -115.833 17 -149.5 51s-59.5 75.333 -77.5 124l-20.5 -21l-21.5 -22c-31.333 -32 -65.166 -61.167 -101.499 -87.5s-77.833 -39.5 -124.5 -39.5
c-3.33301 0 -6.5 0.166992 -9.5 0.5s-6.16699 0.5 -9.5 0.5c-28.667 3.33301 -54.667 13.5 -78 30.5s-35 41.167 -35 72.5c0 8 1 16 3 24s4.33301 16 7 24c0.666992 2.66699 1.5 5.33398 2.5 8.00098s1.83301 5.33398 2.5 8.00098l9.5 -13.5
c3 -4.33301 6.16699 -8.16602 9.5 -11.499c12.667 -15.333 26.167 -27.333 40.5 -36s34.166 -13 59.499 -13c43.333 0 82.333 11.667 117 35s67.334 49 98.001 77l16 15.5l16 14.5c-2.66699 10.667 -5 21.167 -7 31.5s-4.33301 20.5 -7 30.5
c0 1.33301 -0.166992 2.66602 -0.5 3.99902s-0.5 2.66602 -0.5 3.99902l-12.5 58c-4.33301 19.333 -9.5 38.666 -15.5 57.999c0 0.666992 -0.166992 1.16699 -0.5 1.5s-0.5 0.833008 -0.5 1.5c-6 20.667 -13.5 39 -22.5 55s-26.167 23.667 -51.5 23
c-28.667 -0.666992 -52.667 -12.834 -72 -36.501s-28.333 -49.5 -27 -77.5c1.33301 -21.333 7.83301 -35.833 19.5 -43.5s25.5 -11.5 41.5 -11.5c4 0 8.16699 0.166992 12.5 0.5s8.83301 0.833008 13.5 1.5c4 0.666992 7.83301 1.5 11.5 2.5s7.5 1.83301 11.5 2.5
c2 0.666992 4.33301 1.16699 7 1.5s5.33398 0.833008 8.00098 1.5c-0.666992 -2 -1.5 -4 -2.5 -6s-1.83301 -4 -2.5 -6c-2 -3.33301 -3.83301 -6.83301 -5.5 -10.5s-3.16699 -7.5 -4.5 -11.5c-11.333 -24 -25.833 -41.333 -43.5 -52s-36.167 -16 -55.5 -16
c-29.333 0 -56 11 -80 33s-36 50.333 -36 85c0 8 0.833008 16.333 2.5 25s4.16699 17.334 7.5 26.001c20 54 54.333 95.167 103 123.5s100.334 45.5 155.001 51.5c7.33301 0.666992 14.666 1.16699 21.999 1.5s14.666 0.5 21.999 0.5c62 0 110.167 -17.5 144.5 -52.5
s61.5 -77.167 81.5 -126.5l29 32.5c10 11.667 20.667 23.5 32 35.5c24.667 27.333 52 52.5 82 75.5s62.333 34.5 97 34.5c30 0 53.167 -8.5 69.5 -25.5s24.5 -36.5 24.5 -58.5c0 -2.66699 -0.166992 -5.66699 -0.5 -9s-1.16602 -6.33301 -2.49902 -9
c-2.66699 -12.667 -8.33398 -24.667 -17.001 -36s-20.334 -21.333 -35.001 -30l-19 -11c0 0.666992 -0.166992 1.33398 -0.5 2.00098l-0.5 1c-6.66699 17.333 -14.334 31.666 -23.001 42.999s-23.334 17 -44.001 17c-26.667 0 -50.667 -8.33301 -72 -25s-41 -35 -59 -55
c-7.33301 -7.33301 -14.333 -14.833 -21 -22.5l-19 -21.5c4.66699 -16 9 -32.333 13 -49l12 -49c0.666992 -2 1.16699 -3.66699 1.5 -5s0.833008 -2.66602 1.5 -3.99902c3.33301 -15.333 6.83301 -30.5 10.5 -45.5s7.5 -29.833 11.5 -44.5
c5.33301 -16.667 12.666 -28.334 21.999 -35.001s20 -10 32 -10c4 0 8.16699 0.5 12.5 1.5s8.83301 2.16699 13.5 3.5c6.66699 2 13.167 4.5 19.5 7.5s12.5 6.5 18.5 10.5c23.333 15.333 42 33.833 56 55.5s25.333 45.167 34 70.5l49 -14v0z" />
    <glyph glyph-name="Y" unicode="Y" horiz-adv-x="874" 
d="M996 600l-43.5068 -126.495l-43.5 -126.5l-43.5 -126.5l-43.5 -126.5c-31.333 -92.667 -87.666 -162.667 -168.999 -210s-168.666 -70.666 -261.999 -69.999c-18.667 0 -37.5 1 -56.5 3s-37.833 5 -56.5 9c-7.33301 1.33301 -15.333 3.16602 -24 5.49902
s-17.334 5.16602 -26.001 8.49902c-25.333 9.33301 -48.5 22.333 -69.5 39s-31.5 39.334 -31.5 68.001c0 30 10.833 53.333 32.5 70s45.5 25 71.5 25c14.667 0 28.834 -2.83301 42.501 -8.5s25.834 -14.834 36.501 -27.501l17 -18c-2 -0.666992 -4.16699 -1.5 -6.5 -2.5
s-4.5 -1.83301 -6.5 -2.5c-13.333 -6.66699 -25.5 -14.334 -36.5 -23.001s-16.5 -20.334 -16.5 -35.001v-5c0 -2 0.333008 -4 1 -6c2 -12.667 8.33301 -22.167 19 -28.5s22 -10.166 34 -11.499c0.666992 -0.666992 1.5 -1 2.5 -1h3.5
c70.667 -3.33301 126.334 19.334 167.001 68.001s71.667 103 93 163c0.666992 1.33301 1.16699 2.66602 1.5 3.99902s0.833008 2.66602 1.5 3.99902c-24 -22.667 -51.833 -41.834 -83.5 -57.501s-64.167 -24.5 -97.5 -26.5h-5.5h-4.5
c-3.33301 0 -6.83301 0.166992 -10.5 0.5s-7.16699 0.5 -10.5 0.5c-7.33301 1.33301 -14.5 2.83301 -21.5 4.5s-13.833 3.5 -20.5 5.5c-34 12 -59.333 31.667 -76 59s-25 56.666 -25 87.999c0 6 0.333008 11.833 1 17.5s1.66699 11.5 3 17.5
c0.666992 6 1.83398 11.833 3.50098 17.5s3.5 11.5 5.5 17.5c6 17.333 12.833 34.333 20.5 51l23.5 50c0 0.666992 0.333008 1.5 1 2.5s1 1.83301 1 2.5l26 56.5c8.66699 19 16.334 38.167 23.001 57.5c2 6.66699 3.5 13.167 4.5 19.5s1.5 12.166 1.5 17.499
c0 16.667 -4.83301 30.334 -14.5 41.001s-25.5 16 -47.5 16c-36 0 -66.833 -12.333 -92.5 -37s-40.167 -54.334 -43.5 -89.001c-2.66699 -32.667 4 -52.667 20 -60s36.333 -12 61 -14h0.5h1.5l-11.5 -13.5l-10.5 -12.5c-11.333 -13.333 -23.166 -23.833 -35.499 -31.5
s-24.5 -12.5 -36.5 -14.5c-3.33301 -0.666992 -6.5 -1.16699 -9.5 -1.5s-6.16699 -0.5 -9.5 -0.5c-26.667 0.666992 -50.167 11.167 -70.5 31.5s-30.5 45.833 -30.5 76.5c0 9.33301 1 18.5 3 27.5s5 18.5 9 28.5c20 48 56 85.833 108 113.5s107.333 44.5 166 50.5
c8.66699 0.666992 17 1.16699 25 1.5s16 0.5 24 0.5c62.667 0 117.834 -12.833 165.501 -38.5s71.5 -64.5 71.5 -116.5c0 -8.66699 -0.833008 -17.834 -2.5 -27.501s-4.16699 -19.5 -7.5 -29.5c-6.66699 -20.667 -14.834 -40.667 -24.501 -60l-29.5 -58
c-2 -3.33301 -5.16699 -9 -9.5 -17s-8.83301 -17.333 -13.5 -28c-2.66699 -4.66699 -5.16699 -9.66699 -7.5 -15s-4.5 -10.666 -6.5 -15.999c-3.33301 -8.66699 -6 -17.167 -8 -25.5s-3 -16.166 -3 -23.499c0 -8.66699 2.16699 -15.834 6.5 -21.501s11.833 -8.5 22.5 -8.5
c2 0 3.83301 0.166992 5.5 0.5s3.5 0.5 5.5 0.5c18.667 4 37 16.667 55 38s34.333 44.333 49 69c10.667 18.667 20 36.834 28 54.501s13.667 31.167 17 40.5l14 40l31 88l26.5 79.5c8.33301 25 13.833 41.167 16.5 48.5h245v0z" />
    <glyph glyph-name="Z" unicode="Z" horiz-adv-x="742" 
d="M789 499l-65.5068 -66.4951l-65.5 -67.5l-32.5 -33l-32.5 -33l-98 -101l-99 -100c-6.66699 -6.66699 -11.334 -13 -14.001 -19s-4 -11.667 -4 -17c0 -10.667 5.5 -19.334 16.5 -26.001s23.833 -11.667 38.5 -15c7.33301 -1.33301 15 -2.5 23 -3.5s16.333 -1.5 25 -1.5
h10.5c3.66699 0 7.16699 0.333008 10.5 1c20.667 2 40.5 6.66699 59.5 14s35.5 17.666 49.5 30.999c8 8 14.5 15.667 19.5 23s8.5 14.333 10.5 21c0.666992 2.66699 1.16699 5.5 1.5 8.5s0.5 5.83301 0.5 8.5c0 9.33301 -2 19.166 -6 29.499l-14 34.5
c0.666992 0 1.5 -0.166992 2.5 -0.5s2.16699 -0.833008 3.5 -1.5c28 -9.33301 53.667 -20.5 77 -33.5s35 -36.167 35 -69.5c0 -4 -0.166992 -8 -0.5 -12s-1.16602 -8.66699 -2.49902 -14c-6 -35.333 -23 -60.833 -51 -76.5s-58 -24.834 -90 -27.501
c-3.33301 -0.666992 -6.83301 -1 -10.5 -1h-10.5c-38 0 -75.667 4 -113 12s-74.333 17 -111 27c-3.33301 0.666992 -6.5 1.5 -9.5 2.5s-6.16699 1.83301 -9.5 2.5c-38 10 -76.667 16.833 -116 20.5s-78.666 5.5 -117.999 5.5c-16 0 -31.833 -0.166992 -47.5 -0.5
s-31.5 -0.833008 -47.5 -1.5l105.5 114l105.5 114l105 114l105 114c2.66699 2.66699 4.83398 5.5 6.50098 8.5s3.16699 6.16699 4.5 9.5c0 1.33301 0.166992 2.83301 0.5 4.5s0.5 3.16699 0.5 4.5c0 6.66699 -2 12.5 -6 17.5s-10.667 8.5 -20 10.5
c-10.667 2.66699 -21.667 4.66699 -33 6s-22.666 2 -33.999 2c-13.333 0 -26.666 -1 -39.999 -3s-26.333 -5.66699 -39 -11c-2 -0.666992 -4 -1.5 -6 -2.5s-4 -2.16699 -6 -3.5c-18 -10 -34.667 -24.333 -50 -43s-23.666 -38.334 -24.999 -59.001v-2v-2
c0 -4.66699 0.5 -9.16699 1.5 -13.5s2.16699 -8.5 3.5 -12.5c4.66699 -12 11.834 -20.833 21.501 -26.5s20.167 -10.5 31.5 -14.5c0.666992 -0.666992 1.33398 -1.16699 2.00098 -1.5s1.33398 -0.5 2.00098 -0.5c0.666992 -0.666992 1.5 -1.16699 2.5 -1.5
s1.83301 -0.5 2.5 -0.5c-2 -2 -4.16699 -4 -6.5 -6s-4.83301 -4.33301 -7.5 -7c-12 -10.667 -24.333 -19.834 -37 -27.501s-28 -11.167 -46 -10.5c-30 0.666992 -55 12.834 -75 36.501s-30 49.834 -30 78.501c0 6 0.5 11.833 1.5 17.5s2.5 11.167 4.5 16.5
c19.333 56 54.666 94.167 105.999 114.5s106.333 30.166 165 29.499c39.333 0 77.5 -3 114.5 -9s69.833 -13 98.5 -21c30 -8 60.5 -14.333 91.5 -19s61.833 -7 92.5 -7c9.33301 0 18.833 0.333008 28.5 1l28.5 2l15 -31v0z" />
    <glyph glyph-name="bracketleft" unicode="[" horiz-adv-x="427" 
d="M407 579h-91l-193 -561h78v-36h-182l219 634h169v-37v0z" />
    <glyph glyph-name="backslash" unicode="\" horiz-adv-x="300" 
d="M414 -219h-77l-330 980h78l329 -980v0z" />
    <glyph glyph-name="bracketright" unicode="]" horiz-adv-x="427" 
d="M18 19h91l193 561h-78v36h182l-219 -634h-169v37v0z" />
    <glyph glyph-name="asciicircum" unicode="^" horiz-adv-x="500" 
 />
    <glyph glyph-name="underscore" unicode="_" horiz-adv-x="800" 
d="M815 -114h-830v76h830v-76v0z" />
    <glyph glyph-name="grave" unicode="`" horiz-adv-x="199" 
d="M184 617c-4.66699 0.666992 -9.49805 1.00293 -14.498 1.00293s-9.83301 0.333008 -14.5 1l-28.5 2l-29.5 2c-8.66699 1.33301 -17.167 2.83301 -25.5 4.5s-15.5 3.83398 -21.5 6.50098c-9.33301 5.33301 -17.833 13.166 -25.5 23.499s-11.5 21.166 -11.5 32.499
c0 2.66699 0.333008 5.16699 1 7.5s1.33398 4.83301 2.00098 7.5c3.33301 8 9.16602 13.833 17.499 17.5s16.833 5.5 25.5 5.5c6 0 11.667 -0.666992 17 -2s10 -3.33301 14 -6c5.33301 -2.66699 10.666 -6.33398 15.999 -11.001s11.333 -10.334 18 -17.001
c9.33301 -9.33301 18.166 -19.333 26.499 -30l24.5 -32l4.5 -6.5l4.5 -6.5v0z" />
    <glyph glyph-name="a" unicode="a" horiz-adv-x="593" 
d="M669 175c-24.667 -52.667 -54.1611 -96.5039 -88.4941 -131.504s-83.5 -52.5 -147.5 -52.5h-2.5h-2.5c-21.333 0.666992 -41.5 5.5 -60.5 14.5s-33.167 23.833 -42.5 44.5c-18 -16.667 -38.5 -30.167 -61.5 -40.5s-46.5 -16.5 -70.5 -18.5
c-2.66699 -0.666992 -5.5 -1 -8.5 -1h-9.5c-23.333 0.666992 -45.833 5.33398 -67.5 14.001s-40.834 23.334 -57.501 44.001c-12.667 15.333 -21.834 31.333 -27.501 48s-8.5 33.667 -8.5 51c0 30.667 8.16699 60.334 24.5 89.001s37.166 52.667 62.499 72
c19.333 14.667 41.666 26.834 66.999 36.501s51.333 15.167 78 16.5c2.66699 0.666992 5.5 1 8.5 1h8.5c21.333 0 42 -3.16699 62 -9.5s38 -16.166 54 -29.499l10 30h97.5h97.5l-12.5 -36.5l-12.5 -36.5l-25.5 -72.5l-24.5 -73.5c0 -0.666992 -0.333008 -1.5 -1 -2.5
s-1 -2.5 -1 -4.5c-0.666992 -1.33301 -1.33398 -3.16602 -2.00098 -5.49902s-1 -4.5 -1 -6.5c-0.666992 -1.33301 -1 -2.66602 -1 -3.99902v-4c0 -2.66699 0.5 -5.33398 1.5 -8.00098s2.83301 -4.33398 5.5 -5.00098c1.33301 -0.666992 2.83301 -1.16699 4.5 -1.5
s3.5 -0.166016 5.5 0.500977c4 0 7.83301 0.833008 11.5 2.5l11.5 5.5c7.33301 4.66699 14.666 10.667 21.999 18s14 15 20 23c6 7.33301 11.167 14.666 15.5 21.999s7.5 13.333 9.5 18l2 4l2 4c0 1.33301 0.333008 2.66602 1 3.99902l2 4l52 -23v0zM352.006 273.996
c0 8 -1.16895 14.3301 -3.50195 18.9971s-8.16602 7 -17.499 7c-3.33301 0 -6.66602 -0.333008 -9.99902 -1s-6.66602 -1.66699 -9.99902 -3c-12.667 -5.33301 -25.334 -14.666 -38.001 -27.999s-24 -27.666 -34 -42.999c-7.33301 -10.667 -13.833 -21.167 -19.5 -31.5
s-9.83398 -19.166 -12.501 -26.499l-3.5 -10c-1.66699 -4.66699 -3.16699 -10 -4.5 -16l-4 -14.5c-1.33301 -5 -2.33301 -10.167 -3 -15.5c-1.33301 -4 -2.16602 -8.33301 -2.49902 -13s-0.5 -9 -0.5 -13c0 -10 1.66699 -18.333 5 -25s9.33301 -10 18 -10
c19.333 0 36.5 8 51.5 24s27.833 33.667 38.5 53c6 10 11 19.667 15 29l11 25c8 20.667 14 38.667 18 54s6 28.333 6 39v0z" />
    <glyph glyph-name="b" unicode="b" horiz-adv-x="545" 
d="M526 170c-12 -54.667 -40.4971 -95.668 -85.4971 -123.001s-93.167 -44.333 -144.5 -51c-11.333 -2 -22.833 -3.33301 -34.5 -4s-23.167 -1 -34.5 -1c-9.33301 0 -19 0.333008 -29 1s-20.333 1.66699 -31 3c-24 3.33301 -47.333 9.5 -70 18.5
s-41.334 22.833 -56.001 41.5c-8.66699 12 -15.167 24.833 -19.5 38.5s-6.5 27.834 -6.5 42.501c0 4 0.166992 8 0.5 12s0.833008 8 1.5 12c1.33301 8 3 16.167 5 24.5s4.33301 16.166 7 23.499l59.5 171.5l58.5 170.5h197l-75 -220c16.667 10.667 33.5 18.667 50.5 24
s34.833 8 53.5 8c7.33301 0 14.833 -0.5 22.5 -1.5s15.167 -2.5 22.5 -4.5c37.333 -8.66699 65.666 -26.167 84.999 -52.5s28.666 -56.5 27.999 -90.5c0 -6.66699 -0.5 -13.667 -1.5 -21s-2.16699 -14.666 -3.5 -21.999v0zM329.003 169.999
c0.666992 2.66699 1.83203 6.00098 3.49902 10.001s3.16699 8.66699 4.5 14l4.5 16.5c1.66699 6.33301 2.83398 12.5 3.50098 18.5c0.666992 3.33301 1.16699 6.83301 1.5 10.5s0.5 7.16699 0.5 10.5c0 11.333 -2.33301 20.833 -7 28.5s-12.667 11.5 -24 11.5
c-14.667 0 -29 -7.5 -43 -22.5s-26.333 -31.167 -37 -48.5c-7.33301 -11.333 -13.5 -22.333 -18.5 -33s-8.83301 -19.334 -11.5 -26.001c-8 -20 -14.5 -38.333 -19.5 -55s-7.16699 -31 -6.5 -43c0 -8 2.16699 -14.333 6.5 -19s11.166 -7 20.499 -7
c21.333 0 40.333 8.66699 57 26s30.334 36.333 41.001 57c5.33301 8.66699 10 17.5 14 26.5s7.33301 17.167 10 24.5v0z" />
    <glyph glyph-name="c" unicode="c" horiz-adv-x="467" 
d="M541 175c-1.33301 -2 -2.49902 -4.16504 -3.49902 -6.49805s-1.83301 -4.5 -2.5 -6.5c-15.333 -31.333 -32.333 -59.166 -51 -83.499s-45.334 -44.833 -80.001 -61.5c-20.667 -9.33301 -43.5 -16.5 -68.5 -21.5s-50.5 -7.5 -76.5 -7.5h-6.5h-6.5
c-38.667 2 -75.834 9.5 -111.501 22.5s-64.834 33.833 -87.501 62.5c-12 15.333 -20.833 30.833 -26.5 46.5s-8.5 31.5 -8.5 47.5c0 30.667 9.33301 59.834 28 87.501s42.667 49.834 72 66.501c19.333 10.667 43 19.834 71 27.501s56.667 12.167 86 13.5
c4 0.666992 7.66699 1 11 1h10c25.333 0 49.333 -3 72 -9s42.334 -16.333 59.001 -31c8 -8 14.667 -17.5 20 -28.5s8.66602 -22.5 9.99902 -34.5v-3.5v-3.5c0 -8.66699 -1.5 -17.334 -4.5 -26.001s-7.5 -16.334 -13.5 -23.001c-7.33301 -8.66699 -16 -15 -26 -19
s-20.667 -6 -32 -6h-4.5c-1.66699 0 -3.5 0.333008 -5.5 1c-6 0.666992 -12.167 2.16699 -18.5 4.5s-12.166 5.16602 -17.499 8.49902c-8.66699 5.33301 -15.667 12.166 -21 20.499s-8.66602 17.166 -9.99902 26.499v2v3c-0.666992 0.666992 -1 1.33398 -1 2.00098v2
c0 15.333 5 28.666 15 39.999s22.333 19 37 23c-4 1.33301 -8 2.5 -12 3.5s-8.33301 1.16699 -13 0.5h-5.5c-1.66699 0 -3.5 -0.333008 -5.5 -1c-2 0 -3.83301 -0.333008 -5.5 -1s-3.5 -1.33398 -5.5 -2.00098c-23.333 -8 -43.5 -24.5 -60.5 -49.5
s-28.5 -51.833 -34.5 -80.5c-1.33301 -6 -2.33301 -12.333 -3 -19s-1 -13 -1 -19c0.666992 -26 7.66699 -48.5 21 -67.5s35.333 -28.5 66 -28.5c51.333 0 93 14.167 125 42.5s58.333 63.5 79 105.5l47 -21v0z" />
    <glyph glyph-name="d" unicode="d" horiz-adv-x="575" 
d="M661 175c-25.333 -52.667 -55 -96.499 -89 -131.499s-82.667 -52.5 -146 -52.5c-22 0 -42.833 4.33301 -62.5 13s-34.167 23.667 -43.5 45c-18.667 -20 -40.5 -35 -65.5 -45s-50.5 -15 -76.5 -15c-24.667 0.666992 -48.5 5.66699 -71.5 15s-43.167 24 -60.5 44
c-11.333 12.667 -20 26.167 -26 40.5s-10 28.833 -12 43.5c0 3.33301 -0.166992 6.5 -0.5 9.5s-0.5 5.83301 -0.5 8.5c0 30 8 59.167 24 87.5s37.333 52.5 64 72.5c19.333 14.667 41.666 26.667 66.999 36s51.333 15 78 17h9.5h8.5c22 0 43.167 -3 63.5 -9
s38.833 -16 55.5 -30l77 226h95.5h94.5l-72 -208l-72 -208c0 -0.666992 -0.333008 -1.83398 -1 -3.50098s-1 -3.5 -1 -5.5c-0.666992 -1.33301 -1.16699 -3 -1.5 -5s-0.5 -3.66699 -0.5 -5c-0.666992 -1.33301 -1 -2.66602 -1 -3.99902v-4
c0 -2.66699 0.5 -5.33398 1.5 -8.00098s2.5 -4.33398 4.5 -5.00098c1.33301 -0.666992 2.83301 -1.16699 4.5 -1.5s3.5 -0.166016 5.5 0.500977c3.33301 0 6.83301 0.666992 10.5 2s7.5 3 11.5 5c7.33301 4.66699 14.833 10.834 22.5 18.501s14.834 15.5 21.501 23.5
c6 7.33301 11.167 14.666 15.5 21.999s7.5 13.333 9.5 18l4 8l4 8l51 -23v0zM321 173.001c1.33301 2.66699 2.83301 6.49707 4.5 11.4971s3.5 10.833 5.5 17.5c2 5.33301 3.83301 10.833 5.5 16.5s2.83398 11.5 3.50098 17.5c1.33301 4.66699 2.16602 9.16699 2.49902 13.5
s0.5 8.5 0.5 12.5c0 10.667 -2 19.5 -6 26.5s-11.667 10.5 -23 10.5c-2 0 -3.83301 -0.166992 -5.5 -0.5s-3.5 -0.833008 -5.5 -1.5c-13.333 -3.33301 -26.333 -11.833 -39 -25.5s-24.334 -28.5 -35.001 -44.5c-6.66699 -11.333 -12.834 -22.333 -18.501 -33
s-9.83398 -19.334 -12.501 -26.001c-0.666992 -2 -1.66699 -4.83301 -3 -8.5s-2.66602 -7.83398 -3.99902 -12.501c-2 -5.33301 -3.66699 -11.166 -5 -17.499l-4 -19.5c0 -3.33301 -0.166992 -6.66602 -0.5 -9.99902s-0.5 -6.66602 -0.5 -9.99902c0 -10 2 -18.667 6 -26
s10.667 -11 20 -11c21.333 0 39.5 7.83301 54.5 23.5s27.5 32.834 37.5 51.501c4.66699 8 8.83398 15.833 12.501 23.5s6.83398 14.834 9.50098 21.501v0z" />
    <glyph glyph-name="e" unicode="e" horiz-adv-x="459" 
d="M544 175c-16.667 -33.333 -35.333 -63.668 -56 -91.001s-49.334 -49.666 -86.001 -66.999c-22 -10 -45.167 -17.333 -69.5 -22s-49.166 -7 -74.499 -7h-12c-4 0 -7.66699 0.333008 -11 1c-16 0.666992 -31.667 2.5 -47 5.5s-30.333 6.83301 -45 11.5
c-38.667 13.333 -70.5 33.666 -95.5 60.999s-37.5 59.666 -37.5 96.999c0 9.33301 0.833008 18.833 2.5 28.5s4.16699 19.5 7.5 29.5c13.333 40 40.333 71.167 81 93.5s84 36.5 130 42.5c10 1.33301 19.833 2.33301 29.5 3s19.167 1 28.5 1c14 0 27.667 -0.666992 41 -2
s25.666 -3.66602 36.999 -6.99902c2 -0.666992 3.83301 -1.16699 5.5 -1.5s3.5 -0.833008 5.5 -1.5c19.333 -5.33301 37.5 -14.666 54.5 -27.999s25.833 -31.333 26.5 -54c1.33301 -36 -13.667 -64.333 -45 -85s-65.666 -35.667 -102.999 -45
c-20.667 -5.33301 -40.667 -9 -60 -11s-36 -2.66699 -50 -2c3.33301 -24 12.5 -42.5 27.5 -55.5s34.833 -19.5 59.5 -19.5c50 0 92 14 126 42s60.667 63.333 80 106l50 -23v0zM361.001 287.998c0 11.333 -3.00098 19.3311 -9.00098 23.998s-14.667 7.33398 -26 8.00098
c-24.667 0.666992 -46 -8.66602 -64 -27.999s-31.667 -40.666 -41 -63.999c-3.33301 -8 -6 -16 -8 -24s-3.66699 -15.333 -5 -22c8 0.666992 16.333 1.66699 25 3s17.334 3.33301 26.001 6c25.333 6.66699 48.5 17.667 69.5 33s31.833 36.666 32.5 63.999v0z" />
    <glyph glyph-name="f" unicode="f" horiz-adv-x="456" 
d="M516 543c9.33301 -8 16.8311 -17.333 22.498 -28s9.16699 -21.667 10.5 -33v-4.5v-4.5c0 -17.333 -5.33301 -33.166 -16 -47.499s-26.667 -23.5 -48 -27.5c-1.33301 0 -2.66602 -0.166992 -3.99902 -0.5s-2.66602 -0.5 -3.99902 -0.5h-4h-4
c-23.333 0 -42.333 7.66699 -57 23s-22 32.333 -22 51v3.5v3.5c1.33301 10 5.16602 19.667 11.499 29s15.833 17 28.5 23h-2.5h-3.5c-20.667 0 -38.167 -9.83301 -52.5 -29.5s-26.166 -41.5 -35.499 -65.5c-6 -15.333 -11.333 -30.333 -16 -45l-11 -35h92l-17 -49h-93
l-184 -535h-179l183 535h-59l18 49h59l6 19.5l6 18.5c10 29.333 21.333 56.5 34 81.5s33.334 46.833 62.001 65.5c18 11.333 40.167 20.666 66.5 27.999s53.166 11.333 80.499 12h4h4c23.333 0 46 -2.83301 68 -8.5s40.667 -15.167 56 -28.5v0z" />
    <glyph glyph-name="g" unicode="g" horiz-adv-x="522" 
d="M571 354l-35.9932 -106.003l-36 -105l-37 -105.5l-36 -105.5c-15.333 -45.333 -45.833 -82.666 -91.5 -111.999s-93.834 -47.333 -144.501 -54c-6.66699 -0.666992 -13.167 -1.16699 -19.5 -1.5s-12.5 -0.5 -18.5 -0.5c-20.667 0 -40.834 2.33301 -60.501 7
s-37.834 12 -54.501 22c-15.333 8.66699 -27.833 20.334 -37.5 35.001s-15.834 29.667 -18.501 45c-0.666992 3.33301 -1.16699 6.5 -1.5 9.5s-0.5 6.16699 -0.5 9.5c0.666992 16.667 6 31.667 16 45s26.333 22 49 26c1.33301 0 2.66602 0.166992 3.99902 0.5s3 0.5 5 0.5h4
h4c24 0 43.333 -7.66699 58 -23s22.334 -32.333 23.001 -51v-1.5v-1.5c0 -13.333 -4.16699 -26.166 -12.5 -38.499s-21.5 -21.5 -39.5 -27.5c1.33301 -0.666992 2.83301 -1.33398 4.5 -2.00098s3.5 -1 5.5 -1c1.33301 -0.666992 2.83301 -1.16699 4.5 -1.5
s3.16699 -0.5 4.5 -0.5c34.667 -0.666992 61.667 12 81 38s35 54.333 47 85c4.66699 12.667 9 25.167 13 37.5l11 33.5c-8.66699 -4 -17.834 -7.16699 -27.501 -9.5s-19.167 -4.16602 -28.5 -5.49902c-4.66699 -0.666992 -9.33398 -1.16699 -14.001 -1.5
s-9.33398 -0.5 -14.001 -0.5c-42.667 0 -80.334 13.167 -113.001 39.5s-49 64.5 -49 114.5c0 58 23.667 107.833 71 149.5s99.333 65.167 156 70.5c3.33301 0 6.83301 0.166992 10.5 0.5s7.16699 0.5 10.5 0.5c19.333 0 38.333 -2.83301 57 -8.5
s36.334 -14.167 53.001 -25.5l7 20h191v0zM350.007 266.997v4.99902c0 2 -0.333008 3.66699 -1 5c-0.666992 4.66699 -2.16699 9.16699 -4.5 13.5s-6.16602 7.5 -11.499 9.5c-0.666992 0.666992 -1.66699 1.16699 -3 1.5s-2.33301 0.5 -3 0.5
c-1.33301 0.666992 -2.5 1 -3.5 1h-3.5c-6 0 -12.333 -1.66699 -19 -5s-13.334 -7.66602 -20.001 -12.999c-13.333 -12 -26.5 -27.667 -39.5 -47s-23.833 -39.333 -32.5 -60c-6.66699 -14.667 -11.834 -29.167 -15.501 -43.5s-5.5 -27.166 -5.5 -38.499
c0 -4.66699 0.5 -9.33398 1.5 -14.001s2.16699 -8.66699 3.5 -12c2.66699 -4.66699 5.5 -8.16699 8.5 -10.5s6.83301 -3.5 11.5 -3.5c27.333 0 49.5 12 66.5 36s30.5 50.667 40.5 80c6.66699 18 12.334 35.5 17.001 52.5s9 31.167 13 42.5v0z" />
    <glyph glyph-name="h" unicode="h" horiz-adv-x="590" 
d="M676 174c-24 -50.667 -53.3301 -93.832 -87.9971 -129.499s-83.334 -53.5 -146.001 -53.5c-4 0 -8.16699 0.166992 -12.5 0.5s-8.5 0.5 -12.5 0.5c-16 2 -31.333 6 -46 12s-27 15.667 -37 29c-6.66699 9.33301 -11.334 19 -14.001 29s-4 20.333 -4 31v8
c0 2.66699 0.333008 5.33398 1 8.00098c1.33301 13.333 4 26.666 8 39.999s8.33301 25.666 13 36.999c0.666992 2 2 5.33301 4 10s4 10 6 16c1.33301 2.66699 2.5 5.66699 3.5 9s1.83301 6.66602 2.5 9.99902c1.33301 4.66699 2.5 9.5 3.5 14.5s1.5 9.5 1.5 13.5
c0 6 -1.16699 10.833 -3.5 14.5s-6.5 5.5 -12.5 5.5c-12 0 -23.333 -5.16699 -34 -15.5s-19.667 -21.5 -27 -33.5c-4 -6.66699 -7.5 -12.834 -10.5 -18.501s-5.16699 -10.834 -6.5 -15.501c-7.33301 -19.333 -14.333 -38.833 -21 -58.5l-20 -58.5l-13.5 -39.5l-13.5 -39.5
h-191l189 550h192l-76 -220c14 7.33301 29.5 13.833 46.5 19.5s34.5 9.5 52.5 11.5c3.33301 0 6.83301 0.166992 10.5 0.5s7.16699 0.5 10.5 0.5c19.333 -0.666992 38 -4 56 -10s33.333 -16.333 46 -31c8.66699 -9.33301 14.834 -19.5 18.501 -30.5s5.5 -22.167 5.5 -33.5
c0 -6.66699 -0.5 -13.167 -1.5 -19.5s-2.83301 -12.833 -5.5 -19.5c-2 -6.66699 -4.16699 -13.5 -6.5 -20.5l-7.5 -21.5c-2.66699 -6.66699 -5.16699 -13.5 -7.5 -20.5s-4.5 -14.167 -6.5 -21.5l-2 -4c-0.666992 -1.33301 -1.33398 -3 -2.00098 -5l-2 -6
c-0.666992 -2 -1.33398 -4.33301 -2.00098 -7c0 -1.33301 -0.166992 -3 -0.5 -5s-0.5 -3.66699 -0.5 -5c0 -3.33301 0.833008 -6.16602 2.5 -8.49902s4.83398 -3.5 9.50098 -3.5c3.33301 0 6.66602 0.5 9.99902 1.5s6.66602 2.5 9.99902 4.5
c9.33301 4.66699 18.333 11.334 27 20.001s16.667 17.667 24 27c4.66699 6.66699 9 13.334 13 20.001s7 12.667 9 18l2 4c0.666992 1.33301 1.33398 3 2.00098 5l2 4l2 4l50 -24v0z" />
    <glyph glyph-name="i" unicode="i" horiz-adv-x="285" 
d="M369 174c-1.33301 -3.33301 -2.83301 -6.50195 -4.5 -9.50195l-5.5 -9.5c-10.667 -21.333 -22.334 -42 -35.001 -62s-28 -38 -46 -54c-16.667 -14.667 -36.167 -26 -58.5 -34s-45.5 -12.667 -69.5 -14h-4.5h-4.5c-10 0 -20 0.666992 -30 2s-19.667 3.66602 -29 6.99902
c-25.333 8.66699 -43.333 22.167 -54 40.5s-16 38.5 -16 60.5c0 7.33301 0.5 14.833 1.5 22.5s2.5 15.5 4.5 23.5c1.33301 4 2.5 7.83301 3.5 11.5s2.16699 7.5 3.5 11.5l31.5 91.5l31.5 91.5h48.5h49.5h49.5h48.5l-12.5 -36.5l-12.5 -36.5l-25.5 -72.5l-24.5 -73.5
c-2 -4.66699 -3.66699 -9.5 -5 -14.5s-2 -9.5 -2 -13.5s1.5 -7.33301 4.5 -10s8.16699 -3.66699 15.5 -3c5.33301 0 12 2.16699 20 6.5s16.333 10.5 25 18.5c12 12 21.833 24.667 29.5 38s14.834 27.333 21.501 42c2.66699 -1.33301 5.5 -2.66602 8.5 -3.99902
s5.83301 -2.66602 8.5 -3.99902c5.33301 -2.66699 10.833 -5.16699 16.5 -7.5s11.5 -5.16602 17.5 -8.49902v0zM321 442.998c-4 -12.667 -11.3311 -23.166 -21.998 -31.499s-22 -14.5 -34 -18.5c-2.66699 -0.666992 -5 -1.16699 -7 -1.5s-4 -0.833008 -6 -1.5l-16.5 -2
c-5.66699 -0.666992 -11.167 -1 -16.5 -1c-14.667 0 -29.334 1.83301 -44.001 5.5s-27.667 9.83398 -39 18.501c-8.66699 6.66699 -15.5 14.5 -20.5 23.5s-7.5 18.167 -7.5 27.5c0 5.33301 1 10.666 3 15.999s4.66699 10.333 8 15c9.33301 12 21.5 21 36.5 27
s30.5 9.66699 46.5 11h5.5h5.5c7.33301 0 14.666 -0.5 21.999 -1.5s14.333 -2.5 21 -4.5l6 -2c2 -0.666992 3.66699 -1.33398 5 -2.00098c14 -6 26.833 -14.333 38.5 -25s17.5 -23.667 17.5 -39c0 -2 -0.166992 -4.16699 -0.5 -6.5s-0.833008 -4.83301 -1.5 -7.5v0z" />
    <glyph glyph-name="j" unicode="j" horiz-adv-x="355" 
d="M390 354l-73.498 -211.504l-72.5 -210.5c-16 -44.667 -46.333 -81.667 -91 -111s-92 -47.333 -142 -54c-7.33301 -1.33301 -14.166 -2.16602 -20.499 -2.49902s-12.833 -0.5 -19.5 -0.5c-20.667 0 -40.834 2.33301 -60.501 7s-37.834 12 -54.501 22
c-15.333 8.66699 -28 20.334 -38 35.001s-16.333 29.667 -19 45c-0.666992 3.33301 -1.16699 6.5 -1.5 9.5s-0.5 6.16699 -0.5 9.5c0 16.667 5.16699 31.667 15.5 45s27.166 22 50.499 26c1.33301 0 2.66602 0.166992 3.99902 0.5s2.66602 0.5 3.99902 0.5h5h4
c24 0 43.333 -7.66699 58 -23s22.334 -32.333 23.001 -51v-1.5v-1.5c-0.666992 -13.333 -5 -26.166 -13 -38.499s-21 -21.5 -39 -27.5c2.66699 -1.33301 5.66699 -2.33301 9 -3l10 -2c30 -0.666992 54.333 9.33301 73 30s33.334 43.334 44.001 68.001
c1.33301 3.33301 2.5 6.5 3.5 9.5s2.16699 6.16699 3.5 9.5l73.5 210.5l71.5 210.5h193v0zM436.002 445.996c-3.33301 -12.667 -10.333 -22.833 -21 -30.5s-22 -13.834 -34 -18.501c-2 -0.666992 -4.16699 -1.33398 -6.5 -2.00098s-4.83301 -1.33398 -7.5 -2.00098
c-3.33301 -0.666992 -6.83301 -1.16699 -10.5 -1.5s-7.5 -0.833008 -11.5 -1.5h-5.5h-5.5h-8.5c-3 0 -6.16699 0.333008 -9.5 1c-11.333 1.33301 -22.666 3.83301 -33.999 7.5s-21.666 8.83398 -30.999 15.501c-8.66699 6.66699 -15.5 14.334 -20.5 23.001
s-7.5 17.667 -7.5 27c0 5.33301 0.833008 10.833 2.5 16.5s4.5 10.834 8.5 15.501c9.33301 12 21.5 21 36.5 27s30.5 9.66699 46.5 11h5.5h5.5c7.33301 0 14.666 -0.5 21.999 -1.5s14.333 -2.5 21 -4.5c1.33301 -0.666992 2.83301 -1.16699 4.5 -1.5
s3.16699 -0.833008 4.5 -1.5c14.667 -5.33301 28.167 -13.333 40.5 -24s18.166 -24 17.499 -40v-4.5c0 -1.66699 -0.333008 -3.5 -1 -5.5v-2.5c0 -1 -0.333008 -1.83301 -1 -2.5v0z" />
    <glyph glyph-name="k" unicode="k" horiz-adv-x="577" 
d="M667 175c-10.667 -25.333 -22.6621 -50.1738 -35.9951 -74.5068s-31 -45.5 -53 -63.5c-18 -14.667 -39 -26 -63 -34s-52 -12 -84 -12c-22.667 0 -43.334 2.83301 -62.001 8.5s-35 15.5 -49 29.5c-14.667 14.667 -25.167 31.334 -31.5 50.001s-10.833 38 -13.5 58l-2 22
c-0.666992 7.33301 -1 14.333 -1 21c0.666992 0 1.5 0.166992 2.5 0.5s1.83301 0.833008 2.5 1.5l16.5 6l16.5 6c15.333 6 30 13 44 21s25.333 18.667 34 32c2.66699 4 4.5 7.83301 5.5 11.5s1.5 6.83398 1.5 9.50098c-0.666992 6 -3 10.833 -7 14.5s-9.66699 5.5 -17 5.5
h-2h-2c-0.666992 -0.666992 -1.33398 -1 -2.00098 -1h-2c-19.333 -3.33301 -36.5 -12.833 -51.5 -28.5s-27.167 -32.5 -36.5 -50.5c-2 -4 -3.83301 -8 -5.5 -12s-3.16699 -8 -4.5 -12l-64 -184h-191l189 550h191l-75 -219c16 9.33301 33.333 16.833 52 22.5
s37.334 8.83398 56.001 9.50098c2.66699 0.666992 5.33398 1 8.00098 1h8c12.667 0 25 -1 37 -3s23.333 -5 34 -9c17.333 -5.33301 32.666 -14.166 45.999 -26.499s20 -28.166 20 -47.499c0 -24 -8.83301 -44.167 -26.5 -60.5s-36.834 -29.166 -57.501 -38.499
c-4.66699 -2 -9.33398 -3.83301 -14.001 -5.5s-9.33398 -3.16699 -14.001 -4.5c-0.666992 -3.33301 -1.16699 -7 -1.5 -11s-0.5 -8 -0.5 -12c0 -14 3.16699 -26.667 9.5 -38s17.166 -18.666 32.499 -21.999c1.33301 -0.666992 3 -1 5 -1h6c3.33301 0 6.5 0.333008 9.5 1
s5.83301 1.33398 8.5 2.00098c17.333 5.33301 31.333 15.5 42 30.5s19.667 30.833 27 47.5c2.66699 5.33301 5 10.666 7 15.999l6 16l52 -23v0z" />
    <glyph glyph-name="l" unicode="l" horiz-adv-x="282" 
d="M366 174c-24 -50.667 -52.332 -93.832 -84.999 -129.499s-80.334 -53.5 -143.001 -53.5c-3.33301 0 -6.83301 0.166992 -10.5 0.5s-7.16699 0.5 -10.5 0.5c-16.667 2 -33 6.16699 -49 12.5s-29 16.5 -39 30.5c-6.66699 9.33301 -11.667 19.666 -15 30.999
s-5 22.666 -5 33.999c0 2.66699 0.166992 5.16699 0.5 7.5s0.5 4.5 0.5 6.5c1.33301 10 3 19.667 5 29s4.66699 18.333 8 27l65.5 190.5l64.5 189.5h49.5h49.5h48.5h49.5l-72 -208l-71 -208c-2.66699 -6 -4.66699 -11.5 -6 -16.5s-2 -9.16699 -2 -12.5
c0 -4 1.66699 -7.16699 5 -9.5s8.66602 -3.16602 15.999 -2.49902c5.33301 0 12 2.16699 20 6.5s16.333 10.5 25 18.5c12 12 21.833 24.667 29.5 38s14.834 27.333 21.501 42l50 -24v0z" />
    <glyph glyph-name="m" unicode="m" horiz-adv-x="863" 
d="M950 174c-24.667 -50.667 -54.333 -93.833 -89 -129.5s-83.334 -53.5 -146.001 -53.5c-4.66699 0 -9.5 0.166992 -14.5 0.5s-10.167 0.833008 -15.5 1.5c-15.333 2 -30.166 5.83301 -44.499 11.5s-26.166 14.834 -35.499 27.501
c-6.66699 9.33301 -11.334 18.833 -14.001 28.5s-4 19.834 -4 30.501c0 4.66699 0.166992 9.16699 0.5 13.5s0.833008 8.83301 1.5 13.5c2 11.333 4.83301 22.5 8.5 33.5s7.5 21.5 11.5 31.5c0.666992 2 2 5.66699 4 11l7 18c0.666992 2.66699 1.66699 5.66699 3 9
s2.33301 6.66602 3 9.99902c1.33301 5.33301 2.5 10.5 3.5 15.5s1.5 9.5 1.5 13.5c0 5.33301 -1.16699 9.83301 -3.5 13.5s-6.16602 5.5 -11.499 5.5c-12 0 -23.333 -5.5 -34 -16.5s-20 -22.833 -28 -35.5c-4 -7.33301 -7.66699 -14.5 -11 -21.5s-6 -13.167 -8 -18.5
l-16 -46.5l-16 -46.5c-6 -16 -11.667 -31.833 -17 -47.5l-16 -46.5h-198l21.5 60l21.5 61l20.5 60l20.5 60c1.33301 4 2.33301 7.83301 3 11.5s1 6.83398 1 9.50098c0 6.66699 -1.5 11.334 -4.5 14.001s-7.16699 4 -12.5 4c-3.33301 0 -6.83301 -0.5 -10.5 -1.5
s-7.16699 -2.5 -10.5 -4.5c-4 -2 -7.83301 -4.5 -11.5 -7.5s-7.16699 -6.5 -10.5 -10.5c-10 -11.333 -20.833 -27.5 -32.5 -48.5s-24.167 -49.167 -37.5 -84.5l-6.5 -19l-14.5 -42c-4 -13.333 -8 -26 -12 -38l-8 -24h-187l121 351h187l-8 -22
c15.333 9.33301 32.5 17.166 51.5 23.499s38.167 10.166 57.5 11.499h6h6c9.33301 0 18.833 -0.666992 28.5 -2s18.834 -3.66602 27.501 -6.99902c14 -4.66699 26.667 -11.834 38 -21.501s19.333 -22.167 24 -37.5c20 21.333 42.5 37.666 67.5 48.999s50.833 17 77.5 17
c10 0 20 -0.833008 30 -2.5s20 -4.16699 30 -7.5c26 -8.66699 45.667 -22.667 59 -42s20 -41 20 -65c0 -8 -0.666992 -16 -2 -24s-3.66602 -16.333 -6.99902 -25c-1.33301 -4 -3.33301 -9.66699 -6 -17l-8 -23l-2 -6l-2 -6l-7.5 -26.5
c-2.33301 -8.33301 -3.5 -15.166 -3.5 -20.499v-2.5c0 -1 0.333008 -2.16699 1 -3.5c0.666992 -0.666992 1.83398 -1 3.50098 -1h6.5c3.33301 0 6.66602 0.5 9.99902 1.5s6.66602 2.5 9.99902 4.5c9.33301 5.33301 18.666 13 27.999 23s17.666 20.333 24.999 31
c6.66699 9.33301 12.5 18.166 17.5 26.499s8.83301 15.5 11.5 21.5l50 -24v0z" />
    <glyph glyph-name="n" unicode="n" horiz-adv-x="595" 
d="M680 174c-24 -50.667 -53.4951 -93.835 -88.4951 -129.502s-83.167 -53.5 -144.5 -53.5c-4 0 -8 0.166992 -12 0.5s-8 0.5 -12 0.5c-16.667 2 -32.667 6 -48 12s-28 15.667 -38 29c-6.66699 9.33301 -11.5 19.166 -14.5 29.499s-4.5 20.833 -4.5 31.5
c0 5.33301 0.333008 10.666 1 15.999s1.33398 10.333 2.00098 15c2 10.667 4.83301 21.334 8.5 32.001l10.5 30c0.666992 2 2 5.33301 4 10l7 16c0.666992 3.33301 1.5 6.5 2.5 9.5s2.16699 6.16699 3.5 9.5c1.33301 5.33301 2.5 10.5 3.5 15.5s1.5 9.5 1.5 13.5
c0 5.33301 -1.16699 9.83301 -3.5 13.5s-6.16602 5.5 -11.499 5.5c-6.66699 0 -14.334 -3.16699 -23.001 -9.5s-18.667 -17.166 -30 -32.499c-16 -22.667 -29.667 -47.167 -41 -73.5s-22 -53.166 -32 -80.499l-12 -37.5l-12 -36.5
c-0.666992 -1.33301 -1.33398 -2.83301 -2.00098 -4.5s-1.33398 -3.5 -2.00098 -5.5h-186l60 175.5l61 175.5h186l-2 -6l-2 -6c-1.33301 -2.66699 -2.33301 -5 -3 -7l-2 -6c15.333 8.66699 32.5 16.167 51.5 22.5s38.5 10.5 58.5 12.5c3.33301 0.666992 6.66602 1 9.99902 1
h10c19.333 0 37.833 -3.16699 55.5 -9.5s33.167 -16.833 46.5 -31.5c8.66699 -9.33301 15 -19.666 19 -30.999s6 -23 6 -35c0 -2.66699 -0.166992 -5.66699 -0.5 -9s-0.833008 -6.33301 -1.5 -9c-0.666992 -3.33301 -1.33398 -6.5 -2.00098 -9.5s-1.66699 -6.16699 -3 -9.5
c-2 -6.66699 -4.33301 -13.5 -7 -20.5s-5 -14.167 -7 -21.5l-8 -20.5c-2.66699 -7 -5 -14.167 -7 -21.5c-0.666992 -1.33301 -1.33398 -3 -2.00098 -5s-1.33398 -4.33301 -2.00098 -7c-0.666992 -1.33301 -1.33398 -2.83301 -2.00098 -4.5s-1 -3.5 -1 -5.5
c-0.666992 -1.33301 -1.16699 -3 -1.5 -5s-0.5 -3.66699 -0.5 -5c0 -3.33301 1 -6.16602 3 -8.49902s5.33301 -3.5 10 -3.5c4 0 7.83301 0.666992 11.5 2s7.5 3 11.5 5c8 5.33301 16.167 12.166 24.5 20.499s15.833 16.833 22.5 25.5c5.33301 6.66699 10 13.334 14 20.001
s7 12.667 9 18l2 4c0.666992 1.33301 1.33398 3 2.00098 5c0 1.33301 0.333008 2.66602 1 3.99902l2 4l50 -24v0z" />
    <glyph glyph-name="o" unicode="o" horiz-adv-x="577" 
d="M668 173l-14 -28.499c-5.33301 -11 -11.333 -22.167 -18 -33.5c-12.667 -22 -28.167 -42.167 -46.5 -60.5s-39.833 -27.5 -64.5 -27.5c-10 0 -19.5 1.5 -28.5 4.5s-17.5 6.83301 -25.5 11.5c-26 -21.333 -56.5 -38 -91.5 -50s-70.833 -19 -107.5 -21h-8.5h-9.5
c-34.667 0 -68 5.16699 -100 15.5s-60 25.833 -84 46.5c-19.333 17.333 -33.333 35.833 -42 55.5s-13 39.5 -13 59.5c0 31.333 9.33301 61.333 28 90s43.334 53 74.001 73c26.667 17.333 56.667 31 90 41s67.666 15 102.999 15c5.33301 0 10.5 -0.166992 15.5 -0.5
s10.167 -0.5 15.5 -0.5c28.667 -2.66699 56.667 -8.83398 84 -18.501s51.333 -24.167 72 -43.5c18 -16 31.667 -34.167 41 -54.5s14 -41.5 14 -63.5c0 -8 -0.666992 -16 -2 -24s-3.33301 -16 -6 -24c9.33301 1.33301 17.5 3.83301 24.5 7.5s13.833 9.5 20.5 17.5
c4 4 8 9.16699 12 15.5l13 21.5l54 -24v0zM383 256.001c-0.666992 20.667 -4.49902 35.499 -11.499 44.499s-15.833 13.5 -26.5 13.5c-6.66699 0 -14 -1.83301 -22 -5.5s-16 -8.83398 -24 -15.501c-3.33301 -2.66699 -6.5 -5.66699 -9.5 -9s-6.16699 -6.66602 -9.5 -9.99902
c-15.333 -18 -27.666 -38.5 -36.999 -61.5s-16 -46.5 -20 -70.5l-2 -23.5c-0.666992 -7.66699 -1 -15.167 -1 -22.5c0 -4 0.166992 -9 0.5 -15s1.16602 -12 2.49902 -18c2 -11.333 5.5 -21.5 10.5 -30.5s12.833 -13.5 23.5 -13.5c16.667 0 31.5 5.83301 44.5 17.5
s23.5 24.834 31.5 39.501c2 3.33301 4 6.5 6 9.5s3.66699 6.16699 5 9.5c-10.667 7.33301 -18.834 16.5 -24.501 27.5s-8.5 22.833 -8.5 35.5v4v3c2 20 9.5 38.833 22.5 56.5s29.5 29.167 49.5 34.5v0z" />
    <glyph glyph-name="p" unicode="p" horiz-adv-x="599" 
d="M681 173c-24.667 -50.667 -54.334 -93.6641 -89.001 -128.997s-82.667 -53 -144 -53c-4 0 -8.16699 0.166992 -12.5 0.5s-8.5 0.5 -12.5 0.5c-16.667 2 -32.667 5.83301 -48 11.5s-28 15.167 -38 28.5c-6.66699 9.33301 -11.334 19 -14.001 29s-4 20.333 -4 31v8
c0 2.66699 0.333008 5.66699 1 9c1.33301 12 3.83301 24.167 7.5 36.5s7.5 24.166 11.5 35.499c0.666992 1.33301 1.16699 2.5 1.5 3.5s0.833008 2.16699 1.5 3.5c0.666992 2 2 5.16699 4 9.5s4 9.16602 6 14.499c1.33301 3.33301 2.5 6.5 3.5 9.5s2.16699 6.16699 3.5 9.5
c1.33301 4.66699 2.33301 9.33398 3 14.001s1 9 1 13c0 5.33301 -1.16699 9.66602 -3.5 12.999s-6.16602 5 -11.499 5c-13.333 0 -26.333 -7.66699 -39 -23s-23.667 -32.333 -33 -51c-6.66699 -12.667 -12.5 -25 -17.5 -37s-8.5 -21.333 -10.5 -28l-32.5 -91.5
c-11 -30.333 -21.5 -60.833 -31.5 -91.5c-2.66699 -6 -5 -12.167 -7 -18.5l-6 -18.5l-25.5 -73.5l-25.5 -73.5l-187 -1l40.5 115l38.5 114c6.66699 18 13.167 36.5 19.5 55.5l19.5 57.5l59.5 170.5l59.5 170.5h186l-43 -123c15.333 8 32.833 15 52.5 21
s39.5 9.66699 59.5 11h5.5h5.5c19.333 0 38 -3.16699 56 -9.5s33.333 -16.833 46 -31.5c8.66699 -9.33301 14.834 -19.5 18.501 -30.5s5.5 -22.167 5.5 -33.5c0 -6.66699 -0.5 -13.167 -1.5 -19.5s-2.83301 -12.833 -5.5 -19.5c-2 -6.66699 -4.16699 -13.5 -6.5 -20.5
l-7.5 -21.5c-0.666992 -2 -1.5 -4.16699 -2.5 -6.5s-1.83301 -4.83301 -2.5 -7.5c-1.33301 -4.66699 -2.83301 -9.33398 -4.5 -14.001s-3.16699 -9.33398 -4.5 -14.001l-2 -4c-0.666992 -1.33301 -1.33398 -3 -2.00098 -5c-0.666992 -1.33301 -1.16699 -2.83301 -1.5 -4.5
s-0.833008 -3.5 -1.5 -5.5s-1.16699 -4 -1.5 -6s-0.5 -4 -0.5 -6c0 -3.33301 0.833008 -6.16602 2.5 -8.49902s4.83398 -3.5 9.50098 -3.5c3.33301 0 6.5 0.333008 9.5 1s6.16699 2 9.5 4c9.33301 4 18.5 10.5 27.5 19.5s16.833 18.167 23.5 27.5
c5.33301 7.33301 10 14.333 14 21s7 12.334 9 17.001l2 4l2 4l2 4c0.666992 1.33301 1 2.66602 1 3.99902l51 -23v0z" />
    <glyph glyph-name="q" unicode="q" horiz-adv-x="527" 
d="M567 354l-33.5029 -97.498l-33.5 -97.5l-67.5 -194.5l-66.5 -194.5l-188 -1l81 235c-12 -4.66699 -24.333 -8.33398 -37 -11.001s-25.667 -4 -39 -4c-24.667 0 -48.667 4.83301 -72 14.5s-43.666 24.5 -60.999 44.5c-13.333 15.333 -23.166 31.666 -29.499 48.999
s-9.5 34.666 -9.5 51.999c0 30 8 59.167 24 87.5s37.333 52.5 64 72.5c18.667 14 39.834 25.667 63.501 35s48.167 15.333 73.5 18c4 0 8.16699 0.166992 12.5 0.5s8.5 0.5 12.5 0.5c19.333 0 38.5 -2.66699 57.5 -8s36.5 -13.666 52.5 -24.999l9 24h187v0zM348.997 261.002
c0 1.33301 -0.169922 2.84082 -0.50293 4.50781s-0.5 3.16699 -0.5 4.5c-0.666992 5.33301 -2.16699 10.5 -4.5 15.5s-6.16602 8.5 -11.499 10.5c-2 1.33301 -4.16699 2.16602 -6.5 2.49902s-4.83301 0.5 -7.5 0.5s-5.33398 -0.333008 -8.00098 -1l-8 -2
c-11.333 -4.66699 -22.666 -13.334 -33.999 -26.001s-21.666 -26 -30.999 -40c-8 -12.667 -15 -24.834 -21 -36.501s-10.333 -20.5 -13 -26.5c-3.33301 -6.66699 -6.33301 -14.334 -9 -23.001s-5 -17.667 -7 -27c-0.666992 -4 -1.16699 -8 -1.5 -12s-0.5 -8 -0.5 -12
c0 -4.66699 0.333008 -9.33398 1 -14.001s2 -9 4 -13c2.66699 -4.66699 6.16699 -8.16699 10.5 -10.5s8.83301 -3.5 13.5 -3.5c2.66699 0 5.33398 0.166992 8.00098 0.5s5.33398 1.16602 8.00098 2.49902c4.66699 1.33301 9.16699 3.16602 13.5 5.49902l12.5 6.5
c2 1.33301 3.66699 2.5 5 3.5s2.66602 2.16699 3.99902 3.5c2.66699 2.66699 5.16699 5.33398 7.5 8.00098l7.5 9c4 4 7.66699 8.66699 11 14s6.33301 11 9 17c4.66699 11.333 9 22.833 13 34.5l12 35.5c0.666992 2 1.5 4.16699 2.5 6.5s1.83301 4.5 2.5 6.5
c3.33301 9.33301 6.5 18.666 9.5 27.999s6.16699 18.666 9.5 27.999v0z" />
    <glyph glyph-name="r" unicode="r" horiz-adv-x="578" 
d="M590 305c1.33301 -4 1.99707 -7.99512 1.99707 -11.9951v-11c0 -24.667 -7.5 -44.167 -22.5 -58.5s-31.5 -21.5 -49.5 -21.5h-1.5h-1.5c-14 0 -27.333 4.66699 -40 14s-21.667 24.333 -27 45c-2 6 -4.5 10.5 -7.5 13.5s-6.5 4.16699 -10.5 3.5
c-6.66699 0 -14.167 -3.83301 -22.5 -11.5s-17.166 -18.167 -26.499 -31.5c-16 -20.667 -29.667 -43.667 -41 -69s-21.333 -51 -30 -77c-4 -11.333 -7.66699 -22.333 -11 -33s-7 -21.334 -11 -32.001l-4 -12l-4 -12h-185l83 232c1.33301 2.66699 2 5 2 7v5
c0 7.33301 -2.83301 12.166 -8.5 14.499s-12.167 3.16602 -19.5 2.49902c-17.333 -2 -32.666 -10 -45.999 -24s-24.333 -29 -33 -45c-2 -3.33301 -4 -7 -6 -11s-3.66699 -7.66699 -5 -11l-50 20c17.333 45.333 42.833 86.166 76.5 122.499s75.834 55.833 126.501 58.5
c4.66699 0.666992 9.5 1 14.5 1s10.167 -0.333008 15.5 -1c22 -1.33301 43.167 -6.83301 63.5 -16.5s36.5 -24.167 48.5 -43.5c14.667 10.667 30.167 20.667 46.5 30s33.166 16.666 50.499 21.999c8 2.66699 15.833 4.5 23.5 5.5s15.167 1.5 22.5 1.5
c10 0 19.833 -1.33301 29.5 -4s18.834 -6.66699 27.501 -12c8.66699 -6 15.5 -13.333 20.5 -22s8.5 -17.667 10.5 -27v0z" />
    <glyph glyph-name="s" unicode="s" horiz-adv-x="419" 
d="M403 175c3.33301 -55.333 -14.6719 -97.4971 -54.0049 -126.497s-82.666 -45.833 -129.999 -50.5c-6 -0.666992 -11.833 -1.16699 -17.5 -1.5s-11.167 -0.5 -16.5 -0.5c-6.66699 0 -13.667 0.166992 -21 0.5s-14.666 1.16602 -21.999 2.49902
c-19.333 2 -38.166 6.66699 -56.499 14s-34.166 18 -47.499 32c-9.33301 11.333 -16.166 23.333 -20.499 36s-6.5 25.667 -6.5 39c0 7.33301 0.5 14.666 1.5 21.999s2.5 14.666 4.5 21.999c4.66699 17.333 14 30.833 28 40.5s29.333 14.167 46 13.5h5.5h4.5
c1.33301 0 2.83301 -0.166992 4.5 -0.5s3.5 -0.833008 5.5 -1.5l89 124l189 48c2 -35.333 4.16699 -70.833 6.5 -106.5s4.83301 -71.167 7.5 -106.5v0zM217.995 263.003l-59.999 -80.002c4 -5.33301 6.83301 -11.166 8.5 -17.499s2.5 -12.833 2.5 -19.5s-1 -13 -3 -19
s-5 -11.667 -9 -17c-6.66699 -10 -15.667 -17.833 -27 -23.5s-23 -8.5 -35 -8.5h-2.5h-2.5c-0.666992 0 -1.5 0.166992 -2.5 0.5s-1.83301 0.5 -2.5 0.5c4.66699 -6.66699 10.667 -12.5 18 -17.5s15.333 -7.5 24 -7.5c27.333 0 49.166 7.33301 65.499 22
s24.5 36.334 24.5 65.001c0.666992 20.667 1 41.167 1 61.5v60.5v0z" />
    <glyph glyph-name="t" unicode="t" horiz-adv-x="276" 
d="M360 174c-1.33301 -3.33301 -2.83203 -6.5 -4.49902 -9.5s-3.16699 -6.16699 -4.5 -9.5c-10.667 -21.333 -22.334 -42 -35.001 -62s-28 -38 -46 -54c-16.667 -14.667 -36.5 -26.334 -59.5 -35.001s-49.5 -13 -79.5 -13h-3.5h-2.5
c-18.667 0.666992 -36.5 4.33398 -53.5 11.001s-30.833 18 -41.5 34c-6.66699 10 -11.5 20.667 -14.5 32s-4.5 23 -4.5 35c0 3.33301 0.166992 6.5 0.5 9.5s0.833008 6.16699 1.5 9.5c1.33301 9.33301 3.16602 18.666 5.49902 27.999s4.83301 18.333 7.5 27l11.5 32
c3.66699 10.667 7.16699 21.667 10.5 33l10.5 32l11.5 32h-43l17 48h43l10 29.5c3.33301 9.66699 7 19.5 11 29.5l10 28.5l10 29.5c22 3.33301 44 6.5 66 9.5s44 6.16699 66 9.5c10.667 1.33301 21.667 2.83301 33 4.5s22.333 3.16699 33 4.5l-12.5 -36l-12.5 -36
l-12.5 -36.5l-12.5 -36.5h54l-18 -48h-53l-14.5 -42.5l-14.5 -43.5c-5.33301 -14.667 -10.333 -29.167 -15 -43.5s-9.66699 -28.5 -15 -42.5c-1.33301 -4.66699 -2.5 -9.16699 -3.5 -13.5s-1.5 -8.16602 -1.5 -11.499c0 -6 1.33301 -10.167 4 -12.5
s6.33398 -3.5 11.001 -3.5c4 0 8.5 1 13.5 3s10.167 4.66699 15.5 8c2.66699 2 5.5 4 8.5 6s5.83301 4.33301 8.5 7c12.667 11.333 23 24 31 38s15.333 28.333 22 43l51 -24v0z" />
    <glyph glyph-name="u" unicode="u" horiz-adv-x="553" 
d="M640 178c-0.666992 -1.33301 -1.50098 -2.83887 -2.50098 -4.50586s-1.83301 -3.5 -2.5 -5.5c-11.333 -22.667 -23.833 -45 -37.5 -67s-30.167 -41.333 -49.5 -58c-18.667 -15.333 -39.5 -27.166 -62.5 -35.499s-49.5 -12.5 -79.5 -12.5
c-28.667 0 -53.667 6.66699 -75 20s-34.333 35 -39 65c-22.667 -24 -49.167 -44.333 -79.5 -61s-62.833 -25 -97.5 -25c-36 0 -62.5 10.833 -79.5 32.5s-25.5 46.834 -25.5 75.501c0 10 1 20 3 30s4.66699 19.667 8 29l17.5 49.5l16.5 48.5l16.5 49.5l17.5 48.5h190
l-19.5 -56l-18.5 -56l-19.5 -56l-19.5 -56c-0.666992 -2.66699 -1.5 -5.5 -2.5 -8.5s-1.5 -5.83301 -1.5 -8.5c0 -4 1.16699 -7.33301 3.5 -10s6.5 -4 12.5 -4c6.66699 0 14.834 2.5 24.501 7.5s20.167 14.5 31.5 28.5c14.667 16.667 27.167 36.167 37.5 58.5
s19.833 45.166 28.5 68.499l10.5 32.5c3.66699 11 7.5 21.833 11.5 32.5c0.666992 2.66699 1.5 5.16699 2.5 7.5s1.83301 4.83301 2.5 7.5c0 1.33301 0.166992 2.5 0.5 3.5s0.833008 1.83301 1.5 2.5c0 0.666992 0.166992 1.16699 0.5 1.5l0.5 0.5
c0 0.666992 0.166992 1.33398 0.5 2.00098s0.5 1.33398 0.5 2.00098h31.5h31.5h62.5h63.5l-19.5 -54.5l-18.5 -54.5l-18.5 -55.5l-19.5 -54.5c-2 -5.33301 -3.33301 -10.166 -4 -14.499s-1 -8.16602 -1 -11.499c0 -5.33301 1.16699 -9.16602 3.5 -11.499s5.5 -3.5 9.5 -3.5
s8.33301 1 13 3s9.66699 4.33301 15 7l10 8l10 8c12.667 11.333 23 23.5 31 36.5s15.333 27.167 22 42.5l51 -24v0z" />
    <glyph glyph-name="v" unicode="v" horiz-adv-x="430" 
d="M512 176c-4.66699 -12.667 -10.332 -24.333 -16.999 -35s-15.667 -20.667 -27 -30c-8.66699 -7.33301 -18.167 -13.5 -28.5 -18.5s-21.166 -8.5 -32.499 -10.5c-2.66699 0 -5.33398 -0.166992 -8.00098 -0.5s-5.33398 -0.5 -8.00098 -0.5
c-10.667 0 -21.167 2.16699 -31.5 6.5s-19.5 11.166 -27.5 20.499c-27.333 -30.667 -58.5 -57.334 -93.5 -80.001s-74.167 -34 -117.5 -34c-37.333 0 -65.5 11.333 -84.5 34s-28.5 49.334 -28.5 80.001c0 4.66699 0.166992 9.16699 0.5 13.5s0.833008 8.83301 1.5 13.5
c0.666992 4 1.66699 8.16699 3 12.5l4 13.5l34.5 98.5c11.667 32.333 22.834 64.833 33.501 97.5h190l-38 -111.5l-39 -112.5c-0.666992 -2.66699 -1.33398 -5.16699 -2.00098 -7.5s-1 -4.83301 -1 -7.5c0 -6 1.5 -11.333 4.5 -16s7.83301 -7 14.5 -7
c14 0 27.5 5.33301 40.5 16s24.167 22.334 33.5 35.001c4 5.33301 7.5 10.5 10.5 15.5s5.83301 9.5 8.5 13.5c-0.666992 5.33301 -1.16699 10.666 -1.5 15.999s-0.5 10.666 -0.5 15.999c0 4 0.166992 8.33301 0.5 13s0.5 9 0.5 13c2 17.333 5.66699 34.5 11 51.5
s12.333 32.167 21 45.5c0.666992 0.666992 1.16699 1.5 1.5 2.5s0.833008 1.83301 1.5 2.5c6 8 12.667 15.167 20 21.5s15.333 9.5 24 9.5h4c1.33301 0 2.33301 -0.333008 3 -1c10.667 -2.66699 18.5 -8.5 23.5 -17.5s8.16699 -18.5 9.5 -28.5
c0.666992 -2.66699 1 -5.16699 1 -7.5v-7.5c0 -26 -5.5 -51.5 -16.5 -76.5s-23.167 -48.167 -36.5 -69.5c-0.666992 -2 -1.5 -3.66699 -2.5 -5s-1.83301 -2.66602 -2.5 -3.99902c2 -2 4.16699 -3.66699 6.5 -5s4.83301 -2.66602 7.5 -3.99902
c2.66699 -0.666992 5.16699 -1.16699 7.5 -1.5s4.5 -0.5 6.5 -0.5c12 0 23.167 4.83301 33.5 14.5s18.833 20.5 25.5 32.5c0.666992 2 1.66699 4.33301 3 7s2.33301 5 3 7l51 -23v0z" />
    <glyph glyph-name="w" unicode="w" horiz-adv-x="707" 
d="M793 176c-4.66699 -12 -10.5059 -23.501 -17.5059 -34.501s-15.833 -21.167 -26.5 -30.5c-9.33301 -8 -19.666 -14.5 -30.999 -19.5s-22.666 -8.16699 -33.999 -9.5c-2 -0.666992 -4 -1 -6 -1h-6c-10.667 0 -21.167 2.16699 -31.5 6.5s-19.5 11.166 -27.5 20.499
c-27.333 -30.667 -58.5 -57.334 -93.5 -80.001s-74.167 -34 -117.5 -34c-26.667 0 -50.334 7.33301 -71.001 22s-34 35.334 -40 62.001c-22.667 -24.667 -48.667 -44.834 -78 -60.501s-61.666 -23.5 -96.999 -23.5c-36 0 -62.5 10.833 -79.5 32.5s-25.5 46.834 -25.5 75.501
c0 10 1 20 3 30s4.66699 19.667 8 29l17.5 49.5l16.5 48.5l16.5 49.5l17.5 48.5h190l-19.5 -56l-18.5 -56l-19.5 -56l-19.5 -56c-1.33301 -3.33301 -2.33301 -6.5 -3 -9.5s-0.666992 -5.5 0 -7.5c0 -4.66699 1.33301 -8.16699 4 -10.5s6.33398 -3.5 11.001 -3.5
c3.33301 0 6.83301 0.5 10.5 1.5s7.16699 2.16699 10.5 3.5c4.66699 2 9 4.33301 13 7s7.66699 5.66699 11 9c18.667 16.667 33.834 37.5 45.501 62.5s21.834 50.833 30.501 77.5c4 10.667 7.5 21.334 10.5 32.001s6.16699 21.334 9.5 32.001
c1.33301 5.33301 2.83301 10.5 4.5 15.5s3.5 9.83301 5.5 14.5h190l-19.5 -56l-18.5 -56l-19.5 -56l-19.5 -56c-0.666992 -2.66699 -1.33398 -5.16699 -2.00098 -7.5s-1 -4.83301 -1 -7.5c0 -6 1.5 -11.333 4.5 -16s7.83301 -7 14.5 -7c14 0 27.333 5.33301 40 16
s24 22.334 34 35.001l10 15.5l9 13.5c-0.666992 5.33301 -1.16699 10.666 -1.5 15.999s-0.5 10.666 -0.5 15.999c0 4 0.166992 8.33301 0.5 13s0.5 9 0.5 13c2 17.333 5.66699 34.5 11 51.5s12.333 32.167 21 45.5c0.666992 0.666992 1.16699 1.5 1.5 2.5
s0.833008 1.83301 1.5 2.5c5.33301 8 11.833 15.167 19.5 21.5s16.167 9.5 25.5 9.5h1.5h1.5c0.666992 -0.666992 1.16699 -1 1.5 -1h1.5c10.667 -2.66699 18.5 -8.5 23.5 -17.5s8.16699 -18.5 9.5 -28.5c0.666992 -2.66699 1 -5.16699 1 -7.5v-7.5
c0 -26 -5.5 -51.5 -16.5 -76.5s-23.167 -48.167 -36.5 -69.5c-0.666992 -2 -1.5 -3.66699 -2.5 -5s-1.83301 -2.66602 -2.5 -3.99902c4.66699 -4 9.33398 -7 14.001 -9s9.33398 -2.66699 14.001 -2c12 0 23.333 4.83301 34 14.5s19.334 20.5 26.001 32.5
c1.33301 2 2.66602 4.33301 3.99902 7s2.33301 5 3 7l49 -23v0z" />
    <glyph glyph-name="x" unicode="x" horiz-adv-x="544" 
d="M626 177c-18 -50 -45.165 -91.832 -81.498 -125.499s-81.833 -51.834 -136.5 -54.501c-5.33301 -0.666992 -10.833 -0.833984 -16.5 -0.500977s-11.167 0.5 -16.5 0.5c-24 2 -46.667 8.5 -68 19.5s-37 28.167 -47 51.5v-1l-10.5 22.5
c-3.66699 7.66699 -7.16699 15.5 -10.5 23.5c-4 7.33301 -7.83301 14.833 -11.5 22.5l-10.5 22.5c-8.66699 -4 -17.167 -8.33301 -25.5 -13l-25.5 -15c19.333 -5.33301 33.5 -14.166 42.5 -26.499s13.5 -25.166 13.5 -38.499v-2.5v-2.5c-2 -17.333 -10.5 -33 -25.5 -47
s-34.833 -20.667 -59.5 -20h-11c-4 0 -8 0.666992 -12 2c-21.333 4.66699 -37.833 14 -49.5 28s-17.5 30 -17.5 48c0 4.66699 0.5 9.5 1.5 14.5s2.5 10.167 4.5 15.5c2 4.66699 4.33301 9.5 7 14.5s6 9.83301 10 14.5c8 10 18.333 19.833 31 29.5s25.667 18.5 39 26.5
c9.33301 5.33301 18.333 10.166 27 14.499s16.667 8.16602 24 11.499c0 0.666992 -0.166992 1.16699 -0.5 1.5s-0.5 0.833008 -0.5 1.5c-0.666992 1.33301 -1.16699 2.5 -1.5 3.5s-0.833008 2.16699 -1.5 3.5c-3.33301 9.33301 -7.5 17.5 -12.5 24.5
s-13.167 10.5 -24.5 10.5h-1.5h-0.5h-1.5h-1.5c-21.333 -2.66699 -39.333 -12.334 -54 -29.001s-26 -34.667 -34 -54l-50 23c17.333 46 42.666 85.333 75.999 118s75.333 50.667 126 54c6 0.666992 12.167 0.833984 18.5 0.500977s12.833 -0.833008 19.5 -1.5
c22 -2.66699 43.167 -9.5 63.5 -20.5s35.5 -26.833 45.5 -47.5c5.33301 -12.667 11.166 -25.167 17.499 -37.5l19.5 -36.5c2 -4 4.16699 -8 6.5 -12s4.5 -8 6.5 -12c2.66699 1.33301 5.5 2.83301 8.5 4.5s5.83301 3.16699 8.5 4.5l17.5 9.5
c5.66699 3 11.167 6.16699 16.5 9.5c-19.333 5.33301 -33.833 14 -43.5 26s-14.834 24.667 -15.501 38v2v2c0 18.667 7.33301 35.667 22 51s34.667 22.666 60 21.999h11c4 0 8 -0.666992 12 -2c9.33301 -2 18.5 -5 27.5 -9s16.167 -10.333 21.5 -19
c6.66699 -10.667 11.5 -20.667 14.5 -30s4.16699 -18.333 3.5 -27c0 -26 -10.833 -48.833 -32.5 -68.5s-45.167 -36.5 -70.5 -50.5l-17.5 -9.5l-16.5 -8.5c0.666992 -1.33301 1.33398 -2.5 2.00098 -3.5s1 -2.16699 1 -3.5c0.666992 -0.666992 1 -1.16699 1 -1.5
s0.333008 -0.833008 1 -1.5c4 -9.33301 9 -17.833 15 -25.5s15 -11.167 27 -10.5c18.667 1.33301 34.834 9 48.501 23s25.167 29.667 34.5 47c3.33301 4.66699 6.16602 9.33398 8.49902 14.001s4.5 9.33398 6.5 14.001l48 -22v0z" />
    <glyph glyph-name="y" unicode="y" horiz-adv-x="514" 
d="M554 354l-35.9941 -106l-36 -106l-37 -105.5l-36 -105.5c-15.333 -45.333 -45.833 -82.666 -91.5 -111.999s-93.834 -47.333 -144.501 -54c-6.66699 -0.666992 -13.167 -1.16699 -19.5 -1.5s-12.5 -0.5 -18.5 -0.5c-20.667 0 -40.834 2.33301 -60.501 7
s-37.834 12 -54.501 22c-16 10 -28.5 21.667 -37.5 35s-15.5 29.333 -19.5 48c0 1.33301 -0.166992 2.66602 -0.5 3.99902s-0.5 2.66602 -0.5 3.99902c-0.666992 1.33301 -1 2.66602 -1 3.99902v4c0.666992 18 7.33398 33.5 20.001 46.5s28 21.167 46 24.5
c3.33301 0.666992 6.5 1.16699 9.5 1.5s5.83301 0.5 8.5 0.5c24 -0.666992 43.333 -8.66699 58 -24s22 -32.333 22 -51v-1.5v-1.5c0 -13.333 -4.16699 -26.166 -12.5 -38.499s-21.5 -21.5 -39.5 -27.5c1.33301 -0.666992 2.83301 -1.33398 4.5 -2.00098s3.5 -1 5.5 -1
c1.33301 -0.666992 2.83301 -1 4.5 -1h4.5c35.333 -0.666992 63.166 12.833 83.499 40.5s36.833 58.5 49.5 92.5c6 16.667 11.5 33 16.5 49l13.5 43c-14.667 -11.333 -31.834 -21.333 -51.501 -30s-40.167 -14.667 -61.5 -18c-4 -0.666992 -8.16699 -1.16699 -12.5 -1.5
s-8.83301 -0.5 -13.5 -0.5c-16.667 0 -32.5 3.16699 -47.5 9.5s-27.833 17.5 -38.5 33.5c-6 9.33301 -10.333 19.5 -13 30.5s-4 21.833 -4 32.5s1 21.167 3 31.5s4.66699 20.166 8 29.499l17.5 48.5l16.5 49.5l16.5 49.5l16.5 48.5h191l-19.5 -56l-19.5 -56l-19.5 -56
l-18.5 -56c-0.666992 -1.33301 -1.33398 -3 -2.00098 -5s-1 -4.33301 -1 -7c-0.666992 -0.666992 -1 -1.5 -1 -2.5v-3.5c0 -2.66699 0.666992 -5.16699 2 -7.5s3.33301 -4.16602 6 -5.49902c2 -0.666992 4 -1.16699 6 -1.5s4 -0.5 6 -0.5
c19.333 0 37.666 13.833 54.999 41.5s32.333 57.834 45 90.501c10.667 26.667 19.5 51.834 26.5 75.501s12.167 40.167 15.5 49.5h191v0z" />
    <glyph glyph-name="z" unicode="z" horiz-adv-x="446" 
d="M429 225c-8 -26.667 -22.6719 -46.9971 -44.0049 -60.9971s-44.333 -24.667 -69 -32c39.333 -14 68.333 -34.667 87 -62s28 -56.333 28 -87c0 -4 -0.166992 -8 -0.5 -12s-0.833008 -8 -1.5 -12c-4 -25.333 -13.833 -50 -29.5 -74s-36.834 -45 -63.501 -63
c-21.333 -14 -48.166 -26.333 -80.499 -37s-65.833 -17.667 -100.5 -21c-6 0 -11.833 -0.166992 -17.5 -0.5s-11.167 -0.5 -16.5 -0.5c-27.333 0 -53.5 3.5 -78.5 10.5s-46.167 18.167 -63.5 33.5c-11.333 10.667 -19.666 22 -24.999 34s-8 24.333 -8 37
c0.666992 28.667 12 54.667 34 78s48.333 35 79 35h7.5c2.33301 0 4.83301 -0.333008 7.5 -1c2 0 4.16699 -0.333008 6.5 -1s4.83301 -1.33398 7.5 -2.00098c18.667 -5.33301 32.334 -14 41.001 -26s13.334 -24.667 14.001 -38v-2v-2c0 -17.333 -6 -33.333 -18 -48
s-28 -21.667 -48 -21c-3.33301 0 -6.83301 0.166992 -10.5 0.5s-7.16699 1.16602 -10.5 2.49902c-10.667 2.66699 -20 7.66699 -28 15s-13.667 16 -17 26c0 -2 -0.166992 -3.83301 -0.5 -5.5s-0.5 -3.16699 -0.5 -4.5c-0.666992 -1.33301 -1 -2.83301 -1 -4.5v-5.5
c0 -12.667 3.33301 -23.667 10 -33s17.667 -15.333 33 -18c2 -0.666992 4.16699 -1.16699 6.5 -1.5s4.83301 -0.5 7.5 -0.5c2.66699 -0.666992 5.16699 -1 7.5 -1h6.5c38.667 0 73.334 14.833 104.001 44.5s51.667 62.167 63 97.5c2.66699 8.66699 4.66699 17.167 6 25.5
s2 16.166 2 23.499c0 20.667 -5 38.834 -15 54.501s-26.667 26.5 -50 32.5c-2 0.666992 -4.16699 1.16699 -6.5 1.5s-4.5 0.5 -6.5 0.5c-2 0.666992 -4.16699 1 -6.5 1h-6.5c-4.66699 0 -9.33398 -0.333008 -14.001 -1l-14 -2l-14 -4
c-4.66699 -1.33301 -9.33398 -3 -14.001 -5l-15 53c8 1.33301 16.5 3.16602 25.5 5.49902l27.5 7.5c25.333 8 48.333 19.5 69 34.5s31 36.5 31 64.5c0 8.66699 -2 16.167 -6 22.5s-10.333 10.833 -19 13.5c-2 0.666992 -3.83301 1.16699 -5.5 1.5s-3.16699 0.5 -4.5 0.5
c-1.33301 0.666992 -2.83301 1 -4.5 1h-5.5h-3.5h-2.5c-20 -2.66699 -39.667 -12.334 -59 -29.001s-36.666 -34.667 -51.999 -54l-15 -21l-13 -19l-51 24c29.333 48 66.333 87.833 111 119.5s94.334 47.167 149.001 46.5c11.333 0 23 -0.833008 35 -2.5
s24.333 -4.16699 37 -7.5c24.667 -6.66699 46.834 -18.667 66.501 -36s29.5 -38.666 29.5 -63.999c0 -4 -0.333008 -8 -1 -12s-1.66699 -8.33301 -3 -13v0z" />
    <glyph glyph-name="braceleft" unicode="{" horiz-adv-x="500" 
 />
    <glyph glyph-name="bar" unicode="|" horiz-adv-x="500" 
 />
    <glyph glyph-name="braceright" unicode="}" horiz-adv-x="500" 
 />
    <glyph glyph-name="asciitilde" unicode="~" horiz-adv-x="500" 
 />
    <glyph glyph-name="exclamdown" unicode="&#xa1;" horiz-adv-x="413" 
d="M17 -119c0 28 7.66504 52.3311 22.998 72.998s32.333 39.667 51 57c1.33301 2 3 3.83301 5 5.5s3.66699 3.16699 5 4.5c25.333 25.333 48.833 51.333 70.5 78s41.834 55.667 60.501 87h52c-1.33301 -16 -2.5 -32 -3.5 -48s-1.83301 -31.667 -2.5 -47
c0 -16 0.333008 -32 1 -48s2.33398 -31.667 5.00098 -47c0 -1.33301 0.166992 -2.5 0.5 -3.5s0.5 -1.83301 0.5 -2.5c2 -11.333 3.5 -23.166 4.5 -35.499s1.16699 -28.166 0.5 -47.499c-0.666992 -34 -14.5 -61.667 -41.5 -83s-56.5 -34 -88.5 -38
c-4 -0.666992 -8 -1.16699 -12 -1.5s-8 -0.5 -12 -0.5h-1.5h-1.5c-28.667 0.666992 -55.167 9 -79.5 25s-36.5 40.333 -36.5 73v-1zM172.998 301.998c1.33301 20.667 9.83301 36.5 25.5 47.5s33.167 18.167 52.5 21.5c6 1.33301 12 2.33301 18 3s11.667 1 17 1
c4.66699 0 9.33398 -0.333008 14.001 -1l14 -2c20.667 -4 39.167 -12.667 55.5 -26s23.833 -31.666 22.5 -54.999c-0.666992 -21.333 -9 -37.5 -25 -48.5s-33.667 -18.167 -53 -21.5c-4.66699 -0.666992 -9.5 -1.16699 -14.5 -1.5s-9.83301 -0.5 -14.5 -0.5
c-5.33301 0 -11 0.333008 -17 1s-11.667 1.66699 -17 3c-20 4.66699 -38.333 13.667 -55 27s-24.334 30.666 -23.001 51.999v0z" />
    <glyph glyph-name="cent" unicode="&#xa2;" horiz-adv-x="549" 
d="M524 169c-1.33301 -3.33301 -2.6709 -6.49707 -4.00391 -9.49707s-2.66602 -6.16699 -3.99902 -9.5c-22 -52.667 -56.5 -92 -103.5 -118s-97.167 -38.667 -150.5 -38c-12.667 0 -25.5 0.666992 -38.5 2s-25.833 3.33301 -38.5 6l-50 -76l-51 32l42 65
c-29.333 14.667 -53.666 34.5 -72.999 59.5s-28.666 53.833 -27.999 86.5v6.5c0 2.33301 0.333008 4.5 1 6.5c0 2 0.166992 4.16699 0.5 6.5s0.5 4.5 0.5 6.5c8 50.667 33 90.167 75 118.5s87.667 45.833 137 52.5l22.5 2c7.66699 0.666992 15.167 1 22.5 1
c9.33301 0 18.166 -0.333008 26.499 -1s16.5 -1.66699 24.5 -3l41 63l52 -34l-33 -49c16 -9.33301 28.333 -21.166 37 -35.499s13 -30.5 13 -48.5c0 -2.66699 -0.166992 -5.66699 -0.5 -9s-0.833008 -6.66602 -1.5 -9.99902c-3.33301 -18 -12 -32 -26 -42
s-29.333 -15 -46 -15c-8 0 -15.667 1.16699 -23 3.5s-14.666 5.83301 -21.999 10.5c-8.66699 6 -15.334 13.167 -20.001 21.5s-7.66699 16.833 -9 25.5v4v4c0 14 4.33301 27.167 13 39.5s21.334 20.833 38.001 25.5c-3.33301 1.33301 -6.83301 2.33301 -10.5 3
s-7.5 1 -11.5 1c-12.667 0 -25 -3.83301 -37 -11.5s-22.333 -16.167 -31 -25.5c-11.333 -12 -21.5 -28 -30.5 -48s-15.167 -40.667 -18.5 -62c-0.666992 -4.66699 -1.16699 -9.33398 -1.5 -14.001s-0.5 -9.33398 -0.5 -14.001c0.666992 -11.333 2.16699 -22.333 4.5 -33
s6.5 -20.334 12.5 -29.001c7.33301 -12 17.333 -20.5 30 -25.5s26.334 -7.5 41.001 -7.5h6.5c2.33301 0 4.83301 0.333008 7.5 1c14 1.33301 27.5 4.16602 40.5 8.49902s24.167 9.16602 33.5 14.499c22 12 40 27.5 54 46.5s26.333 39.167 37 60.5l50 -15v0z" />
    <glyph glyph-name="sterling" unicode="&#xa3;" horiz-adv-x="802" 
d="M734 167c7.33301 -6.66699 13.3379 -13.501 18.0049 -20.501s8 -14.167 10 -21.5l2 -10.5c0.666992 -3.66699 1 -7.16699 1 -10.5c0 -18.667 -6.66699 -36.334 -20 -53.001s-30.333 -30 -51 -40c-18.667 -8.66699 -38.5 -14.834 -59.5 -18.501s-42.5 -5.5 -64.5 -5.5
c-6.66699 0 -13.5 0.166992 -20.5 0.5s-13.833 0.833008 -20.5 1.5c-34.667 3.33301 -68.667 9.83301 -102 19.5s-63.666 21.167 -90.999 34.5c-6.66699 -2.66699 -13.334 -5.5 -20.001 -8.5s-13.334 -5.83301 -20.001 -8.5c-19.333 -7.33301 -39 -13.5 -59 -18.5
s-40.333 -7.5 -61 -7.5c-11.333 0 -22.833 0.833008 -34.5 2.5s-23.5 4.5 -35.5 8.5c-0.666992 0 -1.5 0.166992 -2.5 0.5s-1.83301 0.833008 -2.5 1.5c-16.667 6.66699 -31.667 16.334 -45 29.001s-20 28.334 -20 47.001c0 24.667 11 42.5 33 53.5s46 17.167 72 18.5h5.5
h5.5c15.333 0 29.666 -1.16699 42.999 -3.5s24.666 -5.83301 33.999 -10.5l38 109h-133l17 51h133l8 23.5l8 23.5l8 23.5l8 23.5c16 45.333 46.667 81.833 92 109.5s93.666 44.5 144.999 50.5c7.33301 0.666992 14.333 1.16699 21 1.5s13.334 0.5 20.001 0.5
c20 0 39.5 -1.83301 58.5 -5.5s36.833 -9.5 53.5 -17.5c15.333 -7.33301 27.333 -16.833 36 -28.5s14.334 -24.167 17.001 -37.5c0 -2 0.166992 -4.16699 0.5 -6.5s0.5 -4.83301 0.5 -7.5c0 -16.667 -6 -31.5 -18 -44.5s-30 -19.5 -54 -19.5
c-2.66699 0 -5.5 0.333008 -8.5 1s-6.16699 1.33398 -9.5 2.00098c-8 2.66699 -15.167 6.5 -21.5 11.5s-9.5 10.833 -9.5 17.5c0 2 0.5 4.16699 1.5 6.5s2.83301 4.83301 5.5 7.5c3.33301 3.33301 6.66602 7.5 9.99902 12.5s6 10.167 8 15.5
c0.666992 2 1.16699 4.16699 1.5 6.5s0.5 4.5 0.5 6.5c0 5.33301 -1.33301 10.333 -4 15s-7.66699 8.33398 -15 11.001c-2.66699 1.33301 -5.5 2.16602 -8.5 2.49902s-6.16699 0.5 -9.5 0.5c-21.333 0 -39.5 -11.333 -54.5 -34s-27.5 -47.334 -37.5 -74.001
c-7.33301 -19.333 -13.5 -38 -18.5 -56l-11.5 -41h116l-18 -51h-115c-0.666992 -3.33301 -1.5 -6.5 -2.5 -9.5s-2.16699 -5.83301 -3.5 -8.5c-8.66699 -29.333 -18.834 -56.833 -30.501 -82.5s-29.834 -49.5 -54.501 -71.5c1.33301 -0.666992 2.5 -1.16699 3.5 -1.5
s2.16699 -0.833008 3.5 -1.5c13.333 -4.66699 29 -9 47 -13s36.333 -6.66699 55 -8c3.33301 -0.666992 6.66602 -1 9.99902 -1h10c25.333 0 48.333 4.5 69 13.5s34.334 25.167 41.001 48.5c0.666992 2.66699 1.16699 5.16699 1.5 7.5s0.5 4.5 0.5 6.5
c0 4 -0.5 7.83301 -1.5 11.5s-2.16699 7.16699 -3.5 10.5c-2 4.66699 -4.33301 9.16699 -7 13.5l-9 14.5c9.33301 2.66699 18.333 4.83398 27 6.50098s17 2.5 25 2.5c7.33301 0 14.5 -0.833008 21.5 -2.5s13.833 -4.5 20.5 -8.5c3.33301 -2 6.83301 -4.33301 10.5 -7
s7.16699 -5.66699 10.5 -9v0zM219.005 97.999c-1.33301 0.666992 -3 1.33398 -5 2.00098l-6 2c-6.66699 2 -14.667 4 -24 6s-18.666 3.33301 -27.999 4h-5.5h-4.5c-12.667 0 -24.334 -2 -35.001 -6s-17.667 -11 -21 -21c0 -0.666992 -0.166992 -1.33398 -0.5 -2.00098
l-0.5 -1v-2v-2c0.666992 -6 3.5 -10.667 8.5 -14s10.5 -5.66602 16.5 -6.99902c2.66699 -0.666992 5.5 -1.33398 8.5 -2.00098s5.5 -1 7.5 -1c20 -1.33301 37.167 1.5 51.5 8.5s26.833 18.833 37.5 35.5v0z" />
    <glyph glyph-name="currency" unicode="&#xa4;" horiz-adv-x="796" 
d="M790 483l-57.001 -55.999c-8.66699 28 -25.5 51.5 -50.5 70.5s-55.5 28.167 -91.5 27.5c-10 0 -20.167 -0.833008 -30.5 -2.5s-21.166 -4.16699 -32.499 -7.5c-29.333 -8.66699 -54.166 -26 -74.499 -52s-37.5 -53.667 -51.5 -83
c-0.666992 -0.666992 -1.16699 -1.33398 -1.5 -2.00098s-0.5 -1.33398 -0.5 -2.00098h283l-40 -40l-16 -16h-251v-1.5v-0.5c-0.666992 -0.666992 -1 -1.16699 -1 -1.5v-1.5c-1.33301 -2.66699 -2.5 -6 -3.5 -10s-2.16699 -8 -3.5 -12h251l-57 -56h-207l-2 -19.5
c-0.666992 -6.33301 -1 -12.833 -1 -19.5c0 -24.667 4.83301 -47.667 14.5 -69s27.5 -36.666 53.5 -45.999c4.66699 -2 9.5 -3.5 14.5 -4.5s9.83301 -2.16699 14.5 -3.5c4.66699 -0.666992 9.5 -1.16699 14.5 -1.5s9.83301 -0.5 14.5 -0.5h4.5h4.5
c30 1.33301 59.333 9.16602 88 23.499s53.667 32.166 75 53.499l42 -40c-37.333 -38.667 -80.333 -66.667 -129 -84s-104 -26 -166 -26c-72 0 -135.833 21.333 -191.5 64s-87.167 100.334 -94.5 173.001h-112l57 56h56c0 3.33301 0.166992 6.5 0.5 9.5
s0.833008 5.83301 1.5 8.5c0.666992 1.33301 1.16699 2.83301 1.5 4.5s0.5 3.16699 0.5 4.5h-83l57 56h43c25.333 60.667 67.666 109.334 126.999 146.001s122 60 188 70c12 2 24 3.5 36 4.5s24 1.5 36 1.5c58 0 112 -6.66699 162 -20s86 -45 108 -95v0z" />
    <glyph glyph-name="yen" unicode="&#xa5;" horiz-adv-x="912" 
d="M873 390c-2.66699 -2.66699 -5.83594 -5.33105 -9.50293 -7.99805s-7.16699 -5.66699 -10.5 -9l-2 6l-2 6c-5.33301 13.333 -11.5 23.333 -18.5 30s-19.833 10 -38.5 10c-6 0 -12 -0.5 -18 -1.5s-12 -2.5 -18 -4.5c-23.333 -7.33301 -45.833 -19.833 -67.5 -37.5
s-41.167 -36.5 -58.5 -56.5c-7.33301 -8 -14.166 -15.833 -20.499 -23.5s-11.833 -15.167 -16.5 -22.5h92l-15 -45h-104l-14 -27c-4.66699 -9.33301 -9 -19 -13 -29h112l-15 -45h-112l-47 -133h-233l46 133h-103l16 45h101c3.33301 10 5.83301 19.667 7.5 29
s2.83398 18.333 3.50098 27h-94l15 45h83v12c0 4 -0.333008 8 -1 12c-1.33301 15.333 -4.33301 30.666 -9 45.999s-11.334 29.666 -20.001 42.999c-10 15.333 -22 27 -36 35s-28.333 13 -43 15c-2.66699 0.666992 -5.16699 1 -7.5 1h-7.5c-26 0 -49 -8.5 -69 -25.5
s-30 -40.833 -30 -71.5v-4v-4c0 -1.33301 0.166992 -2.66602 0.5 -3.99902s0.5 -2.66602 0.5 -3.99902c3.33301 -20.667 10.666 -34.334 21.999 -41.001s24.333 -10 39 -10c6.66699 0 13.334 0.5 20.001 1.5s13.334 1.83301 20.001 2.5
c0 -0.666992 -0.166992 -1.16699 -0.5 -1.5s-0.5 -0.833008 -0.5 -1.5c-7.33301 -20.667 -17.5 -39.5 -30.5 -56.5s-32.167 -25.833 -57.5 -26.5c-34 -0.666992 -58.5 9.5 -73.5 30.5s-22.5 44.833 -22.5 71.5c0 5.33301 0.333008 10.666 1 15.999l2 16l4 16
c1.33301 5.33301 3 10.666 5 15.999c18.667 50.667 51.834 88.834 99.501 114.501s97.834 38.5 150.501 38.5h3h2c65.333 0 124.833 -18.833 178.5 -56.5s78.834 -93.834 75.501 -168.501l26.5 38c9.66699 13.333 20.167 27 31.5 41
c29.333 35.333 62.666 67.833 99.999 97.5s77 44.167 119 43.5c23.333 -0.666992 43.666 -8.16699 60.999 -22.5s26 -31.166 26 -50.499c0 -2.66699 -0.166992 -5.33398 -0.5 -8.00098s-0.833008 -5.33398 -1.5 -8.00098c-2 -5.33301 -4.83301 -10.666 -8.5 -15.999
s-8.5 -10.666 -14.5 -15.999v0z" />
    <glyph glyph-name="brokenbar" unicode="&#xa6;" horiz-adv-x="500" 
 />
    <glyph glyph-name="section" unicode="&#xa7;" horiz-adv-x="500" 
 />
    <glyph glyph-name="dieresis" unicode="&#xa8;" horiz-adv-x="406" 
d="M172 679c0 -16 -5.99707 -28.001 -17.9971 -36.001s-25 -12.667 -39 -14c-2 -0.666992 -4 -1 -6 -1h-6c-16.667 0 -31.334 3.83301 -44.001 11.5s-19 20.834 -19 39.501c0 16 6.5 28.167 19.5 36.5s27.5 12.833 43.5 13.5h2.5h2.5c9.33301 0 18.166 -1.16699 26.499 -3.5
s15.166 -5.83301 20.499 -10.5c6 -4.66699 10.333 -10 13 -16s4 -12.667 4 -20v0zM326.003 678.999c0 -16.667 -6.33203 -29.001 -18.999 -37.001s-26.334 -12.667 -41.001 -14h-5.5h-4.5c-16.667 0 -31.167 3.83301 -43.5 11.5s-18.5 20.834 -18.5 39.501
c0 17.333 7.16699 30 21.5 38s29.833 12 46.5 12c9.33301 0 18 -1.16699 26 -3.5s15 -5.83301 21 -10.5c5.33301 -4.66699 9.5 -10 12.5 -16s4.5 -12.667 4.5 -20v0z" />
    <glyph glyph-name="copyright" unicode="&#xa9;" horiz-adv-x="500" 
 />
    <glyph glyph-name="ordfeminine" unicode="&#xaa;" horiz-adv-x="397" 
d="M448 479c-16.667 -34.667 -36.332 -64.002 -58.999 -88.002s-55.667 -36 -99 -36c-14.667 0 -28.834 3.16699 -42.501 9.5s-23.834 16.833 -30.501 31.5c-12.667 -12 -27 -21.5 -43 -28.5s-32.667 -11.167 -50 -12.5h-4.5h-4.5h-4h-4c-14 1.33301 -27.5 5 -40.5 11
s-24.167 15 -33.5 27c-8 10.667 -13.833 21.667 -17.5 33s-5.5 22.666 -5.5 33.999c0 20.667 5.33301 40.667 16 60s24.667 35.333 42 48c12 9.33301 26.167 17.333 42.5 24s32.833 10.667 49.5 12c2.66699 0.666992 5.33398 1 8.00098 1h8
c14.667 -0.666992 28.667 -3 42 -7s25.333 -10.667 36 -20l6 21h66.5h64.5l-12.5 -36.5c-4.33301 -12.333 -8.5 -24.833 -12.5 -37.5c-4.66699 -12.667 -9 -25.167 -13 -37.5l-12 -36.5c0 -0.666992 -0.166992 -1.5 -0.5 -2.5s-0.833008 -2.16699 -1.5 -3.5
c0 -1.33301 -0.166992 -2.66602 -0.5 -3.99902s-0.833008 -2.66602 -1.5 -3.99902v-2v-2c0 -2 0.333008 -3.66699 1 -5s1.66699 -2.33301 3 -3s2.5 -1 3.5 -1h3.5c2.66699 0 5.16699 0.5 7.5 1.5s4.83301 2.16699 7.5 3.5c5.33301 3.33301 10.5 7.5 15.5 12.5
s9.5 10.167 13.5 15.5s7.5 10.333 10.5 15s5.16699 8.66699 6.5 12c0 0.666992 0.166992 1.33398 0.5 2.00098l1.5 3c0.666992 0.666992 1.16699 1.5 1.5 2.5s0.5 1.83301 0.5 2.5l35 -15v0zM236.002 545.998c0 5.33301 -0.998047 9.5 -2.99805 12.5s-5.66699 4.5 -11 4.5
c-2 0 -4.16699 -0.333008 -6.5 -1s-4.83301 -1.33398 -7.5 -2.00098c-8.66699 -4 -17.167 -10.5 -25.5 -19.5s-15.833 -18.5 -22.5 -28.5c-4.66699 -7.33301 -9 -14.5 -13 -21.5s-7 -12.833 -9 -17.5c-0.666992 -1.33301 -1.5 -3.66602 -2.5 -6.99902s-2.16699 -7 -3.5 -11
c-0.666992 -3.33301 -1.33398 -6.5 -2.00098 -9.5s-1.33398 -6.16699 -2.00098 -9.5c-0.666992 -2.66699 -1.16699 -5.5 -1.5 -8.5s-0.5 -5.83301 -0.5 -8.5c0 -6.66699 1.16699 -12.167 3.5 -16.5s6.5 -6.5 12.5 -6.5c13.333 0 25 5.33301 35 16s18.667 22.667 26 36
c3.33301 6 6.33301 12.167 9 18.5l7 16.5c5.33301 13.333 9.5 25.333 12.5 36s4.5 19.667 4.5 27v0z" />
    <glyph glyph-name="guillemotleft" unicode="&#xab;" horiz-adv-x="530" 
d="M223 204l-96 -70l-107 163l219 163l49 -70l-117 -93l52 -93v0zM454 204l-95 -70l-108 163l220 163l48 -70l-115 -93l50 -93v0z" />
    <glyph glyph-name="logicalnot" unicode="&#xac;" horiz-adv-x="500" 
 />
    <glyph glyph-name="sfthyphen" unicode="&#xad;" horiz-adv-x="500" 
 />
    <glyph glyph-name="registered" unicode="&#xae;" horiz-adv-x="500" 
 />
    <glyph glyph-name="overstore" unicode="&#xaf;" 
 />
    <glyph glyph-name="degree" unicode="&#xb0;" horiz-adv-x="500" 
 />
    <glyph glyph-name="plusminus" unicode="&#xb1;" horiz-adv-x="500" 
 />
    <glyph glyph-name="twosuperior" unicode="&#xb2;" horiz-adv-x="500" 
 />
    <glyph glyph-name="threesuperior" unicode="&#xb3;" horiz-adv-x="500" 
 />
    <glyph glyph-name="acute" unicode="&#xb4;" horiz-adv-x="199" 
d="M182 705c1.33301 -2.66699 2.16504 -5.16699 2.49805 -7.5s0.5 -4.83301 0.5 -7.5c-0.666992 -12 -4.66699 -23 -12 -33s-15.666 -17.667 -24.999 -23c-6 -2.66699 -13 -4.83398 -21 -6.50098s-16.667 -3.16699 -26 -4.5l-28.5 -2l-29.5 -2
c-4.66699 -0.666992 -9.5 -1 -14.5 -1s-9.83301 -0.333008 -14.5 -1l4.5 6.5l4.5 6.5l24.5 32c8.33301 10.667 17.166 20.667 26.499 30c6.66699 6.66699 12.834 12.334 18.501 17.001s10.834 8.33398 15.501 11.001s9.66699 4.66699 15 6s11 2 17 2h2h2
c8 -0.666992 15.5 -2.83398 22.5 -6.50098s12.167 -9.16699 15.5 -16.5v0z" />
    <glyph glyph-name="mu" unicode="&#xb5;" horiz-adv-x="500" 
 />
    <glyph glyph-name="paragraph" unicode="&#xb6;" horiz-adv-x="500" 
 />
    <glyph glyph-name="middot" unicode="&#xb7;" 
 />
    <glyph glyph-name="cedilla" unicode="&#xb8;" horiz-adv-x="332" 
d="M316 -102c-2.66699 -14.667 -10.165 -26.832 -22.498 -36.499s-25.833 -17.167 -40.5 -22.5c-1.33301 -0.666992 -3 -1.16699 -5 -1.5s-4 -0.833008 -6 -1.5c-13.333 -3.33301 -27.833 -5.5 -43.5 -6.5s-31.834 -1.5 -48.501 -1.5c-4.66699 0 -9.5 0.166992 -14.5 0.5
s-9.83301 0.5 -14.5 0.5c-15.333 1.33301 -30.166 3.83301 -44.499 7.5s-28.166 8.5 -41.499 14.5c-2.66699 0.666992 -5.83398 1.83398 -9.50098 3.50098s-7.16699 3.16699 -10.5 4.5c2 2.66699 4 5.5 6 8.5s4 5.83301 6 8.5c1.33301 2.66699 3 5.33398 5 8.00098l6 8
c16 -4.66699 32 -8.33398 48 -11.001s32.333 -4 49 -4c5.33301 0 11.666 0.166992 18.999 0.5s15 0.833008 23 1.5c11.333 1.33301 21.833 3.83301 31.5 7.5s16.5 9.5 20.5 17.5v1.5c0 0.333008 0.333008 0.5 1 0.5v1.5v1.5v0.5c0 0.333008 -0.333008 0.5 -1 0.5v1v0
l-1.5 1.5l-1.5 1.5c-2.66699 2.66699 -6.5 4.66699 -11.5 6l-15.5 4c-10 2 -19.833 3.16699 -29.5 3.5s-19.5 0.166016 -29.5 -0.500977c-7.33301 0 -14.5 -0.333008 -21.5 -1l-20.5 -2c-2.66699 0 -5.5 -0.166992 -8.5 -0.5s-5.83301 -0.5 -8.5 -0.5
c6.66699 8.66699 13.167 17.667 19.5 27l19.5 28l18.5 26.5l19.5 27.5l46 -24c-1.33301 -2 -2.66602 -3.83301 -3.99902 -5.5s-2.66602 -3.5 -3.99902 -5.5c-0.666992 -0.666992 -1.33398 -1.5 -2.00098 -2.5s-1.33398 -2.16699 -2.00098 -3.5c-2 -2.66699 -4 -5.5 -6 -8.5
s-4 -5.83301 -6 -8.5c5.33301 -0.666992 11 -1.16699 17 -1.5s12 -0.833008 18 -1.5c5.33301 -0.666992 11 -1.5 17 -2.5s11.667 -2.16699 17 -3.5c2.66699 -0.666992 5.66699 -1.5 9 -2.5s6.66602 -1.83301 9.99902 -2.5c12 -4.66699 23.167 -11.167 33.5 -19.5
s15.5 -19.5 15.5 -33.5v-2v-2c-0.666992 -0.666992 -1 -1.33398 -1 -2.00098v-2v-1z" />
    <glyph glyph-name="onesuperior" unicode="&#xb9;" horiz-adv-x="500" 
 />
    <glyph glyph-name="ordmasculine" unicode="&#xba;" horiz-adv-x="387" 
d="M448 478l-9.50098 -19c-3.66699 -7.33301 -7.83398 -15 -12.501 -23c-8.66699 -14.667 -19.167 -28.167 -31.5 -40.5s-26.833 -18.5 -43.5 -18.5c-6.66699 0 -12.834 1 -18.501 3s-11.167 4.66699 -16.5 8c-18 -14.667 -39 -26 -63 -34s-48.333 -12.667 -73 -14h-5.5
h-4.5c-22.667 0 -44.667 3.33301 -66 10s-40 17.334 -56 32.001c-12.667 12 -22.167 24.667 -28.5 38s-9.5 26.666 -9.5 39.999c0 20.667 6.16699 40.667 18.5 60s28.833 35.333 49.5 48c18 11.333 38.167 20.5 60.5 27.5s45.5 10.5 69.5 10.5
c4.66699 0 9.33398 -0.166992 14.001 -0.5s9.33398 -0.833008 14.001 -1.5c18 -2 35.333 -6.33301 52 -13s31.667 -15.667 45 -27c12 -10.667 21.167 -23 27.5 -37s9.5 -28.667 9.5 -44c0 -2.66699 -0.166992 -5.33398 -0.5 -8.00098s-0.5 -5 -0.5 -7l-2 -8l-2 -8
c6 0.666992 11.333 2.33398 16 5.00098s9 6.33398 13 11.001c2.66699 3.33301 5.33398 7.16602 8.00098 11.499l9 14.5l37 -16v0zM255.999 533c-0.666992 14 -3.16797 24.167 -7.50098 30.5s-10.166 9.5 -17.499 9.5c-6.66699 0 -13.667 -2.33301 -21 -7
s-14.666 -11.334 -21.999 -20.001c-10.667 -12.667 -19 -26.5 -25 -41.5s-10.333 -30.5 -13 -46.5c-0.666992 -5.33301 -1.16699 -10.5 -1.5 -15.5s-0.5 -10.167 -0.5 -15.5c0 -2.66699 0.166992 -6 0.5 -10s0.833008 -8.33301 1.5 -13
c0.666992 -7.33301 2.66699 -14.166 6 -20.499s8.66602 -9.5 15.999 -9.5c11.333 0 21 3.83301 29 11.5s15 16.167 21 25.5l4 8c1.33301 2.66699 2.66602 5 3.99902 7c-7.33301 4 -12.666 9.83301 -15.999 17.5s-5 15.834 -5 24.501v3.5v3.5
c2 12.667 7.16699 24.667 15.5 36s18.833 18.666 31.5 21.999v0z" />
    <glyph glyph-name="guillemotright" unicode="&#xbb;" horiz-adv-x="530" 
d="M265 297l-219 -163l-48 70l115 93l-50 93l95 70l107 -163v0zM502 297l-219 -163l-49 70l116 93l-51 93l96 70l107 -163v0z" />
    <glyph glyph-name="onequarter" unicode="&#xbc;" horiz-adv-x="500" 
 />
    <glyph glyph-name="onehalf" unicode="&#xbd;" horiz-adv-x="500" 
 />
    <glyph glyph-name="threequarters" unicode="&#xbe;" horiz-adv-x="500" 
 />
    <glyph glyph-name="questiondown" unicode="&#xbf;" horiz-adv-x="677" 
d="M14 -53c8.66699 51.333 35.8359 83.5039 81.5029 96.5039s95.834 21.833 150.501 26.5c3.33301 0.666992 6.83301 1.16699 10.5 1.5s7.5 0.5 11.5 0.5c45.333 4.66699 88.166 13.167 128.499 25.5s66.833 37.833 79.5 76.5l4 13h59
c-0.666992 -3.33301 -1.16699 -6.83301 -1.5 -10.5s-0.833008 -7.16699 -1.5 -10.5c-4.66699 -32 -19.167 -57 -43.5 -75s-51.5 -35 -81.5 -51c-1.33301 -0.666992 -2.83301 -1.5 -4.5 -2.5s-3.5 -1.83301 -5.5 -2.5l-21.5 -10.5
c-7.66699 -3.66699 -15.5 -7.83398 -23.5 -12.501c-22 -12 -42.333 -27 -61 -45s-28 -40 -28 -66c0 -20 7.33301 -35 22 -45s30.667 -16.667 48 -20c4.66699 -0.666992 9.16699 -1.16699 13.5 -1.5s8.5 -0.5 12.5 -0.5c5.33301 0 10.666 0.333008 15.999 1
s11 1.33398 17 2.00098c18.667 4 36.667 11.667 54 23s29.333 26 36 44c1.33301 3.33301 2.33301 6.5 3 9.5s1 6.16699 1 9.5c-0.666992 8.66699 -4 15.667 -10 21s-13.333 10.333 -22 15c-2 1.33301 -4 2.5 -6 3.5s-4 2.16699 -6 3.5l4.5 4.5
c1.66699 1.66699 3.5 3.16699 5.5 4.5c12 10 24.667 18.667 38 26s29 11.666 47 12.999h9.5h9.5c23.333 -2.66699 45 -12 65 -28s30 -37 30 -63c0 -4.66699 -0.5 -9.5 -1.5 -14.5s-2.5 -10.167 -4.5 -15.5c-10.667 -26.667 -40.334 -51.334 -89.001 -74.001
s-128.334 -34 -239.001 -34c-22 0 -43.167 0.833008 -63.5 2.5s-39.5 3.83398 -57.5 6.50098c-10 2 -21 4.33301 -33 7s-24 6 -36 10c-29.333 10.667 -56.5 25.667 -81.5 45s-37.5 44.333 -37.5 75c0 1.33301 0.166992 2.66602 0.5 3.99902s0.5 2.66602 0.5 3.99902
c0 2 0.166992 3.66699 0.5 5s0.5 2.66602 0.5 3.99902v-1zM419.002 302.004c1.33301 24.667 13.166 43 35.499 55s46.833 18 73.5 18c28.667 -0.666992 54.667 -8 78 -22s34.333 -34.667 33 -62c-1.33301 -22 -10.5 -38.5 -27.5 -49.5s-35.5 -17.833 -55.5 -20.5
c-4.66699 -0.666992 -9.16699 -1.16699 -13.5 -1.5s-8.5 -0.5 -12.5 -0.5c-5.33301 0 -11.166 0.5 -17.499 1.5s-12.833 2.16699 -19.5 3.5c-18.667 5.33301 -36 14.5 -52 27.5s-23.333 29.833 -22 50.5v0z" />
    <glyph glyph-name="Agrave" unicode="&#xc0;" horiz-adv-x="843" 
d="M931 209c-4 -51.333 -27.8457 -97.0049 -71.5127 -137.005s-91.167 -63.333 -142.5 -70c-4 0 -8.16699 -0.166992 -12.5 -0.5s-8.5 -0.5 -12.5 -0.5c-17.333 0 -34.166 2.5 -50.499 7.5s-32.166 12.833 -47.499 23.5c-24 18 -39.5 39.333 -46.5 64
s-12.167 50.334 -15.5 77.001c-0.666992 2 -1.16699 4.16699 -1.5 6.5s-0.5 4.5 -0.5 6.5h-168l-24 -31.5c-8.66699 -11 -18 -22.167 -28 -33.5c-25.333 -30 -54.166 -57.333 -86.499 -82s-65.833 -37 -100.5 -37h-3.5h-3.5c-1.33301 0 -2.5 0.166992 -3.5 0.5
s-2.16699 0.5 -3.5 0.5c-31.333 3.33301 -55.666 16.333 -72.999 39s-26 48.334 -26 77.001v3.5c0 1 0.333008 1.83301 1 2.5v3.5v2.5h0.5h1.5c2 0 4.5 0.166992 7.5 0.5s6.5 0.833008 10.5 1.5v0v0c4 0.666992 7.5 1.16699 10.5 1.5s5.5 0.5 7.5 0.5
c0.666992 -11.333 5.33398 -20 14.001 -26s18.334 -10 29.001 -12c2.66699 0 5.33398 -0.166992 8.00098 -0.5s5.33398 -0.5 8.00098 -0.5c21.333 0 40.833 4.83301 58.5 14.5s33.834 21.167 48.501 34.5c49.333 46 94.833 95.333 136.5 148l122.5 160l6.5 9l6.5 9
c-0.666992 14 -5.33398 25.833 -14.001 35.5s-19.667 16.834 -33 21.501c-5.33301 2 -11 3.5 -17 4.5s-12.333 1.16699 -19 0.5c-4.66699 0 -9.5 -0.333008 -14.5 -1l-15.5 -2c-30.667 -6.66699 -59.167 -21.167 -85.5 -43.5s-41.166 -48.166 -44.499 -77.499v-2.5v-3.5
c-0.666992 -0.666992 -1 -1.5 -1 -2.5v-2.5c0.666992 -22.667 9 -38.167 25 -46.5s33.333 -13.833 52 -16.5l12 -2c4 -0.666992 8 -1 12 -1c0.666992 -0.666992 1.5 -1 2.5 -1h2.5c-2 -1.33301 -4 -2.83301 -6 -4.5s-4 -3.5 -6 -5.5c-16 -14 -32.833 -26.833 -50.5 -38.5
s-38.167 -17.834 -61.5 -18.501c-32 -0.666992 -56.167 10 -72.5 32s-24.5 47 -24.5 75c0 7.33301 0.666992 14.833 2 22.5s3.33301 15.167 6 22.5c16 46.667 45.667 82.667 89 108s89.333 43 138 53c21.333 4.66699 42.333 8 63 10s40.334 3 59.001 3
c77.333 0 139 -18.833 185 -56.5s71.667 -96.167 77 -175.5c0.666992 -6 1 -12.167 1 -18.5s0.333008 -12.5 1 -18.5c0 -6.66699 0.166992 -13.667 0.5 -21s0.833008 -14.666 1.5 -21.999c1.33301 -22 3.33301 -44 6 -66s7 -43.667 13 -65
c2.66699 -9.33301 6.5 -16 11.5 -20s10.5 -6 16.5 -6c2.66699 0 5.33398 0.5 8.00098 1.5s5.33398 1.83301 8.00098 2.5l7 4.5c2.66699 1.66699 5.33398 3.5 8.00098 5.5c10.667 8 20.667 18.833 30 32.5s16.333 29.834 21 48.501l51 -7v0zM518.987 250.995
c-2 12.667 -3.83301 25.332 -5.5 37.999s-3.16699 25.334 -4.5 38.001c-2 12 -3.66699 24.333 -5 37l-4 38l-42.5 -71.5l-49.5 -79.5h111v0zM547.987 610.993c-4.66699 0.666992 -9.49805 1.00293 -14.498 1.00293s-9.83301 0.333008 -14.5 1l-28.5 2l-29.5 2
c-8.66699 1.33301 -17.167 2.83301 -25.5 4.5s-15.5 3.83398 -21.5 6.50098c-9.33301 5.33301 -17.833 13.166 -25.5 23.499s-11.5 21.166 -11.5 32.499c0 2.66699 0.333008 5.16699 1 7.5s1.33398 4.83301 2.00098 7.5c3.33301 8 9.16602 13.833 17.499 17.5
s16.833 5.5 25.5 5.5c6 0 11.667 -0.666992 17 -2s10 -3.33301 14 -6c5.33301 -2.66699 10.666 -6.33398 15.999 -11.001s11.333 -10.334 18 -17.001c9.33301 -9.33301 18.166 -19.333 26.499 -30l24.5 -32l4.5 -6.5l4.5 -6.5v0z" />
    <glyph glyph-name="Aacute" unicode="&#xc1;" horiz-adv-x="843" 
d="M931 209c-4 -51.333 -27.8457 -97.0049 -71.5127 -137.005s-91.167 -63.333 -142.5 -70c-4 0 -8.16699 -0.166992 -12.5 -0.5s-8.5 -0.5 -12.5 -0.5c-17.333 0 -34.166 2.5 -50.499 7.5s-32.166 12.833 -47.499 23.5c-24 18 -39.5 39.333 -46.5 64
s-12.167 50.334 -15.5 77.001c-0.666992 2 -1.16699 4.16699 -1.5 6.5s-0.5 4.5 -0.5 6.5h-168l-24 -31.5c-8.66699 -11 -18 -22.167 -28 -33.5c-25.333 -30 -54.166 -57.333 -86.499 -82s-65.833 -37 -100.5 -37h-3.5h-3.5c-1.33301 0 -2.5 0.166992 -3.5 0.5
s-2.16699 0.5 -3.5 0.5c-31.333 3.33301 -55.666 16.333 -72.999 39s-26 48.334 -26 77.001v3.5c0 1 0.333008 1.83301 1 2.5v3.5v2.5h0.5h1.5c2 0 4.5 0.166992 7.5 0.5s6.5 0.833008 10.5 1.5v0v0c4 0.666992 7.5 1.16699 10.5 1.5s5.5 0.5 7.5 0.5
c0.666992 -11.333 5.33398 -20 14.001 -26s18.334 -10 29.001 -12c2.66699 0 5.33398 -0.166992 8.00098 -0.5s5.33398 -0.5 8.00098 -0.5c21.333 0 40.833 4.83301 58.5 14.5s33.834 21.167 48.501 34.5c49.333 46 94.833 95.333 136.5 148l122.5 160l6.5 9l6.5 9
c-0.666992 14 -5.33398 25.833 -14.001 35.5s-19.667 16.834 -33 21.501c-5.33301 2 -11 3.5 -17 4.5s-12.333 1.16699 -19 0.5c-4.66699 0 -9.5 -0.333008 -14.5 -1l-15.5 -2c-30.667 -6.66699 -59.167 -21.167 -85.5 -43.5s-41.166 -48.166 -44.499 -77.499v-2.5v-3.5
c-0.666992 -0.666992 -1 -1.5 -1 -2.5v-2.5c0.666992 -22.667 9 -38.167 25 -46.5s33.333 -13.833 52 -16.5l12 -2c4 -0.666992 8 -1 12 -1c0.666992 -0.666992 1.5 -1 2.5 -1h2.5c-2 -1.33301 -4 -2.83301 -6 -4.5s-4 -3.5 -6 -5.5c-16 -14 -32.833 -26.833 -50.5 -38.5
s-38.167 -17.834 -61.5 -18.501c-32 -0.666992 -56.167 10 -72.5 32s-24.5 47 -24.5 75c0 7.33301 0.666992 14.833 2 22.5s3.33301 15.167 6 22.5c16 46.667 45.667 82.667 89 108s89.333 43 138 53c21.333 4.66699 42.333 8 63 10s40.334 3 59.001 3
c77.333 0 139 -18.833 185 -56.5s71.667 -96.167 77 -175.5c0.666992 -6 1 -12.167 1 -18.5s0.333008 -12.5 1 -18.5c0 -6.66699 0.166992 -13.667 0.5 -21s0.833008 -14.666 1.5 -21.999c1.33301 -22 3.33301 -44 6 -66s7 -43.667 13 -65
c2.66699 -9.33301 6.5 -16 11.5 -20s10.5 -6 16.5 -6c2.66699 0 5.33398 0.5 8.00098 1.5s5.33398 1.83301 8.00098 2.5l7 4.5c2.66699 1.66699 5.33398 3.5 8.00098 5.5c10.667 8 20.667 18.833 30 32.5s16.333 29.834 21 48.501l51 -7v0zM518.987 250.995
c-2 12.667 -3.83301 25.332 -5.5 37.999s-3.16699 25.334 -4.5 38.001c-2 12 -3.66699 24.333 -5 37l-4 38l-42.5 -71.5l-49.5 -79.5h111v0zM642.987 695.993c1.33301 -2.66699 2.16504 -5.16699 2.49805 -7.5s0.5 -4.83301 0.5 -7.5c-0.666992 -12 -4.66699 -23 -12 -33
s-15.666 -17.667 -24.999 -23c-6 -2.66699 -13 -4.83398 -21 -6.50098s-16.667 -3.16699 -26 -4.5l-29 -2l-29 -2c-4.66699 -0.666992 -9.5 -1 -14.5 -1s-9.83301 -0.333008 -14.5 -1l4.5 6.5l4.5 6.5l24.5 32c8.33301 10.667 17.166 20.667 26.499 30
c6.66699 6.66699 12.834 12.334 18.501 17.001s10.834 8.33398 15.501 11.001s9.66699 4.66699 15 6s11 2 17 2h2h2c8 -0.666992 15.5 -2.83398 22.5 -6.50098s12.167 -9.16699 15.5 -16.5v0z" />
    <glyph glyph-name="Acircumflex" unicode="&#xc2;" horiz-adv-x="843" 
d="M931 209c-4 -51.333 -27.8457 -97.0049 -71.5127 -137.005s-91.167 -63.333 -142.5 -70c-4 0 -8.16699 -0.166992 -12.5 -0.5s-8.5 -0.5 -12.5 -0.5c-17.333 0 -34.166 2.5 -50.499 7.5s-32.166 12.833 -47.499 23.5c-24 18 -39.5 39.333 -46.5 64
s-12.167 50.334 -15.5 77.001c-0.666992 2 -1.16699 4.16699 -1.5 6.5s-0.5 4.5 -0.5 6.5h-168l-24 -31.5c-8.66699 -11 -18 -22.167 -28 -33.5c-25.333 -30 -54.166 -57.333 -86.499 -82s-65.833 -37 -100.5 -37h-3.5h-3.5c-1.33301 0 -2.5 0.166992 -3.5 0.5
s-2.16699 0.5 -3.5 0.5c-31.333 3.33301 -55.666 16.333 -72.999 39s-26 48.334 -26 77.001v3.5c0 1 0.333008 1.83301 1 2.5v3.5v2.5h0.5h1.5c2 0 4.5 0.166992 7.5 0.5s6.5 0.833008 10.5 1.5v0v0c4 0.666992 7.5 1.16699 10.5 1.5s5.5 0.5 7.5 0.5
c0.666992 -11.333 5.33398 -20 14.001 -26s18.334 -10 29.001 -12c2.66699 0 5.33398 -0.166992 8.00098 -0.5s5.33398 -0.5 8.00098 -0.5c21.333 0 40.833 4.83301 58.5 14.5s33.834 21.167 48.501 34.5c49.333 46 94.833 95.333 136.5 148l122.5 160l6.5 9l6.5 9
c-0.666992 14 -5.33398 25.833 -14.001 35.5s-19.667 16.834 -33 21.501c-5.33301 2 -11 3.5 -17 4.5s-12.333 1.16699 -19 0.5c-4.66699 0 -9.5 -0.333008 -14.5 -1l-15.5 -2c-30.667 -6.66699 -59.167 -21.167 -85.5 -43.5s-41.166 -48.166 -44.499 -77.499v-2.5v-3.5
c-0.666992 -0.666992 -1 -1.5 -1 -2.5v-2.5c0.666992 -22.667 9 -38.167 25 -46.5s33.333 -13.833 52 -16.5l12 -2c4 -0.666992 8 -1 12 -1c0.666992 -0.666992 1.5 -1 2.5 -1h2.5c-2 -1.33301 -4 -2.83301 -6 -4.5s-4 -3.5 -6 -5.5c-16 -14 -32.833 -26.833 -50.5 -38.5
s-38.167 -17.834 -61.5 -18.501c-32 -0.666992 -56.167 10 -72.5 32s-24.5 47 -24.5 75c0 7.33301 0.666992 14.833 2 22.5s3.33301 15.167 6 22.5c16 46.667 45.667 82.667 89 108s89.333 43 138 53c21.333 4.66699 42.333 8 63 10s40.334 3 59.001 3
c77.333 0 139 -18.833 185 -56.5s71.667 -96.167 77 -175.5c0.666992 -6 1 -12.167 1 -18.5s0.333008 -12.5 1 -18.5c0 -6.66699 0.166992 -13.667 0.5 -21s0.833008 -14.666 1.5 -21.999c1.33301 -22 3.33301 -44 6 -66s7 -43.667 13 -65
c2.66699 -9.33301 6.5 -16 11.5 -20s10.5 -6 16.5 -6c2.66699 0 5.33398 0.5 8.00098 1.5s5.33398 1.83301 8.00098 2.5l7 4.5c2.66699 1.66699 5.33398 3.5 8.00098 5.5c10.667 8 20.667 18.833 30 32.5s16.333 29.834 21 48.501l51 -7v0zM518.987 250.995
c-2 12.667 -3.83301 25.332 -5.5 37.999s-3.16699 25.334 -4.5 38.001c-2 12 -3.66699 24.333 -5 37l-4 38l-42.5 -71.5l-49.5 -79.5h111v0zM659.987 580.993l-151 52l-195 -45l225 148l121 -155v0z" />
    <glyph glyph-name="Atilde" unicode="&#xc3;" horiz-adv-x="843" 
d="M931 209c-4 -51.333 -27.8457 -97.0049 -71.5127 -137.005s-91.167 -63.333 -142.5 -70c-4 0 -8.16699 -0.166992 -12.5 -0.5s-8.5 -0.5 -12.5 -0.5c-17.333 0 -34.166 2.5 -50.499 7.5s-32.166 12.833 -47.499 23.5c-24 18 -39.5 39.333 -46.5 64
s-12.167 50.334 -15.5 77.001c-0.666992 2 -1.16699 4.16699 -1.5 6.5s-0.5 4.5 -0.5 6.5h-168l-24 -31.5c-8.66699 -11 -18 -22.167 -28 -33.5c-25.333 -30 -54.166 -57.333 -86.499 -82s-65.833 -37 -100.5 -37h-3.5h-3.5c-1.33301 0 -2.5 0.166992 -3.5 0.5
s-2.16699 0.5 -3.5 0.5c-31.333 3.33301 -55.666 16.333 -72.999 39s-26 48.334 -26 77.001v3.5c0 1 0.333008 1.83301 1 2.5v3.5v2.5h0.5h1.5c2 0 4.5 0.166992 7.5 0.5s6.5 0.833008 10.5 1.5v0v0c4 0.666992 7.5 1.16699 10.5 1.5s5.5 0.5 7.5 0.5
c0.666992 -11.333 5.33398 -20 14.001 -26s18.334 -10 29.001 -12c2.66699 0 5.33398 -0.166992 8.00098 -0.5s5.33398 -0.5 8.00098 -0.5c21.333 0 40.833 4.83301 58.5 14.5s33.834 21.167 48.501 34.5c49.333 46 94.833 95.333 136.5 148l122.5 160l6.5 9l6.5 9
c-0.666992 14 -5.33398 25.833 -14.001 35.5s-19.667 16.834 -33 21.501c-5.33301 2 -11 3.5 -17 4.5s-12.333 1.16699 -19 0.5c-4.66699 0 -9.5 -0.333008 -14.5 -1l-15.5 -2c-30.667 -6.66699 -59.167 -21.167 -85.5 -43.5s-41.166 -48.166 -44.499 -77.499v-2.5v-3.5
c-0.666992 -0.666992 -1 -1.5 -1 -2.5v-2.5c0.666992 -22.667 9 -38.167 25 -46.5s33.333 -13.833 52 -16.5l12 -2c4 -0.666992 8 -1 12 -1c0.666992 -0.666992 1.5 -1 2.5 -1h2.5c-2 -1.33301 -4 -2.83301 -6 -4.5s-4 -3.5 -6 -5.5c-16 -14 -32.833 -26.833 -50.5 -38.5
s-38.167 -17.834 -61.5 -18.501c-32 -0.666992 -56.167 10 -72.5 32s-24.5 47 -24.5 75c0 7.33301 0.666992 14.833 2 22.5s3.33301 15.167 6 22.5c16 46.667 45.667 82.667 89 108s89.333 43 138 53c21.333 4.66699 42.333 8 63 10s40.334 3 59.001 3
c77.333 0 139 -18.833 185 -56.5s71.667 -96.167 77 -175.5c0.666992 -6 1 -12.167 1 -18.5s0.333008 -12.5 1 -18.5c0 -6.66699 0.166992 -13.667 0.5 -21s0.833008 -14.666 1.5 -21.999c1.33301 -22 3.33301 -44 6 -66s7 -43.667 13 -65
c2.66699 -9.33301 6.5 -16 11.5 -20s10.5 -6 16.5 -6c2.66699 0 5.33398 0.5 8.00098 1.5s5.33398 1.83301 8.00098 2.5l7 4.5c2.66699 1.66699 5.33398 3.5 8.00098 5.5c10.667 8 20.667 18.833 30 32.5s16.333 29.834 21 48.501l51 -7v0zM518.987 250.995
c-2 12.667 -3.83301 25.332 -5.5 37.999s-3.16699 25.334 -4.5 38.001c-2 12 -3.66699 24.333 -5 37l-4 38l-42.5 -71.5l-49.5 -79.5h111v0zM718.987 697.993c-2.66699 -10.667 -8.33008 -21.3301 -16.9971 -31.9971s-20.667 -20.667 -36 -30
c-14.667 -10 -29.834 -17.333 -45.501 -22s-32.167 -7 -49.5 -7c-10.667 0 -22.834 1.5 -36.501 4.5s-28.834 7.16699 -45.501 12.5c-2.66699 0.666992 -5.33398 1.5 -8.00098 2.5s-5.33398 1.83301 -8.00098 2.5c-6 2 -12.167 3.83301 -18.5 5.5s-12.833 3.16699 -19.5 4.5
c-4 0.666992 -7.83301 1.16699 -11.5 1.5s-7.16699 0.5 -10.5 0.5c-4 0 -8 -0.333008 -12 -1s-8 -1.66699 -12 -3c-3.33301 -0.666992 -8 -2.5 -14 -5.5s-13.667 -7.16699 -23 -12.5c14.667 30 34.834 52.5 60.501 67.5s56.167 22.5 91.5 22.5
c11.333 0 23.833 -1.33301 37.5 -4s28.167 -6.66699 43.5 -12c2 -0.666992 4.16699 -1.33398 6.5 -2.00098s4.5 -1.33398 6.5 -2.00098c6 -1.33301 12.167 -2.83301 18.5 -4.5s12.833 -2.83398 19.5 -3.50098c4 -0.666992 7.83301 -1.16699 11.5 -1.5s7.5 -0.5 11.5 -0.5
c5.33301 0 10.333 0.333008 15 1s9.33398 2 14.001 4l13.5 6.5c5 2.33301 10.833 4.83301 17.5 7.5v0z" />
    <glyph glyph-name="Adieresis" unicode="&#xc4;" horiz-adv-x="843" 
d="M931 209c-4 -51.333 -27.8457 -97.0049 -71.5127 -137.005s-91.167 -63.333 -142.5 -70c-4 0 -8.16699 -0.166992 -12.5 -0.5s-8.5 -0.5 -12.5 -0.5c-17.333 0 -34.166 2.5 -50.499 7.5s-32.166 12.833 -47.499 23.5c-24 18 -39.5 39.333 -46.5 64
s-12.167 50.334 -15.5 77.001c-0.666992 2 -1.16699 4.16699 -1.5 6.5s-0.5 4.5 -0.5 6.5h-168l-24 -31.5c-8.66699 -11 -18 -22.167 -28 -33.5c-25.333 -30 -54.166 -57.333 -86.499 -82s-65.833 -37 -100.5 -37h-3.5h-3.5c-1.33301 0 -2.5 0.166992 -3.5 0.5
s-2.16699 0.5 -3.5 0.5c-31.333 3.33301 -55.666 16.333 -72.999 39s-26 48.334 -26 77.001v3.5c0 1 0.333008 1.83301 1 2.5v3.5v2.5h0.5h1.5c2 0 4.5 0.166992 7.5 0.5s6.5 0.833008 10.5 1.5v0v0c4 0.666992 7.5 1.16699 10.5 1.5s5.5 0.5 7.5 0.5
c0.666992 -11.333 5.33398 -20 14.001 -26s18.334 -10 29.001 -12c2.66699 0 5.33398 -0.166992 8.00098 -0.5s5.33398 -0.5 8.00098 -0.5c21.333 0 40.833 4.83301 58.5 14.5s33.834 21.167 48.501 34.5c49.333 46 94.833 95.333 136.5 148l122.5 160l6.5 9l6.5 9
c-0.666992 14 -5.33398 25.833 -14.001 35.5s-19.667 16.834 -33 21.501c-5.33301 2 -11 3.5 -17 4.5s-12.333 1.16699 -19 0.5c-4.66699 0 -9.5 -0.333008 -14.5 -1l-15.5 -2c-30.667 -6.66699 -59.167 -21.167 -85.5 -43.5s-41.166 -48.166 -44.499 -77.499v-2.5v-3.5
c-0.666992 -0.666992 -1 -1.5 -1 -2.5v-2.5c0.666992 -22.667 9 -38.167 25 -46.5s33.333 -13.833 52 -16.5l12 -2c4 -0.666992 8 -1 12 -1c0.666992 -0.666992 1.5 -1 2.5 -1h2.5c-2 -1.33301 -4 -2.83301 -6 -4.5s-4 -3.5 -6 -5.5c-16 -14 -32.833 -26.833 -50.5 -38.5
s-38.167 -17.834 -61.5 -18.501c-32 -0.666992 -56.167 10 -72.5 32s-24.5 47 -24.5 75c0 7.33301 0.666992 14.833 2 22.5s3.33301 15.167 6 22.5c16 46.667 45.667 82.667 89 108s89.333 43 138 53c21.333 4.66699 42.333 8 63 10s40.334 3 59.001 3
c77.333 0 139 -18.833 185 -56.5s71.667 -96.167 77 -175.5c0.666992 -6 1 -12.167 1 -18.5s0.333008 -12.5 1 -18.5c0 -6.66699 0.166992 -13.667 0.5 -21s0.833008 -14.666 1.5 -21.999c1.33301 -22 3.33301 -44 6 -66s7 -43.667 13 -65
c2.66699 -9.33301 6.5 -16 11.5 -20s10.5 -6 16.5 -6c2.66699 0 5.33398 0.5 8.00098 1.5s5.33398 1.83301 8.00098 2.5l7 4.5c2.66699 1.66699 5.33398 3.5 8.00098 5.5c10.667 8 20.667 18.833 30 32.5s16.333 29.834 21 48.501l51 -7v0zM518.987 250.995
c-2 12.667 -3.83301 25.332 -5.5 37.999s-3.16699 25.334 -4.5 38.001c-2 12 -3.66699 24.333 -5 37l-4 38l-42.5 -71.5l-49.5 -79.5h111v0zM513.987 664.993c0 -16 -5.99707 -28.001 -17.9971 -36.001s-25 -12.667 -39 -14c-2 -0.666992 -4 -1 -6 -1h-6
c-16.667 0 -31.334 3.83301 -44.001 11.5s-19 20.834 -19 39.501c0 16 6.5 28.167 19.5 36.5s27.5 12.833 43.5 13.5h2.5h2.5c9.33301 0 18.166 -1.16699 26.499 -3.5s15.166 -5.83301 20.499 -10.5c6 -4.66699 10.333 -10 13 -16s4 -12.667 4 -20v0zM667.99 664.992
c0 -16.667 -6.33203 -29.001 -18.999 -37.001s-26.334 -12.667 -41.001 -14h-5.5h-4.5c-16.667 0 -31.167 3.83301 -43.5 11.5s-18.5 20.834 -18.5 39.501c0 17.333 7.16699 30 21.5 38s29.833 12 46.5 12c9.33301 0 18 -1.16699 26 -3.5s15 -5.83301 21 -10.5
c5.33301 -4.66699 9.5 -10 12.5 -16s4.5 -12.667 4.5 -20v0z" />
    <glyph glyph-name="Aring" unicode="&#xc5;" horiz-adv-x="843" 
d="M931 209c-4 -51.333 -27.8457 -97.0049 -71.5127 -137.005s-91.167 -63.333 -142.5 -70c-4 0 -8.16699 -0.166992 -12.5 -0.5s-8.5 -0.5 -12.5 -0.5c-17.333 0 -34.166 2.5 -50.499 7.5s-32.166 12.833 -47.499 23.5c-24 18 -39.5 39.333 -46.5 64
s-12.167 50.334 -15.5 77.001c-0.666992 2 -1.16699 4.16699 -1.5 6.5s-0.5 4.5 -0.5 6.5h-168l-24 -31.5c-8.66699 -11 -18 -22.167 -28 -33.5c-25.333 -30 -54.166 -57.333 -86.499 -82s-65.833 -37 -100.5 -37h-3.5h-3.5c-1.33301 0 -2.5 0.166992 -3.5 0.5
s-2.16699 0.5 -3.5 0.5c-31.333 3.33301 -55.666 16.333 -72.999 39s-26 48.334 -26 77.001v3.5c0 1 0.333008 1.83301 1 2.5v3.5v2.5h0.5h1.5c2 0 4.5 0.166992 7.5 0.5s6.5 0.833008 10.5 1.5v0v0c4 0.666992 7.5 1.16699 10.5 1.5s5.5 0.5 7.5 0.5
c0.666992 -11.333 5.33398 -20 14.001 -26s18.334 -10 29.001 -12c2.66699 0 5.33398 -0.166992 8.00098 -0.5s5.33398 -0.5 8.00098 -0.5c21.333 0 40.833 4.83301 58.5 14.5s33.834 21.167 48.501 34.5c49.333 46 94.833 95.333 136.5 148l122.5 160l6.5 9l6.5 9
c-0.666992 14 -5.33398 25.833 -14.001 35.5s-19.667 16.834 -33 21.501c-5.33301 2 -11 3.5 -17 4.5s-12.333 1.16699 -19 0.5c-4.66699 0 -9.5 -0.333008 -14.5 -1l-15.5 -2c-30.667 -6.66699 -59.167 -21.167 -85.5 -43.5s-41.166 -48.166 -44.499 -77.499v-2.5v-3.5
c-0.666992 -0.666992 -1 -1.5 -1 -2.5v-2.5c0.666992 -22.667 9 -38.167 25 -46.5s33.333 -13.833 52 -16.5l12 -2c4 -0.666992 8 -1 12 -1c0.666992 -0.666992 1.5 -1 2.5 -1h2.5c-2 -1.33301 -4 -2.83301 -6 -4.5s-4 -3.5 -6 -5.5c-16 -14 -32.833 -26.833 -50.5 -38.5
s-38.167 -17.834 -61.5 -18.501c-32 -0.666992 -56.167 10 -72.5 32s-24.5 47 -24.5 75c0 7.33301 0.666992 14.833 2 22.5s3.33301 15.167 6 22.5c16 46.667 45.667 82.667 89 108s89.333 43 138 53c21.333 4.66699 42.333 8 63 10s40.334 3 59.001 3
c77.333 0 139 -18.833 185 -56.5s71.667 -96.167 77 -175.5c0.666992 -6 1 -12.167 1 -18.5s0.333008 -12.5 1 -18.5c0 -6.66699 0.166992 -13.667 0.5 -21s0.833008 -14.666 1.5 -21.999c1.33301 -22 3.33301 -44 6 -66s7 -43.667 13 -65
c2.66699 -9.33301 6.5 -16 11.5 -20s10.5 -6 16.5 -6c2.66699 0 5.33398 0.5 8.00098 1.5s5.33398 1.83301 8.00098 2.5l7 4.5c2.66699 1.66699 5.33398 3.5 8.00098 5.5c10.667 8 20.667 18.833 30 32.5s16.333 29.834 21 48.501l51 -7v0zM518.987 250.995
c-2 12.667 -3.83301 25.332 -5.5 37.999s-3.16699 25.334 -4.5 38.001c-2 12 -3.66699 24.333 -5 37l-4 38l-42.5 -71.5l-49.5 -79.5h111v0zM640.987 683.993c0 -21.333 -7.83301 -40 -23.5 -56s-34.167 -24 -55.5 -24c-22 0 -40.833 8 -56.5 24s-23.5 34.667 -23.5 56
c0 22 7.83301 40.667 23.5 56s34.5 23 56.5 23c21.333 0 39.833 -7.66699 55.5 -23s23.5 -34 23.5 -56v0zM599.987 683.993c0 10.667 -3.66699 19.667 -11 27s-16.333 11 -27 11s-19.667 -3.66699 -27 -11s-11 -16.333 -11 -27s3.66699 -19.667 11 -27s16.333 -11 27 -11
s19.667 3.66699 27 11s11 16.333 11 27v0z" />
    <glyph glyph-name="AE" unicode="&#xc6;" horiz-adv-x="1030" 
d="M1126 194c-32.667 -76 -77.3379 -128.332 -134.005 -156.999s-124.334 -43 -203.001 -43h-13.5c-4.33301 0 -8.5 0.333008 -12.5 1c-58 2 -110.833 15.833 -158.5 41.5s-68.834 75.167 -63.501 148.5v8v8h-153l-36 -39.5c-14.667 -15.667 -31 -31.834 -49 -48.501
c-16.667 -16 -34.667 -31.5 -54 -46.5s-38.666 -27.833 -57.999 -38.5c-15.333 -8.66699 -30.5 -15.5 -45.5 -20.5s-29.5 -7.5 -43.5 -7.5c-10 0 -19.5 1.5 -28.5 4.5s-17.833 7.5 -26.5 13.5c-11.333 8.66699 -19.833 19 -25.5 31s-8.5 24.333 -8.5 37v4.5
c0 1.66699 0.333008 3.5 1 5.5c0.666992 10 3.33398 19.667 8.00098 29s11 18 19 26c2 -20.667 8.33301 -35.167 19 -43.5s23.334 -12.5 38.001 -12.5c6 0 12.167 0.666992 18.5 2s12.5 3 18.5 5c10.667 2.66699 21 6.33398 31 11.001s19.333 9.66699 28 15
c4.66699 2.66699 9.33398 5.5 14.001 8.5s8.66699 5.83301 12 8.5c54 44 105.5 91.167 154.5 141.5l143.5 152.5l15.5 17l14.5 16v2c0 0.666992 0.333008 1.66699 1 3v2v2c0 18.667 -6.33301 31.5 -19 38.5s-27.667 10.5 -45 10.5
c-4.66699 0 -9.33398 -0.166992 -14.001 -0.5s-9.33398 -0.833008 -14.001 -1.5c-12 -2 -23.667 -4.66699 -35 -8s-21.333 -6.66602 -30 -9.99902c-3.33301 -1.33301 -6.33301 -2.66602 -9 -3.99902s-5 -2.66602 -7 -3.99902
c-4.66699 -2.66699 -9.83398 -6.16699 -15.501 -10.5s-11.5 -9.16602 -17.5 -14.499c-11.333 -10 -21.833 -21.5 -31.5 -34.5s-16.167 -26.167 -19.5 -39.5c-0.666992 -2.66699 -1.16699 -5.33398 -1.5 -8.00098s-0.5 -5.33398 -0.5 -8.00098s0.333008 -5.83398 1 -9.50098
s1.66699 -7.16699 3 -10.5c6 -13.333 15.5 -22.5 28.5 -27.5s26.5 -9.16699 40.5 -12.5c0.666992 0 1.33398 -0.166992 2.00098 -0.5s1.33398 -0.5 2.00098 -0.5l-6.5 -6.5l-6.5 -6.5c-10.667 -8.66699 -22.834 -17 -36.501 -25s-27.5 -14.333 -41.5 -19
c-6 -1.33301 -11.833 -2.5 -17.5 -3.5s-11.167 -1.5 -16.5 -1.5c-10.667 0 -20.5 2 -29.5 6s-17.167 10.667 -24.5 20c-6.66699 9.33301 -11.5 18.666 -14.5 27.999s-4.5 19 -4.5 29v6.5c0 2.33301 0.333008 4.5 1 6.5c2 22 9.33301 43.5 22 64.5s26.334 38.5 41.001 52.5
l1.5 1.5l1.5 1.5c29.333 27.333 67.166 50.666 113.499 69.999s94.5 32.333 144.5 39c10.667 1.33301 21.334 2.33301 32.001 3s21.334 1 32.001 1c29.333 0 57.5 -3.16699 84.5 -9.5s51.167 -16.166 72.5 -29.499c22 12.667 49.833 23 83.5 31s68.834 12.667 105.501 14
h6.5h6.5c39.333 0 76.5 -5 111.5 -15s61.5 -26.667 79.5 -50c4 -5.33301 7.16699 -11 9.5 -17s4.16602 -12 5.49902 -18c0 -2 0.166992 -4 0.5 -6s0.5 -4 0.5 -6c0 -9.33301 -2.16699 -18.5 -6.5 -27.5s-11.166 -16.833 -20.499 -23.5
c-7.33301 -4.66699 -15 -8.16699 -23 -10.5s-16 -3.5 -24 -3.5c-3.33301 0 -6.83301 0.166992 -10.5 0.5s-7.16699 0.833008 -10.5 1.5c-10.667 2 -21.167 5 -31.5 9s-20.5 8.33301 -30.5 13c2 1.33301 4 2.83301 6 4.5s4 3.5 6 5.5c7.33301 5.33301 14 11.5 20 18.5
s9 15.167 9 24.5c0 1.33301 -0.166992 3 -0.5 5s-0.833008 4 -1.5 6c-3.33301 10.667 -10 18.167 -20 22.5s-21 6.5 -33 6.5h-5.5c-1.66699 0 -3.16699 -0.333008 -4.5 -1c-13.333 -1.33301 -25.833 -3.83301 -37.5 -7.5s-21.167 -7.83398 -28.5 -12.501
c-14 -9.33301 -25.5 -21.833 -34.5 -37.5s-13.5 -32.5 -13.5 -50.5c-0.666992 -15.333 3 -29.166 11 -41.499s20.667 -18.5 38 -18.5h30.5h30.5h30.5h30.5l-18 -55l-86 1l-14.5 -2l-14.5 -2c-33.333 -7.33301 -63.666 -22.333 -90.999 -45s-41 -52.334 -41 -89.001
c0 -34.667 12.833 -60.167 38.5 -76.5s53.834 -24.5 84.501 -24.5c48 0 91.167 12.833 129.5 38.5s66.5 60.5 84.5 104.5l54 -26v0zM548.996 400.001l-19.5 -24.5l-19.5 -25.5l-38.5 -49.5l-39.5 -49.5h111c0 12.667 0.166992 25.167 0.5 37.5s0.833008 24.833 1.5 37.5
l2 36.5l2 37.5v0z" />
    <glyph glyph-name="Ccedilla" unicode="&#xc7;" horiz-adv-x="563" 
d="M450 -102c-2.66699 -14.667 -10.165 -26.832 -22.498 -36.499s-25.833 -17.167 -40.5 -22.5c-1.33301 -0.666992 -3 -1.16699 -5 -1.5s-4 -0.833008 -6 -1.5c-13.333 -3.33301 -27.833 -5.5 -43.5 -6.5s-31.834 -1.5 -48.501 -1.5c-4.66699 0 -9.5 0.166992 -14.5 0.5
s-9.83301 0.5 -14.5 0.5c-15.333 1.33301 -30.166 3.83301 -44.499 7.5s-28.166 8.5 -41.499 14.5c-2.66699 0.666992 -5.83398 1.83398 -9.50098 3.50098s-7.16699 3.16699 -10.5 4.5c2 2.66699 4 5.5 6 8.5s4 5.83301 6 8.5c1.33301 2.66699 3 5.33398 5 8.00098l6 8
c16 -4.66699 32 -8.33398 48 -11.001s32.333 -4 49 -4c5.33301 0 11.666 0.166992 18.999 0.5s15 0.833008 23 1.5c11.333 1.33301 21.833 3.83301 31.5 7.5s16.5 9.5 20.5 17.5v1.5c0 0.333008 0.333008 0.5 1 0.5v1.5v1.5v0.5c0 0.333008 -0.333008 0.5 -1 0.5v1v0
l-1.5 1.5l-1.5 1.5c-2.66699 2.66699 -6.5 4.66699 -11.5 6l-15.5 4c-10 2 -19.833 3.16699 -29.5 3.5s-19.5 0.166016 -29.5 -0.500977c-7.33301 0 -14.5 -0.333008 -21.5 -1l-20.5 -2c-2.66699 0 -5.5 -0.166992 -8.5 -0.5s-5.83301 -0.5 -8.5 -0.5
c6.66699 8.66699 13.167 17.667 19.5 27l19.5 28l18.5 26.5l19.5 27.5l46 -24c-1.33301 -2 -2.66602 -3.83301 -3.99902 -5.5s-2.66602 -3.5 -3.99902 -5.5c-0.666992 -0.666992 -1.33398 -1.5 -2.00098 -2.5s-1.33398 -2.16699 -2.00098 -3.5c-2 -2.66699 -4 -5.5 -6 -8.5
s-4 -5.83301 -6 -8.5c5.33301 -0.666992 11 -1.16699 17 -1.5s12 -0.833008 18 -1.5c5.33301 -0.666992 11 -1.5 17 -2.5s11.667 -2.16699 17 -3.5c2.66699 -0.666992 5.66699 -1.5 9 -2.5s6.66602 -1.83301 9.99902 -2.5c12 -4.66699 23.167 -11.167 33.5 -19.5
s15.5 -19.5 15.5 -33.5v-2v-2c-0.666992 -0.666992 -1 -1.33398 -1 -2.00098v-2v-1zM661.002 201.002c-40.667 -72.667 -90.4971 -124.328 -149.497 -154.995s-129.833 -46 -212.5 -46c-75.333 0 -142 23.833 -200 71.5s-87 111.834 -87 192.501
c0 53.333 13.833 102.333 41.5 147s63.167 81.334 106.5 110.001c35.333 24.667 75.666 43.667 120.999 57s92.333 20 141 20c8 0 15.833 -0.166992 23.5 -0.5s15.5 -0.833008 23.5 -1.5c27.333 -2 54.166 -6.83301 80.499 -14.5s49.833 -20.834 70.5 -39.501
c10.667 -9.33301 18.334 -19.833 23.001 -31.5s7 -23.5 7 -35.5c0 -24.667 -9 -47.167 -27 -67.5s-41.333 -30.833 -70 -31.5c-16.667 -0.666992 -31.334 2.16602 -44.001 8.49902s-24.667 14.166 -36 23.499c-2.66699 2 -5.33398 4.16699 -8.00098 6.5
s-5.33398 4.83301 -8.00098 7.5c2 0.666992 3.83301 1.5 5.5 2.5s3.5 1.83301 5.5 2.5c13.333 7.33301 25 15.166 35 23.499s18 20.5 24 36.5c1.33301 2.66699 2.16602 5.16699 2.49902 7.5s0.5 4.83301 0.5 7.5c0 11.333 -4.66699 20 -14 26s-20.666 9 -33.999 9
c-36 0 -68 -14.333 -96 -43s-51.667 -60.334 -71 -95.001c-8 -14.667 -15.167 -29.334 -21.5 -44.001s-11.833 -28 -16.5 -40c-5.33301 -14.667 -10.333 -31.334 -15 -50.001s-7.33398 -37.334 -8.00098 -56.001v-5.5v-5.5c0 -24.667 4.83301 -47.667 14.5 -69
s27.5 -36.666 53.5 -45.999c9.33301 -3.33301 18.833 -5.83301 28.5 -7.5s19.5 -2.5 29.5 -2.5h7.5c2.33301 0 4.5 0.333008 6.5 1c41.333 2.66699 80.666 17.167 117.999 43.5s65 56.833 83 91.5c0.666992 1.33301 1.33398 2.5 2.00098 3.5s1.33398 2.16699 2.00098 3.5
c0.666992 0.666992 1.33398 1.66699 2.00098 3l2 4l38 -14l20 -8v0z" />
    <glyph glyph-name="Egrave" unicode="&#xc8;" horiz-adv-x="566" 
d="M662 195c-32.667 -76 -77.332 -128.333 -133.999 -157s-124.334 -43 -203.001 -43c-17.333 0 -36.666 0.833008 -57.999 2.5s-43 5.16699 -65 10.5c-48 10.667 -92 29.334 -132 56.001s-60 64.667 -60 114c0 45.333 17.5 82.666 52.5 111.999s73.5 49 115.5 59
c10 2 19.833 3.66699 29.5 5s19.167 2 28.5 2c-16.667 10 -30.334 22.833 -41.001 38.5s-16 33.167 -16 52.5c0 3.33301 0.166992 6.5 0.5 9.5s0.833008 6.16699 1.5 9.5c8.66699 37.333 29.334 65.333 62.001 84s67.667 31.667 105 39c18 4 35.833 6.66699 53.5 8
s33.834 2 48.501 2c11.333 0 25.166 -0.833008 41.499 -2.5s33.166 -4.5 50.499 -8.5c30 -6.66699 57.167 -17.667 81.5 -33s36.5 -37 36.5 -65v-3.5v-4.5c-2.66699 -21.333 -11.5 -36.5 -26.5 -45.5s-31.833 -13.167 -50.5 -12.5h-6.5c-2.33301 0 -4.83301 0.333008 -7.5 1
c-6.66699 0.666992 -13.334 1.83398 -20.001 3.50098s-13 3.83398 -19 6.50098l-16.5 7.5c-3.66699 1.66699 -6.16699 3.16699 -7.5 4.5s-0.166016 3.33301 3.50098 6l17.5 13c6.66699 5.33301 11.5 10.833 14.5 16.5s4.16699 10.834 3.5 15.501
c0 11.333 -5.66699 21.166 -17 29.499s-24.666 12.5 -39.999 12.5c-31.333 0 -59.5 -9.83301 -84.5 -29.5s-37.833 -46.167 -38.5 -79.5c-0.666992 -27.333 9 -44.5 29 -51.5s41.667 -10.5 65 -10.5h13h13c4 0.666992 8.16699 1 12.5 1h12.5h13.5h12.5l-18 -53h-12.5h-13.5
c-20.667 0.666992 -40.834 0.5 -60.501 -0.5s-39.167 -5.16699 -58.5 -12.5c-7.33301 -2 -14.333 -4.83301 -21 -8.5s-13.667 -7.83398 -21 -12.501c-16.667 -12 -30 -25.833 -40 -41.5s-16 -31.834 -18 -48.501c-0.666992 -2.66699 -1 -5.16699 -1 -7.5v-7.5
c0 -22.667 7.33301 -43.167 22 -61.5s37 -30.166 67 -35.499c6.66699 -0.666992 13.167 -1.5 19.5 -2.5s12.5 -1.5 18.5 -1.5c45.333 0 87.5 13.667 126.5 41s66.833 61.666 83.5 102.999l53 -26v0zM491.002 614c-4.66699 0.666992 -9.49805 1.00293 -14.498 1.00293
s-9.83301 0.333008 -14.5 1l-29 2l-29 2c-8.66699 1.33301 -17.167 2.83301 -25.5 4.5s-15.5 3.83398 -21.5 6.50098c-9.33301 5.33301 -17.833 13.166 -25.5 23.499s-11.5 21.166 -11.5 32.499c0 2.66699 0.333008 5.16699 1 7.5s1.33398 4.83301 2.00098 7.5
c3.33301 8 9.16602 13.833 17.499 17.5s16.833 5.5 25.5 5.5c6 0 11.667 -0.666992 17 -2s10 -3.33301 14 -6c5.33301 -2.66699 10.666 -6.33398 15.999 -11.001s11.333 -10.334 18 -17.001c9.33301 -9.33301 18.166 -19.333 26.499 -30l24.5 -32l4.5 -6.5l4.5 -6.5v0z" />
    <glyph glyph-name="Eacute" unicode="&#xc9;" horiz-adv-x="566" 
d="M662 195c-32.667 -76 -77.332 -128.333 -133.999 -157s-124.334 -43 -203.001 -43c-17.333 0 -36.666 0.833008 -57.999 2.5s-43 5.16699 -65 10.5c-48 10.667 -92 29.334 -132 56.001s-60 64.667 -60 114c0 45.333 17.5 82.666 52.5 111.999s73.5 49 115.5 59
c10 2 19.833 3.66699 29.5 5s19.167 2 28.5 2c-16.667 10 -30.334 22.833 -41.001 38.5s-16 33.167 -16 52.5c0 3.33301 0.166992 6.5 0.5 9.5s0.833008 6.16699 1.5 9.5c8.66699 37.333 29.334 65.333 62.001 84s67.667 31.667 105 39c18 4 35.833 6.66699 53.5 8
s33.834 2 48.501 2c11.333 0 25.166 -0.833008 41.499 -2.5s33.166 -4.5 50.499 -8.5c30 -6.66699 57.167 -17.667 81.5 -33s36.5 -37 36.5 -65v-3.5v-4.5c-2.66699 -21.333 -11.5 -36.5 -26.5 -45.5s-31.833 -13.167 -50.5 -12.5h-6.5c-2.33301 0 -4.83301 0.333008 -7.5 1
c-6.66699 0.666992 -13.334 1.83398 -20.001 3.50098s-13 3.83398 -19 6.50098l-16.5 7.5c-3.66699 1.66699 -6.16699 3.16699 -7.5 4.5s-0.166016 3.33301 3.50098 6l17.5 13c6.66699 5.33301 11.5 10.833 14.5 16.5s4.16699 10.834 3.5 15.501
c0 11.333 -5.66699 21.166 -17 29.499s-24.666 12.5 -39.999 12.5c-31.333 0 -59.5 -9.83301 -84.5 -29.5s-37.833 -46.167 -38.5 -79.5c-0.666992 -27.333 9 -44.5 29 -51.5s41.667 -10.5 65 -10.5h13h13c4 0.666992 8.16699 1 12.5 1h12.5h13.5h12.5l-18 -53h-12.5h-13.5
c-20.667 0.666992 -40.834 0.5 -60.501 -0.5s-39.167 -5.16699 -58.5 -12.5c-7.33301 -2 -14.333 -4.83301 -21 -8.5s-13.667 -7.83398 -21 -12.501c-16.667 -12 -30 -25.833 -40 -41.5s-16 -31.834 -18 -48.501c-0.666992 -2.66699 -1 -5.16699 -1 -7.5v-7.5
c0 -22.667 7.33301 -43.167 22 -61.5s37 -30.166 67 -35.499c6.66699 -0.666992 13.167 -1.5 19.5 -2.5s12.5 -1.5 18.5 -1.5c45.333 0 87.5 13.667 126.5 41s66.833 61.666 83.5 102.999l53 -26v0zM586.002 705c1.33301 -2.66699 2.16504 -5.16699 2.49805 -7.5
s0.5 -4.83301 0.5 -7.5c-0.666992 -12 -4.66699 -23 -12 -33s-15.666 -17.667 -24.999 -23c-6 -2.66699 -13 -4.83398 -21 -6.50098s-16.667 -3.16699 -26 -4.5l-28.5 -2l-29.5 -2c-4.66699 -0.666992 -9.5 -1 -14.5 -1s-9.83301 -0.333008 -14.5 -1l4.5 6.5l4.5 6.5
l24.5 32c8.33301 10.667 17.166 20.667 26.499 30c6.66699 6.66699 12.834 12.334 18.501 17.001s10.834 8.33398 15.501 11.001s9.66699 4.66699 15 6s11 2 17 2h2h2c8 -0.666992 15.5 -2.83398 22.5 -6.50098s12.167 -9.16699 15.5 -16.5v0z" />
    <glyph glyph-name="Ecircumflex" unicode="&#xca;" horiz-adv-x="566" 
d="M662 195c-32.667 -76 -77.332 -128.333 -133.999 -157s-124.334 -43 -203.001 -43c-17.333 0 -36.666 0.833008 -57.999 2.5s-43 5.16699 -65 10.5c-48 10.667 -92 29.334 -132 56.001s-60 64.667 -60 114c0 45.333 17.5 82.666 52.5 111.999s73.5 49 115.5 59
c10 2 19.833 3.66699 29.5 5s19.167 2 28.5 2c-16.667 10 -30.334 22.833 -41.001 38.5s-16 33.167 -16 52.5c0 3.33301 0.166992 6.5 0.5 9.5s0.833008 6.16699 1.5 9.5c8.66699 37.333 29.334 65.333 62.001 84s67.667 31.667 105 39c18 4 35.833 6.66699 53.5 8
s33.834 2 48.501 2c11.333 0 25.166 -0.833008 41.499 -2.5s33.166 -4.5 50.499 -8.5c30 -6.66699 57.167 -17.667 81.5 -33s36.5 -37 36.5 -65v-3.5v-4.5c-2.66699 -21.333 -11.5 -36.5 -26.5 -45.5s-31.833 -13.167 -50.5 -12.5h-6.5c-2.33301 0 -4.83301 0.333008 -7.5 1
c-6.66699 0.666992 -13.334 1.83398 -20.001 3.50098s-13 3.83398 -19 6.50098l-16.5 7.5c-3.66699 1.66699 -6.16699 3.16699 -7.5 4.5s-0.166016 3.33301 3.50098 6l17.5 13c6.66699 5.33301 11.5 10.833 14.5 16.5s4.16699 10.834 3.5 15.501
c0 11.333 -5.66699 21.166 -17 29.499s-24.666 12.5 -39.999 12.5c-31.333 0 -59.5 -9.83301 -84.5 -29.5s-37.833 -46.167 -38.5 -79.5c-0.666992 -27.333 9 -44.5 29 -51.5s41.667 -10.5 65 -10.5h13h13c4 0.666992 8.16699 1 12.5 1h12.5h13.5h12.5l-18 -53h-12.5h-13.5
c-20.667 0.666992 -40.834 0.5 -60.501 -0.5s-39.167 -5.16699 -58.5 -12.5c-7.33301 -2 -14.333 -4.83301 -21 -8.5s-13.667 -7.83398 -21 -12.501c-16.667 -12 -30 -25.833 -40 -41.5s-16 -31.834 -18 -48.501c-0.666992 -2.66699 -1 -5.16699 -1 -7.5v-7.5
c0 -22.667 7.33301 -43.167 22 -61.5s37 -30.166 67 -35.499c6.66699 -0.666992 13.167 -1.5 19.5 -2.5s12.5 -1.5 18.5 -1.5c45.333 0 87.5 13.667 126.5 41s66.833 61.666 83.5 102.999l53 -26v0zM625.002 598l-151 52l-195 -45l225 148l121 -155v0z" />
    <glyph glyph-name="Edieresis" unicode="&#xcb;" horiz-adv-x="566" 
d="M662 195c-32.667 -76 -77.332 -128.333 -133.999 -157s-124.334 -43 -203.001 -43c-17.333 0 -36.666 0.833008 -57.999 2.5s-43 5.16699 -65 10.5c-48 10.667 -92 29.334 -132 56.001s-60 64.667 -60 114c0 45.333 17.5 82.666 52.5 111.999s73.5 49 115.5 59
c10 2 19.833 3.66699 29.5 5s19.167 2 28.5 2c-16.667 10 -30.334 22.833 -41.001 38.5s-16 33.167 -16 52.5c0 3.33301 0.166992 6.5 0.5 9.5s0.833008 6.16699 1.5 9.5c8.66699 37.333 29.334 65.333 62.001 84s67.667 31.667 105 39c18 4 35.833 6.66699 53.5 8
s33.834 2 48.501 2c11.333 0 25.166 -0.833008 41.499 -2.5s33.166 -4.5 50.499 -8.5c30 -6.66699 57.167 -17.667 81.5 -33s36.5 -37 36.5 -65v-3.5v-4.5c-2.66699 -21.333 -11.5 -36.5 -26.5 -45.5s-31.833 -13.167 -50.5 -12.5h-6.5c-2.33301 0 -4.83301 0.333008 -7.5 1
c-6.66699 0.666992 -13.334 1.83398 -20.001 3.50098s-13 3.83398 -19 6.50098l-16.5 7.5c-3.66699 1.66699 -6.16699 3.16699 -7.5 4.5s-0.166016 3.33301 3.50098 6l17.5 13c6.66699 5.33301 11.5 10.833 14.5 16.5s4.16699 10.834 3.5 15.501
c0 11.333 -5.66699 21.166 -17 29.499s-24.666 12.5 -39.999 12.5c-31.333 0 -59.5 -9.83301 -84.5 -29.5s-37.833 -46.167 -38.5 -79.5c-0.666992 -27.333 9 -44.5 29 -51.5s41.667 -10.5 65 -10.5h13h13c4 0.666992 8.16699 1 12.5 1h12.5h13.5h12.5l-18 -53h-12.5h-13.5
c-20.667 0.666992 -40.834 0.5 -60.501 -0.5s-39.167 -5.16699 -58.5 -12.5c-7.33301 -2 -14.333 -4.83301 -21 -8.5s-13.667 -7.83398 -21 -12.501c-16.667 -12 -30 -25.833 -40 -41.5s-16 -31.834 -18 -48.501c-0.666992 -2.66699 -1 -5.16699 -1 -7.5v-7.5
c0 -22.667 7.33301 -43.167 22 -61.5s37 -30.166 67 -35.499c6.66699 -0.666992 13.167 -1.5 19.5 -2.5s12.5 -1.5 18.5 -1.5c45.333 0 87.5 13.667 126.5 41s66.833 61.666 83.5 102.999l53 -26v0zM454.002 670c0 -16 -5.99707 -28.001 -17.9971 -36.001
s-25 -12.667 -39 -14c-2 -0.666992 -4 -1 -6 -1h-6c-16.667 0 -31.334 3.83301 -44.001 11.5s-19 20.834 -19 39.501c0 16 6.5 28.167 19.5 36.5s27.5 12.833 43.5 13.5h2.5h2.5c9.33301 0 18.166 -1.16699 26.499 -3.5s15.166 -5.83301 20.499 -10.5
c6 -4.66699 10.333 -10 13 -16s4 -12.667 4 -20v0zM608.005 669.999c0 -16.667 -6.33203 -29.001 -18.999 -37.001s-26.334 -12.667 -41.001 -14h-5.5h-4.5c-16.667 0 -31.167 3.83301 -43.5 11.5s-18.5 20.834 -18.5 39.501c0 17.333 7.16699 30 21.5 38s29.833 12 46.5 12
c9.33301 0 18 -1.16699 26 -3.5s15 -5.83301 21 -10.5c5.33301 -4.66699 9.5 -10 12.5 -16s4.5 -12.667 4.5 -20v0z" />
    <glyph glyph-name="Igrave" unicode="&#xcc;" horiz-adv-x="634" 
d="M749 565l-30.002 -86.999l-30 -88l-30 -87.5l-30 -87.5c-20.667 -58 -57.5 -104.167 -110.5 -138.5s-109.5 -57.166 -169.5 -68.499c-14.667 -2.66699 -29.334 -4.66699 -44.001 -6s-29 -2 -43 -2s-29.167 0.5 -45.5 1.5s-33.166 2.83301 -50.499 5.5
c-39.333 6 -75.5 17.833 -108.5 35.5s-49.5 45.834 -49.5 84.501c0 7.33301 0.833008 14.833 2.5 22.5s3.83398 15.834 6.50098 24.501c6 17.333 17 31.166 33 41.499s33.333 15.5 52 15.5h2h2h4h5c8.66699 -1.33301 17 -3.5 25 -6.5s15.333 -7.83301 22 -14.5l11 -9.5
c2 -1.66699 3 -3.16699 3 -4.5s-1.16699 -3 -3.5 -5s-6.16602 -4.66699 -11.499 -8c-8.66699 -7.33301 -15.834 -16 -21.501 -26s-9.5 -20 -11.5 -30c0 -2.66699 -0.166992 -5 -0.5 -7s-0.5 -4 -0.5 -6c0 -12 3.16699 -23.167 9.5 -33.5s16.5 -18.166 30.5 -23.499
c6 -2 12 -3.5 18 -4.5s11.667 -1.5 17 -1.5c31.333 0 59.5 11.667 84.5 35s44.833 48.666 59.5 75.999c3.33301 6.66699 6.5 13.334 9.5 20.001s5.5 13 7.5 19c9.33301 25.333 18.166 50.5 26.499 75.5l25.5 74.5l13.5 38l12.5 38c0.666992 2 1.33398 3.83301 2.00098 5.5
s1.33398 3.5 2.00098 5.5c1.33301 5.33301 2.83301 11 4.5 17s2.83398 12.333 3.50098 19c0.666992 3.33301 1.16699 6.66602 1.5 9.99902s0.5 6.66602 0.5 9.99902c0 11.333 -2.66699 21 -8 29s-15.333 12 -30 12c-32 0 -61.5 -14 -88.5 -42s-43.167 -59 -48.5 -93
c-0.666992 -4 -1.16699 -7.83301 -1.5 -11.5s-0.5 -7.16699 -0.5 -10.5c0 -6.66699 0.5 -13.167 1.5 -19.5s2.83301 -12.5 5.5 -18.5c6 -14.667 14.167 -24.5 24.5 -29.5s21.833 -9.16699 34.5 -12.5c2 -0.666992 4.16699 -1.16699 6.5 -1.5s4.5 -0.833008 6.5 -1.5
c-2 -2 -3.83301 -4 -5.5 -6s-3.16699 -4 -4.5 -6c-12.667 -13.333 -26 -24.833 -40 -34.5s-31.667 -14.834 -53 -15.501c-34.667 -0.666992 -60.334 11.5 -77.001 36.5s-25 52.833 -25 83.5c0 11.333 1 22.166 3 32.499s5 20.166 9 29.499
c27.333 66.667 73.5 113.334 138.5 140.001s133.833 40.667 206.5 42h7.5h6.5c41.333 0 81.5 -3 120.5 -9s74.167 -13.667 105.5 -23v0zM610.998 614.001c-4.66699 0.666992 -9.49805 1.00293 -14.498 1.00293s-9.83301 0.333008 -14.5 1l-28.5 2l-29.5 2
c-8.66699 1.33301 -17.167 2.83301 -25.5 4.5s-15.5 3.83398 -21.5 6.50098c-9.33301 5.33301 -17.833 13.166 -25.5 23.499s-11.5 21.166 -11.5 32.499c0 2.66699 0.333008 5.16699 1 7.5s1.33398 4.83301 2.00098 7.5c3.33301 8 9.16602 13.833 17.499 17.5
s16.833 5.5 25.5 5.5c6 0 11.667 -0.666992 17 -2s10 -3.33301 14 -6c5.33301 -2.66699 10.666 -6.33398 15.999 -11.001s11.333 -10.334 18 -17.001c9.33301 -9.33301 18.166 -19.333 26.499 -30l24.5 -32l4.5 -6.5l4.5 -6.5v0z" />
    <glyph glyph-name="Iacute" unicode="&#xcd;" horiz-adv-x="634" 
d="M749 565l-30.002 -86.999l-30 -88l-30 -87.5l-30 -87.5c-20.667 -58 -57.5 -104.167 -110.5 -138.5s-109.5 -57.166 -169.5 -68.499c-14.667 -2.66699 -29.334 -4.66699 -44.001 -6s-29 -2 -43 -2s-29.167 0.5 -45.5 1.5s-33.166 2.83301 -50.499 5.5
c-39.333 6 -75.5 17.833 -108.5 35.5s-49.5 45.834 -49.5 84.501c0 7.33301 0.833008 14.833 2.5 22.5s3.83398 15.834 6.50098 24.501c6 17.333 17 31.166 33 41.499s33.333 15.5 52 15.5h2h2h4h5c8.66699 -1.33301 17 -3.5 25 -6.5s15.333 -7.83301 22 -14.5l11 -9.5
c2 -1.66699 3 -3.16699 3 -4.5s-1.16699 -3 -3.5 -5s-6.16602 -4.66699 -11.499 -8c-8.66699 -7.33301 -15.834 -16 -21.501 -26s-9.5 -20 -11.5 -30c0 -2.66699 -0.166992 -5 -0.5 -7s-0.5 -4 -0.5 -6c0 -12 3.16699 -23.167 9.5 -33.5s16.5 -18.166 30.5 -23.499
c6 -2 12 -3.5 18 -4.5s11.667 -1.5 17 -1.5c31.333 0 59.5 11.667 84.5 35s44.833 48.666 59.5 75.999c3.33301 6.66699 6.5 13.334 9.5 20.001s5.5 13 7.5 19c9.33301 25.333 18.166 50.5 26.499 75.5l25.5 74.5l13.5 38l12.5 38c0.666992 2 1.33398 3.83301 2.00098 5.5
s1.33398 3.5 2.00098 5.5c1.33301 5.33301 2.83301 11 4.5 17s2.83398 12.333 3.50098 19c0.666992 3.33301 1.16699 6.66602 1.5 9.99902s0.5 6.66602 0.5 9.99902c0 11.333 -2.66699 21 -8 29s-15.333 12 -30 12c-32 0 -61.5 -14 -88.5 -42s-43.167 -59 -48.5 -93
c-0.666992 -4 -1.16699 -7.83301 -1.5 -11.5s-0.5 -7.16699 -0.5 -10.5c0 -6.66699 0.5 -13.167 1.5 -19.5s2.83301 -12.5 5.5 -18.5c6 -14.667 14.167 -24.5 24.5 -29.5s21.833 -9.16699 34.5 -12.5c2 -0.666992 4.16699 -1.16699 6.5 -1.5s4.5 -0.833008 6.5 -1.5
c-2 -2 -3.83301 -4 -5.5 -6s-3.16699 -4 -4.5 -6c-12.667 -13.333 -26 -24.833 -40 -34.5s-31.667 -14.834 -53 -15.501c-34.667 -0.666992 -60.334 11.5 -77.001 36.5s-25 52.833 -25 83.5c0 11.333 1 22.166 3 32.499s5 20.166 9 29.499
c27.333 66.667 73.5 113.334 138.5 140.001s133.833 40.667 206.5 42h7.5h6.5c41.333 0 81.5 -3 120.5 -9s74.167 -13.667 105.5 -23v0zM711.998 699.001c1.33301 -2.66699 2.16504 -5.16699 2.49805 -7.5s0.5 -4.83301 0.5 -7.5c-0.666992 -12 -4.66699 -23 -12 -33
s-15.666 -17.667 -24.999 -23c-6 -2.66699 -13 -4.83398 -21 -6.50098s-16.667 -3.16699 -26 -4.5l-29 -2l-29 -2c-4.66699 -0.666992 -9.5 -1 -14.5 -1s-9.83301 -0.333008 -14.5 -1l4.5 6.5l4.5 6.5l24.5 32c8.33301 10.667 17.166 20.667 26.499 30
c6.66699 6.66699 12.834 12.334 18.501 17.001s10.834 8.33398 15.501 11.001s9.66699 4.66699 15 6s11 2 17 2h2h2c8 -0.666992 15.5 -2.83398 22.5 -6.50098s12.167 -9.16699 15.5 -16.5v0z" />
    <glyph glyph-name="Icircumflex" unicode="&#xce;" horiz-adv-x="634" 
d="M749 565l-30.002 -86.999l-30 -88l-30 -87.5l-30 -87.5c-20.667 -58 -57.5 -104.167 -110.5 -138.5s-109.5 -57.166 -169.5 -68.499c-14.667 -2.66699 -29.334 -4.66699 -44.001 -6s-29 -2 -43 -2s-29.167 0.5 -45.5 1.5s-33.166 2.83301 -50.499 5.5
c-39.333 6 -75.5 17.833 -108.5 35.5s-49.5 45.834 -49.5 84.501c0 7.33301 0.833008 14.833 2.5 22.5s3.83398 15.834 6.50098 24.501c6 17.333 17 31.166 33 41.499s33.333 15.5 52 15.5h2h2h4h5c8.66699 -1.33301 17 -3.5 25 -6.5s15.333 -7.83301 22 -14.5l11 -9.5
c2 -1.66699 3 -3.16699 3 -4.5s-1.16699 -3 -3.5 -5s-6.16602 -4.66699 -11.499 -8c-8.66699 -7.33301 -15.834 -16 -21.501 -26s-9.5 -20 -11.5 -30c0 -2.66699 -0.166992 -5 -0.5 -7s-0.5 -4 -0.5 -6c0 -12 3.16699 -23.167 9.5 -33.5s16.5 -18.166 30.5 -23.499
c6 -2 12 -3.5 18 -4.5s11.667 -1.5 17 -1.5c31.333 0 59.5 11.667 84.5 35s44.833 48.666 59.5 75.999c3.33301 6.66699 6.5 13.334 9.5 20.001s5.5 13 7.5 19c9.33301 25.333 18.166 50.5 26.499 75.5l25.5 74.5l13.5 38l12.5 38c0.666992 2 1.33398 3.83301 2.00098 5.5
s1.33398 3.5 2.00098 5.5c1.33301 5.33301 2.83301 11 4.5 17s2.83398 12.333 3.50098 19c0.666992 3.33301 1.16699 6.66602 1.5 9.99902s0.5 6.66602 0.5 9.99902c0 11.333 -2.66699 21 -8 29s-15.333 12 -30 12c-32 0 -61.5 -14 -88.5 -42s-43.167 -59 -48.5 -93
c-0.666992 -4 -1.16699 -7.83301 -1.5 -11.5s-0.5 -7.16699 -0.5 -10.5c0 -6.66699 0.5 -13.167 1.5 -19.5s2.83301 -12.5 5.5 -18.5c6 -14.667 14.167 -24.5 24.5 -29.5s21.833 -9.16699 34.5 -12.5c2 -0.666992 4.16699 -1.16699 6.5 -1.5s4.5 -0.833008 6.5 -1.5
c-2 -2 -3.83301 -4 -5.5 -6s-3.16699 -4 -4.5 -6c-12.667 -13.333 -26 -24.833 -40 -34.5s-31.667 -14.834 -53 -15.501c-34.667 -0.666992 -60.334 11.5 -77.001 36.5s-25 52.833 -25 83.5c0 11.333 1 22.166 3 32.499s5 20.166 9 29.499
c27.333 66.667 73.5 113.334 138.5 140.001s133.833 40.667 206.5 42h7.5h6.5c41.333 0 81.5 -3 120.5 -9s74.167 -13.667 105.5 -23v0zM716.998 598.001l-151 52l-195 -45l225 148l121 -155v0z" />
    </font>
</defs>
</svg>
