<?xml version="1.0" standalone="no"?>
<!DOCTYPE svg PUBLIC "-//W3C//DTD SVG 1.1//EN" "http://www.w3.org/Graphics/SVG/1.1/DTD/svg11.dtd" >
<svg>
<metadata>
Created by FontForge 20090914 at Tue Mar  1 16:29:25 2016
 By www-data
&#194;&#169; Christine Mauerkirchner und Rainer Grunert, Schwalbach, 1995
</metadata>
<defs>
<font id="Exmouth" horiz-adv-x="322" >
  <font-face 
    font-family="Exmouth"
    font-weight="400"
    font-stretch="normal"
    units-per-em="2048"
    panose-1="0 0 4 0 0 0 0 0 0 0"
    ascent="1638"
    descent="-410"
    x-height="416"
    cap-height="1516"
    bbox="-907 -602 3669 1885"
    underline-thickness="80"
    underline-position="-260"
    unicode-range="U+0020-U+F002"
  />
<missing-glyph horiz-adv-x="1024" 
d="M128 0v1434h768v-1434h-768zM256 128h512v1178h-512v-1178z" />
    <glyph glyph-name=".notdef" horiz-adv-x="1024" 
d="M128 0v1434h768v-1434h-768zM256 128h512v1178h-512v-1178z" />
    <glyph glyph-name="space" unicode=" " horiz-adv-x="355" 
 />
    <glyph glyph-name="exclam" unicode="!" horiz-adv-x="862" 
d="M654 793c-202.667 -208 -402 -429.333 -598 -664l-13 -7l-13 12l496 659h128zM50 66c-9.33301 -23.333 -31 -46 -65 -68c-24.667 14.667 -45 35.667 -61 63c12.667 27.333 33.667 49.333 63 66c20.667 -10 41.667 -30.333 63 -61z" />
    <glyph glyph-name="quotedbl" unicode="&#x22;" horiz-adv-x="579" 
d="M665 756c-22 285.333 -33 436 -33 452c0 58.667 16 88 48 88c22.667 0 34 -42 34 -126c0 11.333 -8.33301 -126.667 -25 -414h-24zM797 756l-20 229.001c-8 92 -12 168.333 -12 229c0 54.667 16.333 82 49 82c24.667 0 37 -41.333 37 -124
c0 3.33301 -9.33301 -135.334 -28 -416.001h-26z" />
    <glyph glyph-name="numbersign" unicode="#" horiz-adv-x="1260" 
d="M680 1110l-124 -367h281l123 367h70l-126 -367h274l-20 -53h-269l-100 -290h271l-17 -53h-274l-124 -362h-69l124 362h-278l-126 -362h-68l122 362h-267l17 53h267l102 290h-269l17 53h270l124 367h69zM717 400l100 290h-280l-98 -290h278z" />
    <glyph glyph-name="dollar" unicode="$" horiz-adv-x="758" 
d="M545 452c0 -32 -12.333 -48.002 -37 -48.002c-19.333 0 -29 11.333 -29 34c0 6.66699 2.33301 16.334 7 29.001s7 22.334 7 29.001c0 8 -6.5 17.333 -19.5 28s-23.833 16.667 -32.5 18l-152 -188c18 -52.667 27 -90 27 -112c0 -66 -27.667 -122 -83 -168
c-52 -44 -111.667 -66 -179 -66c-13.333 0 -26.333 1 -39 3c-22.667 -32.667 -50.667 -65.334 -84 -98.001l-12 13l68 94c-65.333 48 -98 89.667 -98 125c0 56 21.333 84 64 84c20.667 0 31 -11.667 31 -35c0 -15.333 -9.66699 -28.666 -29 -39.999s-29 -20.333 -29 -27
c0 -14.667 25.333 -43 76 -85l211 259c-18 45.333 -27 78 -27 98c0 54.667 28 99 84 133c50 30.667 103.333 44 160 40c26 35.333 57 71 93 107l10 -11c-3.33301 -14.667 -28.333 -50.334 -75 -107.001c58 -39.333 87 -75.666 87 -108.999zM276 379.998l135 166l-15 2
c-32.667 0 -63 -10.333 -91 -31c-30 -22.667 -45 -50 -45 -82c0 -14 5.33301 -32.333 16 -55zM244 188.998c0 19.333 -6.66699 48 -20 86l-194 -240l25 -1c49.333 -3.33301 92.333 8.66699 129 36c40 30 60 69.667 60 119z" />
    <glyph glyph-name="percent" unicode="%" horiz-adv-x="1041" 
d="M532 677c0 -71.333 -55.999 -146.333 -167.999 -225c-106 -74.667 -196.667 -112 -272 -112c-24.667 0 -44.5 9.66699 -59.5 29s-22.5 41.333 -22.5 66c0 82.667 49.333 156.667 148 222c89.333 59.333 177.666 89 264.999 89c72.667 0 109 -23 109 -69zM-41.999 -108
l-12 13l6 12c76 70 166.333 160.667 271 272l263 281l123 137c54.667 60 99 101 133 123l14 -12c-23.333 -44.667 -153.5 -190 -390.5 -436s-372.833 -376 -407.5 -390zM504.001 680c0 27.333 -18.667 41 -56 41c-52 0 -129.333 -41 -232 -123
c-104.667 -84 -157 -150.667 -157 -200c0 -18.667 12.667 -28 38 -28c69.333 0 153 34 251 102c104 72.667 156 142 156 208zM884.001 336c0 -72 -56.667 -147.333 -170 -226c-106 -74 -196.667 -111 -272 -111c-24.667 0 -44.667 10 -60 30c-14.667 18 -22 39.667 -22 65
c0 81.333 49.667 155 149 221c90.667 60 179 90 265 90c73.333 0 110 -23 110 -69zM856.001 336c0 29.333 -19.667 44 -59 44c-50 0 -126.667 -41.333 -230 -124c-105.333 -85.333 -158 -152 -158 -200c0 -18 12.667 -27 38 -27c68 0 151.667 34 251 102
c105.333 72 158 140.333 158 205z" />
    <glyph glyph-name="ampersand" unicode="&#x26;" horiz-adv-x="1356" 
d="M598 214c163.333 177.333 282.002 266.002 356.002 266.002c18.667 0 37.667 -8.33301 57 -25s29 -34.334 29 -53.001c0 -36.667 -15.333 -55 -46 -55c-14.667 0 -28.5 5.66699 -41.5 17s-19.5 24.333 -19.5 39s4 30.334 12 47.001c-56 -11.333 -118 -48.333 -186 -111
c-20 -18.667 -71 -72.667 -153 -162c16 -74 24 -136.333 24 -187c0 -147.333 -58.333 -272.666 -175 -375.999c-112 -98.667 -242.667 -148 -392 -148c-58 0 -109.333 10.333 -154 31c-58.667 27.333 -88 66.666 -88 117.999c0 76 31.333 133 94 171
c52 32 117.667 46.667 197 44h27l9 -12l-11 -17c-116.667 -15.333 -180.667 -25 -192 -29c-64 -23.333 -96 -73 -96 -149c0 -37.333 17.667 -67.666 53 -90.999c31.333 -20.667 66.333 -31 105 -31c139.333 0 272 70 398 210c124 137.333 184 276 180 416l-1 28
c-110.667 -93.333 -207.334 -140 -290.001 -140c-36 0 -68.333 10.667 -97 32c-31.333 23.333 -47 52.666 -47 87.999c0 80.667 48.333 144 145 190c48.667 23.333 132 47.666 250 72.999c6.66699 65.333 27 123.666 61 174.999c41.333 62 91.666 93 150.999 93
c65.333 0 98 -26.333 98 -79c0 -88.667 -93 -159.667 -279 -213c0 -56.667 7.33301 -110 22 -160zM775.002 640.002c-58 0 -105.333 -26.002 -142 -78.002c-31.333 -43.333 -50.333 -96.666 -57 -159.999c77.333 24 131 44.333 161 61c60.667 34.667 91 78.334 91 131.001
c0 12.667 -5.66699 23.5 -17 32.5s-23.333 13.5 -36 13.5zM300.002 45c78 0 169.999 47.666 275.999 142.999c-11.333 44.667 -20.666 102 -27.999 172c-72 -25.333 -139 -58.666 -201 -99.999c-86 -57.333 -129 -111 -129 -161c0 -36 27.333 -54 82 -54z" />
    <glyph glyph-name="quotesingle" unicode="'" horiz-adv-x="331" 
d="M773 1166c22.667 0 33.999 -10.332 33.999 -30.999c0 -18.667 -24.667 -47.834 -74 -87.501s-83.666 -59.5 -102.999 -59.5l-11 10c82.667 112 134 168 154 168z" />
    <glyph glyph-name="parenleft" unicode="(" horiz-adv-x="990" 
d="M1386 1230c10.667 0 17 -4 19 -12l-14 -16l-166 -52c-194 -68.667 -377 -212.334 -549 -431.001c-178 -226.667 -267 -439 -267 -637c0 -26.667 6.83301 -65.5 20.5 -116.5s20.5 -88.167 20.5 -111.5c0 -10 -6 -14.667 -18 -14l-8 1c-40.667 88 -61 183 -61 285
c0 236.667 89.667 457.334 269 662.001c165.333 188 366 322.667 602 404c74 25.333 124.667 38 152 38z" />
    <glyph glyph-name="parenright" unicode=")" horiz-adv-x="990" 
d="M-228 -181c-10.667 0 -16.999 4.00098 -18.999 12.001l15 16c36.667 10.667 91.667 27.667 165 51c193.333 68 376.333 211.667 549 431c178 226.667 267 439 267 637c0 26.667 -6.83301 65.5 -20.5 116.5s-20.5 88.5 -20.5 112.5c0 10 6 14.667 18 14l8 -1
c41.333 -89.333 62 -185.333 62 -288c0 -236.667 -89.667 -457.334 -269 -662.001c-164.667 -187.333 -365.334 -321 -602.001 -401c-74.667 -25.333 -125.667 -38 -153 -38z" />
    <glyph glyph-name="asterisk" unicode="*" horiz-adv-x="1937" 
d="M130 1123l-18.999 -8c-4 4 -16.333 48 -37 132l-111 -86l-9 12c3.33301 8.66699 35.333 43 96 103c-28.667 8.66699 -71.334 22.334 -128.001 41.001l-1 9c0 7.33301 4.66699 12.333 14 15l126 -32c-7.33301 28.667 -15.333 72.334 -24 131.001l14 10l12 -10
c7.33301 -19.333 19 -61 35 -125c10 9.33301 44 38.666 102 87.999l14 -16l-95 -98c86 -31.333 129 -49 129 -53c0 -10 -5.33301 -15 -16 -15c-3.33301 0 -46 11 -128 33c7.33301 -28.667 16 -72.334 26 -131.001z" />
    <glyph glyph-name="plus" unicode="+" horiz-adv-x="1206" 
d="M613 985v-469h465v-49l-465 1v-468h-55v468h-465v48h465v469h55z" />
    <glyph glyph-name="comma" unicode="," horiz-adv-x="379" 
d="M-30 163c21.333 0 32.001 -12.333 32.001 -37c0 -20.667 -28.5 -55 -85.5 -103s-95.833 -72.333 -116.5 -73l-11 11c4.66699 16 32.667 53.667 84 113s83.666 89 96.999 89z" />
    <glyph glyph-name="hyphen" unicode="-" horiz-adv-x="431" 
d="M215 315l-23.999 -58c-11.333 -19.333 -27.333 -29 -48 -29c-5.33301 0 -44 1.33301 -116 4c-46.667 2 -85.334 1 -116.001 -3l24 60c10 18 26.333 27 49 27c5.33301 0 44 -1.33301 116 -4c46.667 -2 85 -1 115 3z" />
    <glyph glyph-name="hyphen" unicode="&#x2010;" horiz-adv-x="431" 
d="M215 315l-23.999 -58c-11.333 -19.333 -27.333 -29 -48 -29c-5.33301 0 -44 1.33301 -116 4c-46.667 2 -85.334 1 -116.001 -3l24 60c10 18 26.333 27 49 27c5.33301 0 44 -1.33301 116 -4c46.667 -2 85 -1 115 3z" />
    <glyph glyph-name="period" unicode="." horiz-adv-x="274" 
d="M-54 66c-10 -24.667 -31 -47.334 -63 -68.001c-24.667 14.667 -45 35.667 -61 63c12.667 27.333 33.667 49.333 63 66c18.667 -9.33301 39 -29.666 61 -60.999z" />
    <glyph glyph-name="slash" unicode="/" horiz-adv-x="494" 
d="M-290 -168l-12 11c0 1.33301 48 59.333 144 174l390 466l325 344l329 340l10 3l12 -11c-2 -10 -30 -45.333 -84 -106l-102 -112l-450 -519l-552 -586z" />
    <glyph glyph-name="zero" unicode="0" horiz-adv-x="647" 
d="M10 0c-30.667 0 -56 11.5 -76 34.5s-30 49.833 -30 80.5c0 109.333 83 239.666 249 390.999c162.667 149.333 298 224 406 224c24.667 0 45.334 -9.16699 62.001 -27.5s25 -40.166 25 -65.499c0 -101.333 -80.833 -232.833 -242.5 -394.5
s-292.834 -242.5 -393.501 -242.5zM16 26c89.333 0 212.667 79.665 370 238.998s236 284 236 374c0 16.667 -5.83301 31.334 -17.5 44.001s-25.5 19 -41.5 19c-66 0 -185.167 -85.667 -357.5 -257s-258.5 -290.666 -258.5 -357.999c0 -40.667 23 -61 69 -61z" />
    <glyph glyph-name="one" unicode="1" horiz-adv-x="647" 
d="M30 0l-108 0.000976562l489 585l-232 -137c-122 -70.667 -195 -108 -219 -112l-10 14l7 10c74 38 293.333 166.333 658 385c2.66699 0.666992 6.66699 2 12 4l12 -13c-13.333 -28.667 -107.333 -146.334 -282 -353.001z" />
    <glyph glyph-name="two" unicode="2" horiz-adv-x="647" 
d="M135 28c36.667 0.666992 91.3301 27.668 163.997 81.001s113.334 80 122.001 80l8 -10c-0.666992 -22.667 -45.334 -58.667 -134.001 -108c-86 -48 -143.333 -72 -172 -72c-17.333 0 -33.166 5.83301 -47.499 17.5s-21.5 26.167 -21.5 43.5c0 20.667 6.66699 43 20 67
c-41.333 -5.33301 -101.666 -26 -180.999 -62c-76.667 -34 -118 -51 -124 -51l-10 13l9 15l116 61c140 75.333 293.667 191.666 461 348.999c-86.667 -54.667 -152.667 -82 -198 -82c-20 0 -37.167 7.83301 -51.5 23.5s-21.5 33.834 -21.5 54.501
c0 76 51.333 145.333 154 208c91.333 55.333 178 83 260 83c68.667 0 103 -30.667 103 -92c0 -80.667 -71 -174.334 -213 -281.001c-27.333 -20.667 -134.666 -89.667 -321.999 -207c67.333 1.33301 101 -20.667 101 -66c0 -22 -7.33301 -43.667 -22 -65zM501.996 639.001
l9 -12c22 20 33 37.667 33 53c0 14.667 -10.667 22 -32 22c-50.667 0 -127.667 -33.333 -231 -100c-108 -70.667 -162 -128.667 -162 -174c0 -18.667 13.667 -28 41 -28c44 0 91 18.667 141 56c30 22 69.333 58.333 118 109c42 43.333 69.667 68 83 74z" />
    <glyph glyph-name="three" unicode="3" horiz-adv-x="647" 
d="M415 336c0 -92 -63.9971 -173.331 -191.997 -243.998c-112 -61.333 -218.333 -92 -319 -92c-34 0 -66.333 9.33301 -97 28c-34.667 21.333 -52 48.333 -52 81c0 22 7.16699 41.5 21.5 58.5s32.5 25.5 54.5 25.5c28.667 0 43 -16 43 -48c0 -40 -19 -60 -57 -60
c-6.66699 0 -15.334 3 -26.001 9c5.33301 -17.333 17.5 -32.5 36.5 -45.5s37.833 -19.5 56.5 -19.5c70 0 163 40.333 279 121c122.667 85.333 184 160.333 184 225c0 22 -10.667 33 -32 33c-23.333 0 -55.5 -9.5 -96.5 -28.5s-72.5 -28.167 -94.5 -27.5l-9 13l11 15
c19.333 10.667 55.666 25 108.999 43c47.333 16 82.666 32.333 105.999 49c28 20 61.667 50.333 101 91c44.667 46.667 71 81.667 79 105c2.66699 8 4 13.667 4 17c0 20.667 -11.333 31 -34 31c-30 0 -81.333 -21 -154 -63c-76.667 -44.667 -115 -80.334 -115 -107.001
c0 -11.333 7 -17 21 -17c34.667 0 81.667 26.333 141 79l92 83l12 -12c0 -23.333 -34.667 -59.333 -104 -108c-66.667 -47.333 -113.667 -71 -141 -71c-16 0 -30.5 5.66699 -43.5 17s-19.5 25 -19.5 41c0 52 35.667 97.667 107 137c62 34.667 121.333 52 178 52
c31.333 0 58.666 -8.33301 81.999 -25c26.667 -18.667 40 -43.334 40 -74.001c0 -54.667 -30 -101.334 -90 -140.001c-17.333 -11.333 -70.666 -36.333 -159.999 -75c52 -23.333 78 -55.666 78 -96.999z" />
    <glyph glyph-name="four" unicode="4" horiz-adv-x="647" 
d="M535 743l-590.999 -522c59.333 18 146 26 260 24l191 214h74l-169 -225c19.333 0 47.333 4 84 12s63.667 12 81 12h12l12 -20l-4 -11c-32.667 -20.667 -101.667 -30.667 -207 -30l-154 -197h-113l165 208c-30 3.33301 -56.667 5 -80 5
c-28.667 0 -65.334 -6.33301 -110.001 -19c-49.333 -14 -84.666 -21.667 -105.999 -23l-10 12l6 14c151.333 128.667 328.666 310.667 531.999 546h127z" />
    <glyph glyph-name="five" unicode="5" horiz-adv-x="647" 
d="M372 658l-161.001 -164.001c42.667 18 82.667 27 120 27c81.333 0 122 -37 122 -111c0 -110.667 -65.667 -208.667 -197 -294c-118 -77.333 -235.333 -116 -352 -116c-31.333 0 -58.333 9.83301 -81 29.5s-34 45.5 -34 77.5c0 22.667 7.83301 43.334 23.5 62.001
s34.167 28 55.5 28c37.333 0 56 -19.667 56 -59c0 -36.667 -21.667 -55 -65 -55c-15.333 0 -29.333 6 -42 18c10 -50 38.333 -75 85 -75c66.667 0 162.667 52.333 288 157c128 107.333 192 193.333 192 258c0 30 -24.333 45 -73 45c-76 0 -160.333 -46.667 -253 -140l-13 13
l5 10l358 361c40.667 -20 87.334 -30 140.001 -30c16 0 39.333 3.5 70 10.5s53.334 10.5 68.001 10.5l10 -9c-0.666992 -15.333 -36.334 -31.333 -107.001 -48c-62 -15.333 -106.333 -23 -133 -23c-22.667 0 -50 5.66699 -82 17z" />
    <glyph glyph-name="six" unicode="6" horiz-adv-x="647" 
d="M183 382c77.333 40 136.999 60.001 178.999 60.001c26 0 47.167 -9.83301 63.5 -29.5s24.5 -42.834 24.5 -69.501c0 -79.333 -54 -158 -162 -236c-100.667 -72 -192.334 -108 -275.001 -108c-33.333 0 -60.666 10 -81.999 30s-32 46.333 -32 79
c0 110 88.667 242.667 266 398c173.333 151.333 316 227 428 227c24.667 0 46.334 -7.33301 65.001 -22c20 -16.667 30 -37 30 -61c0 -50 -21 -75 -63 -75c-14.667 0 -28 5.66699 -40 17s-18 24.333 -18 39c0 34.667 17.333 58 52 70c-81.333 0 -163.333 -37.333 -246 -112
c-0.666992 0 -64 -69 -190 -207zM-44.001 69.001c0 -26 14.667 -39 44 -39c51.333 0 127.666 46.5 228.999 139.5s152 164.5 152 214.5c0 18 -10.333 27 -31 27c-69.333 0 -151.666 -39.333 -246.999 -118c-98 -81.333 -147 -156 -147 -224z" />
    <glyph glyph-name="seven" unicode="7" horiz-adv-x="647" 
d="M261 695c51.333 20 100 29.999 146 29.999c17.333 0 43 -3.33301 77 -10s59.333 -10 76 -10c48 0 87 11.333 117 34l13 -13l-3 -9l-205 -208c-150 -156.667 -303.333 -326.334 -460 -509.001h-98c247.333 302.667 447.333 506 600 610c-18 -2.66699 -35.667 -4 -53 -4
c-22 0 -54 6.16699 -96 18.5s-73.667 18.5 -95 18.5c-39.333 0 -79.833 -22 -121.5 -66s-64.167 -66 -67.5 -66l-13 13c4 12.667 34.667 52.334 92 119.001s91 101.334 101 104.001l13 -14z" />
    <glyph glyph-name="eight" unicode="8" horiz-adv-x="647" 
d="M-108 114c0 75.333 42.332 139.331 126.999 191.998c44.667 28 120.334 60.667 227.001 98c-14.667 40.667 -22 71.334 -22 92.001c0 60 33 117 99 171c62.667 52 124.667 78 186 78c32 0 60.333 -7.66699 85 -23c30 -17.333 45 -41 45 -71
c0 -87.333 -88.333 -165.333 -265 -234c13.333 -40 20 -73 20 -99c0 -79.333 -39 -152.666 -117 -219.999c-76 -64.667 -154 -97 -234 -97c-100.667 0 -151 37.667 -151 113zM510.999 715.998c-46.667 0 -91 -15.666 -133 -46.999c-44.667 -34 -67 -73.667 -67 -119
c0 -22.667 14.333 -58.334 43 -107.001c170 60 255 127 255 201c0 48 -32.667 72 -98 72zM37.999 28.999c64.667 0 124.333 19.998 179 59.998c58.667 44 88 97 88 159c0 30.667 -13.333 72.667 -40 126c-82.667 -19.333 -155 -47.666 -217 -84.999
c-85.333 -51.333 -128 -109.666 -128 -174.999c0 -56.667 39.333 -85 118 -85z" />
    <glyph glyph-name="nine" unicode="9" horiz-adv-x="647" 
d="M-118 28c86.667 0 177.333 41.999 272 125.999c38 34 108.333 110.667 211 230c-100 -74 -182 -111 -246 -111c-50.667 0 -76 30.333 -76 91c0 79.333 53.333 157 160 233c98.667 70.667 189 106 271 106c74 0 111 -35 111 -105c0 -118.667 -86.333 -249 -259 -391
c-167.333 -138 -311 -207 -431 -207c-60.667 0 -91 7.33301 -91 22c0 7.33301 5.33301 11.333 16 12c7.33301 0.666992 19 -0.166016 35 -2.49902s25 -3.5 27 -3.5zM490.999 676.999c-50 0 -128.333 -46.832 -235 -140.499s-160 -164.834 -160 -213.501
c0 -15.333 10 -23 30 -23c87.333 0 198.333 71.667 333 215l12 -15c43.333 54 65 99.667 65 137c0 26.667 -15 40 -45 40z" />
    <glyph glyph-name="colon" unicode=":" horiz-adv-x="475" 
d="M-54 66c-10 -24.667 -31 -47.334 -63 -68.001c-24.667 14.667 -45 35.667 -61 63c12.667 27.333 33.667 49.333 63 66c18.667 -9.33301 39 -29.666 61 -60.999zM174 347c-8.66699 -21.333 -30.333 -43 -65 -65c-25.333 17.333 -45 37.666 -59 60.999
c14 30 34.333 52.667 61 68c19.333 -9.33301 40.333 -30.666 63 -63.999z" />
    <glyph glyph-name="semicolon" unicode=";" horiz-adv-x="492" 
d="M217 347c-8.66699 -21.333 -30.333 -43.001 -65 -65.001c-28 16.667 -47.667 37 -59 61c14 30 34.333 52.667 61 68c20 -9.33301 41 -30.666 63 -63.999zM-33.999 162.999c21.333 0 32 -12.333 32 -37c0 -20.667 -28.5 -55 -85.5 -103s-95.833 -72.333 -116.5 -73l-11 11
c4.66699 16 32.5 53.667 83.5 113s83.5 89 97.5 89z" />
    <glyph glyph-name="less" unicode="&#x3c;" horiz-adv-x="932" 
d="M128 492l711 -309v-80l-780 334v109l780 334v-80z" />
    <glyph glyph-name="equal" unicode="=" horiz-adv-x="1263" 
d="M1102 719v-66h-978v66h978zM1102 336v-65h-978v65h978z" />
    <glyph glyph-name="greater" unicode="&#x3e;" horiz-adv-x="932" 
d="M837 546v-109l-781 -334v81l709 308l-709 308v80z" />
    <glyph glyph-name="question" unicode="?" horiz-adv-x="912" 
d="M658 690c0 14 -8.66504 26.668 -25.998 38.001c-14.667 9.33301 -29.667 14 -45 14c-41.333 0 -101.666 -21.333 -180.999 -64c-86 -46.667 -129 -88.334 -129 -125.001c0 -12.667 13.333 -19 40 -19c52.667 0 114 26 184 78l112 84l8 -8
c-0.666992 -32 -45 -70.667 -133 -116c-82.667 -42.667 -142.667 -64 -180 -64c-53.333 0 -80 19.667 -80 59c0 58 43.667 107.667 131 149c73.333 35.333 142.666 53 207.999 53c36.667 0 67.5 -10.5 92.5 -31.5s37.5 -49.833 37.5 -86.5c0 -74.667 -48.667 -141 -146 -199
c-22.667 -14 -103.334 -50.333 -242.001 -109c-52.667 -22 -144.334 -92 -275.001 -210l-8 9c0.666992 32 106.167 123.167 316.5 273.5s315.5 241.833 315.5 274.5zM52.002 66.001c-9.33301 -23.333 -31 -46 -65 -68c-24 14.667 -44.333 35.667 -61 63
c12.667 27.333 33.667 49.333 63 66c20.667 -10 41.667 -30.333 63 -61z" />
    <glyph glyph-name="at" unicode="@" horiz-adv-x="1432" 
d="M277 392c0 111.333 30.001 209.669 90.001 295.002c66.667 95.333 153 143 259 143c95.333 0 164.666 -62.667 207.999 -188l50 168h44l-83 -256c-34.667 -114.667 -52 -199 -52 -253c0 -65.333 30.667 -98 92 -98c92 0 165 47.333 219 142
c45.333 79.333 68 169.333 68 270c0 150.667 -55.333 269.667 -166 357c-101.333 80.667 -229 121 -383 121c-179.333 0 -332 -63.167 -458 -189.5s-189 -279.833 -189 -460.5c0 -174.667 62 -316.334 186 -425.001c118 -103.333 265 -155 441 -155
c156 0 326.667 56.667 512 170l19 -26c-164.667 -120 -347.667 -180 -549 -180c-190 0 -346 55 -468 165c-126 114.667 -189 266.667 -189 456c0 197.333 69.667 361.333 209 492c136.667 128.667 303.667 193 501 193c164 0 298.667 -45 404 -135
c112.667 -94.667 169 -223 169 -385c0 -110.667 -25.333 -210.334 -76 -299.001c-60 -104.667 -141.333 -157 -244 -157c-89.333 0 -142.333 46 -159 138c-67.333 -93.333 -146.333 -140 -237 -140c-63.333 0 -116 24 -158 72c-40 45.333 -60 100.333 -60 165z
M495.001 201.003c86.667 0 160.667 46.333 222 139c54 83.333 81 171 81 263c0 50 -17.167 93.667 -51.5 131s-75.833 56 -124.5 56c-88 0 -162.333 -45.333 -223 -136c-53.333 -80.667 -80 -167.667 -80 -261c0 -50 17 -94.5 51 -133.5s75.667 -58.5 125 -58.5z" />
    <glyph glyph-name="A" unicode="A" horiz-adv-x="2074" 
d="M1534 98c53.333 11.333 111.332 31.334 173.999 60.001l165 78l8 1l8 -12l-5 -11c-118.667 -82 -242.667 -130.667 -372 -146l-41 -68h-135l50 79c-71.333 16.667 -128.666 35.667 -171.999 57c-38 19.333 -88.667 52.666 -152 99.999
c-226 -157.333 -433.667 -236 -623 -236c-67.333 0 -130.666 14 -189.999 42c-73.333 35.333 -110 83.333 -110 144c0 76.667 28.333 115 85 115c40.667 0 61 -21.333 61 -64c0 -52 -24.333 -78 -73 -78c-12 0 -23.333 4.66699 -34 14
c-0.666992 -49.333 32.666 -88.333 99.999 -117c52.667 -21.333 108 -32 166 -32c181.333 0 380.333 75.667 597 227c-150.667 158.667 -226 315 -226 469c0 95.333 23.667 176 71 242c53.333 73.333 126 110 218 110c183.333 0 324.333 -133.667 423 -401l347 308
c152.667 131.333 288 232 406 302c155.333 92 295.666 142 421 150c-118 -75.333 -317 -282 -597 -620c-5.33301 -5.33301 -195.333 -243 -570 -713zM1512 251.001l543.999 627c276 306 464 479.333 564 520c-149.333 -28 -340 -132.333 -572 -313
c-37.333 -28.667 -208.666 -175.667 -513.999 -441c11.333 -70.667 17 -128.667 17 -174c0 -72.667 -13 -145.667 -39 -219zM1060 269.001l226.999 186.999c85.333 72 158.333 137.667 219 197c-67.333 244 -192.333 366 -375 366c-87.333 0 -156.666 -32 -207.999 -96
c-47.333 -59.333 -71 -134 -71 -224c0 -139.333 69.333 -282.666 208 -429.999zM1404 103c80 116.667 120.001 245.332 120.001 385.999c0 43.333 -4 88 -12 134c-76.667 -71.333 -219.334 -194.666 -428.001 -369.999c99.333 -78 206 -128 320 -150z" />
    <glyph glyph-name="B" unicode="B" horiz-adv-x="2142" 
d="M1645 638c0 -22 25 -33 75 -33c31.333 0 56.333 6.66699 75 20c-26 28.667 -54.667 43 -86 43c-42.667 0 -64 -10 -64 -30zM230 258c20.667 0 38.666 -6.83203 53.999 -20.499s23 -30.834 23 -51.501c0 -34.667 -22 -64.667 -66 -90c70 -40.667 151.333 -61 244 -61
c186.667 0 379 78.333 577 235c83.333 65.333 253.333 230.666 510 495.999c210.667 218 388.334 366.667 533.001 446c-74 70 -175.333 123 -304 159c-109.333 30.667 -224.333 46 -345 46c-214.667 0 -407 -39 -577 -117
c-191.333 -86.667 -336.666 -215.667 -435.999 -387c-34.667 -59.333 -52 -117.666 -52 -174.999c0 -74 33.333 -131 100 -171c56 -34 123.333 -51 202 -51c128 0 283 47 465 141c206 105.333 309 215.333 309 330c0 47.333 -23.667 85 -71 113c-40 24 -85 36 -135 36
c-238.667 0 -460.667 -155 -666 -465l-9 -4l-14 10l2 9c54 124.667 148.667 234.667 284 330c138.667 98 274.334 147 407.001 147c56 0 106.333 -14.333 151 -43c51.333 -33.333 77 -77 77 -131c0 -140.667 -98.667 -262.667 -296 -366
c-168.667 -88 -330.667 -132 -486 -132c-89.333 0 -165.666 17 -228.999 51c-79.333 42.667 -119 105.334 -119 188.001c0 62.667 19.667 128 59 196c100 175.333 247.667 307.333 443 396c173.333 79.333 370 119 590 119c124.667 0 244 -16.333 358 -49
c134.667 -38 240 -93.333 316 -166c64 40.667 138.333 83.334 223 128.001l8 -15l-5 -11c-60.667 -29.333 -130.667 -70.666 -210 -123.999c42.667 -59.333 64 -120 64 -182c0 -110 -38 -197.667 -114 -263c-32 -28.667 -117 -78.667 -255 -150c20 -46 30 -89.667 30 -131
c0 -122 -60 -233.667 -180 -335c-114.667 -97.333 -234 -146 -358 -146c-87.333 0 -131 31.667 -131 95c0 50.667 59.333 118 178 202c115.333 81.333 199.666 121.333 252.999 120l10 -11l-8 -10c-77.333 -28.667 -157 -68.667 -239 -120c-110.667 -70 -166 -130 -166 -180
c0 -20.667 10.333 -38 31 -52c17.333 -11.333 37 -17 59 -17c101.333 0 210.333 64 327 192c115.333 126 173 240.333 173 343c0 12 -2.33301 26 -7 42c-26 -14.667 -57.667 -22 -95 -22c-22 0 -43.333 4.33301 -64 13c-26 11.333 -39 26.666 -39 45.999
c0 37.333 35.333 56 106 56c34.667 0 69 -19.333 103 -58c88 53.333 160.667 119 218 197c66 89.333 99 180 99 272c0 27.333 -5.66699 56 -17 86c-112 -57.333 -222 -154.333 -330 -291c-182.667 -230 -297.334 -370.667 -344.001 -422
c-135.333 -150.667 -268 -263.334 -398 -338.001c-160 -92 -333.667 -138 -521 -138c-76.667 0 -151.334 11.333 -224.001 34c-100 31.333 -150 75.666 -150 132.999c0 22.667 7 43.167 21 61.5s31.667 27.5 53 27.5z" />
    <glyph glyph-name="C" unicode="C" horiz-adv-x="1543" 
d="M537 755c30.667 0 61.667 3.33496 93 10.002c150.667 148.667 328.667 290 534 424c256 167.333 458.333 251 607 251c96.667 0 145 -30 145 -90c0 -150.667 -204 -305 -612 -463c-135.333 -52.667 -316.666 -98.667 -543.999 -138
c-68 -60.667 -143 -151.334 -225 -272.001c-92.667 -138 -139 -241.667 -139 -311c0 -48 29 -85.333 87 -112c46 -20.667 96 -31 150 -31c115.333 0 246 41 392 123c163.333 92 245 191 245 297c0 32.667 -15.333 58.667 -46 78c-26 15.333 -56.333 23 -91 23
c-90 0 -190 -34.333 -300 -103c-78 -48.667 -157.667 -112.334 -239 -191.001l-99 -103l-10 11l4 10c52 90.667 147.667 179.667 287 267c142 88.667 263.333 133 364 133c42 0 77.333 -10.333 106 -31c32 -23.333 48 -55.333 48 -96c0 -114 -83 -219.667 -249 -317
c-148.667 -86.667 -284.667 -130 -408 -130c-73.333 0 -140 18.667 -200 56c-69.333 43.333 -104 99.666 -104 168.999c0 154 86.667 325.667 260 515c-20.667 -4 -42.334 -6 -65.001 -6c-87.333 0 -166.333 25 -237 75c-79.333 55.333 -119 125 -119 209
c0 167.333 95.333 301.333 286 402c160 84 330.333 123.667 511 119l41 -2l12 -14l-9 -12c-398.667 0 -659 -115 -781 -345c-22.667 -43.333 -34 -90.666 -34 -141.999c0 -80 38 -145.333 114 -196c66.667 -44.667 141.667 -67 225 -67zM1891 1351
c0 41.333 -39.332 62 -117.999 62c-156.667 0 -334.667 -74.667 -534 -224c-106.667 -80 -254 -214.333 -442 -403c183.333 22 348.666 63 495.999 123c398.667 162 598 309.333 598 442z" />
    <glyph glyph-name="D" unicode="D" horiz-adv-x="2057" 
d="M819 46c68.667 -18 136.997 -27.002 204.997 -27.002c262.667 0 487.334 90.667 674.001 272c189.333 182.667 284 405.667 284 669c0 20.667 -1.66699 57.334 -5 110.001c-87.333 -51.333 -167.333 -126.666 -240 -225.999l-181 -278
c-105.333 -158 -209.666 -271.667 -312.999 -341c-85.333 -57.333 -226.666 -117 -423.999 -179zM744.997 47.998c-124.667 50.667 -250.333 76 -377 76c-120.667 0 -181 -13.667 -181 -41c0 -45.333 83 -68 249 -68c94.667 0 197.667 11 309 33zM790.998 25.998
c-144 -26 -263.33 -38.998 -357.997 -38.998c-182.667 0 -274 32 -274 96c0 46.667 67.667 70 203 70c124 0 266.333 -30 427 -90c137.333 46.667 244 98.667 320 156c67.333 50.667 149.666 136.334 246.999 257.001c122.667 153.333 216.667 264.666 282 333.999
c111.333 118.667 221.666 213.334 330.999 284.001c-38.667 123.333 -123 216.666 -253 279.999c-110 54 -236.333 81 -379 81c-293.333 0 -538.333 -102.667 -735 -308c-162 -168.667 -243 -306.334 -243 -413.001c0 -63.333 40.667 -116 122 -158
c68.667 -36 138 -54 208 -54c154 0 318.667 42.667 494 128c207.333 100 311 218.333 311 355c0 48 -24 85.333 -72 112c-40 21.333 -85.333 32 -136 32c-130.667 0 -269 -53.667 -415 -161c-115.333 -85.333 -223 -193.333 -323 -324l-10 -5l-13 12l3 11
c57.333 111.333 167.666 220.666 330.999 327.999c166.667 108.667 311 163 433 163c56.667 0 106.667 -13.333 150 -40c50.667 -31.333 76 -73.666 76 -126.999c0 -146.667 -105.333 -272.334 -316 -377.001c-178.667 -88.667 -350 -133 -514 -133
c-100.667 0 -185.334 25.333 -254.001 76c-76 56.667 -114 133.667 -114 231c0 206.667 125.667 376.334 377 509.001c210.667 111.333 429.334 167 656.001 167c141.333 0 269.333 -28.667 384 -86c134.667 -67.333 219 -162.333 253 -285c176 120.667 283 181.667 321 183
l8 -12l-5 -10c-74.667 -30.667 -179 -92.334 -313 -185.001c3.33301 -38 5 -74 5 -108c0 -265.333 -93.667 -495.333 -281 -690c-189.333 -196.667 -415.333 -295 -678 -295c-96.667 0 -182 11.667 -256 35z" />
    <glyph glyph-name="E" unicode="E" horiz-adv-x="1461" 
d="M329 1142c0 -159.333 129.667 -238.999 389 -238.999c68 0 127.667 7 179 21v15c-2.66699 137.333 78.333 260.333 243 369c148.667 98 295.334 147 440.001 147c44 0 81.333 -8.33301 112 -25c37.333 -21.333 56 -52.333 56 -93c0 -96 -112.667 -192 -338 -288
c-174 -74 -332 -121.333 -474 -142c2 -25.333 10 -48 24 -68l45 1c100 4 150 -19 150 -69c0 -27.333 -20.667 -41 -62 -41c-36.667 0 -83.667 27.667 -141 83c-126 -8 -251 -53.333 -375 -136c-118 -78.667 -211 -174.667 -279 -288c-48.667 -80 -73 -144.667 -73 -194
c0 -56.667 35.667 -99.334 107 -128.001c51.333 -20 111 -30 179 -30c132.667 0 267 32 403 96c165.333 78.667 248 177 248 295c0 35.333 -17.667 62.333 -53 81c-28 14.667 -61.333 22 -100 22c-107.333 0 -223.666 -38.667 -348.999 -116
c-106.667 -66 -201.334 -147.667 -284.001 -245l-9 -4l-12 12l1 8c56 90.667 153.167 175.334 291.5 254.001s260.166 118 365.499 118c43.333 0 82 -10 116 -30c40.667 -23.333 61 -55.333 61 -96c0 -130 -85 -237 -255 -321c-140 -68.667 -282.333 -103 -427 -103
c-96 0 -175.667 18 -239 54c-78 45.333 -117 113 -117 203c0 161.333 92.333 298.333 277 411c152 92 319 146.333 501 163l-30 61c-55.333 -13.333 -118.666 -20 -189.999 -20c-272 0 -408 87 -408 261c0 135.333 81.333 240.666 244 315.999
c131.333 61.333 271.666 90 420.999 86l32 -1l16 -13l-13 -13l-245 -31c-98.667 -14 -177.334 -36 -236.001 -66c-77.333 -39.333 -134.666 -97 -171.999 -173c-13.333 -29.333 -20 -64 -20 -104zM1100 756.001c17.333 0 26 6 26 18c0 28 -37.333 41 -112 39h-19
c40.667 -38 75.667 -57 105 -57zM1722 1337c0 30 -14.6689 53.333 -44.002 70c-24 14 -51.667 21 -83 21c-115.333 0 -243.666 -56 -384.999 -168c-133.333 -106 -223.666 -215.667 -270.999 -329c137.333 25.333 288 72.333 452 141c220.667 92 331 180.333 331 265z" />
    <glyph glyph-name="F" unicode="F" horiz-adv-x="1565" 
d="M1519 741l111.003 12.999c78.667 94.667 141.667 142 189 142c32 0 48 -13 48 -39c0 -30 -25.333 -58.667 -76 -86c-39.333 -22 -78 -36.667 -116 -44l-52 -121c-26.667 -53.333 -54.334 -80 -83.001 -80c-6.66699 0 -16 0.333008 -28 1s-20.667 1.33398 -26 2.00098
l-12 6c1.33301 15.333 20.666 47.333 57.999 96c30.667 39.333 56.667 70 78 92l-106 -13c-130 -223.333 -263 -389 -399 -497c-169.333 -135.333 -366 -203 -590 -203c-88 0 -162 11.667 -222 35c-85.333 33.333 -128 87 -128 161c0 25.333 8.16699 46.5 24.5 63.5
s36.833 25.5 61.5 25.5c16.667 0 31.167 -7.16699 43.5 -21.5s18.5 -30.166 18.5 -47.499c0 -14.667 -5 -29 -15 -43c-10.667 -16 -23 -24 -37 -24c-22 0 -42.333 6.66699 -61 20c20 -96.667 123 -145 309 -145c138.667 0 262 34 370 102c85.333 54 172 137.333 260 250
l226 315c-128.667 -7.33301 -251.667 -31.333 -369 -72c-80.667 -27.333 -117.334 -41 -110.001 -41h-7l-8 12l9 12c122.667 62.667 290 101 502 115c64.667 86 164.667 197.333 300 334c146 148 256 245 330 291l13 3l8 -9l-4 -11
c-19.333 -22.667 -47.666 -49.334 -84.999 -80.001c-46.667 -38.667 -76.334 -64 -89.001 -76c-139.333 -132 -251.333 -278 -336 -438zM1839 850.999c0 12 -6 17.999 -18 17.999c-22 0 -48 -13.667 -78 -41c-25.333 -22.667 -45 -46 -59 -70
c23.333 4.66699 53 16.334 89 35.001c44 22 66 41.333 66 58zM1434 1422c-161.333 0 -313.666 -30.999 -456.999 -92.999c-184 -79.333 -276 -189.333 -276 -330c0 -54 28.333 -95 85 -123c44 -22.667 96 -34 156 -34c90.667 0 194 27.333 310 82
c135.333 64 203 136 203 216c0 36 -14.667 64 -44 84c-25.333 17.333 -56.333 26 -93 26c-155.333 0 -307.333 -66.333 -456 -199c-21.333 -23.333 -54.333 -56.333 -99 -99l-9 -1l-7 8l3 11c34 68.667 117 137.334 249 206.001c126 66 230.333 99 313 99
c42.667 0 79.667 -9.66699 111 -29c37.333 -22.667 56 -54.334 56 -95.001c0 -94 -68.333 -175.667 -205 -245c-117.333 -60 -228 -90 -332 -90c-68.667 0 -127.334 13.667 -176.001 41c-60 33.333 -90 82 -90 146c0 57.333 15 107.333 45 150
c104.667 149.333 278.334 244.666 521.001 285.999c108.667 18 315 27 619 27c76 0 189.833 -0.5 341.5 -1.5s265.167 -1.5 340.5 -1.5c61.333 0 107.666 6.66699 139 20c22 8.66699 60 33.667 114 75l10 4l11 -14l-3 -10c-110 -118.667 -292.333 -178 -547 -178
c-93.333 0 -232.333 10.333 -417 31s-323.334 31 -416.001 31z" />
    <glyph glyph-name="G" unicode="G" horiz-adv-x="2081" 
d="M287 801c0 -170 152.67 -265.002 458.003 -285.002c56 122.667 180.333 257.667 373 405c177.333 136.667 371.666 253 582.999 349c216.667 98.667 390 148 520 148c100.667 0 151 -30 151 -90c0 -70 -70.333 -162 -211 -276c-93.333 -76 -196.666 -147 -309.999 -213
c-129.333 -75.333 -283 -142 -461 -200c-63.333 -20.667 -224.666 -67 -483.999 -139c-78.667 -114 -118 -207.333 -118 -280c0 -83.333 62 -125 186 -125c155.333 0 349.333 66.667 582 200c42.667 24.667 96.334 67.334 161.001 128.001
c68.667 65.333 120.667 109.333 156 132h9l7 -7l-3 -11c-57.333 -52 -138.333 -137.667 -243 -257l-229 -352c69.333 28 149.666 76.667 240.999 146c116 88.667 191.667 143.334 227 164.001l7 1l11 -13l-5 -10l-239 -176c-94 -65.333 -180.333 -113 -259 -143
c-89.333 -114.667 -215.333 -223.667 -378 -327c-179.333 -114.667 -332 -172 -458 -172c-81.333 0 -122 27.333 -122 82c0 76 110.333 157.333 331 244c93.333 36.667 240.666 83.667 441.999 141c95.333 124.667 150.666 196 165.999 214c65.333 80 129 144 191 192
c-242.667 -135.333 -439.334 -203 -590.001 -203c-78.667 0 -142.334 19.333 -191.001 58c-53.333 42 -80 101.667 -80 179c0 61.333 9.66699 123.666 29 186.999c-317.333 16.667 -476 120.667 -476 312c0 186.667 110 344 330 472c192.667 112 387.667 165.333 585 160
l36 -1l15 -14l-12 -10c-40 -2 -99.667 -7 -179 -15c-185.333 -27.333 -348 -86.666 -488 -177.999c-174 -113.333 -261 -252.333 -261 -417zM1193 -170.002c-148 -37.333 -285.333 -80.668 -412 -130.001c-208.667 -80.667 -313 -153.667 -313 -219
c0 -36.667 33.667 -55 101 -55c118.667 0 237.667 42 357 126c104 72.667 193 165.334 267 278.001zM926.003 532.996c256.667 73.333 412 119 466 137c172 56.667 320.667 121 446 193c100 56.667 199.667 125 299 205c139.333 112.667 209 199.334 209 260.001
c0 46 -40.333 69 -121 69c-193.333 0 -433 -103.333 -719 -310c-250 -180.667 -443.333 -365.334 -580 -554.001z" />
    <glyph glyph-name="H" unicode="H" horiz-adv-x="1815" 
d="M1132 664c-218.667 -44.667 -411 -102.333 -577 -173c-265.333 -112 -398 -235.333 -398 -370c0 -58.667 55 -88 165 -88c170 0 330 68.333 480 205c106.667 97.333 216.667 239.333 330 426zM1753 828.001c164.667 18.667 347.666 70.001 549 154.001
c257.333 107.333 386 219.666 386 336.999c0 55.333 -48.667 83 -146 83c-168.667 0 -431.667 -191.333 -789 -574zM1312 723.002l269.996 45.998l135 140c116.667 120.667 244.334 229 383.001 325c182 127.333 329.667 191 443 191c112.667 0 169 -36 169 -108
c0 -128.667 -135 -249 -405 -361c-206.667 -84.667 -400 -137.667 -580 -159c-102.667 -120 -201 -243 -295 -369c-146.667 -197.333 -220 -322 -220 -374c0 -28.667 18 -43 54 -43c45.333 0 94.333 17.667 147 53c31.333 20.667 70.666 53.667 117.999 99
c38 36.667 61.333 55.334 70 56.001l9 -8l-2 -12c-65.333 -68.667 -116.666 -116.667 -153.999 -144c-65.333 -47.333 -129 -71 -191 -71c-71.333 0 -107 35.333 -107 106c0 88 50.333 202.667 151 344c44 62 127 163.333 249 304l-263 -43l-104 -136
c-116.667 -150 -243.667 -274 -381 -372c-170 -120.667 -332.667 -181 -488 -181c-128 0 -192 37.667 -192 113c0 147.333 138.667 279.333 416 396c162.667 68.667 366 128.667 610 180c158.667 214 314.334 377.667 467.001 491c-53.333 -30 -104 -45 -152 -45
c-64.667 0 -102.667 23.333 -114 70l-30 130c-28 47.333 -94 71 -198 71s-202 -22.667 -294 -68c-113.333 -56 -170 -131 -170 -225c0 -42 20.667 -75.333 62 -100c35.333 -22 75 -33 119 -33c64 0 142.667 21.667 236 65c76.667 36 148.334 78.667 215.001 128l10 -9
c-17.333 -42 -86.666 -88.333 -207.999 -139c-112.667 -47.333 -196.667 -71 -252 -71c-52.667 0 -99 13 -139 39c-45.333 30.667 -68 71.334 -68 122.001c0 100 58.333 180 175 240c95.333 48.667 197.333 73 306 73c66 0 125.333 -10.333 178 -31
c66.667 -26.667 109.334 -66 128.001 -118l14 -67c7.33301 -26.667 22.333 -40 45 -40c61.333 0 135.666 32.5 222.999 97.5s134.333 97.833 141 98.5l7 -10c-0.666992 -3.33301 -2 -7.33301 -4 -12c-6 -10 -38.667 -39 -98 -87c-66.667 -54 -105.667 -86.667 -117 -98
c-52 -53.333 -108.667 -125.333 -170 -216z" />
    <glyph glyph-name="I" unicode="I" horiz-adv-x="1485" 
d="M1458 736c68 4 132.001 26.998 192.001 68.998c46 32 94.667 79.667 146 143l127 164l10 5l12 -10c-0.666992 -6.66699 -27 -44 -79 -112c-68 -88 -128.667 -152.333 -182 -193c-76 -58.667 -157 -90 -243 -94c-294 -480.667 -631 -721 -1011 -721
c-72.667 0 -135.667 12.333 -189 37c-69.333 32.667 -104 81.667 -104 147c0 28.667 8.5 53.5 25.5 74.5s39.5 31.5 67.5 31.5c38 0 57 -19.667 57 -59c0 -42.667 -21 -64 -63 -64c-14 0 -27.667 7 -41 21c-4 -8 -6 -17.333 -6 -28c0 -50 31.333 -86.667 94 -110
c45.333 -16.667 98.666 -25 159.999 -25c208.667 0 389.667 75 543 225c86 84 204 248.333 354 493c-112 39.333 -168 110 -168 212c0 178.667 125.333 324.334 376 437.001c202.667 91.333 405.667 137 609 137c76.667 0 118.334 -6 125 -18l-6 -8
c-200 -67.333 -361 -163.666 -483 -288.999c-85.333 -88 -193 -243 -323 -465zM1343 753.998c137.333 196 260 344.331 368 444.998c146 136.667 309.333 235 490 295c-178 -1.33301 -345.667 -29.666 -503 -84.999c-184 -65.333 -323.333 -159.333 -418 -282
c-58 -74.667 -87 -146.667 -87 -216c0 -34.667 17 -67.667 51 -99c29.333 -27.333 62.333 -46.666 99 -57.999z" />
    <glyph glyph-name="J" unicode="J" horiz-adv-x="1147" 
d="M1247 817c39.333 15.333 179.332 97.334 419.999 246.001l10 -11l-6 -12c-177.333 -128.667 -328 -215.334 -452 -260.001c-69.333 -78.667 -162.666 -197.334 -279.999 -356.001c-123.333 -166 -216 -285.333 -278 -358c51.333 21.333 112.333 54.666 183 99.999
l175 114c10.667 0 16 -4.66699 16 -14c0 -13.333 -61 -54.666 -183 -123.999c-109.333 -62 -184 -101.333 -224 -118c-92 -102 -196 -196.667 -312 -284c-152.667 -115.333 -274 -173 -364 -173c-20.667 0 -40.167 7.66699 -58.5 23s-27.5 33.333 -27.5 54
c0 70.667 86.667 148.334 260 233.001c124 61.333 244.333 107.333 361 138c47.333 54.667 144 186.667 290 396c128.667 184.667 221 301.667 277 351h-41c-67.333 -0.666992 -123.666 12.666 -168.999 39.999c-54.667 33.333 -82 82.333 -82 147
c0 118 74.333 225.667 223 323c121.333 80 278.666 145.333 471.999 196c166 44 307 66 423 66c42.667 0 66 -5.66699 70 -17c-4.66699 -8.66699 -10.667 -15.667 -18 -21c-130 -87.333 -252.667 -192.666 -368 -315.999zM1055 789.001l29 1.99902
c324 358.667 593.333 597.334 808 716.001l-16 1c-168 1.33301 -351 -41.334 -549 -128.001c-214.667 -94.667 -360.667 -208 -438 -340c-19.333 -33.333 -29 -66.666 -29 -99.999c0 -46 22 -84 66 -114c39.333 -26.667 82.333 -39 129 -37zM-45.001 -405
c75.333 0 168.002 49 278.002 147c41.333 36.667 118.666 116 231.999 238c-100.667 -28 -210.334 -70.667 -329.001 -128c-162 -79.333 -243 -147.333 -243 -204c0 -35.333 20.667 -53 62 -53z" />
    <glyph glyph-name="K" unicode="K" horiz-adv-x="2031" 
d="M1714 721c12.667 -48 18.999 -85.665 18.999 -112.998c0 -67.333 -30.667 -141.333 -92 -222c-20.667 -26.667 -77.667 -89.334 -171 -188.001c-61.333 -64.667 -92 -111 -92 -139c0 -32 20 -48 60 -48c52 0 134.167 40.667 246.5 122s169.833 122.333 172.5 123l12 -15
l-5 -9l-206 -154c-93.333 -62.667 -168.666 -94 -225.999 -94c-29.333 0 -53 10.667 -71 32s-27 46.666 -27 75.999c0 60 30.333 131.333 91 214l170 204c61.333 75.333 92 134.333 92 177l-3 25c-31.333 -6 -60 -9 -86 -9c-73.333 0 -110 17 -110 51
c0 23.333 30.667 35 92 35c39.333 0 80.333 -14.667 123 -44c128 52.667 222.333 106.667 283 162c228.667 207.333 349.334 316 362 326c172 138.667 309 208 411 208c94 0 141 -25.667 141 -77c0 -37.333 -18 -56 -54 -56c-11.333 0 -22.166 5.33301 -32.5 16
c-10.333 10.667 -15.5 21.667 -15.5 33c0 17.333 9 32.333 27 45c-22.667 7.33301 -47.667 11 -75 11c-80 0 -173.667 -44.333 -281 -133c-30 -24.667 -107.667 -99.667 -233 -225c-138.667 -138 -312.667 -249.333 -522 -334zM2078 1415l7 -10
c-2.66699 -9.33301 -36.667 -41 -102 -95l-123 -100c-120.667 -110.667 -280.667 -308 -480 -592c-122 -172.667 -258.667 -314.667 -410 -426c-184 -135.333 -364 -203 -540 -203c-71.333 0 -132 12 -182 36c-65.333 32 -98 80 -98 144
c0 24.667 8.16699 47.834 24.5 69.501s36.5 32.5 60.5 32.5c39.333 0 59 -17.667 59 -53c0 -42.667 -21 -64 -63 -64c-13.333 0 -25 4.66699 -35 14c-2 -8.66699 -3 -18.334 -3 -29.001c0 -45.333 29.333 -78.666 88 -99.999c42.667 -16 92 -24 148 -24
c114.667 0 225.667 36.667 333 110c76.667 52 163.667 133.333 261 244l379 432c147.333 163.333 284 297 410 401c-104 -47.333 -188.333 -71 -253 -71c-76 0 -114 21.333 -114 64c0 9.33301 2.16699 22.5 6.5 39.5s6.5 30.167 6.5 39.5c0 36 -33.333 68 -100 96
c-56 23.333 -105.667 35 -149 35c-102 0 -200.333 -25 -295 -75c-112.667 -60 -169 -136.333 -169 -229c0 -46 23 -83.667 69 -113c40 -25.333 84 -38 132 -38c62.667 0 137.334 19.667 224.001 59c74 34 142 74.667 204 122l7 -10l-3 -11
c-157.333 -124 -299 -186 -425 -186c-60.667 0 -113.334 15 -158.001 45c-50.667 34 -76 80.333 -76 139c0 98 60 178.333 180 241c100 53.333 204 80 312 80c54.667 0 115.667 -17.667 183 -53c78 -40.667 117 -85.334 117 -134.001c0 -6 -1.5 -14.5 -4.5 -25.5
s-4.5 -19.5 -4.5 -25.5c0 -20.667 22.667 -31 68 -31c96 0 206.667 42.333 332 127zM1671 738.002c-32.667 20 -68.001 30 -106.001 30c-32 0 -48 -6.33301 -48 -19c0 -12 26.667 -18 80 -18c26.667 0 51.334 2.33301 74.001 7z" />
    <glyph glyph-name="L" unicode="L" horiz-adv-x="1905" 
d="M690 913c0 -99.333 49.665 -174.337 148.998 -225.004c78 -39.333 171.333 -59 280 -59c64.667 0 168.334 10.333 311.001 31c196.667 244.667 337 407.667 421 489c199.333 191.333 380 287 542 287c102 0 153 -35.333 153 -106c0 -139.333 -130.667 -284 -392 -434
c-217.333 -124.667 -413 -202.667 -587 -234c-139.333 -181.333 -242 -300.666 -308 -357.999c-92.667 -80 -230 -157.333 -412 -232c91.333 -36 194.333 -54 309 -54c131.333 0 274.333 45 429 135l118 72l9 -11l-6 -13c-204 -139.333 -384.667 -209 -542 -209
c-123.333 0 -242 21.667 -356 65c-217.333 -44 -361.666 -66 -432.999 -66c-134 0 -201 32 -201 96c0 52.667 62 79 186 79s274 -25.333 450 -76c205.333 66 406 247.333 602 544c-107.333 -20 -202.333 -30 -285 -30c-117.333 0 -218 21 -302 63
c-108 54 -162 134.333 -162 241c0 154.667 93.333 279 280 373c125.333 62.667 286.666 109.334 483.999 140.001c73.333 11.333 116 17 128 17c26.667 0 40.667 -4 42 -12l-13 -15c-40.667 -3.33301 -101.667 -9.66602 -183 -18.999
c-173.333 -25.333 -322.666 -70.666 -447.999 -135.999c-175.333 -90.667 -263 -205 -263 -343zM762.998 73.9961c-148 45.333 -283.669 68 -407.002 68c-104 0 -156 -19 -156 -57c0 -24 22.333 -42.333 67 -55c30.667 -8.66699 63.334 -13 98.001 -13
c138.667 0 271.334 19 398.001 57zM2403 1412c-154 0 -311.999 -87 -473.999 -261c-54.667 -59.333 -169 -211.333 -343 -456c165.333 30 351.666 105 558.999 225c250 144.667 375 283 375 415c0 51.333 -39 77 -117 77z" />
    <glyph glyph-name="M" unicode="M" horiz-adv-x="2227" 
d="M1627 24c60 0 135.333 32.668 226 98.001c104.667 75.333 166.334 116 185.001 122l8 -9c-4.66699 -30.667 -68 -78.667 -190 -144c-118 -63.333 -196.333 -95 -235 -95c-28 0 -54 10.833 -78 32.5s-36 46.5 -36 74.5c0 110 155.333 337.333 466 682
c272 301.333 482.667 508 632 620c-160 -42 -329.333 -160.667 -508 -356l-619 -678c-106.667 -116 -173 -186.667 -199 -212c-84.667 -82.667 -161.334 -140 -230.001 -172c-18 12.667 -27 31.667 -27 57c0 127.333 155.333 367 466 719
c269.333 305.333 486 519.333 650 642c-158.667 -42 -355 -187.333 -589 -436l-590 -650c-224 -222.667 -414.333 -334 -571 -334c-54.667 0 -105.334 14.667 -152.001 44c-52.667 34 -79 77.333 -79 130c0 66 31 99 93 99c16 0 29.833 -7 41.5 -21s17.5 -29 17.5 -45
c0 -47.333 -26.333 -71 -79 -71c-8.66699 0 -18 2.66699 -28 8c2 -38 24.333 -68 67 -90c34.667 -18 73.334 -27 116.001 -27c142 0 318 99.333 528 298c39.333 38 225.666 239.333 558.999 604c224 245.333 403 401.666 537 468.999c78.667 40 137 59.667 175 59h9l8 -11
l-4 -11c-167.333 -168.667 -362.333 -393.667 -585 -675c-200 -252.667 -378 -493.667 -534 -723c100.667 80 222.334 197.333 365.001 352l621 675c179.333 194 353.666 319.333 523 376c34.667 11.333 56 17 64 17c10.667 0 16 -4 16 -12l-3 -10
c-102.667 -104.667 -301 -338 -595 -700c-323.333 -398 -485 -620.667 -485 -668c0 -18.667 14.333 -28 43 -28z" />
    <glyph glyph-name="N" unicode="N" horiz-adv-x="1937" 
d="M1393 11l-6.99707 6.99805v8l54 131c20 50 33.333 96 40 138c22.667 153.333 50 283.333 82 390c28.667 94.667 75.667 218.667 141 372l-454 -546c-288 -346.667 -566 -520 -834 -520c-68.667 0 -128.334 13.667 -179.001 41c-63.333 34 -95 82.667 -95 146
c0 28.667 7.66699 53.5 23 74.5s36.666 31.5 63.999 31.5c18.667 0 35.334 -6.16699 50.001 -18.5s22 -27.5 22 -45.5c0 -44.667 -26.333 -67 -79 -67c-27.333 0 -45.333 12.333 -54 37c4.66699 -116.667 87.667 -175 249 -175c255.333 0 526.666 172 813.999 516l632 773
l9 4l12 -9l-1 -8l-87 -179c-31.333 -68 -53 -131.333 -65 -190c-35.333 -171.333 -63.333 -292.333 -84 -363c-24.667 -83.333 -66.334 -194.666 -125.001 -333.999l554 684c107.333 132.667 225 241.334 353 326.001c154.667 103.333 303 155 445 155
c56 0 107.333 -11.333 154 -34c58.667 -28 88 -67 88 -117c0 -21.333 -7.66699 -39.5 -23 -54.5s-33.666 -22.5 -55 -22.5c-32.667 0 -49 21.333 -49 64c0 29.333 25.333 49 76 59c-25.333 53.333 -87.666 80 -187 80c-140.667 0 -287 -50.333 -439 -151
c-126 -84 -242 -191.667 -348 -323l-350 -429c-134 -166.667 -244.667 -314 -332 -442z" />
    <glyph glyph-name="O" unicode="O" horiz-adv-x="1300" 
d="M1842 1346c0 60.667 -32.666 105.67 -97.999 135.003c-49.333 22 -108.666 33 -177.999 33c-373.333 0 -749 -281.667 -1127 -845c-136 -202.667 -204 -365.334 -204 -488.001c0 -48.667 21.333 -85.334 64 -110.001c34.667 -20.667 78 -31 130 -31
c136 0 291.667 72 467 216c162.667 133.333 303 293.666 421 480.999c122 193.333 183 358 183 494c0 42 -12.333 78 -37 108c-26.667 33.333 -60.334 50 -101.001 50c-94.667 0 -196.667 -55.833 -306 -167.5s-164 -215.5 -164 -311.5c0 -30 9.16699 -55.833 27.5 -77.5
s42.5 -32.5 72.5 -32.5c96.667 0 185 55 265 165c58.667 80 106.667 179.333 144 298l12 9l12 -16c0 -88.667 -50 -190.334 -150 -305.001c-103.333 -118.667 -199.333 -178 -288 -178c-38 0 -68 13.333 -90 40s-33 59.334 -33 98.001c0 120.667 52.333 234.834 157 342.501
s216.667 161.5 336 161.5c50.667 0 91.667 -20 123 -60c28.667 -36.667 43 -81 43 -133c0 -140 -62.333 -308.333 -187 -505c-120.667 -190 -264.334 -352.333 -431.001 -487c-180 -146 -340 -219 -480 -219c-82 0 -145.667 25.333 -191 76c-44 48.667 -66 115 -66 199
c0 172 82.667 360 248 564c152.667 188.667 339 349.667 559 483c225.333 136.667 422.333 205 591 205c78 0 143.333 -12.667 196 -38c69.333 -33.333 104 -85.333 104 -156c0 -68 -33.333 -126 -100 -174c-62 -44.667 -127.667 -65.334 -197 -62.001l-13 11l154 53
c88 36 132 94 132 174z" />
    <glyph glyph-name="P" unicode="P" horiz-adv-x="1789" 
d="M198 188c0 24 7.50293 46.334 22.5029 67.001s34.167 31 57.5 31c18 0 33.667 -7 47 -21s20 -30 20 -48c0 -45.333 -20 -68 -60 -68c-10 0 -21 2 -33 6c23.333 -87.333 121.666 -131 294.999 -131c161.333 0 332 82.333 512 247c70 63.333 225.333 235.333 466 516
c191.333 222.667 351.333 372.334 480 449.001c-56.667 69.333 -133.334 122.666 -230.001 159.999c-88 34.667 -180.333 52 -277 52c-124 0 -263.333 -26.667 -418 -80c-170.667 -59.333 -309.667 -135.333 -417 -228c-126 -109.333 -189 -228.333 -189 -357
c0 -74 31.667 -132.667 95 -176c55.333 -37.333 121.333 -56 198 -56c132.667 0 277.667 47.667 435 143c174.667 106.667 262 221.667 262 345c0 50.667 -20 89.334 -60 116.001c-34 22.667 -77.333 34 -130 34c-189.333 0 -397.333 -137 -624 -411
c-20 -26 -42.667 -53.333 -68 -82l-10 12c38 105.333 135.333 215.333 292 330c159.333 116.667 294.666 175 405.999 175c61.333 0 112 -13.333 152 -40c46 -31.333 69 -76.333 69 -135c0 -144 -84 -268.667 -252 -374c-148.667 -93.333 -299.334 -140 -452.001 -140
c-90 0 -166.333 18.667 -229 56c-75.333 45.333 -113 110.666 -113 195.999c0 201.333 130 372.666 390 513.999c222 121.333 443 182 663 182c223.333 0 399 -73.333 527 -220c32.667 20 84 49 154 87c84 45.333 132.667 68 146 68c8.66699 0 14 -5 16 -15l-5 -9
c-117.333 -54 -216 -105 -296 -153c44.667 -78.667 67 -148.334 67 -209.001c0 -85.333 -30 -162.333 -90 -231c-62.667 -71.333 -135.667 -107 -219 -107c-24 0 -45.333 7.83301 -64 23.5s-28 35.5 -28 59.5c0 34.667 27.333 76 82 124s99.667 71.667 135 71l8 -13l-8 -13
c-123.333 -50 -185 -107 -185 -171c0 -24.667 10.667 -37 32 -37c67.333 0 133.333 44 198 132c61.333 83.333 92 160 92 230c0 41.333 -13.667 83.333 -41 126c-57.333 -37.333 -114 -90.666 -170 -159.999c-6.66699 -8 -53 -71.333 -139 -190
c-150.667 -208 -252 -342.667 -304 -404c-122.667 -145.333 -244 -254.333 -364 -327c-148.667 -89.333 -309.667 -134 -483 -134c-83.333 0 -157.666 12 -222.999 36c-92 33.333 -138 84 -138 152z" />
    <glyph glyph-name="Q" unicode="Q" horiz-adv-x="1587" 
d="M194 274c0 168 89.999 348.331 269.999 540.998c160.667 172.667 357.334 320.834 590.001 444.501s428.667 185.5 588 185.5c77.333 0 150.333 -15.333 219 -46c87.333 -38.667 131 -91.667 131 -159c0 -69.333 -27 -121.666 -81 -156.999
c-46 -30 -105.333 -45 -178 -45c-32.667 0 -49 4.33301 -49 13c0 4 11 7.33301 33 10s55 7.66699 99 15c100.667 22.667 151 76.334 151 161.001c0 59.333 -41 106.666 -123 141.999c-64.667 27.333 -131.334 41 -200.001 41c-359.333 0 -742.333 -252.667 -1149 -758
c-161.333 -200.667 -242 -362 -242 -484c0 -48 25 -85 75 -111c39.333 -20.667 85.333 -31 138 -31c76 0 162 22.333 258 67c-29.333 66 -45.333 101 -48 105c-25.333 44.667 -53 67 -83 67s-62.667 -10 -98 -30c-44.667 -25.333 -74.334 -40 -89.001 -44l-10 10
c2 20.667 32.333 42 91 64c51.333 18.667 90.666 28 117.999 28c60.667 0 131.334 -49.333 212.001 -148c169.333 100 339.333 245 510 435c202 224.667 303 414.334 303 569.001c0 46.667 -15 85 -45 115s-68.333 45 -115 45c-150.667 0 -297 -93.333 -439 -280
c-105.333 -138.667 -191 -300.667 -257 -486l-9 -9l-18 17c128.667 362.667 312 609 550 739c54.667 30 107.667 45 159 45c57.333 0 104.666 -16.333 141.999 -49c39.333 -34.667 59 -80.334 59 -137.001c0 -152.667 -102.333 -345.667 -307 -579
c-180 -204.667 -352 -353 -516 -445c54 -60.667 105.333 -91 154 -91c106.667 0 251.334 72.667 434.001 218l12 -14l-4 -10c-70 -63.333 -150.667 -117.333 -242 -162c-103.333 -50 -195.666 -75 -276.999 -75c-87.333 0 -145.333 26.667 -174 80
c-105.333 -48 -197.666 -72 -276.999 -72c-177.333 0 -266 88.333 -266 265z" />
    <glyph glyph-name="R" unicode="R" horiz-adv-x="2118" 
d="M1677 609c-24 16 -45.001 24.667 -63.001 26l-19 -8v-2c0 -12.667 15.667 -19 47 -19c10.667 0 22.334 1 35.001 3zM1732 585c10.667 -37.333 16.0039 -68.6689 16.0039 -94.002c0 -59.333 -25 -122 -75 -188c-22.667 -30.667 -69.334 -80.667 -140.001 -150
c-50 -50 -75 -84.333 -75 -103c0 -13.333 9.66699 -20 29 -20c92 0 246 73.667 462 221h5c9.33301 0.666992 14 -3.66602 14 -12.999c0 -26 -73.667 -72.333 -221 -139c-142 -64.667 -233.667 -97 -275 -97c-24.667 0 -46.5 9.33301 -65.5 28s-28.5 40.334 -28.5 65.001
c0 55.333 53.5 140.833 160.5 256.5s160.5 189.834 160.5 222.501l-2 11c-20 -2.66699 -35.333 -4 -46 -4c-56.667 0 -85 13.333 -85 40c0 28 14 42 42 42c31.333 0 69.666 -17 114.999 -51c95.333 11.333 188.666 68.666 279.999 171.999s137 203.333 137 300
c0 50 -21 101.667 -63 155c-109.333 -72 -219.333 -177.333 -330 -316l-272 -373c-269.333 -366.667 -577 -550 -923 -550c-82.667 0 -157 12 -223 36c-91.333 33.333 -137 84 -137 152c0 24 7.33301 46.333 22 67s34 31 58 31c17.333 0 32.833 -7 46.5 -21
s20.5 -30 20.5 -48c0 -45.333 -20 -68 -60 -68c-10.667 0 -21.667 2 -33 6c23.333 -87.333 121.333 -131 294 -131c130 0 258.333 45.333 385 136c86.667 62.667 186.667 159.334 300 290.001l342 393c120.667 139.333 285 277.666 493 414.999
c-161.333 116.667 -354.333 175 -579 175c-196.667 0 -388 -45.667 -574 -137c-204.667 -100 -347.667 -232 -429 -396c-15.333 -31.333 -23 -71 -23 -119c0 -76 31.333 -133.333 94 -172c52 -32 118 -48 198 -48c139.333 0 283.333 37.667 432 113
c175.333 88.667 263 195.667 263 321c0 39.333 -23 71 -69 95c-38 19.333 -78.667 29 -122 29c-185.333 0 -383 -119.667 -593 -359l-13 -6l-11 11l5 13c52.667 90.667 143.167 174.167 271.5 250.5s244.166 114.5 347.499 114.5c50.667 0 96.334 -12.333 137.001 -37
c48 -29.333 72 -67.666 72 -114.999c0 -124 -86.667 -237.333 -260 -340c-154.667 -92 -298.667 -138 -432 -138c-88 0 -165.667 21.667 -233 65c-78 50 -117 117 -117 201c0 51.333 9.66699 96.666 29 135.999c82 166 228.667 300.667 440 404c192 94 387.667 141 587 141
c235.333 0 435.666 -62 600.999 -186c157.333 106 239 159 245 159c7.33301 0 12 -4.66699 14 -14l-244 -167c76.667 -95.333 115 -180.333 115 -255c0 -120 -53.667 -215.667 -161 -287c-70 -47.333 -176.333 -89 -319 -125z" />
    <glyph glyph-name="S" unicode="S" horiz-adv-x="1606" 
d="M629 984c0 -88.667 52.334 -156.67 157.001 -204.003c80.667 -36.667 171.667 -55 273 -55c82 0 202.667 17 362 51l139 194c71.333 100 173.333 200.667 306 302c154 118 279.333 177 376 177c93.333 0 140 -28.667 140 -86c0 -110 -108.333 -230.667 -325 -362
c-168 -102 -328 -175 -480 -219l-110 -183c-106.667 -176.667 -240.667 -317.667 -402 -423c-173.333 -113.333 -357 -170 -551 -170c-81.333 0 -153 11 -215 33c-88 32 -132 81 -132 147c0 31.333 8.66699 60 26 86c19.333 28.667 44 43 74 43
c17.333 0 33 -6.16699 47 -18.5s21 -27.166 21 -44.499c0 -43.333 -21.333 -65 -64 -65c-26 0 -45.333 12 -58 36c-2.66699 -11.333 -4 -24 -4 -38c0 -56.667 38 -97.667 114 -123c53.333 -18 116.333 -27 189 -27c196 0 373.333 77 532 231c84 81.333 204.667 241 362 479
c-140.667 -29.333 -256.334 -44 -347.001 -44c-112 0 -211 20.667 -297 62c-110.667 52.667 -166 129 -166 229c0 172.667 101.333 307.334 304 404.001c164.667 78.667 342 115.667 532 111l50 -2l9 -9l-11 -13c-20.667 -2.66699 -87.334 -7.66699 -200.001 -15
c-81.333 -5.33301 -147.333 -15.666 -198 -30.999c-121.333 -36 -222.666 -89 -303.999 -159c-99.333 -86 -149 -184 -149 -294zM2264 1427c-106 0 -224 -54.6689 -354 -164.002c-59.333 -50 -117.333 -120.333 -174 -211l-139 -237c142 42 279.333 102.667 412 182
c159.333 94.667 269 193.334 329 296.001c15.333 26.667 23 47.334 23 62.001c0 48 -32.333 72 -97 72z" />
    <glyph glyph-name="T" unicode="T" horiz-adv-x="1552" 
d="M157 206c0 25.333 8.00098 46.5 24.001 63.5s36.333 25.5 61 25.5c17.333 0 32.166 -7 44.499 -21s18.5 -29.667 18.5 -47c0 -14.667 -5.16699 -29.667 -15.5 -45s-22.833 -23 -37.5 -23c-22 0 -42.333 6.66699 -61 20c20.667 -96.667 126.667 -145 318 -145
c148 0 273.333 37.333 376 112c73.333 52.667 163 151 269 295l230 313c56.667 76.667 155 183 295 319c144.667 142 252.667 235 324 279l13 3l8 -9l-3 -11c-22.667 -26 -57.667 -59.333 -105 -100c-51.333 -44 -87 -76.333 -107 -97c-76 -81.333 -191 -243 -345 -485
c-134 -210.667 -255 -359.667 -363 -447c-162.667 -130.667 -361 -196 -595 -196c-88 0 -161.667 11.667 -221 35c-85.333 33.333 -128 87 -128 161zM1426 1424c-162 0 -314.332 -31.002 -456.999 -93.002c-184 -79.333 -276 -189.333 -276 -330
c0 -55.333 28 -96.666 84 -123.999c43.333 -22 95.333 -33 156 -33c91.333 0 194.666 27.333 309.999 82c135.333 64 203 136 203 216c0 36 -14.333 64 -43 84c-25.333 18 -56.666 27 -93.999 27c-155.333 0 -307.333 -66.667 -456 -200
c-20.667 -23.333 -53.667 -56 -99 -98l-9 -2l-7 8l3 11c34 69.333 117 138.333 249 207c126.667 65.333 231 98 313 98c42.667 0 79.667 -9.66699 111 -29c37.333 -23.333 56 -55.333 56 -96c0 -93.333 -68.667 -174.666 -206 -243.999c-116.667 -60 -227 -90 -331 -90
c-68.667 0 -127.334 14 -176.001 42c-58.667 34 -88 83.333 -88 148c0 56.667 14.667 106 44 148c104.667 148.667 278 243.667 520 285c108.667 18.667 315 28 619 28c76 0 189.833 -0.5 341.5 -1.5s265.5 -1.5 341.5 -1.5c60.667 0 106.667 6.33301 138 19
c22 9.33301 60.333 34.333 115 75l9 4l12 -14l-4 -10c-110 -118 -292 -177 -546 -177c-94 0 -233.333 10.167 -418 30.5s-323 30.5 -415 30.5z" />
    <glyph glyph-name="U" unicode="U" horiz-adv-x="1548" 
d="M1849 1298l112.998 0.00292969l-576 -647c-332 -377.333 -498 -578.333 -498 -603c0 -16.667 15.333 -25 46 -25c66.667 0 151 36 253 108c110 77.333 170.667 117.333 182 120l14 -12c-4 -30.667 -71.667 -79.667 -203 -147c-128 -64.667 -212.333 -97 -253 -97
c-52 0 -78 24.333 -78 73c0 44.667 21 98.667 63 162c14 21.333 50.333 69.333 109 144c-89.333 -82.667 -195 -161.334 -317 -236.001c-152.667 -94 -271 -141 -355 -141c-83.333 0 -125 27.333 -125 82c0 80.667 81.333 205.667 244 375l452 447
c162 168.667 243 293 243 373c0 54 -34.667 94.333 -104 121c-50 19.333 -107.333 29 -172 29c-145.333 0 -291 -34.667 -437 -104c-177.333 -84.667 -266 -192 -266 -322c0 -84 61.667 -126 185 -126c108 0 233.333 42.667 376 128c121.333 73.333 226.333 158 315 254
l10 5l12 -13l-2 -10c-49.333 -91.333 -152.666 -180.666 -309.999 -267.999c-153.333 -84.667 -283.666 -127 -390.999 -127c-58 0 -107.333 11 -148 33c-50 28 -75 68.667 -75 122c0 139.333 92 254 276 344c152 74 305.333 111 460 111c83.333 0 152 -14.333 206 -43
c68.667 -36.667 103 -93.334 103 -170.001c0 -106.667 -80.667 -253.334 -242 -440.001c-76 -88 -226 -240.667 -450 -458c-162 -156 -243 -250.333 -243 -283c0 -8.66699 9 -16.334 27 -23.001c14 -6 26.333 -9 37 -9c138.667 0 321 90.667 547 272
c166.667 134 358.667 319 576 555z" />
    <glyph glyph-name="V" unicode="V" horiz-adv-x="1086" 
d="M1410 1435l9.99707 -12.002c-4 -12 -39.667 -52 -107 -120c-78 -78.667 -121 -122.667 -129 -132c-42.667 -52 -95.667 -127 -159 -225c-71.333 -111.333 -122.666 -187.666 -153.999 -228.999c-65.333 -87.333 -164.666 -204.666 -297.999 -351.999
c-141.333 -156 -247.666 -263.667 -318.999 -323c190 68 415.667 225.667 677 473l635 614c235.333 203.333 437.333 305 606 305c49.333 0 92.666 -8.66699 130 -26c48 -23.333 72 -57 72 -101c0 -23.333 -7.16699 -43.5 -21.5 -60.5s-32.833 -25.5 -55.5 -25.5
c-40.667 0 -61 21.333 -61 64c0 38.667 21.667 64.667 65 78c-27.333 26.667 -70 40 -128 40c-157.333 0 -341.333 -86.667 -552 -260c-71.333 -58.667 -224.333 -206.667 -459 -444c-173.333 -176 -302.333 -299.667 -387 -371
c-149.333 -126 -299.666 -222.333 -450.999 -289c-8.66699 -4 -50 -20.667 -124 -50c-14 -0.666992 -21 3.33301 -21 12l4 12l100 99c50.667 51.333 107.667 121 171 209l327 446c112.667 146 234 287.333 364 424c-60 -35.333 -127 -53 -201 -53c-63.333 0 -103 14 -119 42
c-10 18 -15 60.333 -15 127c0 35.333 -24.667 62.333 -74 81c-36 14 -75.333 21 -118 21c-97.333 0 -189.333 -23.667 -276 -71c-103.333 -56 -155 -128.333 -155 -217c0 -56.667 23.333 -99.667 70 -129c38.667 -24.667 87.667 -37 147 -37c125.333 0 251.333 59 378 177
c12.667 1.33301 19 -2.33398 19 -11.001l-1 -9c-31.333 -45.333 -91.333 -87.666 -180 -126.999c-84.667 -38 -156.667 -57 -216 -57c-66.667 0 -122.334 15 -167.001 45c-52 34 -78 83.333 -78 148c0 94.667 54.333 173 163 235c92.667 52.667 190 79 292 79
c72.667 0 135.667 -16.333 189 -49c62.667 -38 94 -91 94 -159c0 -38.667 25 -58 75 -58c86 0 181 43.667 285 131z" />
    <glyph glyph-name="W" unicode="W" horiz-adv-x="1583" 
d="M1621 1143c-82.667 -74.667 -211.668 -202.336 -387.001 -383.003c-172 -177.333 -305.333 -308 -400 -392c-152.667 -136 -296 -239.667 -430 -311c-9.33301 -5.33301 -55 -28 -137 -68c-13.333 -0.666992 -20 3.33301 -20 12l3 12l103 102
c46.667 48 102 116.667 166 206c154 214 263.667 363 329 447c114 146.667 235.333 287.667 364 423c-62 -36 -129.333 -54 -202 -54c-63.333 0 -103 14.333 -119 43c-9.33301 16.667 -14 58.667 -14 126c0 36 -24.333 63.333 -73 82c-36 14 -75.667 21 -119 21
c-97.333 0 -189.333 -23.667 -276 -71c-103.333 -56 -155 -128.333 -155 -217c0 -57.333 23.333 -100.666 70 -129.999c38.667 -24 87.667 -36 147 -36c122 0 248.333 59 379 177c12 1.33301 18 -2.33398 18 -11.001l-1 -9c-33.333 -45.333 -94 -87.666 -182 -126.999
c-84 -37.333 -155.667 -56 -215 -56c-66 0 -121.333 15 -166 45c-52 34.667 -78 83.667 -78 147c0 94.667 54.333 173.334 163 236.001c94.667 54.667 192 80.667 292 78l20 -1c123.333 -3.33301 204.333 -47.333 243 -132c3.33301 -18.667 9.66602 -47.667 18.999 -87
c8 -30.667 33 -46 75 -46c86 0 180.667 43 284 129l155 137l9 -11c-5.33301 -13.333 -41 -53.666 -107 -120.999c-78 -80 -120.333 -124 -127 -132c-44 -52 -97.667 -127 -161 -225c-72.667 -112.667 -124.334 -189 -155.001 -229
c-41.333 -55.333 -169.333 -200.333 -384 -435l-111 -126c-44 -48.667 -84.667 -87 -122 -115c161.333 80.667 316 187 464 319c66 58 199 190 399 396c63.333 64.667 195.333 193 396 385c228.667 218.667 350.667 329.334 366 332.001l11 -13l-4 -9
c-86 -92 -178.667 -209.667 -278 -353c-152 -219.333 -236.667 -340.666 -254 -363.999c-36.667 -48.667 -165 -194.334 -385 -437.001l-108 -128c-43.333 -49.333 -84.666 -86 -123.999 -110c173.333 62.667 384 218 632 466l615 621c233.333 206.667 439.666 310 619 310
c50 0 93.333 -8.66699 130 -26c47.333 -22.667 71 -56.334 71 -101.001c0 -58 -25 -87 -75 -87c-42 0 -63 21.333 -63 64c0 40 22.667 66.333 68 79c-28.667 26.667 -72 40 -130 40c-158 0 -342 -86.667 -552 -260c-74.667 -61.333 -227 -209.333 -457 -444l-363 -371
c-140.667 -130.667 -282.667 -228.667 -426 -294c-73.333 -32.667 -114.666 -49 -123.999 -49c-12.667 0 -19 3.66699 -19 11l2 13l103.5 101.5c45.667 45.667 101.834 114.5 168.501 206.5c246 338.667 452.333 606.667 619 804z" />
    <glyph glyph-name="X" unicode="X" horiz-adv-x="1741" 
d="M2616 1350c0 -136.667 -147.668 -269 -443.001 -397c-180 -77.333 -389.333 -144.666 -628 -201.999c-72 -67.333 -153.667 -169.666 -245 -306.999c-105.333 -158 -158 -272.333 -158 -343c0 -20.667 8.66699 -38 26 -52c15.333 -14 33.666 -21 54.999 -21
c56 0 127.833 39.333 215.5 118s136.167 118.334 145.5 119.001l7 -11l-3 -12c-41.333 -50 -97.333 -100.333 -168 -151c-82.667 -59.333 -148.667 -89 -198 -89c-41.333 0 -77.333 16.333 -108 49s-46 69.667 -46 111c0 50.667 24.333 124 73 220
c-113.333 -95.333 -237.666 -178 -372.999 -248c-164.667 -86.667 -304.334 -130 -419.001 -130c-44.667 0 -82.334 9 -113.001 27c-38.667 21.333 -58 53 -58 95c0 148.667 166.333 287.334 499 416.001c196.667 76 428.667 141.333 696 196
c94 99.333 161.667 177.666 203 234.999c74.667 105.333 112 198 112 278c0 112 -91 168 -273 168c-138 0 -275 -31.667 -411 -95c-165.333 -78.667 -248 -178.667 -248 -300c0 -50.667 22.667 -90.334 68 -119.001c38.667 -24 84.334 -36 137.001 -36
c122.667 0 256 57 400 171l201 176l13 -13l-4 -10c-105.333 -106 -196.666 -184.667 -273.999 -236c-115.333 -76.667 -226.666 -115 -333.999 -115c-62 0 -115 14.667 -159 44c-51.333 33.333 -77 79.666 -77 138.999c0 127.333 85.333 232.666 256 315.999
c141.333 68.667 283.333 103 426 103c221.333 0 332 -79 332 -237c0 -70 -20.333 -143.333 -61 -220c118 112 240.333 209 367 291c171.333 111.333 311.666 167 421 167c98.667 0 148 -31.667 148 -95zM2466 1419c-215.333 0 -516.001 -213.001 -902.001 -639.001
c236.667 62.667 435.334 128.334 596.001 197.001c287.333 123.333 431 245.333 431 366c0 50.667 -41.667 76 -125 76zM350.998 31.999c136.667 0 317.999 82 543.999 246c202.667 148 351.334 289.667 446.001 425c-632 -132 -1003.67 -300.667 -1115 -506
c-14 -26 -21 -49 -21 -69c0 -32.667 17 -57.667 51 -75c27.333 -14 59 -21 95 -21z" />
    <glyph glyph-name="Y" unicode="Y" horiz-adv-x="1406" 
d="M654 431c0 -33.333 29 -50.002 87 -50.002c78 0 182.333 46.667 313 140c102 73.333 191.667 151.666 269 234.999l491 529h139l-738 -824c-122 -136 -231.333 -237 -328 -303c-137.333 -93.333 -275.666 -140 -414.999 -140c-68 0 -125.667 9.66699 -173 29
c-65.333 28 -98 71 -98 129c0 34.667 9.66699 63.834 29 87.501s45.666 35.5 78.999 35.5c38.667 0 58 -16 58 -48c0 -17.333 -6.16699 -32.666 -18.5 -45.999s-26.833 -20 -43.5 -20c-19.333 0 -37.666 11 -54.999 33c-8 -17.333 -12 -35.666 -12 -54.999
c0 -44 29.667 -76.667 89 -98c42 -15.333 90.333 -23 145 -23c142 0 282 65.333 420 196c52 49.333 155.333 172.333 310 369c-194 -168.667 -349 -253 -465 -253c-95.333 0 -143 34.667 -143 104c0 84.667 53 183.334 159 296.001l295 283c106 106 159 193.333 159 262
c0 43.333 -31.667 77.666 -95 102.999c-49.333 20.667 -99.333 31 -150 31c-130 0 -267 -38.667 -411 -116c-166.667 -89.333 -250 -193 -250 -311c0 -76.667 54 -115 162 -115c154 0 335.667 96 545 288c22.667 22.667 48.334 46.334 77.001 71.001l12 -12l-4 -10
c-238.667 -242.667 -448.334 -364 -629.001 -364c-52 0 -95 10.667 -129 32c-40.667 25.333 -61 63 -61 113c0 128 86.333 238 259 330c147.333 78.667 291.666 118 432.999 118c63.333 0 121 -13 173 -39c64.667 -32 97 -77 97 -135c0 -103.333 -50 -214.333 -150 -333
c-6 -6.66699 -99.667 -100.334 -281 -281.001c-100.667 -100.667 -151 -180 -151 -238z" />
    <glyph glyph-name="Z" unicode="Z" horiz-adv-x="1694" 
d="M1260 804c27.333 -20 53.999 -29.999 79.999 -29.999c34.667 0 68.667 12 102 36c36 25.333 54.667 38 56 38l10 -8l-2 -12c-17.333 -29.333 -50 -54.666 -98 -75.999c-44.667 -19.333 -85.667 -29 -123 -29c-27.333 0 -56.666 3.66699 -87.999 11
c-67.333 -68.667 -153 -141.334 -257 -218.001l-275 -195c159.333 81.333 306 122 440 122c108 0 162 -39.333 162 -118c0 -44 -19.333 -86 -58 -126c-16.667 -17.333 -52.667 -46 -108 -86c-38.667 -28 -58 -49.667 -58 -65c0 -10.667 7.66699 -16 23 -16
c60 0 146.333 33.167 259 99.5s164.667 99.5 156 99.5l13 -15l-6 -11c-49.333 -42 -116.333 -84.667 -201 -128c-96 -50 -169 -75 -219 -75c-60.667 0 -91 31.667 -91 95c0 50.667 37.333 104.5 112 161.5s112 96.5 112 118.5c0 25.333 -35 38 -105 38
c-108 0 -233.667 -34.667 -377 -104c-81.333 -38.667 -191.666 -102.667 -330.999 -192c-107.333 -69.333 -172 -104 -194 -104c-14.667 0 -22 6 -22 18c0 34.667 63 82.667 189 144c51.333 21.333 125.666 57.666 222.999 108.999c44.667 28.667 129 103.667 253 225
l254 254c-31.333 8 -54.666 12 -69.999 12c-39.333 0 -78.333 -12.667 -117 -38c-41.333 -28 -62.666 -42 -63.999 -42l-11 13l5 11c89.333 77.333 182.333 116 279 116c16.667 0 34.667 -0.666992 54 -2c107.333 96 212.333 184 315 264
c-154.667 5.33301 -232 34.666 -232 87.999c0 16.667 8.66699 39.167 26 67.5s26 52.5 26 72.5c0 50 -55.667 75 -167 75c-107.333 0 -219 -24 -335 -72c-144 -58.667 -216 -133.667 -216 -225c0 -46 22.333 -84 67 -114c40 -27.333 83.667 -41 131 -41c86 0 184 34 294 102
l156 104l8 -9l-4 -11c-42 -49.333 -107.667 -97 -197 -143c-92.667 -48.667 -169.667 -73 -231 -73c-64.667 0 -120.334 14.667 -167.001 44c-55.333 34 -83 82 -83 144c0 96.667 74.667 177.334 224 242.001c121.333 52 238.666 78 351.999 78c62 0 118.333 -11 169 -33
c66 -28 99 -69 99 -123c0 -13.333 -3.83301 -32.333 -11.5 -57s-11.5 -43.334 -11.5 -56.001c0 -18 43.667 -29.333 131 -34c265.333 209.333 443 314 533 314c27.333 0 41 -13.667 41 -41c0 -68 -76 -134.333 -228 -199c-101.333 -43.333 -208 -76.666 -320 -99.999z
M1571 1132c146.667 34 260.333 75.333 341 124c100 60.667 150 108 150 142c0 11.333 -7.33301 17 -22 17c-44.667 0 -125 -38.333 -241 -115c-89.333 -58 -165.333 -114 -228 -168z" />
    <glyph glyph-name="bracketleft" unicode="[" horiz-adv-x="444" 
d="M183 1212l-209 1v-1429h209v-42h-296v1512h296v-42z" />
    <glyph glyph-name="backslash" unicode="\" horiz-adv-x="1343" 
d="M1097 -160l-9.00293 -7.99902l-12 4c-73.333 64.667 -285.333 292 -636 682c-354 394 -538 609 -552 645l9 7l12 -3c26.667 -23.333 58.334 -55.333 95.001 -96c52.667 -59.333 83 -93 91 -101l468 -487c16.667 -18.667 145.334 -172.334 386.001 -461.001l83 -92
c42.667 -49.333 64.334 -79.333 65.001 -90z" />
    <glyph glyph-name="bracketright" unicode="]" horiz-adv-x="444" 
d="M117 -258h-295v42h208v1429h-208v41h295v-1512z" />
    <glyph glyph-name="asciicircum" unicode="^" horiz-adv-x="396" 
d="M324 710c16 -93.333 45 -168.333 87 -225l-13 -11c-38.667 28.667 -72 76 -100 142c-86 -70.667 -161.333 -115 -226 -133v6c84 59.333 163 133 237 221h15z" />
    <glyph glyph-name="underscore" unicode="_" horiz-adv-x="910" 
d="M-24 -240v32h954v-32h-954z" />
    <glyph glyph-name="grave" unicode="`" horiz-adv-x="276" 
d="M202 485c-42 19.333 -83.6689 47 -125.002 83c-51.333 44.667 -77 84.334 -77 119.001c0 26.667 13 40 39 40c20.667 0 36.334 -18.667 47.001 -56c14.667 -52.667 23 -80.334 25 -83.001c20.667 -32 53.334 -63.333 98.001 -94z" />
    <glyph glyph-name="a" unicode="a" horiz-adv-x="703" 
d="M-158 24c60 0 139 37.334 237 112.001c101.333 78 152 145.667 152 203c0 34 -19.333 51 -58 51c-48 0 -122.333 -43.333 -223 -130s-151 -153.334 -151 -200.001c0 -24 14.333 -36 43 -36zM-256 101.001c0 77.333 51 150.999 153 220.999c94 64.667 181.667 97 263 97
c67.333 0 101 -25.667 101 -77c0 -12 -2.33301 -25.667 -7 -41c16.667 16.667 51.667 56 105 118h115l-176 -192c-94.667 -106 -142.667 -166.667 -144 -182l16 -13c34 -1.33301 93.833 28.834 179.5 90.501s129.834 92.834 132.501 93.501l12 -15
c-0.666992 -22.667 -51.334 -62.334 -152.001 -119.001c-98 -56 -161.667 -84 -191 -84c-40 0 -60 21.333 -60 64c0 18 3 35.333 9 52c-98.667 -78 -182 -117 -250 -117c-70.667 0 -106 34.667 -106 104z" />
    <glyph glyph-name="b" unicode="b" horiz-adv-x="625" 
d="M287 570c204 127.333 328.667 206.999 374 238.999c179.333 128.667 269 228.334 269 299.001c0 32 -16.667 48 -50 48c-76 0 -183.667 -80 -323 -240c-40.667 -46 -130.667 -161.333 -270 -346zM413 394.999c0 -53.333 -48.6641 -119.339 -145.997 -198.006
c9.33301 -5.33301 19 -8 29 -8c14.667 0 34.5 4.83301 59.5 14.5s43.5 14.834 55.5 15.501l9 -15l-5 -10c-43.333 -21.333 -78 -32 -104 -32c-28.667 0 -52 5.66699 -70 17c-48 -45.333 -107.333 -85.666 -178 -120.999c-78.667 -40 -146.334 -60 -203.001 -60
c-54 0 -81 25.667 -81 77c0 32 18.667 70 56 114l91 97c-37.333 -29.333 -84.333 -59 -141 -89l-7 11l3 10c21.333 25.333 65.833 58.333 133.5 99s113.5 74.667 137.5 102l198 238c125.333 146 235.666 262 330.999 348c132 118 233.667 177 305 177
c18.667 0 35 -7.5 49 -22.5s21 -32.167 21 -51.5c0 -109.333 -162.333 -261.666 -487 -456.999c-50.667 -25.333 -119.334 -66.666 -206.001 -123.999c-59.333 -54 -127.333 -126.333 -204 -217l-192 -229c-9.33301 -11.333 -14 -20.666 -14 -27.999
c0 -11.333 12 -17 36 -17c38.667 0 96.667 20.333 174 61c69.333 36.667 122.333 71.334 159 104.001l-5 20c0 34.667 19.667 76 59 124c40.667 50.667 77.667 76 111 76c17.333 0 26 -8.66699 26 -26z" />
    <glyph glyph-name="c" unicode="c" horiz-adv-x="466" 
d="M-144 26c60 0 140 31.666 240 94.999c103.333 64.667 155.333 97 156 97l12 -17c-0.666992 -26.667 -63.667 -68 -189 -124c-121.333 -53.333 -201 -80 -239 -80c-61.333 0 -92 34.667 -92 104c0 72.667 46 144.334 138 215.001c86.667 67.333 167.334 101 242.001 101
c62 0 93 -20.667 93 -62c0 -20 -7.33301 -37.333 -22 -52s-31.667 -22 -51 -22c-29.333 0 -44 12.667 -44 38c0 33.333 18.667 50 56 50c9.33301 0 19.666 -3.66699 30.999 -11c-12.667 20.667 -29.667 31 -51 31c-52 0 -121.167 -41.833 -207.5 -125.5
s-129.5 -151.5 -129.5 -203.5c0 -22.667 19 -34 57 -34z" />
    <glyph glyph-name="d" unicode="d" horiz-adv-x="703" 
d="M-261 101c0 76 51.001 149.331 153.001 219.998c93.333 65.333 179.666 98 258.999 98c59.333 0 93 -21 101 -63l587 677h134l-456 -521c-254 -292 -384 -447.667 -390 -467l18 -11c45.333 -2 112.333 27.333 201 88c92 62 140.667 93.333 146 94l5 -10
c-2 -25.333 -57.333 -66.666 -166 -123.999c-105.333 -56 -174.333 -84 -207 -84c-38 0 -57 15.333 -57 46c0 16.667 5.33301 36.334 16 59.001c-96.667 -71.333 -179 -107 -247 -107c-64.667 0 -97 35 -97 105zM-162.999 23.998c60.667 0 139.667 37.334 237 112.001
c102 78 153 145.667 153 203c0 34 -19.667 51 -59 51c-48 0 -122.333 -43.333 -223 -130s-151 -153.334 -151 -200.001c0 -24 14.333 -36 43 -36z" />
    <glyph glyph-name="e" unicode="e" horiz-adv-x="453" 
d="M240 220l10.0029 -16l-4 -10c-182 -131.333 -307.667 -197 -377 -197c-87.333 0 -131 33.667 -131 101c0 72 45.667 144.667 137 218c87.333 70 167.666 105 240.999 105c42 0 63 -17.333 63 -52c0 -40 -32 -75.333 -96 -106l-178 -77c-64 -33.333 -96 -74 -96 -122
c0 -24 15 -36 45 -36c63.333 0 143.166 32 239.499 96s145.166 96 146.499 96zM-75.9971 234c150 49.333 225 94 225 134c0 15.333 -7.33301 23 -22 23c-51.333 0 -119 -52.333 -203 -157z" />
    <glyph glyph-name="f" unicode="f" horiz-adv-x="440" 
d="M-141 155l54 63l-9 27zM-61 243l81 88.999c-18 -8.66699 -35.667 -17.667 -53 -27c-21.333 -13.333 -32 -28.666 -32 -45.999zM330 569.999c102.667 45.333 225.332 117.667 367.999 217c179.333 124.667 269 218.334 269 281.001c0 34.667 -15.667 52 -47 52
c-74 0 -180.333 -74.667 -319 -224c-51.333 -54.667 -141.666 -163.334 -270.999 -326.001zM221.998 218l9.00293 -12.999l-5 -11c-68.667 -46 -130.334 -69 -185.001 -69c-22.667 0 -46.334 7 -71.001 21l-565 -659h-113l314 371c115.333 142.667 206 275.334 272 398.001
c-26.667 -20 -60.667 -42.333 -102 -67l-12 14l6 11c54.667 37.333 98 65.666 130 84.999c21.333 82 52.333 123 93 123c9.33301 0 17.5 -4.83301 24.5 -14.5s9.83301 -18.834 8.5 -27.501c26 17.333 63 45.666 111 84.999l375 400c187.333 188.667 325 283 413 283
c18 0 34.333 -6.16699 49 -18.5s22 -27.833 22 -46.5c0 -85.333 -96 -192.333 -288 -321c-30.667 -20 -167.334 -99.333 -410.001 -238c-22 -12 -123.667 -130 -305 -354c18 -12 35.667 -18 53 -18c32.667 0 68 10.333 106 31c40.667 22.667 64 34.334 70 35.001z" />
    <glyph glyph-name="g" unicode="g" horiz-adv-x="657" 
d="M-577 -482c79.333 0 163.333 45.333 252 136c7.33301 8 71.333 86.333 192 235c-144.667 -54.667 -242 -94.667 -292 -120c-132.667 -68.667 -199 -136.667 -199 -204c0 -31.333 15.667 -47 47 -47zM343 419l115 0.000976562l-375 -428c104 48 221.333 123 352 225
c10.667 2 16 -1.33301 16 -10l-1 -9c-10 -14.667 -58.333 -50.667 -145 -108c-80.667 -52.667 -135.334 -86.334 -164.001 -101.001c-23.333 -8.66699 -56.666 -25 -99.999 -49l-287 -271c-130.667 -116.667 -240.667 -175 -330 -175c-51.333 0 -77 24 -77 72
c0 78 74.667 154.333 224 229c47.333 24 157 68 329 132l113 135c-69.333 -43.333 -129.666 -65 -180.999 -65c-64.667 0 -97 35 -97 105c0 76.667 51.333 150 154 220c94 65.333 181 98 261 98c73.333 0 106.666 -32 99.999 -96zM-167 24.001c60 0 139 37.334 237 112.001
c102 78 153 145.667 153 203c0 34 -19.667 51 -59 51c-48 0 -122.333 -43.333 -223 -130s-151 -153.334 -151 -200.001c0 -24 14.333 -36 43 -36z" />
    <glyph glyph-name="h" unicode="h" horiz-adv-x="762" 
d="M289 570c204.667 127.333 329.333 206.999 374 238.999c179.333 128.667 269 228.334 269 299.001c0 32 -16.667 48 -50 48c-76 0 -183.667 -80 -323 -240c-40.667 -46 -130.667 -161.333 -270 -346zM-212.001 194.999l-8.00098 11.9971l3 11
c23.333 26 68 58.833 134 98.5s111.667 73.834 137 102.501l201 241c124.667 145.333 234.667 260.666 330 345.999c131.333 117.333 232.333 176 303 176c19.333 0 35.833 -7.5 49.5 -22.5s20.5 -32.167 20.5 -51.5c0 -69.333 -49.333 -145 -148 -227
c-63.333 -52.667 -164 -119.667 -302 -201c-134.667 -78.667 -215.667 -129.667 -243 -153c-36 -32 -77.333 -76.667 -124 -134l-115 -142c138 112 241.667 168 311 168c37.333 0 56 -21.667 56 -65c0 -49.333 -33.667 -110.333 -101 -183s-101.333 -114.667 -102 -126
l18 -11c44 -2 111.333 27.833 202 89.5s139 92.834 145 93.501l6 -10c-2 -25.333 -57.333 -67 -166 -125c-106 -56 -175.333 -84 -208 -84c-41.333 0 -62 23.333 -62 70c0 42.667 35.5 103.334 106.5 182.001s106.833 121.667 107.5 129l-11 14
c-105.333 3.33301 -276.333 -127.667 -513 -393h-124l281 310c-51.333 -37.333 -112.666 -75.666 -183.999 -114.999z" />
    <glyph glyph-name="i" unicode="i" horiz-adv-x="420" 
d="M374 651c-9.33301 -23.333 -30.999 -46 -64.999 -68c-24.667 16.667 -44.334 38 -59.001 64c12.667 28 33 49.667 61 65c20.667 -10 41.667 -30.333 63 -61zM163.001 419l-174.001 -193c-94.667 -106.667 -142.667 -167 -144 -181l17 -11
c42.667 -2 109.334 27.667 200.001 89c94 63.333 142.333 95 145 95l9 -14c-1.33301 -24 -57 -64.667 -167 -122c-106 -56 -175.333 -84 -208 -84c-40.667 0 -61 21.667 -61 65c0 33.333 13 69 39 107c2 2.66699 26 32.667 72 90c-28 -20.667 -64.333 -43 -109 -67l-11 13
l7 12c111.333 74 202 141 272 201h113z" />
    <glyph glyph-name="j" unicode="j" horiz-adv-x="374" 
d="M-840 -479c66 0 143.667 47.333 233 142c19.333 20.667 80.333 96 183 226c-304 -116.667 -456 -224.667 -456 -324c0 -29.333 13.333 -44 40 -44zM-838 -505c-18 0 -34 7.00098 -48 21.001s-21 30 -21 48c0 77.333 68.667 153.666 206 228.999
c62.667 34.667 166 79 310 133l287 334c-27.333 -20 -63.666 -42.667 -108.999 -68l-11 14l7 12c105.333 68.667 195.666 135.667 270.999 201h113l-352 -399c48.667 18.667 106.667 48.667 174 90l166 107l6 -10l-2 -10c-14.667 -16 -62.334 -49 -143.001 -99
c-74.667 -46 -127 -76 -157 -90c-20 -7.33301 -48.333 -21 -85 -41c-30 -22.667 -90.667 -80 -182 -172c-93.333 -94 -166.333 -161.333 -219 -202c-83.333 -65.333 -153.666 -98 -210.999 -98zM378 651.001c-9.33301 -23.333 -30.999 -45.999 -64.999 -67.999
c-22 13.333 -41.667 34.666 -59 63.999c13.333 28 33.666 49.667 60.999 65c20.667 -10 41.667 -30.333 63 -61z" />
    <glyph glyph-name="k" unicode="k" horiz-adv-x="725" 
d="M335 570c438.667 225.333 657.999 398 657.999 518c0 30.667 -17 46 -51 46c-89.333 0 -201.666 -74 -336.999 -222c-40.667 -44.667 -130.667 -158.667 -270 -342zM139.999 -2c-37.333 0 -55.9951 18.6689 -55.9951 56.002c0 24 12 54.333 36 91s36 58 36 64
c0 14 -26.333 21 -79 21l-31 -1l-202 -233l-122 2l308 360c-76 -52.667 -159 -107 -249 -163l-7 14l4 12l203 129c79.333 53.333 140.666 104 183.999 152l220 253c107.333 120 201.666 212 282.999 276c109.333 86.667 202.666 130 279.999 130
c18.667 0 35.167 -7.33301 49.5 -22s21.5 -31.667 21.5 -51c0 -74 -65 -161.333 -195 -262c-86 -66.667 -185.333 -129.334 -298 -188.001c-52.667 -22 -124.334 -59.333 -215.001 -112c-35.333 -28 -75.333 -69.667 -120 -125l-111 -137c62 0 132 29.5 210 88.5
s137.333 88.5 178 88.5c47.333 0 71 -17 71 -51c0 -21.333 -10.333 -32 -31 -32c-14 0 -22.667 6.66699 -26 20c-3.33301 11.333 -1.66602 23 5.00098 35l-20 5c-14 0 -55 -24.667 -123 -74c-74.667 -54.667 -129.334 -87.667 -164.001 -99
c32.667 -18.667 49 -42.334 49 -71.001c0 -29.333 -23.333 -75 -70 -137l13 -2c44 0 109.5 30.333 196.5 91s133.833 91 140.5 91l6 -10c-0.666992 -24.667 -56 -66 -166 -124c-106.667 -56.667 -176.334 -85 -209.001 -85z" />
    <glyph glyph-name="l" unicode="l" horiz-adv-x="420" 
d="M289 570c204.667 127.333 329.333 206.999 374 238.999c179.333 128.667 269 228.334 269 299.001c0 32 -16.667 48 -50 48c-76 0 -183.667 -80 -323 -240c-40.667 -46 -130.667 -161.333 -270 -346zM212.999 216.999l6.99902 -10.001
c-0.666992 -31.333 -54.667 -74.666 -162 -129.999c-102 -52.667 -172.333 -79 -211 -79c-42 0 -63 21.667 -63 65c0 33.333 13 69 39 107l73 90c-28.667 -20 -64.667 -42 -108 -66l-11 13l6 11l143 92c54.667 37.333 97.334 73.666 128.001 108.999l200 240
c125.333 146 235.333 261.667 330 347c132 117.333 233.333 176 304 176c19.333 0 35.833 -7.5 49.5 -22.5s20.5 -32.167 20.5 -51.5c0 -69.333 -49.667 -145.333 -149 -228c-64 -53.333 -165.333 -120.666 -304 -201.999c-134 -78.667 -214 -129 -240 -151
c-58.667 -52 -126.667 -124.333 -204 -217l-191 -229c-6.66699 -7.33301 -14 -19.333 -22 -36l17 -11c50 -2 118 26.667 204 86c94 64.667 142 97 144 97z" />
    <glyph glyph-name="m" unicode="m" horiz-adv-x="1208" 
d="M640 45l17.001 -11.0039c45.333 -2 113 27.333 203 88c92.667 62.667 140.667 94.334 144 95.001l6 -10c0 -29.333 -54 -72 -162 -128c-103.333 -54 -173.666 -81 -210.999 -81c-42 0 -63 23.333 -63 70c0 40.667 30.333 97.334 91 170.001l139 151l-18 5
c-113.333 0 -287 -131.333 -521 -394h-117l323 389l-19 6c-110 0 -284.667 -131.667 -524 -395h-113l310 382l-14 9c-32.667 0.666992 -93 -30.666 -181 -93.999c-92.667 -66.667 -141.334 -100.667 -146.001 -102l-9 11c1.33301 24.667 52.666 66.667 153.999 126
c98.667 58 163.667 87 195 87c14 0 26.667 -5.66699 38 -17s17 -24 17 -38c0 -28 -13.333 -65.667 -40 -113c141.333 112 246.333 168 315 168c36 0 54 -21.667 54 -65c0 -33.333 -11.333 -67.666 -34 -102.999c138 112 242 168 312 168c38 0 57 -21.667 57 -65
c0 -49.333 -33.833 -110.333 -101.5 -183s-101.5 -114.667 -101.5 -126z" />
    <glyph glyph-name="n" unicode="n" horiz-adv-x="875" 
d="M122 382l-10.999 8.99805c-40.667 0.666992 -148.667 -65 -324 -197l-11 12l5 10c50 44 105 85.333 165 124c81.333 52 141.666 78 180.999 78c33.333 0 50 -17.667 50 -53c0 -32 -13.333 -70 -40 -114c140.667 112 244.667 168 312 168c36.667 0 55 -21.667 55 -65
c0 -52 -33.667 -113.5 -101 -184.5s-101 -111.833 -101 -122.5c0 -8.66699 6 -13 18 -13c48 0 117.167 30.333 207.5 91s136.833 91.334 139.5 92.001l6 -10c0 -28 -54.333 -70.333 -163 -127c-104.667 -54.667 -174.667 -82 -210 -82c-41.333 0 -62 23.333 -62 70
c0 40.667 30 97.334 90 170.001l139 151l-17 5c-111.333 0 -286 -131.333 -524 -394h-113z" />
    <glyph glyph-name="o" unicode="o" horiz-adv-x="525" 
d="M313 225l10.002 -13.001l-6 -11c-39.333 -26 -94.333 -39 -165 -39c-121.333 -110.667 -222.333 -166 -303 -166c-73.333 0 -110 35 -110 105c0 76.667 51 150.334 153 221.001c94.667 64.667 182 97 262 97c25.333 0 47.666 -6 66.999 -18c23.333 -14.667 35 -34 35 -58
c0 -40.667 -25.333 -91 -76 -151c18.667 -0.666992 42.167 4.33301 70.5 15s49.166 16.667 62.499 18zM-162.998 23.999c60.667 0 139.667 37.334 237 112.001c102 78 153 145.667 153 203c0 34 -19.667 51 -59 51c-48 0 -122.333 -43.333 -223 -130
s-151 -153.334 -151 -200.001c0 -24 14.333 -36 43 -36z" />
    <glyph glyph-name="p" unicode="p" horiz-adv-x="762" 
d="M367 695l-350 -437.003c132.667 107.333 235.667 161 309 161c39.333 0 59 -21.667 59 -65c0 -52 -34 -113.833 -102 -185.5s-102 -112.5 -102 -122.5c0 -8 6 -12 18 -12c51.333 0 120.333 29.667 207 89c90.667 62.667 137 94 139 94l7 -10
c-0.666992 -27.333 -55.334 -69.666 -164.001 -126.999c-104.667 -54.667 -174.667 -82 -210 -82c-41.333 0 -62 23.333 -62 70c0 40.667 30.333 97.334 91 170.001l138 151l-17 5c-43.333 0 -111.666 -31.333 -204.999 -94c-85.333 -57.333 -146 -107 -182 -149l-602 -717
h-117l706 854c-39.333 -29.333 -87 -60.666 -143 -93.999l-13 12l6 10c83.333 54.667 174 130 272 226l248 253h69z" />
    <glyph glyph-name="q" unicode="q" horiz-adv-x="710" 
d="M-158 26c60 0 139 37.333 237 112c101.333 78 152 145.667 152 203c0 34.667 -19.333 52 -58 52c-48 0 -122.333 -43.5 -223 -130.5s-151 -153.5 -151 -199.5c0 -24.667 14.333 -37 43 -37zM-356 -522h-120.001l476 572c-60 -34.667 -113.333 -52 -160 -52
c-64 0 -96 35 -96 105c0 76 50.667 149.333 152 220c94 65.333 180.333 98 259 98c54.667 0 87.667 -18.667 99 -56l46 54h135l-515 -603c48 41.333 147.333 115.333 298 222c167.333 118 262 177.667 284 179l7 -10l-3 -10c-23.333 -24.667 -58.333 -51 -105 -79l-113 -67
c-143.333 -95.333 -258.666 -181.333 -345.999 -258c-90.667 -80.667 -190 -185.667 -298 -315z" />
    <glyph glyph-name="r" unicode="r" horiz-adv-x="470" 
d="M-224 216c84 70 145.667 125.333 185 166c-24.667 8 -37 23.667 -37 47c0 40 20.667 60 62 60c26.667 0 40 -13.667 40 -41c0 -16 -6.33301 -29 -19 -39c40 0 76 5 108 15l39 -79l-142 -152c-76 -83.333 -114 -131.333 -114 -144c0 -9.33301 6.66699 -14 20 -14
c72 0 184.667 61 338 183l12 -16c-0.666992 -22 -56.334 -62 -167.001 -120c-107.333 -56 -176.666 -84 -207.999 -84c-42 0 -63 25 -63 75c0 40 33 97 99 171l136 138c-23.333 -4 -45 -5.33301 -65 -4c-122 -122 -194.333 -183.667 -217 -185l-11 14z" />
    <glyph glyph-name="s" unicode="s" horiz-adv-x="485" 
d="M124 157c26 4.66699 71.667 25 137 61l11 -13c0 -16.667 -24.667 -34.334 -74 -53.001c-42.667 -16.667 -75.334 -25.667 -98.001 -27c-99.333 -88 -189 -132 -269 -132c-64 0 -96 25.333 -96 76c0 52.667 22 79 66 79c28.667 0 43 -12.333 43 -37
c0 -42 -24.667 -62.333 -74 -61c1.33301 -18.667 16.333 -28 45 -28c114.667 0 213.334 130.333 296.001 391l-320 -221l-14 18c2.66699 5.33301 75.667 59 219 161s221.333 154.667 234 158l15 -17l-93 -75c-2 -11.333 -3 -26 -3 -44c0 -12 1.83301 -29.667 5.5 -53
s5.5 -41 5.5 -53c0 -47.333 -12 -90.666 -36 -129.999z" />
    <glyph glyph-name="t" unicode="t" horiz-adv-x="451" 
d="M-216 192l-8.99902 14l6 12c189.333 128 326.666 239.667 411.999 335h-52l-17 13c5.33301 12 36.333 17 93 15l174 195h117l-176 -195h126l13 -14c-2 -12 -54.667 -16.667 -158 -14l-240 -266c-132 -148.667 -199 -230 -201 -244l15 -9c77.333 -4 194 57.333 350 184
l9 -14c-0.666992 -28 -55 -70 -163 -126c-103.333 -53.333 -173.333 -80 -210 -80c-41.333 0 -62 21 -62 63c0 47.333 23 97.666 69 150.999l122 122c-65.333 -45.333 -138 -92.666 -218 -141.999z" />
    <glyph glyph-name="u" unicode="u" horiz-adv-x="742" 
d="M-216 193l-11.998 14.999c1.33301 6 40 35.667 116 89c81.333 58.667 131.666 99.334 150.999 122.001h133l-176 -195c-96 -108 -144.667 -168.667 -146 -182l14 -9c94.667 -4.66699 258.667 124 492 386h135l-176 -194c-96.667 -108 -145 -168.333 -145 -181
c0 -9.33301 7 -14 21 -14c81.333 0 194.666 63 339.999 189l7 -13l-3 -9c-143.333 -132.667 -265.333 -199 -366 -199c-41.333 0 -62 19.667 -62 59c0 29.333 13 66.333 39 111c-143.333 -116 -247.333 -174 -312 -174c-37.333 0 -56 21.667 -56 65c0 35.333 43 106 129 212
c-34 -24.667 -75 -50.667 -123 -78z" />
    <glyph glyph-name="v" unicode="v" horiz-adv-x="644" 
d="M-110 48c0 -12 12.666 -18.002 37.999 -18.002c76 0 179 57 309 171l-5 20c0 34.667 19.667 76 59 124c40.667 50.667 77.667 76 111 76c17.333 0 26 -8.66699 26 -26c0 -53.333 -48.667 -119.333 -146 -198c10 -8.66699 21.333 -13 34 -13c18 0 38.333 5.66699 61 17
s39 17.666 49 18.999l10 -15l-6 -11c-39.333 -26.667 -78 -40 -116 -40c-20 0 -38.333 7.66699 -55 23c-143.333 -117.333 -251.666 -176 -324.999 -176c-63.333 0 -95 28.667 -95 86c0 41.333 36.667 99.333 110 174s110.333 115.334 111 122.001l-14 10
c-30 1.33301 -80.667 -32 -152 -100s-108 -102 -110 -102l-13 10c0.666992 24 41.5 66.333 122.5 127s135.5 91 163.5 91c38 0 57 -24 57 -72c0 -41.333 -37.333 -98.166 -112 -170.499s-112 -115.166 -112 -128.499z" />
    <glyph glyph-name="w" unicode="w" horiz-adv-x="986" 
d="M191 155l-127.997 -98.0029c-56.667 -38 -104.667 -57 -144 -57c-20.667 0 -38.834 8.83301 -54.501 26.5s-23.5 37.167 -23.5 58.5c0 42.667 36.667 101.5 110 176.5s110.333 115.5 111 121.5l-14 10c-28 1.33301 -77.833 -32 -149.5 -100s-109.167 -102 -112.5 -102
l-13 10c0.666992 24 41.667 66.333 123 127s135.666 91 162.999 91c38 0 57 -24 57 -72c0 -37.333 -35.333 -94.666 -106 -171.999s-106 -121.666 -106 -132.999c0 -9.33301 7.33301 -14 22 -14c89.333 0 250 130.333 482 391h133l-172 -190
c-93.333 -106 -140 -165.667 -140 -179s14 -20 42 -20c38 0 91 21.333 159 64c53.333 32.667 101.333 68.334 144 107.001l-5 20c0 34.667 19.667 76 59 124c40.667 50.667 77.667 76 111 76c17.333 0 26 -8.66699 26 -26c0 -52 -49.333 -118 -148 -198
c10.667 -8.66699 23 -13 37 -13c41.333 0 84.333 14.667 129 44l10 -14l-6 -13c-42.667 -30.667 -87.334 -46 -134.001 -46c-21.333 0 -40.666 7.33301 -57.999 22c-140.667 -117.333 -248.334 -176 -323.001 -176c-24 0 -46.333 6 -67 18c-24 14 -36 32.333 -36 55
c0 18 7.33301 45 22 81z" />
    <glyph glyph-name="x" unicode="x" horiz-adv-x="640" 
d="M419 350c0 -48 -21.6709 -71.9971 -65.0039 -71.9971c-26.667 0 -40 13.333 -40 40c0 35.333 18 53 54 53c4.66699 0 9.33398 -0.666992 14.001 -2c-9.33301 9.33301 -19.666 14 -30.999 14c-38 0 -104 -46.5 -198 -139.5s-141 -158.167 -141 -195.5
c0 -17.333 23 -26 69 -26c45.333 0 106.333 24 183 72c58.667 37.333 113 78.666 163 123.999l12 -15c-3.33301 -34 -55 -78 -155 -132c-95.333 -52 -163.666 -78 -204.999 -78c-77.333 0 -116 32.333 -116 97c-95.333 -60 -161.666 -90 -198.999 -90
c-52.667 0 -79 20.333 -79 61c0 55.333 24 83 72 83c27.333 0 41 -15.333 41 -46c0 -42.667 -27.667 -59.334 -83 -50.001c10.667 -12 24 -18 40 -18c47.333 0 121.833 45.333 223.5 136s152.5 158.667 152.5 204c0 11.333 -8.33301 17 -25 17c-68 0 -174 -65 -318 -195
l-14 14c0 27.333 49 69.666 147 126.999c94.667 55.333 158.667 83 192 83c20 0 37.333 -8 52 -24s22 -33.667 22 -53c64.667 46 116 69 154 69c52 0 78 -19.333 78 -58z" />
    <glyph glyph-name="y" unicode="y" horiz-adv-x="786" 
d="M480 419l112.998 0.000976562l-376 -428c82.667 28.667 173.667 82 273 160c16 16 42.333 37.667 79 65l11 1l7 -10l-3 -10c-30.667 -44.667 -96 -93.334 -196 -146.001c-139.333 -73.333 -210 -110.666 -212 -111.999c-33.333 -22.667 -92.666 -77 -177.999 -163
c-90 -90 -160.333 -153.667 -211 -191c-84 -61.333 -159.667 -92 -227 -92c-50.667 0 -76 24.333 -76 73c0 78.667 74 155 222 229c39.333 20 149 63.667 329 131l182 214c-128.667 -93.333 -227.334 -140 -296.001 -140c-22 0 -40.833 8.66699 -56.5 26s-23.5 37 -23.5 59
c0 42 36 100 108 174c74.667 76 112.334 117.333 113.001 124l-14 10c-28.667 0.666992 -77.667 -32 -147 -98c-72 -68.667 -110.333 -103.334 -115 -104.001l-13 10c2 24.667 43.167 67.167 123.5 127.5s134.5 90.5 162.5 90.5c38 0 57 -24 57 -72
c0 -37.333 -35.333 -94.5 -106 -171.5s-106 -121.833 -106 -134.5c0 -8.66699 7.33301 -13 22 -13c110.667 0 295.334 130.333 554.001 391zM-442.002 -481.999c79.333 0 163.333 45.333 252 136c5.33301 6 69.333 84.333 192 235c-152.667 -58.667 -250 -98.667 -292 -120
c-132.667 -68 -199 -136.333 -199 -205c0 -30.667 15.667 -46 47 -46z" />
    <glyph glyph-name="z" unicode="z" horiz-adv-x="625" 
d="M156 299l-304.002 -209c92 30 153.333 45 184 45c48 0 76.667 -26 86 -78l288 162l12 -13c-8 -16.667 -54 -48 -138 -94l-162 -86c-40.667 -134 -133 -254.5 -277 -361.5s-285.333 -160.5 -424 -160.5c-55.333 0 -83 19 -83 57c0 64 93 148 279 252l376 185
c19.333 35.333 29 59.333 29 72c0 15.333 -14.333 23 -43 23c-27.333 0 -64.333 -10 -111 -30c-43.333 -18.667 -77.666 -37.334 -102.999 -56.001h-80l413 286l-33 -3c-21.333 -1.33301 -50.333 4 -87 16c-56.667 -37.333 -119.667 -75.666 -189 -114.999l-13 12
c2 5.33301 63 46.333 183 123l-6 23c0 46 20.667 69 62 69c33.333 0 50 -15.667 50 -47c0 -24 -13 -40.667 -39 -50c8.66699 -4.66699 23.334 -7 44.001 -7c48 0 97.5 20.167 148.5 60.5s93.5 60.5 127.5 60.5c14.667 0 22 -7.33301 22 -22c0 -28 -28.667 -54 -86 -78
c-40 -16.667 -82 -28.667 -126 -36zM-632.002 -437c0 -25.333 17.666 -38 52.999 -38c90.667 0 195.334 53 314.001 159c88 78 169 170.333 243 277c-406.667 -184 -610 -316.667 -610 -398z" />
    <glyph glyph-name="braceleft" unicode="{" horiz-adv-x="821" 
d="M532 1206c-122 -4 -203.667 -33.001 -245 -87.001c-30.667 -40 -46 -110.333 -46 -211c0 -14 0.333008 -36.333 1 -67s1 -54.334 1 -71.001c0 -112 -25 -190 -75 -234c-31.333 -27.333 -107 -59 -227 -95c104.667 -22 179 -53.667 223 -95c38.667 -36 62 -89 70 -159
c2.66699 -23.333 4 -104.666 4 -243.999c0 -98.667 24.667 -168.667 74 -210c44.667 -37.333 117.334 -56 218.001 -56v-40c-126 12 -213.667 31.667 -263 59s-80 73.666 -92 138.999c-8 40 -12 130.333 -12 271c0 110.667 -22 187.334 -66 230.001
c-38.667 36.667 -114.334 63.667 -227.001 81v46c117.333 19.333 193.333 45.666 228 78.999c42 40 63 118 63 234c0 174.667 11.667 287.334 35 338.001c42 88.667 140.667 131.334 296 128.001l40 -1v-35z" />
    <glyph glyph-name="bar" unicode="|" horiz-adv-x="170" 
d="M-143 -341v1569h30v-1569h-30z" />
    <glyph glyph-name="braceright" unicode="}" horiz-adv-x="821" 
d="M537 463v-45.998c-104 -16 -177 -40.667 -219 -74c-38 -30 -60.667 -76.667 -68 -140c-2 -18.667 -3 -95.667 -3 -231c0 -132 -30.667 -220.667 -92 -266c-44.667 -32.667 -137.667 -55.667 -279 -69v40c102 0 175.333 18.333 220 55c37.333 31.333 60 81.666 68 150.999
c2 20.667 3 93 3 217c0 112 23 192.333 69 241c41.333 43.333 117.666 76.666 228.999 99.999c-110 33.333 -183.333 63.333 -220 90c-40 28.667 -64 71.334 -72 128.001c-3.33301 25.333 -5 107 -5 245c0 104.667 -22.667 180.167 -68 226.5s-120.666 71.5 -225.999 75.5
v35l39 1c149.333 3.33301 246 -35.667 290 -117c28 -52.667 42 -161.334 42 -326.001c0 -125.333 18.667 -208.333 56 -249c34 -37.333 112.667 -66.333 236 -87z" />
    <glyph glyph-name="asciitilde" unicode="~" horiz-adv-x="359" 
d="M365 614c-34.667 -84.667 -77 -127 -127 -127c-18.667 0 -43.167 6.66699 -73.5 20s-52.166 20 -65.499 20c-38 0 -70.333 -21.333 -97 -64h-19c46.667 90.667 93 136 139 136c16 0 39 -8.66699 69 -26s53 -26 69 -26c29.333 0 57.666 22.333 84.999 67h20z" />
    <glyph glyph-name="nonbreakingspace" unicode="&#xa0;" horiz-adv-x="1088" 
 />
    <glyph glyph-name="exclamdown" unicode="&#xa1;" 
d="M28 419h-54l245 293l-221 -124l-9 7l2 6c80.667 41.333 146.667 77.333 198 108c28 22 71.333 50 130 84l8 2l4 -6c-2 -6.66699 -103 -130 -303 -370z" />
    <glyph glyph-name="cent" unicode="&#xa2;" horiz-adv-x="438" 
d="M341 653l-9 2.00098c-40.667 0 -106.167 -47 -196.5 -141s-135.5 -161.333 -135.5 -202c0 -20.667 13.667 -31.334 41 -32.001zM359 679.001c38 51.333 82.3311 102.999 132.998 154.999l9 -10c-4 -15.333 -41.333 -66.333 -112 -153c36 -21.333 54 -46.666 54 -75.999
c0 -19.333 -5.33301 -36.666 -16 -51.999c-11.333 -18 -26 -27 -44 -27c-23.333 0 -35 12.667 -35 38c0 36 20 53.667 60 53c-9.33301 20 -21.333 33.333 -36 40l-292 -365c30.667 2.66699 88 24.667 172 66l11 -15l-4 -10c-84 -47.333 -152.333 -72 -205 -74
c-34 -46 -74 -93 -120 -141l-12 13c0.666992 2.66699 33.334 46 98.001 130c-50 17.333 -75 48.666 -75 93.999c0 86 48.333 165.667 145 239c92.667 71.333 182.334 103 269.001 95z" />
    <glyph glyph-name="sterling" unicode="&#xa3;" horiz-adv-x="1265" 
d="M674 409c87.333 26 173.334 62.667 258.001 110c118.667 66 178 127.667 178 185c0 26.667 -18.667 40 -56 40c-96.667 0 -223.334 -111.667 -380.001 -335zM-103.999 92c0 -19.333 33.668 -29 101.001 -29c48 0 100.333 7.33301 157 22
c-98.667 25.333 -160.334 38 -185.001 38c-48.667 0 -73 -10.333 -73 -31zM731.002 283l8.00293 -10.002c-8 -22.667 -31.333 -41.667 -70 -57c-33.333 -14 -64.333 -21 -93 -21c-22 0 -49 2.66699 -81 8c-45.333 -31.333 -129.333 -71.333 -252 -120
c62 -23.333 115.333 -35 160 -35s100.667 14 168 42l102 43l9 -16l-2 -6c-27.333 -26 -71 -48.333 -131 -67c-54 -16 -103 -24 -147 -24c-48.667 0 -117.334 16 -206.001 48c-77.333 -22 -146 -33 -206 -33c-83.333 0 -125 19 -125 57c0 39.333 40.333 59 121 59
c51.333 0 122 -17.667 212 -53c57.333 8.66699 123 50.334 197 125.001c-3.33301 0.666992 -19 6 -47 16c-19.333 6.66699 -35.333 10 -48 10c-8 0 -19.667 -2 -35 -6s-27 -6 -35 -6l-9 11c15.333 30 60.666 45 135.999 45c26 0 59 -3 99 -9
c17.333 14 32.666 34.333 45.999 61c-18 -4.66699 -40.333 -7 -67 -7c-63.333 0 -95 5.66699 -95 17c0 8 6.33301 13 19 15c8.66699 0.666992 21.334 0.333984 38.001 -0.999023l29 -4c44.667 0 76.334 3.66699 95.001 11c73.333 96 149.666 178.667 228.999 248
c111.333 97.333 207.666 146 288.999 146c65.333 0 98 -22.667 98 -68c0 -107.333 -166 -219 -498 -335c-26 -34.667 -55.667 -68 -89 -100c23.333 -9.33301 43.333 -14 60 -14c16 0 37.167 5 63.5 15s45.5 15 57.5 15z" />
    <glyph glyph-name="currency" unicode="&#xa4;" 
d="M67 435c18 0 44.668 13.1689 80.001 39.502s56 39.5 62 39.5l4 -6c-0.666992 -10.667 -22.834 -28.167 -66.501 -52.5s-72.5 -36.5 -86.5 -36.5c-23.333 0 -35 10.667 -35 32c0 11.333 3.33301 22.666 10 33.999c-26 -4 -77 -23 -153 -57l-3 7l4 6
c58.667 34.667 131.667 82 219 142l70 64c-46.667 -27.333 -80 -41 -100 -41c-24.667 0 -37 12.667 -37 38c0 38 26 72.667 78 104c46 28 89.667 42 131 42c34 0 51 -15.333 51 -46c0 -40.667 -35.667 -88 -107 -142l-162 -104c34.667 1.33301 52 -9.33398 52 -32.001
c0 -10.667 -3.66699 -21 -11 -31zM251.001 738.002l3 -6l17 27l-17 12c-24 0.666992 -62 -16 -114 -50c-54 -36 -81 -65 -81 -87l15 -14c41.333 -1.33301 100.333 38 177 118z" />
    <glyph glyph-name="section" unicode="&#xa7;" 
d="M102 612c37.333 18.667 67.6689 28.001 91.002 28.001c29.333 0 44 -16 44 -48c0 -39.333 -27 -78.333 -81 -117c-50.667 -37.333 -96.334 -56 -137.001 -56c-38 0 -57 18.667 -57 56c0 54 44 119.333 132 196s159.333 115 214 115c31.333 0 47 -14.333 47 -43
c0 -24.667 -10.667 -37 -32 -37c-18 0 -27 9.33301 -27 28c0 17.333 8.66699 29.666 26 36.999c-38.667 0 -79.334 -19.333 -122.001 -58zM-8.99707 456.001l2 -13l19 -8c26 -1.33301 64.5 21.5 115.5 68.5s76.5 83.167 76.5 108.5c0 9.33301 -6 14 -18 14
c-34 0 -74.667 -19.667 -122 -59c-48.667 -41.333 -73 -78.333 -73 -111z" />
    <glyph glyph-name="dieresis" unicode="&#xa8;" horiz-adv-x="313" 
d="M87 581c33.333 0 50 -17.998 50 -53.998c0 -34 -16.667 -51 -50 -51c-13.333 0 -25.333 5.16699 -36 15.5s-16 22.166 -16 35.499s5.16699 25.666 15.5 36.999s22.5 17 36.5 17zM295 581.002c33.333 0 50 -18.333 50 -55c0 -33.333 -16.667 -50 -50 -50
c-34.667 0 -52 17 -52 51c0 36 17.333 54 52 54z" />
    <glyph glyph-name="ordfeminine" unicode="&#xaa;" horiz-adv-x="1628" 
d="M2475 1811c18.667 0 27.999 -6.66797 27.999 -20.001c0 -14.667 -44.333 -35.667 -133 -63l-167 -48c-181.333 -67.333 -365.666 -191.666 -552.999 -372.999c-184.667 -178 -335.667 -374.667 -453 -590c-125.333 -230.667 -188 -441 -188 -631
c0 -96 11.333 -180.333 34 -253c0 -0.666992 5.66699 -15.667 17 -45c7.33301 -18.667 11 -34 11 -46c0 -16 -9 -24 -27 -24l-12 5c-60 134 -90 278 -90 432c0 356.667 134 687.667 402 993c244 278 544.667 479.333 902 604c112 39.333 188.333 59 229 59z" />
    <glyph glyph-name="guillemotleft" unicode="&#xab;" horiz-adv-x="562" 
d="M256 760c0 -36.667 -27.999 -75 -83.999 -115c-52.667 -37.333 -98 -56 -136 -56c-27.333 0 -41 16 -41 48c0 41.333 25 78.333 75 111c45.333 30 89.666 45 132.999 45c35.333 0 53 -11 53 -33zM-32.999 365l-3.99902 5l399 415l6 -4
c-3.33301 -14 -67.333 -86 -192 -216s-194.334 -196.667 -209.001 -200zM242.002 754c0 17.333 -9.33203 25.999 -27.999 25.999c-26.667 0 -65.334 -20.333 -116.001 -61c-52.667 -42 -78.667 -76 -78 -102l18 -12c30.667 -1.33301 71.667 15.334 123 50.001
c54 36.667 81 69.667 81 99zM432.003 586.999c0 -36 -28.333 -73.667 -85 -113c-52.667 -36.667 -98 -55 -136 -55c-28 0 -42 15.333 -42 46c0 40.667 25 78 75 112c46 30.667 90 46 132 46c37.333 0 56 -12 56 -36zM417.003 588.999
c-4.66699 14 -13.998 20.999 -27.998 20.999c-24.667 0 -63.334 -21 -116.001 -63s-79 -75 -79 -99c0 -8.66699 6 -13 18 -13c34.667 0 76.667 16.667 126 50c53.333 36.667 79.666 71.334 78.999 104.001z" />
    <glyph glyph-name="logicalnot" unicode="&#xac;" 
d="M59 433v-14h-120l-6 6c-0.666992 5.33301 4 8.33301 14 9c2.66699 0 8.66699 -0.333008 18 -1l270 321h-29v13h118l6 -7c0.666992 -4 -4 -6.33301 -14 -7c-3.33301 0 -9.33301 0.333008 -18 1l-268 -321h29z" />
    <glyph glyph-name="registered" unicode="&#xae;" 
d="M355 733c0 -22.667 -8.33105 -33.999 -24.998 -33.999c-13.333 0 -20 7.33301 -20 22c0 4 1.66699 9.66699 5 17s5 13 5 17c0 12.667 -11 24.667 -33 36l-102 -122c12.667 -34 19 -59 19 -75c0 -46 -19 -83.667 -57 -113c-34.667 -27.333 -75.667 -41 -123 -41
c-6.66699 0 -13.334 0.333008 -20.001 1c-27.333 -42.667 -45.333 -64.334 -54 -65.001l-7 9c10 13.333 24.667 34.333 44 63c-45.333 32.667 -68 59.667 -68 81c0 36.667 14.667 55 44 55l13 -5l8 -18c0.666992 -9.33301 -5.5 -18 -18.5 -26s-19.5 -13.667 -19.5 -17
c0 -8 16.667 -27 50 -57l139 173c-12 28.667 -18 49.334 -18 62.001c0 36 19 65.333 57 88c33.333 20.667 68.666 29.667 105.999 27c16 23.333 36.333 47 61 71l6 -9c-10.667 -16 -28 -39 -52 -69c40 -26.667 60 -50.334 60 -71.001zM176.002 686.001l91 109.002l-9 1
c-20.667 1.33301 -41.167 -5.83398 -61.5 -21.501s-30.5 -33.834 -30.5 -54.501c0 -8.66699 3.33301 -20 10 -34zM155.002 559.003c0 13.333 -4.66699 31.667 -14 55l-126 -157l19 -1c30.667 -2 58.5 7 83.5 27s37.5 45.333 37.5 76z" />
    <glyph glyph-name="degree" unicode="&#xb0;" 
d="M-26 477c0 36.667 21.334 68.333 64.001 95c19.333 12.667 56.666 29.667 111.999 51c-6.66699 18 -10 32.667 -10 44c0 32 17 61 51 87s67.667 39 101 39c13.333 0 25.833 -5.16699 37.5 -15.5s17.5 -22.166 17.5 -35.499c0 -40.667 -44 -78.334 -132 -113.001
c7.33301 -20 11 -37 11 -51c0 -38.667 -19.167 -74.667 -57.5 -108s-76.833 -50 -115.5 -50c-52.667 0 -79 19 -79 57zM281.001 777.999c-22 0 -43.667 -8.49902 -65 -25.499s-32 -36.167 -32 -57.5c0 -10.667 7.33301 -28.334 22 -53.001c84 29.333 126 62.333 126 99
c0 24.667 -17 37 -51 37zM54.001 435c30 0 58.667 10.833 86 32.5s41 47.167 41 76.5c0 15.333 -6.66699 36.333 -20 63c-38.667 -8.66699 -74.667 -23 -108 -43c-42.667 -26 -64 -54.667 -64 -86c0 -28.667 21.667 -43 65 -43z" />
    <glyph glyph-name="plusminus" unicode="&#xb1;" 
d="M-72 433c38.667 0 82.666 22 131.999 66c14.667 14 49.667 51.667 105 113c-52 -37.333 -93 -56 -123 -56c-25.333 0 -38 15.667 -38 47c0 40.667 27.333 79.667 82 117c50.667 34 97.334 51 140.001 51c33.333 0 50 -17.333 50 -52c0 -62.667 -44 -129 -132 -199
c-85.333 -67.333 -160 -101 -224 -101l-35 10c0 2.66699 14.333 4 43 4zM228.999 758c-26 0 -65.5 -23.332 -118.5 -69.999s-79.167 -82.334 -78.5 -107.001l15 -12c42.667 -2 97.667 34 165 108l5 -6c22.667 24 34 46 34 66c0 14 -7.33301 21 -22 21z" />
    <glyph glyph-name="acute" unicode="&#xb4;" horiz-adv-x="279" 
d="M248 631c-0.666992 55.333 18 82.999 56 82.999c19.333 0 29 -12 29 -36c0 -36 -24.667 -76 -74 -120c-40 -35.333 -81.333 -62.666 -124 -81.999l-7 9c56.667 35.333 96.667 84 120 146z" />
    <glyph glyph-name="periodcentered" unicode="&#xb7;" horiz-adv-x="594" 
d="M308 -144c0 -56.667 -24.5 -108.333 -73.5 -155s-101.833 -70 -158.5 -70c-12.667 0 -26.5 4.83301 -41.5 14.5s-22.5 20.5 -22.5 32.5c0 12.667 5.33301 23 16 31c4.66699 11.333 14 16.666 28 15.999c13.333 -6.66699 20 -14 20 -22
c-13.333 -13.333 -26.333 -17.666 -39 -12.999v-7c0 -18.667 15 -28 45 -28c46.667 0 88 26.667 124 80c33.333 49.333 50 98.333 50 147c0 28 -11.667 42 -35 42c-30 0 -57 -10 -81 -30l-64 -53v8c25.333 24.667 67.333 81.667 126 171h33l-68 -96c22 12.667 43 19 63 19
c52 0 78 -29 78 -87z" />
    <glyph glyph-name="periodcentered" unicode="&#x2219;" horiz-adv-x="594" 
d="M308 -144c0 -56.667 -24.5 -108.333 -73.5 -155s-101.833 -70 -158.5 -70c-12.667 0 -26.5 4.83301 -41.5 14.5s-22.5 20.5 -22.5 32.5c0 12.667 5.33301 23 16 31c4.66699 11.333 14 16.666 28 15.999c13.333 -6.66699 20 -14 20 -22
c-13.333 -13.333 -26.333 -17.666 -39 -12.999v-7c0 -18.667 15 -28 45 -28c46.667 0 88 26.667 124 80c33.333 49.333 50 98.333 50 147c0 28 -11.667 42 -35 42c-30 0 -57 -10 -81 -30l-64 -53v8c25.333 24.667 67.333 81.667 126 171h33l-68 -96c22 12.667 43 19 63 19
c52 0 78 -29 78 -87z" />
    <glyph glyph-name="ordmasculine" unicode="&#xba;" horiz-adv-x="1628" 
d="M-219 -315c-18.667 0 -28 5.66309 -28 16.9961c0 12 40 30.667 120 56l150 45c272 98.667 524.333 290.334 757 575.001c310.667 380.667 466 724.334 466 1031c0 94.667 -10.667 178.334 -32 251.001c-18.667 61.333 -28 91.333 -28 90c0 16 9.66699 24 29 24l10 -4
c60.667 -133.333 91 -276.333 91 -429c0 -355.333 -134.667 -686.666 -404 -993.999c-246.667 -282 -547.334 -483.667 -902.001 -605c-109.333 -38 -185.666 -57 -228.999 -57z" />
    <glyph glyph-name="guillemotright" unicode="&#xbb;" 
d="M193 616c146 47.333 218.999 95.667 218.999 145c0 13.333 -10.667 20 -32 20c-39.333 0 -101.666 -55 -186.999 -165zM-196.001 454.001c18 -7.33301 35.668 -11 53.001 -11c29.333 0 54.666 3.66699 75.999 11c-46 13.333 -75 20 -87 20c-28 0 -42 -6.66699 -42 -20z
M225 550.001l2 -3.99805c0.666992 -15.333 -16.333 -26.333 -51 -33c-24 -4 -48 -5.33301 -72 -4c-18 -12 -60 -31.667 -126 -59c32.667 -10.667 61 -16 85 -16c34.667 0 76.667 14 126 42h4l3 -11c-50 -30 -95 -45 -135 -45c-26 0 -61.667 8.66699 -107 26
c-37.333 -13.333 -71 -20 -101 -20c-42.667 0 -64 9.33301 -64 28c0 20.667 20.333 31 61 31c26 0 60.667 -8 104 -24c28.667 5.33301 62 25.666 100 60.999c-2.66699 0 -15 2.66699 -37 8c-13.333 3.33301 -27 2.33301 -41 -3l-9 6c0 11.333 17.667 18 53 20
c21.333 1.33301 43 1.33301 65 0c8 5.33301 15 14.666 21 27.999c-9.33301 -2 -18.333 -2.66699 -27 -2l-42 2l-10 5c0 4 17.333 6 52 6c18 0 30.667 1.33301 38 4c95.333 132 181.333 198 258 198c34 0 51 -11.333 51 -34c0 -44 -83.333 -100 -250 -168
c-10.667 -12 -26 -28 -46 -48c14.667 -5.33301 26.667 -8 36 -8c18 0 37.667 4.66699 59 14z" />
    <glyph glyph-name="Agrave" unicode="&#xc0;" horiz-adv-x="2074" 
d="M1534 98c53.333 11.333 111.332 31.334 173.999 60.001l165 78l8 1l8 -12l-5 -11c-118.667 -82 -242.667 -130.667 -372 -146l-41 -68h-135l50 79c-71.333 16.667 -128.666 35.667 -171.999 57c-38 19.333 -88.667 52.666 -152 99.999
c-226 -157.333 -433.667 -236 -623 -236c-67.333 0 -130.666 14 -189.999 42c-73.333 35.333 -110 83.333 -110 144c0 76.667 28.333 115 85 115c40.667 0 61 -21.333 61 -64c0 -52 -24.333 -78 -73 -78c-12 0 -23.333 4.66699 -34 14
c-0.666992 -49.333 32.666 -88.333 99.999 -117c52.667 -21.333 108 -32 166 -32c181.333 0 380.333 75.667 597 227c-150.667 158.667 -226 315 -226 469c0 95.333 23.667 176 71 242c53.333 73.333 126 110 218 110c183.333 0 324.333 -133.667 423 -401l347 308
c152.667 131.333 288 232 406 302c155.333 92 295.666 142 421 150c-118 -75.333 -317 -282 -597 -620c-5.33301 -5.33301 -195.333 -243 -570 -713zM1512 251.001l543.999 627c276 306 464 479.333 564 520c-149.333 -28 -340 -132.333 -572 -313
c-37.333 -28.667 -208.666 -175.667 -513.999 -441c11.333 -70.667 17 -128.667 17 -174c0 -72.667 -13 -145.667 -39 -219zM1060 269.001l226.999 186.999c85.333 72 158.333 137.667 219 197c-67.333 244 -192.333 366 -375 366c-87.333 0 -156.666 -32 -207.999 -96
c-47.333 -59.333 -71 -134 -71 -224c0 -139.333 69.333 -282.666 208 -429.999zM1404 103c80 116.667 120.001 245.332 120.001 385.999c0 43.333 -4 88 -12 134c-76.667 -71.333 -219.334 -194.666 -428.001 -369.999c99.333 -78 206 -128 320 -150zM2638 1534
c-40.667 18.667 -81.334 45.665 -122 80.998c-50.667 44.667 -76 83.334 -76 116.001c0 28.667 12.333 43 37 43c18 0 30.333 -11 37 -33c3.33301 -17.333 7 -34.666 11 -51.999c14 -52.667 53.667 -101.667 119 -147z" />
    <glyph glyph-name="Aacute" unicode="&#xc1;" horiz-adv-x="2074" 
d="M1534 98c53.333 11.333 111.332 31.334 173.999 60.001l165 78l8 1l8 -12l-5 -11c-118.667 -82 -242.667 -130.667 -372 -146l-41 -68h-135l50 79c-71.333 16.667 -128.666 35.667 -171.999 57c-38 19.333 -88.667 52.666 -152 99.999
c-226 -157.333 -433.667 -236 -623 -236c-67.333 0 -130.666 14 -189.999 42c-73.333 35.333 -110 83.333 -110 144c0 76.667 28.333 115 85 115c40.667 0 61 -21.333 61 -64c0 -52 -24.333 -78 -73 -78c-12 0 -23.333 4.66699 -34 14
c-0.666992 -49.333 32.666 -88.333 99.999 -117c52.667 -21.333 108 -32 166 -32c181.333 0 380.333 75.667 597 227c-150.667 158.667 -226 315 -226 469c0 95.333 23.667 176 71 242c53.333 73.333 126 110 218 110c183.333 0 324.333 -133.667 423 -401l347 308
c152.667 131.333 288 232 406 302c155.333 92 295.666 142 421 150c-118 -75.333 -317 -282 -597 -620c-5.33301 -5.33301 -195.333 -243 -570 -713zM1512 251.001l543.999 627c276 306 464 479.333 564 520c-149.333 -28 -340 -132.333 -572 -313
c-37.333 -28.667 -208.666 -175.667 -513.999 -441c11.333 -70.667 17 -128.667 17 -174c0 -72.667 -13 -145.667 -39 -219zM1060 269.001l226.999 186.999c85.333 72 158.333 137.667 219 197c-67.333 244 -192.333 366 -375 366c-87.333 0 -156.666 -32 -207.999 -96
c-47.333 -59.333 -71 -134 -71 -224c0 -139.333 69.333 -282.666 208 -429.999zM1404 103c80 116.667 120.001 245.332 120.001 385.999c0 43.333 -4 88 -12 134c-76.667 -71.333 -219.334 -194.666 -428.001 -369.999c99.333 -78 206 -128 320 -150zM2775 1706
c0 56.667 19 84.999 57 84.999c20 0 30 -12.333 30 -37c0 -35.333 -25 -75.333 -75 -120c-38.667 -34 -79.667 -61.667 -123 -83l-7 9c58 42.667 97.333 91.334 118 146.001z" />
    <glyph glyph-name="Acircumflex" unicode="&#xc2;" horiz-adv-x="2074" 
d="M1534 98c53.333 11.333 111.332 31.334 173.999 60.001l165 78l8 1l8 -12l-5 -11c-118.667 -82 -242.667 -130.667 -372 -146l-41 -68h-135l50 79c-71.333 16.667 -128.666 35.667 -171.999 57c-38 19.333 -88.667 52.666 -152 99.999
c-226 -157.333 -433.667 -236 -623 -236c-67.333 0 -130.666 14 -189.999 42c-73.333 35.333 -110 83.333 -110 144c0 76.667 28.333 115 85 115c40.667 0 61 -21.333 61 -64c0 -52 -24.333 -78 -73 -78c-12 0 -23.333 4.66699 -34 14
c-0.666992 -49.333 32.666 -88.333 99.999 -117c52.667 -21.333 108 -32 166 -32c181.333 0 380.333 75.667 597 227c-150.667 158.667 -226 315 -226 469c0 95.333 23.667 176 71 242c53.333 73.333 126 110 218 110c183.333 0 324.333 -133.667 423 -401l347 308
c152.667 131.333 288 232 406 302c155.333 92 295.666 142 421 150c-118 -75.333 -317 -282 -597 -620c-5.33301 -5.33301 -195.333 -243 -570 -713zM1512 251.001l543.999 627c276 306 464 479.333 564 520c-149.333 -28 -340 -132.333 -572 -313
c-37.333 -28.667 -208.666 -175.667 -513.999 -441c11.333 -70.667 17 -128.667 17 -174c0 -72.667 -13 -145.667 -39 -219zM1060 269.001l226.999 186.999c85.333 72 158.333 137.667 219 197c-67.333 244 -192.333 366 -375 366c-87.333 0 -156.666 -32 -207.999 -96
c-47.333 -59.333 -71 -134 -71 -224c0 -139.333 69.333 -282.666 208 -429.999zM1404 103c80 116.667 120.001 245.332 120.001 385.999c0 43.333 -4 88 -12 134c-76.667 -71.333 -219.334 -194.666 -428.001 -369.999c99.333 -78 206 -128 320 -150zM2740 1772
c15.333 -91.333 44.333 -167.333 87 -228l-13 -10c-38.667 30 -72 78 -100 144c-84.667 -70 -160.667 -115.333 -228 -136v7c85.333 60.667 165 135 239 223h15z" />
    <glyph glyph-name="Atilde" unicode="&#xc3;" horiz-adv-x="2074" 
d="M1536 98c53.333 11.333 111.336 31.334 174.003 60.001l165 78l8 1l8 -12l-5 -11c-118.667 -82 -242.667 -130.667 -372 -146l-41 -68h-135l50 79c-71.333 16.667 -128.333 35.667 -171 57c-38.667 19.333 -89.334 52.666 -152.001 99.999
c-226.667 -157.333 -434.334 -236 -623.001 -236c-68 0 -131.667 14 -191 42c-73.333 35.333 -110 83.333 -110 144c0 76.667 28.333 115 85 115c39.333 0 59 -21.333 59 -64c0 -52 -23.667 -78 -71 -78c-11.333 0 -22.666 4.66699 -33.999 14
c-0.666992 -49.333 32.666 -88.333 99.999 -117c52.667 -21.333 108 -32 166 -32c181.333 0 380.333 75.667 597 227c-150.667 158.667 -226 315 -226 469c0 95.333 23.667 176 71 242c53.333 73.333 126 110 218 110c183.333 0 324.666 -133.667 423.999 -401l346 308
c152.667 131.333 288 232 406 302c155.333 92 295.666 142 421 150c-117.333 -75.333 -316.333 -282 -597 -620c-4.66699 -5.33301 -194.667 -243 -570 -713zM1514 251.001l544 627c276 306 464.333 479.333 565 520c-150 -28 -341 -132.333 -573 -313
c-36.667 -28.667 -208 -175.667 -514 -441c11.333 -70.667 17 -128.667 17 -174c0 -72.667 -13 -145.667 -39 -219zM1062 269.001c141.333 116 216.999 178.332 226.999 186.999c86 72 159 137.667 219 197c-66.667 244 -191.667 366 -375 366
c-87.333 0 -156.666 -32 -207.999 -96c-47.333 -59.333 -71 -134 -71 -224c0 -139.333 69.333 -282.666 208 -429.999zM1406 103c80.667 116.667 121.001 245.333 121.001 386c0 43.333 -4.33301 88 -13 134c-76.667 -72 -219.334 -195.333 -428.001 -370
c99.333 -78 206 -128 320 -150zM2881 1662c-32 -85.333 -77.333 -128 -136 -128c-14.667 0 -36 7 -64 21s-49.333 21 -64 21c-38.667 0 -71.667 -22 -99 -66h-19c45.333 91.333 92.333 137 141 137c15.333 0 38 -8.66699 68 -26s53 -26 69 -26c30.667 0 59.667 22.333 87 67
h17z" />
    <glyph glyph-name="Adieresis" unicode="&#xc4;" horiz-adv-x="2074" 
d="M1534 98c53.333 11.333 111.332 31.334 173.999 60.001l165 78l8 1l8 -12l-5 -11c-118.667 -82 -242.667 -130.667 -372 -146l-41 -68h-135l50 79c-71.333 16.667 -128.666 35.667 -171.999 57c-38 19.333 -88.667 52.666 -152 99.999
c-226 -157.333 -433.667 -236 -623 -236c-67.333 0 -130.666 14 -189.999 42c-73.333 35.333 -110 83.333 -110 144c0 76.667 28.333 115 85 115c40.667 0 61 -21.333 61 -64c0 -52 -24.333 -78 -73 -78c-12 0 -23.333 4.66699 -34 14
c-0.666992 -49.333 32.666 -88.333 99.999 -117c52.667 -21.333 108 -32 166 -32c181.333 0 380.333 75.667 597 227c-150.667 158.667 -226 315 -226 469c0 95.333 23.667 176 71 242c53.333 73.333 126 110 218 110c183.333 0 324.333 -133.667 423 -401l347 308
c152.667 131.333 288 232 406 302c155.333 92 295.666 142 421 150c-118 -75.333 -317 -282 -597 -620c-5.33301 -5.33301 -195.333 -243 -570 -713zM1512 251.001l543.999 627c276 306 464 479.333 564 520c-149.333 -28 -340 -132.333 -572 -313
c-37.333 -28.667 -208.666 -175.667 -513.999 -441c11.333 -70.667 17 -128.667 17 -174c0 -72.667 -13 -145.667 -39 -219zM1060 269.001l226.999 186.999c85.333 72 158.333 137.667 219 197c-67.333 244 -192.333 366 -375 366c-87.333 0 -156.666 -32 -207.999 -96
c-47.333 -59.333 -71 -134 -71 -224c0 -139.333 69.333 -282.666 208 -429.999zM1404 103c80 116.667 120.001 245.332 120.001 385.999c0 43.333 -4 88 -12 134c-76.667 -71.333 -219.334 -194.666 -428.001 -369.999c99.333 -78 206 -128 320 -150zM2627 1641
c33.333 0 50 -18.333 50 -55c0 -34.667 -16.667 -52 -50 -52c-13.333 0 -25.333 5.33301 -36 16s-16 22.667 -16 36c0 14 5.16699 26.667 15.5 38s22.5 17 36.5 17zM2835 1641c33.333 0 50 -19.667 50 -59c0 -32 -16.667 -48 -50 -48c-34.667 0 -52 17.333 -52 52
c0 36.667 17.333 55 52 55z" />
    <glyph glyph-name="Aring" unicode="&#xc5;" horiz-adv-x="2074" 
d="M1534 98c53.333 11.333 111.332 31.334 173.999 60.001l165 78l8 1l8 -12l-5 -11c-118.667 -82 -242.667 -130.667 -372 -146l-41 -68h-135l50 79c-71.333 16.667 -128.666 35.667 -171.999 57c-38 19.333 -88.667 52.666 -152 99.999
c-226 -157.333 -433.667 -236 -623 -236c-67.333 0 -130.666 14 -189.999 42c-73.333 35.333 -110 83.333 -110 144c0 76.667 28.333 115 85 115c40.667 0 61 -21.333 61 -64c0 -52 -24.333 -78 -73 -78c-12 0 -23.333 4.66699 -34 14
c-0.666992 -49.333 32.666 -88.333 99.999 -117c52.667 -21.333 108 -32 166 -32c181.333 0 380.333 75.667 597 227c-150.667 158.667 -226 315 -226 469c0 95.333 23.667 176 71 242c53.333 73.333 126 110 218 110c183.333 0 324.333 -133.667 423 -401l347 308
c152.667 131.333 288 232 406 302c155.333 92 295.666 142 421 150c-118 -75.333 -317 -282 -597 -620c-5.33301 -5.33301 -195.333 -243 -570 -713zM1512 251.001l543.999 627c276 306 464 479.333 564 520c-149.333 -28 -340 -132.333 -572 -313
c-37.333 -28.667 -208.666 -175.667 -513.999 -441c11.333 -70.667 17 -128.667 17 -174c0 -72.667 -13 -145.667 -39 -219zM1060 269.001l226.999 186.999c85.333 72 158.333 137.667 219 197c-67.333 244 -192.333 366 -375 366c-87.333 0 -156.666 -32 -207.999 -96
c-47.333 -59.333 -71 -134 -71 -224c0 -139.333 69.333 -282.666 208 -429.999zM1404 103c80 116.667 120.001 245.332 120.001 385.999c0 43.333 -4 88 -12 134c-76.667 -71.333 -219.334 -194.666 -428.001 -369.999c99.333 -78 206 -128 320 -150zM2903 1634
c0 -28.667 -9.83301 -52.5 -29.5 -71.5s-43.834 -28.5 -72.5 -28.5c-28 0 -51.667 9.5 -71 28.5s-29 42.833 -29 71.5c0 28 10 51.833 30 71.5s44 29.5 72 29.5c26.667 0 50 -10 70 -30s30 -43.667 30 -71zM2736 1634c0 -43.333 22 -65 66 -65c42.667 0 64 21.667 64 65
c0 42 -20.667 63 -62 63c-45.333 0 -68 -21 -68 -63z" />
    <glyph glyph-name="AE" unicode="&#xc6;" horiz-adv-x="3228" 
d="M3642 1502c0 68 -52.667 101.999 -158 101.999c-121.333 0 -261.666 -64.667 -421 -194c-150.667 -122 -251 -243.333 -301 -364c162.667 32 332.334 84.333 509 157c247.333 102.667 371 202.334 371 299.001zM2941 849.999c21.333 0 32 7 32 21
c0 28.667 -43.667 42 -131 40h-17c44.667 -40.667 83.334 -61 116 -61zM1577 115.999c90 128.667 135 272.333 135 431c0 49.333 -4.33301 100 -13 152l-482 -415c112.667 -88 232.667 -144 360 -168zM3044 485.998c0 -148 -94.9961 -268.669 -284.996 -362.002
c-156 -76.667 -315.667 -115 -479 -115c-176 0 -291.333 42 -346 126c-70.667 -30 -149 -49.667 -235 -59c-18.667 -25.333 -34.667 -50.666 -48 -75.999h-150c17.333 36.667 36.333 65.667 57 87c-80.667 20 -145.334 42 -194.001 66c-42 20.667 -99 57.667 -171 111
c-254.667 -176 -487.667 -264 -699 -264c-84 0 -157.333 16.667 -220 50c-78.667 41.333 -118 100.333 -118 177c0 28.667 8.83301 54.167 26.5 76.5s40.5 33.5 68.5 33.5c45.333 0 68 -24.333 68 -73c0 -56.667 -26.667 -85 -80 -85c-13.333 0 -26.333 5 -39 15
c-1.33301 -55.333 36 -99 112 -131c59.333 -24.667 121.666 -37 186.999 -37c201.333 0 424.666 85.333 669.999 256c-168.667 176.667 -253 352 -253 526c0 108.667 26.667 199.667 80 273c60 82 142 123 246 123c207.333 0 365.666 -151 474.999 -453l388 348
c171.333 147.333 323.666 260.333 457 339c174 104 331.667 160.667 473 170c-90 -56.667 -218 -178.667 -384 -366c-47.333 -52.667 -166.333 -193.667 -357 -423c111.333 38.667 186.666 63.667 226 75c85.333 24.667 163 40.667 233 48
c-16.667 16.667 -27.667 41.334 -33 74.001c-63.333 -7.33301 -102.333 -11 -117 -11c-11.333 0 -17 4.33301 -17 13c0 12 43.333 20 130 24v20c0 152.667 94 289.667 282 411c167.333 107.333 329 161 485 161c124 0 186 -43.333 186 -130
c0 -111.333 -125.667 -220 -377 -326c-191.333 -81.333 -369 -134 -533 -158c1.33301 -30 10.333 -56 27 -78l52 1c110.667 4 166 -21.333 166 -76c0 -31.333 -23.667 -47 -71 -47c-33.333 0 -85.333 30.333 -156 91c-141.333 -7.33301 -281.666 -57.666 -421 -150.999
c-132.667 -88 -237.334 -195.667 -314 -323c-55.333 -92.667 -83 -165.334 -83 -218.001c0 -10.667 1.66699 -21.667 5 -33l417 278c176 109.333 328 164 456 164c50 0 94.667 -11 134 -33c48.667 -26.667 73 -63 73 -109zM2275 41.9961c152 0 304.333 35.332 457 105.999
c188 86.667 282 197.334 282 332.001c0 40 -20 70.333 -60 91c-32 17.333 -69.667 26 -113 26c-119.333 0 -269 -55.333 -449 -166l-415 -274c52 -76.667 151.333 -115 298 -115zM1723 108.995c43.333 9.33301 107 27 191 53c-22 40 -34.333 85.667 -37 137zM1191 298.995
c113.333 93.333 279.667 237.667 499 433c-30 118.667 -76.667 213.667 -140 285c-76 84.667 -169.333 127 -280 127c-98 0 -176 -35.667 -234 -107c-53.333 -66.667 -80 -150.334 -80 -251.001c0 -157.333 78.333 -319.666 235 -486.999zM1699 281.996l610 704
c310.667 345.333 521.667 540.333 633 585c-168.667 -32.667 -383 -150 -643 -352c-54.667 -42.667 -246.667 -208 -576 -496c12.667 -78.667 19 -143.667 19 -195c0 -81.333 -14.333 -163.333 -43 -246z" />
    <glyph glyph-name="Ccedilla" unicode="&#xc7;" horiz-adv-x="1543" 
d="M1891 1351c0 41.333 -39.332 62 -117.999 62c-156.667 0 -334.667 -74.667 -534 -224c-106.667 -80 -254 -214.333 -442 -403c183.333 22 348.666 63 495.999 123c398.667 162 598 309.333 598 442zM511.001 -79c20 13.333 41 20.0039 63 20.0039
c52.667 0 79 -28.333 79 -85c0 -60.667 -25.5 -113.667 -76.5 -159s-107.167 -68 -168.5 -68c-6.66699 0 -17 5.16699 -31 15.5s-21 18.833 -21 25.5c0 17.333 5.33301 29.666 16 36.999c5.33301 11.333 14.666 16.666 27.999 15.999l19 -20l-11 -11l-28 -4
c-2 -23.333 15.333 -35 52 -35c43.333 0 83 27.667 119 83c32 50 48 98 48 144c0 27.333 -12 41 -36 41c-31.333 0 -61.666 -13 -90.999 -39c-32.667 -28.667 -50.334 -43.334 -53.001 -44.001v9c32 30.667 71.333 84 118 160c-56 14.667 -102.333 39 -139 73
c-43.333 40 -65 86.667 -65 140c0 153.333 86.667 324.666 260 513.999c-20.667 -4 -42.334 -6 -65.001 -6c-87.333 0 -166.333 25 -237 75c-79.333 55.333 -119 125 -119 209c0 167.333 95.333 301.333 286 402c160 84 330.333 123.667 511 119l41 -2l12 -14l-9 -12
c-394.667 0 -655 -115 -781 -345c-22.667 -42 -34 -89.333 -34 -142c0 -80 38 -145.333 114 -196c66.667 -44.667 141.667 -67 225 -67c30.667 0 61.667 3.33301 93 10c150.667 148.667 328.667 290 534 424c256 167.333 458.333 251 607 251c96.667 0 145 -30 145 -90
c0 -149.333 -204 -303.666 -612 -462.999c-134 -52 -315.333 -98 -544 -138c-68 -60 -143 -150.667 -225 -272c-92.667 -138 -139 -241.667 -139 -311c0 -48 29 -85.333 87 -112c46 -20.667 96 -31 150 -31c115.333 0 246 41 392 123c163.333 92 245 191 245 297
c0 32.667 -15.333 58.667 -46 78c-26 15.333 -56.333 23 -91 23c-90.667 0 -190.667 -34 -300 -102c-77.333 -48.667 -156.666 -112.334 -237.999 -191.001l-100 -104l-10 11l4 10c50.667 90 146 179 286 267c143.333 88.667 265 133 365 133c42 0 77.333 -10.333 106 -31
c32 -23.333 48 -55.333 48 -96c0 -114 -81.333 -219 -244 -315c-148.667 -87.333 -291 -131 -427 -131c-21.333 0 -40.666 1.66699 -57.999 5z" />
    <glyph glyph-name="Egrave" unicode="&#xc8;" horiz-adv-x="1461" 
d="M331 1142c0 -159.333 129.666 -238.999 388.999 -238.999c68 0 128 7 180 21l-1 15c-2.66699 137.333 78.666 260.333 243.999 369c148 98 294.667 147 440 147c43.333 0 80.333 -8.33301 111 -25c38 -21.333 57 -52.333 57 -93c0 -96 -113 -192 -339 -288
c-174 -74 -331.667 -121.333 -473 -142c1.33301 -25.333 9.33301 -48 24 -68l45 1c99.333 4 149 -19 149 -69c0 -27.333 -20.333 -41 -61 -41c-36.667 0 -84 27.667 -142 83c-126 -8 -251 -53.333 -375 -136c-118 -78.667 -211 -174.667 -279 -288
c-48 -80 -72 -144.667 -72 -194c0 -56.667 35.333 -99.334 106 -128.001c51.333 -20 111 -30 179 -30c132.667 0 267 32 403 96c165.333 78.667 248 177 248 295c0 35.333 -17.667 62.333 -53 81c-28 14.667 -61.333 22 -100 22c-107.333 0 -223.666 -38.667 -348.999 -116
c-106.667 -66 -201.334 -147.667 -284.001 -245l-8 -4l-13 12l2 8c56 90.667 153 175.334 291 254.001s259.667 118 365 118c42.667 0 81.334 -10 116.001 -30c40.667 -24 61 -56 61 -96c0 -130 -85 -237 -255 -321c-140 -68.667 -282.333 -103 -427 -103
c-96 0 -175.667 18 -239 54c-78 45.333 -117 113 -117 203c0 161.333 92.667 298.333 278 411c152 92 318.667 146.333 500 163l-30 61c-55.333 -13.333 -118.666 -20 -189.999 -20c-272 0 -408 87 -408 261c0 135.333 81.333 240.666 244 315.999
c132 61.333 272.333 90 421 86l33 -1l15 -13l-13 -13l-245 -31c-98.667 -14 -177.334 -36 -236.001 -66c-77.333 -39.333 -134.666 -97 -171.999 -173c-13.333 -29.333 -20 -64 -20 -104zM1102 756.001c17.333 0 26 6 26 18c0 28 -37.333 41 -112 39h-19
c40.667 -38 75.667 -57 105 -57zM1724 1337c0 30 -14.667 53.333 -44 70c-24 14 -51.667 21 -83 21c-115.333 0 -243.333 -56 -384 -168c-133.333 -106 -224 -215.667 -272 -329c138 25.333 288.667 72.333 452 141c220.667 92 331 180.333 331 265zM1680 1529
c-40.667 20 -81 47.334 -121 82.001c-50.667 44 -76 82 -76 114c0 30 12.667 45 38 45c16.667 0 29.667 -11.667 39 -35c1.33301 -11.333 4.33301 -27.333 9 -48c14.667 -52.667 53.667 -102.334 117 -149.001z" />
    <glyph glyph-name="Eacute" unicode="&#xc9;" horiz-adv-x="1461" 
d="M331 1142c0 -159.333 129.666 -238.999 388.999 -238.999c68 0 128 7 180 21l-1 15c-2.66699 137.333 78.666 260.333 243.999 369c148 98 294.667 147 440 147c43.333 0 80.333 -8.33301 111 -25c38 -21.333 57 -52.333 57 -93c0 -96 -113 -192 -339 -288
c-174 -74 -331.667 -121.333 -473 -142c1.33301 -25.333 9.33301 -48 24 -68l45 1c99.333 4 149 -19 149 -69c0 -27.333 -20.333 -41 -61 -41c-36.667 0 -84 27.667 -142 83c-126 -8 -251 -53.333 -375 -136c-118 -78.667 -211 -174.667 -279 -288
c-48 -80 -72 -144.667 -72 -194c0 -56.667 35.333 -99.334 106 -128.001c51.333 -20 111 -30 179 -30c132.667 0 267 32 403 96c165.333 78.667 248 177 248 295c0 35.333 -17.667 62.333 -53 81c-28 14.667 -61.333 22 -100 22c-107.333 0 -223.666 -38.667 -348.999 -116
c-106.667 -66 -201.334 -147.667 -284.001 -245l-8 -4l-13 12l2 8c56 90.667 153 175.334 291 254.001s259.667 118 365 118c42.667 0 81.334 -10 116.001 -30c40.667 -24 61 -56 61 -96c0 -130 -85 -237 -255 -321c-140 -68.667 -282.333 -103 -427 -103
c-96 0 -175.667 18 -239 54c-78 45.333 -117 113 -117 203c0 161.333 92.667 298.333 278 411c152 92 318.667 146.333 500 163l-30 61c-55.333 -13.333 -118.666 -20 -189.999 -20c-272 0 -408 87 -408 261c0 135.333 81.333 240.666 244 315.999
c132 61.333 272.333 90 421 86l33 -1l15 -13l-13 -13l-245 -31c-98.667 -14 -177.334 -36 -236.001 -66c-77.333 -39.333 -134.666 -97 -171.999 -173c-13.333 -29.333 -20 -64 -20 -104zM1102 756.001c17.333 0 26 6 26 18c0 28 -37.333 41 -112 39h-19
c40.667 -38 75.667 -57 105 -57zM1724 1337c0 30 -14.667 53.333 -44 70c-24 14 -51.667 21 -83 21c-115.333 0 -243.333 -56 -384 -168c-133.333 -106 -224 -215.667 -272 -329c138 25.333 288.667 72.333 452 141c220.667 92 331 180.333 331 265zM1675 1682
c0 55.333 18.666 83.001 55.999 83.001c19.333 0 29 -12.667 29 -38c0 -35.333 -24.667 -75 -74 -119c-39.333 -35.333 -80.666 -63 -123.999 -83l-6 9c57.333 39.333 97 88.666 119 147.999z" />
    <glyph glyph-name="Ecircumflex" unicode="&#xca;" horiz-adv-x="1461" 
d="M331 1142c0 -159.333 129.666 -238.999 388.999 -238.999c68 0 128 7 180 21l-1 15c-2.66699 137.333 78.666 260.333 243.999 369c148 98 294.667 147 440 147c43.333 0 80.333 -8.33301 111 -25c38 -21.333 57 -52.333 57 -93c0 -96 -113 -192 -339 -288
c-174 -74 -331.667 -121.333 -473 -142c1.33301 -25.333 9.33301 -48 24 -68l45 1c99.333 4 149 -19 149 -69c0 -27.333 -20.333 -41 -61 -41c-36.667 0 -84 27.667 -142 83c-126 -8 -251 -53.333 -375 -136c-118 -78.667 -211 -174.667 -279 -288
c-48 -80 -72 -144.667 -72 -194c0 -56.667 35.333 -99.334 106 -128.001c51.333 -20 111 -30 179 -30c132.667 0 267 32 403 96c165.333 78.667 248 177 248 295c0 35.333 -17.667 62.333 -53 81c-28 14.667 -61.333 22 -100 22c-107.333 0 -223.666 -38.667 -348.999 -116
c-106.667 -66 -201.334 -147.667 -284.001 -245l-8 -4l-13 12l2 8c56 90.667 153 175.334 291 254.001s259.667 118 365 118c42.667 0 81.334 -10 116.001 -30c40.667 -24 61 -56 61 -96c0 -130 -85 -237 -255 -321c-140 -68.667 -282.333 -103 -427 -103
c-96 0 -175.667 18 -239 54c-78 45.333 -117 113 -117 203c0 161.333 92.667 298.333 278 411c152 92 318.667 146.333 500 163l-30 61c-55.333 -13.333 -118.666 -20 -189.999 -20c-272 0 -408 87 -408 261c0 135.333 81.333 240.666 244 315.999
c132 61.333 272.333 90 421 86l33 -1l15 -13l-13 -13l-245 -31c-98.667 -14 -177.334 -36 -236.001 -66c-77.333 -39.333 -134.666 -97 -171.999 -173c-13.333 -29.333 -20 -64 -20 -104zM1102 756.001c17.333 0 26 6 26 18c0 28 -37.333 41 -112 39h-19
c40.667 -38 75.667 -57 105 -57zM1724 1337c0 30 -14.667 53.333 -44 70c-24 14 -51.667 21 -83 21c-115.333 0 -243.333 -56 -384 -168c-133.333 -106 -224 -215.667 -272 -329c138 25.333 288.667 72.333 452 141c220.667 92 331 180.333 331 265zM1723 1772
c15.333 -91.333 44.333 -167 87 -227l-13 -11c-38.667 30 -72 78 -100 144c-84 -69.333 -159.333 -114.666 -226 -135.999v7c84.667 61.333 163.667 135.666 237 222.999h15z" />
    <glyph glyph-name="Edieresis" unicode="&#xcb;" horiz-adv-x="1461" 
d="M331 1142c0 -159.333 129.666 -238.999 388.999 -238.999c68 0 128 7 180 21l-1 15c-2.66699 137.333 78.666 260.333 243.999 369c148 98 294.667 147 440 147c43.333 0 80.333 -8.33301 111 -25c38 -21.333 57 -52.333 57 -93c0 -96 -113 -192 -339 -288
c-174 -74 -331.667 -121.333 -473 -142c1.33301 -25.333 9.33301 -48 24 -68l45 1c99.333 4 149 -19 149 -69c0 -27.333 -20.333 -41 -61 -41c-36.667 0 -84 27.667 -142 83c-126 -8 -251 -53.333 -375 -136c-118 -78.667 -211 -174.667 -279 -288
c-48 -80 -72 -144.667 -72 -194c0 -56.667 35.333 -99.334 106 -128.001c51.333 -20 111 -30 179 -30c132.667 0 267 32 403 96c165.333 78.667 248 177 248 295c0 35.333 -17.667 62.333 -53 81c-28 14.667 -61.333 22 -100 22c-107.333 0 -223.666 -38.667 -348.999 -116
c-106.667 -66 -201.334 -147.667 -284.001 -245l-8 -4l-13 12l2 8c56 90.667 153 175.334 291 254.001s259.667 118 365 118c42.667 0 81.334 -10 116.001 -30c40.667 -24 61 -56 61 -96c0 -130 -85 -237 -255 -321c-140 -68.667 -282.333 -103 -427 -103
c-96 0 -175.667 18 -239 54c-78 45.333 -117 113 -117 203c0 161.333 92.667 298.333 278 411c152 92 318.667 146.333 500 163l-30 61c-55.333 -13.333 -118.666 -20 -189.999 -20c-272 0 -408 87 -408 261c0 135.333 81.333 240.666 244 315.999
c132 61.333 272.333 90 421 86l33 -1l15 -13l-13 -13l-245 -31c-98.667 -14 -177.334 -36 -236.001 -66c-77.333 -39.333 -134.666 -97 -171.999 -173c-13.333 -29.333 -20 -64 -20 -104zM1102 756.001c17.333 0 26 6 26 18c0 28 -37.333 41 -112 39h-19
c40.667 -38 75.667 -57 105 -57zM1724 1337c0 30 -14.667 53.333 -44 70c-24 14 -51.667 21 -83 21c-115.333 0 -243.333 -56 -384 -168c-133.333 -106 -224 -215.667 -272 -329c138 25.333 288.667 72.333 452 141c220.667 92 331 180.333 331 265zM1558 1704
c34.667 0 52 -17.333 52 -52c0 -35.333 -17.333 -53 -52 -53c-13.333 0 -25.333 5.5 -36 16.5s-16 23.167 -16 36.5c0 34.667 17.333 52 52 52zM1766 1704c35.333 0 53 -17.333 53 -52c0 -35.333 -17.667 -53 -53 -53c-34.667 0 -52 17.667 -52 53c0 34.667 17.333 52 52 52
z" />
    <glyph glyph-name="Igrave" unicode="&#xcc;" horiz-adv-x="1485" 
d="M1458 736c68 4 132.001 26.998 192.001 68.998c46 32 94.667 79.667 146 143l127 164l10 5l12 -10c-0.666992 -6.66699 -27 -44 -79 -112c-68 -88 -128.667 -152.333 -182 -193c-76 -58.667 -157 -90 -243 -94c-294 -480.667 -631 -721 -1011 -721
c-72.667 0 -135.667 12.333 -189 37c-69.333 32.667 -104 81.667 -104 147c0 28.667 8.5 53.5 25.5 74.5s39.5 31.5 67.5 31.5c38 0 57 -19.667 57 -59c0 -42.667 -21 -64 -63 -64c-14 0 -27.667 7 -41 21c-4 -8 -6 -17.333 -6 -28c0 -50 31.333 -86.667 94 -110
c45.333 -16.667 98.666 -25 159.999 -25c208.667 0 389.667 75 543 225c86 84 204 248.333 354 493c-112 39.333 -168 110 -168 212c0 178.667 125.333 324.334 376 437.001c202.667 91.333 405.667 137 609 137c76.667 0 118.334 -6 125 -18l-6 -8
c-200 -67.333 -361 -163.666 -483 -288.999c-85.333 -88 -193 -243 -323 -465zM1343 753.998c137.333 196 260 344.331 368 444.998c146 136.667 309.333 235 490 295c-178 -1.33301 -345.667 -29.666 -503 -84.999c-184 -65.333 -323.333 -159.333 -418 -282
c-58 -74.667 -87 -146.667 -87 -216c0 -34.667 17 -67.667 51 -99c29.333 -27.333 62.333 -46.666 99 -57.999zM2260 1599c-42.667 20 -83.668 47.002 -123.001 81.002c-50 43.333 -75 82.333 -75 117c0 28 12.333 42 37 42c16.667 0 29.667 -11.667 39 -35
c1.33301 -10.667 4.33301 -27.334 9 -50.001c14.667 -52.667 54.334 -101.334 119.001 -146.001z" />
    <glyph glyph-name="Iacute" unicode="&#xcd;" horiz-adv-x="1485" 
d="M1458 736c68 4 132.001 26.998 192.001 68.998c46 32 94.667 79.667 146 143l127 164l10 5l12 -10c-0.666992 -6.66699 -27 -44 -79 -112c-68 -88 -128.667 -152.333 -182 -193c-76 -58.667 -157 -90 -243 -94c-294 -480.667 -631 -721 -1011 -721
c-72.667 0 -135.667 12.333 -189 37c-69.333 32.667 -104 81.667 -104 147c0 28.667 8.5 53.5 25.5 74.5s39.5 31.5 67.5 31.5c38 0 57 -19.667 57 -59c0 -42.667 -21 -64 -63 -64c-14 0 -27.667 7 -41 21c-4 -8 -6 -17.333 -6 -28c0 -50 31.333 -86.667 94 -110
c45.333 -16.667 98.666 -25 159.999 -25c208.667 0 389.667 75 543 225c86 84 204 248.333 354 493c-112 39.333 -168 110 -168 212c0 178.667 125.333 324.334 376 437.001c202.667 91.333 405.667 137 609 137c76.667 0 118.334 -6 125 -18l-6 -8
c-200 -67.333 -361 -163.666 -483 -288.999c-85.333 -88 -193 -243 -323 -465zM1343 753.998c137.333 196 260 344.331 368 444.998c146 136.667 309.333 235 490 295c-178 -1.33301 -345.667 -29.666 -503 -84.999c-184 -65.333 -323.333 -159.333 -418 -282
c-58 -74.667 -87 -146.667 -87 -216c0 -34.667 17 -67.667 51 -99c29.333 -27.333 62.333 -46.666 99 -57.999zM2292 1752c0 56.667 19.334 84.999 58.001 84.999c19.333 0 29 -12.333 29 -37c0 -36.667 -24.333 -77 -73 -121c-38.667 -34 -80.334 -61.333 -125.001 -82
l-6 9c56.667 38.667 95.667 87.334 117 146.001z" />
    <glyph glyph-name="Icircumflex" unicode="&#xce;" horiz-adv-x="1485" 
d="M1460 736c68 4 132.001 26.998 192.001 68.998c46 32 94.667 79.667 146 143l127 164l11 5l11 -10c-0.666992 -6.66699 -27 -44 -79 -112c-68 -88 -128.667 -152.333 -182 -193c-75.333 -58.667 -156.333 -90 -243 -94c-293.333 -480.667 -630 -721 -1010 -721
c-73.333 0 -136.666 12.333 -189.999 37c-69.333 32.667 -104 81.667 -104 147c0 28.667 8.66699 53.5 26 74.5s39.666 31.5 66.999 31.5c38 0 57 -19.667 57 -59c0 -42.667 -20.667 -64 -62 -64c-14.667 0 -28.667 7 -42 21c-4 -8 -6 -17.333 -6 -28
c0 -50 31.333 -86.667 94 -110c45.333 -16.667 98.666 -25 159.999 -25c208.667 0 389.667 75 543 225c86 84 204 248.333 354 493c-112 39.333 -168 110 -168 212c0 178.667 125.333 324.334 376 437.001c202.667 91.333 405.667 137 609 137c76.667 0 118.667 -6 126 -18
l-7 -8c-200 -67.333 -361 -163.666 -483 -288.999c-85.333 -88 -193 -243 -323 -465zM1345 753.998c138 196 260.667 344.331 368 444.998c146 136.667 309.333 235 490 295c-178 -1.33301 -345.667 -29.666 -503 -84.999c-184 -65.333 -323.333 -159.333 -418 -282
c-58 -74.667 -87 -146.667 -87 -216c0 -34.667 17 -67.667 51 -99c29.333 -27.333 62.333 -46.666 99 -57.999zM2284 1837c14.667 -91.333 43.667 -167 87 -227l-14 -11c-38.667 31.333 -71 78.666 -97 141.999c-90 -69.333 -166 -113.666 -228 -132.999v6
c87.333 64 167 138.333 239 223h13z" />
    <glyph glyph-name="Idieresis" unicode="&#xcf;" horiz-adv-x="1485" 
d="M1458 736c68 4 132.001 26.998 192.001 68.998c46 32 94.667 79.667 146 143l127 164l10 5l12 -10c-0.666992 -6.66699 -27 -44 -79 -112c-68 -88 -128.667 -152.333 -182 -193c-76 -58.667 -157 -90 -243 -94c-294 -480.667 -631 -721 -1011 -721
c-72.667 0 -135.667 12.333 -189 37c-69.333 32.667 -104 81.667 -104 147c0 28.667 8.5 53.5 25.5 74.5s39.5 31.5 67.5 31.5c38 0 57 -19.667 57 -59c0 -42.667 -21 -64 -63 -64c-14 0 -27.667 7 -41 21c-4 -8 -6 -17.333 -6 -28c0 -50 31.333 -86.667 94 -110
c45.333 -16.667 98.666 -25 159.999 -25c208.667 0 389.667 75 543 225c86 84 204 248.333 354 493c-112 39.333 -168 110 -168 212c0 178.667 125.333 324.334 376 437.001c202.667 91.333 405.667 137 609 137c76.667 0 118.334 -6 125 -18l-6 -8
c-200 -67.333 -361 -163.666 -483 -288.999c-85.333 -88 -193 -243 -323 -465zM1343 753.998c137.333 196 260 344.331 368 444.998c146 136.667 309.333 235 490 295c-178 -1.33301 -345.667 -29.666 -503 -84.999c-184 -65.333 -323.333 -159.333 -418 -282
c-58 -74.667 -87 -146.667 -87 -216c0 -34.667 17 -67.667 51 -99c29.333 -27.333 62.333 -46.666 99 -57.999zM2088 1748c34.667 0 52 -18.333 52 -55c0 -33.333 -17.333 -50 -52 -50c-12 0 -23.333 5.33301 -34 16s-16 22 -16 34c0 13.333 5 25.833 15 37.5
s21.667 17.5 35 17.5zM2297 1748c34.667 0 52 -18.333 52 -55c0 -33.333 -17.333 -50 -52 -50c-12.667 0 -24.167 5.16699 -34.5 15.5s-15.5 21.833 -15.5 34.5c0 36.667 16.667 55 50 55z" />
    <glyph glyph-name="Ntilde" unicode="&#xd1;" horiz-adv-x="1937" 
d="M1391 11l-6.99609 6.99707v8l54 131c20 50 33.333 96 40 138c22.667 153.333 50 283.333 82 390c28 94.667 75 218.667 141 372l-454 -546c-288 -346.667 -566 -520 -834 -520c-68.667 0 -128.334 13.667 -179.001 41c-63.333 34 -95 82.667 -95 146
c0 28.667 7.66699 53.5 23 74.5s36.666 31.5 63.999 31.5c18.667 0 35.334 -6.16699 50.001 -18.5s22 -27.5 22 -45.5c0 -44.667 -26.667 -67 -80 -67c-27.333 0 -45 12.333 -53 37c4.66699 -116.667 87.667 -175 249 -175c255.333 0 526.666 172 813.999 516l632 773l9 4
l12 -9l-2 -8l-86 -179c-32 -68 -54 -131.333 -66 -190c-34.667 -171.333 -62.334 -292.333 -83.001 -363c-24.667 -83.333 -66.334 -194.666 -125.001 -333.999l554 684c107.333 132.667 225 241.334 353 326.001c154.667 103.333 303 155 445 155
c55.333 0 106.666 -11.333 154 -34c58.667 -28 88 -67 88 -117c0 -21.333 -7.83301 -39.5 -23.5 -54.5s-33.834 -22.5 -54.5 -22.5c-33.333 0 -50 21.333 -50 64c0 29.333 25.333 49 76 59c-25.333 53.333 -87.333 80 -186 80c-140.667 0 -287.334 -50.333 -440 -151
c-125.333 -84 -241 -191.667 -347 -323l-350 -429c-134 -167.333 -244.667 -314.666 -332 -441.999zM1391 10.9971l-6.99609 6.99707v8l54 131c20 50 33.333 96 40 138c22.667 153.333 50 283.333 82 390c28 94.667 75 218.667 141 372l-454 -546
c-288 -346.667 -566 -520 -834 -520c-68.667 0 -128.334 13.667 -179.001 41c-63.333 34 -95 82.667 -95 146c0 28.667 7.66699 53.5 23 74.5s36.666 31.5 63.999 31.5c18.667 0 35.334 -6.16699 50.001 -18.5s22 -27.5 22 -45.5c0 -44.667 -26.667 -67 -80 -67
c-27.333 0 -45 12.333 -53 37c4.66699 -116.667 87.667 -175 249 -175c255.333 0 526.666 172 813.999 516l632 773l9 4l12 -9l-2 -8l-86 -179c-32 -68 -54 -131.333 -66 -190c-34.667 -171.333 -62.334 -292.333 -83.001 -363
c-24.667 -83.333 -66.334 -194.666 -125.001 -333.999l554 684c107.333 132.667 225 241.334 353 326.001c154.667 103.333 303 155 445 155c55.333 0 106.666 -11.333 154 -34c58.667 -28 88 -67 88 -117c0 -21.333 -7.83301 -39.5 -23.5 -54.5s-33.834 -22.5 -54.5 -22.5
c-33.333 0 -50 21.333 -50 64c0 29.333 25.333 49 76 59c-25.333 53.333 -87.333 80 -186 80c-140.667 0 -287.334 -50.333 -440 -151c-125.333 -84 -241 -191.667 -347 -323l-350 -429c-134 -167.333 -244.667 -314.666 -332 -441.999zM2475.01 1535.99
c-32.667 -84.667 -78 -127 -136 -127c-15.333 0 -36.833 7.16699 -64.5 21.5s-48.834 21.5 -63.5 21.5c-38.667 0 -71.667 -22.333 -99 -67h-20c45.333 90 92.666 135 142 135c16 0 38.833 -8.16699 68.5 -24.5s52.167 -24.5 67.5 -24.5c30.667 0 59.667 21.667 87 65h18z
" />
    <glyph glyph-name="Ograve" unicode="&#xd2;" horiz-adv-x="1300" 
d="M1844 1346c0 60.667 -32.666 105.669 -97.999 135.002c-48.667 22 -107.667 33 -177 33c-374 0 -750 -281.667 -1128 -845c-135.333 -202.667 -203 -365.334 -203 -488.001c0 -48.667 21 -85.334 63 -110.001c35.333 -20.667 78.666 -31 129.999 -31
c136 0 291.667 72 467 216c162.667 133.333 303 293.666 421 480.999c122 192.667 183 357.334 183 494.001c0 42 -12.333 78 -37 108c-26 33.333 -59.667 50 -101 50c-94.667 0 -196.667 -55.833 -306 -167.5s-164 -215.5 -164 -311.5c0 -30 9.16699 -55.833 27.5 -77.5
s42.5 -32.5 72.5 -32.5c96.667 0 185 55 265 165c58.667 80 107 179.333 145 298l11 9l13 -16c0 -88.667 -50.333 -190.334 -151 -305.001c-103.333 -118.667 -199.333 -178 -288 -178c-37.333 0 -67.166 13.333 -89.499 40s-33.5 59.334 -33.5 98.001
c0 120.667 52.333 234.834 157 342.501s216.667 161.5 336 161.5c51.333 0 92.333 -20 123 -60c28.667 -36.667 43 -81 43 -133c0 -140 -62.333 -308.333 -187 -505c-120.667 -190 -264.334 -352.333 -431.001 -487c-180 -146 -339.667 -219 -479 -219
c-82.667 0 -146.667 25.333 -192 76c-44 48.667 -66 115 -66 199c0 172 82.667 360 248 564c152.667 188.667 339 349.667 559 483c225.333 136.667 422.333 205 591 205c78 0 143.333 -12.667 196 -38c70 -33.333 105 -85.333 105 -156c0 -68 -33.667 -126 -101 -174
c-62 -44.667 -127.667 -65.334 -197 -62.001l-13 11l154 53c88 36 132 94 132 174zM1758 1643c-41.333 19.333 -82 46.333 -122 81c-50.667 44 -76 82.667 -76 116c0 28.667 13 43 39 43c16.667 0 29.667 -11.667 39 -35c1.33301 -11.333 4.33301 -28 9 -50
c15.333 -54 54.333 -102.667 117 -146z" />
    <glyph glyph-name="Oacute" unicode="&#xd3;" horiz-adv-x="1300" 
d="M1844 1346c0 60.667 -32.666 105.669 -97.999 135.002c-48.667 22 -107.667 33 -177 33c-374 0 -750 -281.667 -1128 -845c-135.333 -202.667 -203 -365.334 -203 -488.001c0 -48.667 21 -85.334 63 -110.001c35.333 -20.667 78.666 -31 129.999 -31
c136 0 291.667 72 467 216c162.667 133.333 303 293.666 421 480.999c122 192.667 183 357.334 183 494.001c0 42 -12.333 78 -37 108c-26 33.333 -59.667 50 -101 50c-94.667 0 -196.667 -55.833 -306 -167.5s-164 -215.5 -164 -311.5c0 -30 9.16699 -55.833 27.5 -77.5
s42.5 -32.5 72.5 -32.5c96.667 0 185 55 265 165c58.667 80 107 179.333 145 298l11 9l13 -16c0 -88.667 -50.333 -190.334 -151 -305.001c-103.333 -118.667 -199.333 -178 -288 -178c-37.333 0 -67.166 13.333 -89.499 40s-33.5 59.334 -33.5 98.001
c0 120.667 52.333 234.834 157 342.501s216.667 161.5 336 161.5c51.333 0 92.333 -20 123 -60c28.667 -36.667 43 -81 43 -133c0 -140 -62.333 -308.333 -187 -505c-120.667 -190 -264.334 -352.333 -431.001 -487c-180 -146 -339.667 -219 -479 -219
c-82.667 0 -146.667 25.333 -192 76c-44 48.667 -66 115 -66 199c0 172 82.667 360 248 564c152.667 188.667 339 349.667 559 483c225.333 136.667 422.333 205 591 205c78 0 143.333 -12.667 196 -38c70 -33.333 105 -85.333 105 -156c0 -68 -33.667 -126 -101 -174
c-62 -44.667 -127.667 -65.334 -197 -62.001l-13 11l154 53c88 36 132 94 132 174zM1786 1800c0 56.667 19.332 84.999 57.999 84.999c19.333 0 29 -12.333 29 -37c0 -36.667 -24.667 -76.667 -74 -120c-37.333 -33.333 -78.666 -61 -123.999 -83l-6 9
c58 42.667 97 91.334 117 146.001z" />
    <glyph glyph-name="Ocircumflex" unicode="&#xd4;" horiz-adv-x="1300" 
d="M1844 1346c0 60.667 -32.666 105.669 -97.999 135.002c-48.667 22 -107.667 33 -177 33c-374 0 -750 -281.667 -1128 -845c-135.333 -202.667 -203 -365.334 -203 -488.001c0 -48.667 21 -85.334 63 -110.001c35.333 -20.667 78.666 -31 129.999 -31
c136 0 291.667 72 467 216c162.667 133.333 303 293.666 421 480.999c122 192.667 183 357.334 183 494.001c0 42 -12.333 78 -37 108c-26 33.333 -59.667 50 -101 50c-94.667 0 -196.667 -55.833 -306 -167.5s-164 -215.5 -164 -311.5c0 -30 9.16699 -55.833 27.5 -77.5
s42.5 -32.5 72.5 -32.5c96.667 0 185 55 265 165c58.667 80 107 179.333 145 298l11 9l13 -16c0 -88.667 -50.333 -190.334 -151 -305.001c-103.333 -118.667 -199.333 -178 -288 -178c-37.333 0 -67.166 13.333 -89.499 40s-33.5 59.334 -33.5 98.001
c0 120.667 52.333 234.834 157 342.501s216.667 161.5 336 161.5c51.333 0 92.333 -20 123 -60c28.667 -36.667 43 -81 43 -133c0 -140 -62.333 -308.333 -187 -505c-120.667 -190 -264.334 -352.333 -431.001 -487c-180 -146 -339.667 -219 -479 -219
c-82.667 0 -146.667 25.333 -192 76c-44 48.667 -66 115 -66 199c0 172 82.667 360 248 564c152.667 188.667 339 349.667 559 483c225.333 136.667 422.333 205 591 205c78 0 143.333 -12.667 196 -38c70 -33.333 105 -85.333 105 -156c0 -68 -33.667 -126 -101 -174
c-62 -44.667 -127.667 -65.334 -197 -62.001l-13 11l154 53c88 36 132 94 132 174zM1775 1883c15.333 -93.333 44.332 -168.999 86.999 -226.999l-13 -11c-39.333 31.333 -72.666 78.666 -99.999 141.999c-82 -67.333 -158 -111.666 -228 -132.999v6
c85.333 59.333 165 133.666 239 222.999h15z" />
    <glyph glyph-name="Otilde" unicode="&#xd5;" horiz-adv-x="1300" 
d="M1842 1346c0 60.667 -32.666 105.67 -97.999 135.003c-49.333 22 -108.666 33 -177.999 33c-373.333 0 -749 -281.667 -1127 -845c-136 -202.667 -204 -365.334 -204 -488.001c0 -48.667 21.333 -85.334 64 -110.001c34.667 -20.667 78 -31 130 -31
c136 0 291.667 72 467 216c162.667 133.333 303 293.666 421 480.999c122 193.333 183 358 183 494c0 42 -12.333 78 -37 108c-26.667 33.333 -60.334 50 -101.001 50c-94.667 0 -196.667 -55.833 -306 -167.5s-164 -215.5 -164 -311.5c0 -30 9.16699 -55.833 27.5 -77.5
s42.5 -32.5 72.5 -32.5c96.667 0 185 55 265 165c58.667 80 106.667 179.333 144 298l12 9l12 -16c0 -88.667 -50 -190.334 -150 -305.001c-103.333 -118.667 -199.333 -178 -288 -178c-38 0 -68 13.333 -90 40s-33 59.334 -33 98.001c0 120.667 52.333 234.834 157 342.501
s216.667 161.5 336 161.5c50.667 0 91.667 -20 123 -60c28.667 -36.667 43 -81 43 -133c0 -140 -62.333 -308.333 -187 -505c-120.667 -190 -264.334 -352.333 -431.001 -487c-180 -146 -340 -219 -480 -219c-82 0 -145.667 25.333 -191 76c-44 48.667 -66 115 -66 199
c0 172 82.667 360 248 564c152.667 188.667 339 349.667 559 483c225.333 136.667 422.333 205 591 205c78 0 143.333 -12.667 196 -38c69.333 -33.333 104 -85.333 104 -156c0 -68 -33.333 -126 -100 -174c-62 -44.667 -127.667 -65.334 -197 -62.001l-13 11l154 53
c88 36 132 94 132 174zM1936 1791c-34.667 -84.667 -80.667 -127 -138 -127c-14.667 0 -36 6.83301 -64 20.5s-49.333 20.5 -64 20.5c-38.667 0 -71 -21.333 -97 -64h-19c44.667 90 91.334 135 140.001 135c15.333 0 38 -8.66699 68 -26s53 -26 69 -26
c29.333 0 57.666 22.333 84.999 67h20z" />
    <glyph glyph-name="Odieresis" unicode="&#xd6;" horiz-adv-x="1300" 
d="M1842 1346c0 60.667 -32.666 105.67 -97.999 135.003c-49.333 22 -108.666 33 -177.999 33c-373.333 0 -749 -281.667 -1127 -845c-136 -202.667 -204 -365.334 -204 -488.001c0 -48.667 21.333 -85.334 64 -110.001c34.667 -20.667 78 -31 130 -31
c136 0 291.667 72 467 216c162.667 133.333 303 293.666 421 480.999c122 193.333 183 358 183 494c0 42 -12.333 78 -37 108c-26.667 33.333 -60.334 50 -101.001 50c-94.667 0 -196.667 -55.833 -306 -167.5s-164 -215.5 -164 -311.5c0 -30 9.16699 -55.833 27.5 -77.5
s42.5 -32.5 72.5 -32.5c96.667 0 185 55 265 165c58.667 80 106.667 179.333 144 298l12 9l12 -16c0 -88.667 -50 -190.334 -150 -305.001c-103.333 -118.667 -199.333 -178 -288 -178c-38 0 -68 13.333 -90 40s-33 59.334 -33 98.001c0 120.667 52.333 234.834 157 342.501
s216.667 161.5 336 161.5c50.667 0 91.667 -20 123 -60c28.667 -36.667 43 -81 43 -133c0 -140 -62.333 -308.333 -187 -505c-120.667 -190 -264.334 -352.333 -431.001 -487c-180 -146 -340 -219 -480 -219c-82 0 -145.667 25.333 -191 76c-44 48.667 -66 115 -66 199
c0 172 82.667 360 248 564c152.667 188.667 339 349.667 559 483c225.333 136.667 422.333 205 591 205c78 0 143.333 -12.667 196 -38c69.333 -33.333 104 -85.333 104 -156c0 -68 -33.333 -126 -100 -174c-62 -44.667 -127.667 -65.334 -197 -62.001l-13 11l154 53
c88 36 132 94 132 174zM1610 1767c34.667 0 52 -18.001 52 -54.001c0 -34 -17.333 -51 -52 -51c-12.667 0 -24.5 5.33301 -35.5 16s-16.5 22.334 -16.5 35.001c0 14 5.16699 26.5 15.5 37.5s22.5 16.5 36.5 16.5zM1819 1767c34.667 0 52 -17.999 52 -53.999
c0 -34 -17.333 -51 -52 -51c-13.333 0 -25.5 5.16699 -36.5 15.5s-16.5 22.166 -16.5 35.499c0 36 17.667 54 53 54z" />
    <glyph glyph-name="Oslash" unicode="&#xd8;" horiz-adv-x="1461" 
d="M1643 1547l153.999 153h-15c-435.333 0 -865 -317 -1289 -951c-152 -227.333 -228 -409.666 -228 -546.999c0 -45.333 15.333 -80 46 -104l346 408c138.667 163.333 258.667 295.333 360 396c-31.333 30.667 -47 71.667 -47 123c0 129.333 57.833 255.666 173.5 378.999
s237.5 185 365.5 185c40.667 0 85.334 -14 134.001 -42zM1530 1559c-107.333 0 -222.167 -62.5 -344.5 -187.5s-183.5 -241.5 -183.5 -349.5c0 -40 12.333 -72 37 -96c124 136.667 318.667 335.667 584 597c-23.333 24 -54.333 36 -93 36zM2095 1509
c0 -72 -33.998 -135.002 -101.998 -189.002c-64 -50.667 -132.667 -75.667 -206 -75h-25l-15 14c3.33301 4.66699 34 14.667 92 30c65.333 17.333 115.333 39 150 65c52.667 38.667 79 91.334 79 158.001c0 54 -25 98.333 -75 133c-42.667 30 -92.667 47.333 -150 52
l-170 -185c24.667 -42 37 -92.667 37 -152c0 -154 -70.667 -340.667 -212 -560c-136.667 -211.333 -298.667 -392.333 -486 -543c-202.667 -163.333 -381 -245 -535 -245c-54 0 -108 12 -162 36c-50.667 -57.333 -109.667 -118.333 -177 -183l-15 12
c14.667 28 40.667 61.667 78 101l88 94c-67.333 52 -101 141 -101 267c0 178 93 380.667 279 608c173.333 212 382.333 394 627 546c254 158 474 237 660 237c23.333 0 45.666 -1.33301 66.999 -4c41.333 46.667 91.666 97.667 150.999 153l15 -13
c-12 -21.333 -31.667 -46.666 -59 -75.999l-66 -71c61.333 -7.33301 114 -28.333 158 -63c50 -39.333 75 -88.333 75 -147zM1093 871.998l-754 -796c38.667 -21.333 85.334 -32 140.001 -32c152 0 326.667 80.667 524 242c183.333 149.333 341.666 329 474.999 539
c137.333 216 206 400.333 206 553c0 42.667 -10.333 80 -31 112l-60 -66l9 -7l-1 -6c-19.333 -109.333 -75.333 -223 -168 -341c-104 -134 -207 -201 -309 -201c-10.667 0 -21 1 -31 3zM1569 1396l-452.001 -498c98.667 1.33301 194.334 61.666 287.001 180.999
c75.333 96.667 130.333 202.334 165 317.001z" />
    <glyph glyph-name="Ugrave" unicode="&#xd9;" horiz-adv-x="1548" 
d="M1847 1298l112.999 0.00292969l-576 -647c-332 -377.333 -498 -578.333 -498 -603c0 -16.667 15.333 -25 46 -25c66 0 150 36 252 108c110.667 77.333 171.667 117.333 183 120l13 -12c-3.33301 -30.667 -70.666 -79.667 -201.999 -147
c-128 -64.667 -212.333 -97 -253 -97c-52 0 -78 24.333 -78 73c0 44.667 21 98.667 63 162c13.333 21.333 49.666 69.333 108.999 144c-89.333 -82.667 -195 -161.334 -317 -236.001c-152.667 -94 -271 -141 -355 -141c-83.333 0 -125 27.333 -125 82
c0 80.667 81.333 205.667 244 375l451 447c162.667 168.667 244 293 244 373c0 54 -34.667 94.333 -104 121c-50 19.333 -107.333 29 -172 29c-145.333 0 -291 -34.667 -437 -104c-177.333 -84.667 -266 -192 -266 -322c0 -84 61.667 -126 185 -126
c108 0 233 42.667 375 128c121.333 73.333 226.666 158 315.999 254l10 5l12 -13l-2 -10c-49.333 -91.333 -152.666 -180.666 -309.999 -267.999c-153.333 -84.667 -283.666 -127 -390.999 -127c-58 0 -107.333 11 -148 33c-50 28 -75 68.667 -75 122
c0 139.333 92 254 276 344c152 74 305.333 111 460 111c83.333 0 152 -14.333 206 -43c68.667 -36.667 103 -93.334 103 -170.001c0 -106.667 -80.667 -253.334 -242 -440.001c-76 -88 -226 -240.667 -450 -458c-162 -156 -243 -250.333 -243 -283
c0 -8.66699 8.66699 -16.334 26 -23.001c14.667 -6 27 -9 37 -9c139.333 0 322 90.667 548 272c166.667 134 358.667 319 576 555zM1567 1403c-42 19.333 -82.667 46.333 -122 81c-50.667 44 -76 82.667 -76 116c0 28.667 13 43 39 43c16.667 0 29.667 -11.667 39 -35
c1.33301 -11.333 4.33301 -28 9 -50c14.667 -54 53.667 -103 117 -147z" />
    <glyph glyph-name="Uacute" unicode="&#xda;" horiz-adv-x="1548" 
d="M1849 1298l112.998 0.00292969l-576 -647c-332 -377.333 -498 -578.333 -498 -603c0 -16.667 15.333 -25 46 -25c66.667 0 151 36 253 108c110 77.333 170.667 117.333 182 120l14 -12c-4 -30.667 -71.667 -79.667 -203 -147c-128 -64.667 -212.333 -97 -253 -97
c-52 0 -78 24.333 -78 73c0 44.667 21 98.667 63 162c14 21.333 50.333 69.333 109 144c-89.333 -82.667 -195 -161.334 -317 -236.001c-152.667 -94 -271 -141 -355 -141c-83.333 0 -125 27.333 -125 82c0 80.667 81.333 205.667 244 375l452 447
c162 168.667 243 293 243 373c0 54 -34.667 94.333 -104 121c-50 19.333 -107.333 29 -172 29c-145.333 0 -291 -34.667 -437 -104c-177.333 -84.667 -266 -192 -266 -322c0 -84 61.667 -126 185 -126c108 0 233.333 42.667 376 128c121.333 73.333 226.333 158 315 254
l10 5l12 -13l-2 -10c-49.333 -91.333 -152.666 -180.666 -309.999 -267.999c-153.333 -84.667 -283.666 -127 -390.999 -127c-58 0 -107.333 11 -148 33c-50 28 -75 68.667 -75 122c0 139.333 92 254 276 344c152 74 305.333 111 460 111c83.333 0 152 -14.333 206 -43
c68.667 -36.667 103 -93.334 103 -170.001c0 -106.667 -80.667 -253.334 -242 -440.001c-76 -88 -226 -240.667 -450 -458c-162 -156 -243 -250.333 -243 -283c0 -8.66699 9 -16.334 27 -23.001c14 -6 26.333 -9 37 -9c138.667 0 321 90.667 547 272
c166.667 134 358.667 319 576 555zM1621 1516c0 56.667 18.667 85.001 56 85.001c19.333 0 29 -12.333 29 -37c0 -36 -25 -76 -75 -120c-38.667 -34.667 -79.667 -62.334 -123 -83.001l-7 9c58.667 40 98.667 88.667 120 146z" />
    <glyph glyph-name="Ucircumflex" unicode="&#xdb;" horiz-adv-x="1548" 
d="M1849 1298l112.998 0.00292969l-576 -647c-332 -377.333 -498 -578.333 -498 -603c0 -16.667 15.333 -25 46 -25c66.667 0 151 36 253 108c110 77.333 170.667 117.333 182 120l14 -12c-4 -30.667 -71.667 -79.667 -203 -147c-128 -64.667 -212.333 -97 -253 -97
c-52 0 -78 24.333 -78 73c0 44.667 21 98.667 63 162c14 21.333 50.333 69.333 109 144c-89.333 -82.667 -195 -161.334 -317 -236.001c-152.667 -94 -271 -141 -355 -141c-83.333 0 -125 27.333 -125 82c0 80.667 81.333 205.667 244 375l452 447
c162 168.667 243 293 243 373c0 54 -34.667 94.333 -104 121c-50 19.333 -107.333 29 -172 29c-145.333 0 -291 -34.667 -437 -104c-177.333 -84.667 -266 -192 -266 -322c0 -84 61.667 -126 185 -126c108 0 233.333 42.667 376 128c121.333 73.333 226.333 158 315 254
l10 5l12 -13l-2 -10c-49.333 -91.333 -152.666 -180.666 -309.999 -267.999c-153.333 -84.667 -283.666 -127 -390.999 -127c-58 0 -107.333 11 -148 33c-50 28 -75 68.667 -75 122c0 139.333 92 254 276 344c152 74 305.333 111 460 111c83.333 0 152 -14.333 206 -43
c68.667 -36.667 103 -93.334 103 -170.001c0 -106.667 -80.667 -253.334 -242 -440.001c-76 -88 -226 -240.667 -450 -458c-162 -156 -243 -250.333 -243 -283c0 -8.66699 9 -16.334 27 -23.001c14 -6 26.333 -9 37 -9c138.667 0 321 90.667 547 272
c166.667 134 358.667 319 576 555zM1627 1641c16 -93.333 44.333 -169.331 85 -227.998l-13 -10c-38 31.333 -70.667 78.666 -98 141.999c-91.333 -70.667 -167.333 -115.334 -228 -134.001v7c81.333 56 161 130.333 239 223h15z" />
    <glyph glyph-name="Udieresis" unicode="&#xdc;" horiz-adv-x="1548" 
d="M1849 1298l112.998 0.00292969l-576 -647c-332 -377.333 -498 -578.333 -498 -603c0 -16.667 15.333 -25 46 -25c66.667 0 151 36 253 108c110 77.333 170.667 117.333 182 120l14 -12c-4 -30.667 -71.667 -79.667 -203 -147c-128 -64.667 -212.333 -97 -253 -97
c-52 0 -78 24.333 -78 73c0 44.667 21 98.667 63 162c14 21.333 50.333 69.333 109 144c-89.333 -82.667 -195 -161.334 -317 -236.001c-152.667 -94 -271 -141 -355 -141c-83.333 0 -125 27.333 -125 82c0 80.667 81.333 205.667 244 375l452 447
c162 168.667 243 293 243 373c0 54 -34.667 94.333 -104 121c-50 19.333 -107.333 29 -172 29c-145.333 0 -291 -34.667 -437 -104c-177.333 -84.667 -266 -192 -266 -322c0 -84 61.667 -126 185 -126c108 0 233.333 42.667 376 128c121.333 73.333 226.333 158 315 254
l10 5l12 -13l-2 -10c-49.333 -91.333 -152.666 -180.666 -309.999 -267.999c-153.333 -84.667 -283.666 -127 -390.999 -127c-58 0 -107.333 11 -148 33c-50 28 -75 68.667 -75 122c0 139.333 92 254 276 344c152 74 305.333 111 460 111c83.333 0 152 -14.333 206 -43
c68.667 -36.667 103 -93.334 103 -170.001c0 -106.667 -80.667 -253.334 -242 -440.001c-76 -88 -226 -240.667 -450 -458c-162 -156 -243 -250.333 -243 -283c0 -8.66699 9 -16.334 27 -23.001c14 -6 26.333 -9 37 -9c138.667 0 321 90.667 547 272
c166.667 134 358.667 319 576 555zM1441 1529c33.333 0 50 -17.333 50 -52c0 -35.333 -16.667 -53 -50 -53c-13.333 0 -25.5 5.5 -36.5 16.5s-16.5 23.167 -16.5 36.5s5.5 25.333 16.5 36s23.167 16 36.5 16zM1649 1529c33.333 0 50 -17.333 50 -52
c0 -35.333 -16.667 -53 -50 -53c-34.667 0 -52 17.667 -52 53c0 34.667 17.333 52 52 52z" />
    <glyph glyph-name="germandbls" unicode="&#xdf;" horiz-adv-x="855" 
d="M-67 273l89 101l-59 -31c-23.333 -15.333 -35 -32.333 -35 -51zM-159 175l61 70l-6 30zM454 177c31.333 5.33301 81.3311 28.3311 149.998 68.998l15 -16l-4 -12c-57.333 -49.333 -119.666 -75.333 -186.999 -78c-40.667 -36.667 -87.334 -69 -140.001 -97
c-62.667 -34 -116 -51 -160 -51c-74 0 -111 27.667 -111 83c0 60.667 24.667 91 74 91c30.667 0 46 -13.667 46 -41c0 -47.333 -27 -70 -81 -68c2 -21.333 13.333 -32 34 -32c80 0 158.333 54 235 162c69.333 98.667 107.333 191.334 114 278.001
c6.66699 92.667 58 175.667 154 249l281 191c110 85.333 180.667 183.333 212 294l2 15c0 30 -18 45 -54 45c-101.333 0 -255.666 -122.667 -462.999 -368l-1240 -1468h-128l359 422c122.667 150.667 223 298.334 301 443.001c-30.667 -23.333 -69 -48.333 -115 -75l-13 15
l6 12l148 96c10.667 44.667 20.334 75 29.001 91c17.333 31.333 42.333 47 75 47c10 0 18.833 -5.16699 26.5 -15.5s10.5 -20.5 8.5 -30.5c29.333 19.333 71.333 50.666 126 93.999l421 450c210 212 365 318 465 318c20.667 0 38.834 -7 54.501 -21s23.5 -31 23.5 -51
c0 -66.667 -25.333 -142.667 -76 -228c-44 -75.333 -95 -138.666 -153 -189.999c-36 -32 -92.833 -64 -170.5 -96s-129.834 -60 -156.501 -84c-46 -42 -69.667 -102.333 -71 -181c0 -12 0.666992 -29.333 2 -52s2 -39.334 2 -50.001
c0 -59.333 -13.667 -112.666 -41 -159.999z" />
    <glyph glyph-name="agrave" unicode="&#xe0;" horiz-adv-x="703" 
d="M291 502c-41.333 20 -82 47.668 -122 83.001c-50.667 44 -76 83 -76 117c0 27.333 12.333 41 37 41c16.667 0 29.667 -11.667 39 -35l9 -48c15.333 -52.667 54.333 -102.334 117 -149.001zM-158 24.001c60 0 139 37.334 237 112.001c101.333 78 152 145.667 152 203
c0 34 -19.333 51 -58 51c-48 0 -122.333 -43.333 -223 -130s-151 -153.334 -151 -200.001c0 -24 14.333 -36 43 -36zM-256 101.002c0 77.333 51 150.999 153 220.999c94 64.667 181.667 97 263 97c67.333 0 101 -25.667 101 -77c0 -12 -2.33301 -25.667 -7 -41
c16.667 16.667 51.667 56 105 118h115l-176 -192c-94.667 -106 -142.667 -166.667 -144 -182l16 -13c34 -1.33301 93.833 28.834 179.5 90.501s129.834 92.834 132.501 93.501l12 -15c-0.666992 -22.667 -51.334 -62.334 -152.001 -119.001c-98 -56 -161.667 -84 -191 -84
c-40 0 -60 21.333 -60 64c0 18 3 35.333 9 52c-98.667 -78 -182 -117 -250 -117c-70.667 0 -106 34.667 -106 104z" />
    <glyph glyph-name="aacute" unicode="&#xe1;" horiz-adv-x="703" 
d="M376 662c0 55.333 19.333 82.999 58 82.999c19.333 0 29 -12.333 29 -37c0 -35.333 -25 -75 -75 -119c-39.333 -35.333 -80.333 -63.333 -123 -84l-6 8c55.333 38.667 94.333 88.334 117 149.001zM-158 23.999c60 0 139 37.334 237 112.001
c101.333 78 152 145.667 152 203c0 34 -19.333 51 -58 51c-48 0 -122.333 -43.333 -223 -130s-151 -153.334 -151 -200.001c0 -24 14.333 -36 43 -36zM-256 101c0 77.333 51 150.999 153 220.999c94 64.667 181.667 97 263 97c67.333 0 101 -25.667 101 -77
c0 -12 -2.33301 -25.667 -7 -41c16.667 16.667 51.667 56 105 118h115l-176 -192c-94.667 -106 -142.667 -166.667 -144 -182l16 -13c34 -1.33301 93.833 28.834 179.5 90.501s129.834 92.834 132.501 93.501l12 -15c-0.666992 -22.667 -51.334 -62.334 -152.001 -119.001
c-98 -56 -161.667 -84 -191 -84c-40 0 -60 21.333 -60 64c0 18 3 35.333 9 52c-98.667 -78 -182 -117 -250 -117c-70.667 0 -106 34.667 -106 104z" />
    <glyph glyph-name="acircumflex" unicode="&#xe2;" horiz-adv-x="703" 
d="M-158 24c60 0 139 37.334 237 112.001c101.333 78 152 145.667 152 203c0 34 -19.333 51 -58 51c-48 0 -122.333 -43.333 -223 -130s-151 -153.334 -151 -200.001c0 -24 14.333 -36 43 -36zM-256 101.001c0 77.333 51 151 153 221c94 64.667 181.667 97 263 97
c67.333 0 101 -25.667 101 -77c0 -12 -2.33301 -25.667 -7 -41c16.667 16.667 51.667 56 105 118h115l-175 -192c-95.333 -107.333 -143.666 -167.333 -144.999 -180l13 -9c64 -2.66699 169 59 315 185l13 -15c-0.666992 -26.667 -50.334 -67.667 -149.001 -123
c-95.333 -53.333 -160 -80 -194 -80c-40.667 0 -61 19 -61 57c0 18 3 35.333 9 52c-98.667 -78 -182 -117 -250 -117c-70.667 0 -106 34.667 -106 104zM389 741.001c15.333 -92 44.333 -168 87 -228l-13 -11c-38.667 30.667 -72 79 -100 145
c-84.667 -70 -160.667 -115.333 -228 -136v7c85.333 60.667 165 135 239 223h15z" />
    <glyph glyph-name="atilde" unicode="&#xe3;" horiz-adv-x="703" 
d="M541 631c-35.333 -86 -80.998 -129 -136.998 -129c-14.667 0 -36 7.16699 -64 21.5s-49.333 21.5 -64 21.5c-35.333 0 -68 -21.333 -98 -64h-19c46.667 90 93.334 135 140.001 135c15.333 0 38.166 -8.66699 68.499 -26s53.166 -26 68.499 -26
c31.333 0 59.666 22.333 84.999 67h20zM-157.998 24c60 0 139 37.334 237 112.001c101.333 78 152 145.667 152 203c0 34 -19.333 51 -58 51c-48 0 -122.333 -43.333 -223 -130s-151 -153.334 -151 -200.001c0 -24 14.333 -36 43 -36zM-255.998 101.001
c0 77.333 51 150.999 153 220.999c94 64.667 181.667 97 263 97c67.333 0 101 -25.667 101 -77c0 -12 -2.33301 -25.667 -7 -41c16.667 16.667 51.667 56 105 118h115l-176 -192c-94.667 -106 -142.667 -166.667 -144 -182l16 -13c34 -1.33301 93.833 28.834 179.5 90.501
s129.834 92.834 132.501 93.501l12 -15c-0.666992 -22.667 -51.334 -62.334 -152.001 -119.001c-98 -56 -161.667 -84 -191 -84c-40 0 -60 21.333 -60 64c0 18 3 35.333 9 52c-98.667 -78 -182 -117 -250 -117c-70.667 0 -106 34.667 -106 104z" />
    <glyph glyph-name="adieresis" unicode="&#xe4;" horiz-adv-x="703" 
d="M417 610c34.667 0 52 -18.333 52 -55c0 -35.333 -17.333 -53 -52 -53s-52 17.667 -52 53c0 36.667 17.333 55 52 55zM269 610c33.333 0 50 -18.333 50 -55c0 -35.333 -16.667 -53 -50 -53c-34.667 0 -52 17.667 -52 53c0 36.667 17.333 55 52 55zM-158 24
c60 0 139 37.334 237 112.001c101.333 78 152 145.667 152 203c0 34 -19.333 51 -58 51c-48 0 -122.333 -43.333 -223 -130s-151 -153.334 -151 -200.001c0 -24 14.333 -36 43 -36zM-256 101.001c0 77.333 51 150.999 153 220.999c94 64.667 181.667 97 263 97
c67.333 0 101 -25.667 101 -77c0 -12 -2.33301 -25.667 -7 -41c16.667 16.667 51.667 56 105 118h115l-176 -192c-94.667 -106 -142.667 -166.667 -144 -182l16 -13c34 -1.33301 93.833 28.834 179.5 90.501s129.834 92.834 132.501 93.501l12 -15
c-0.666992 -22.667 -51.334 -62.334 -152.001 -119.001c-98 -56 -161.667 -84 -191 -84c-40 0 -60 21.333 -60 64c0 18 3 35.333 9 52c-98.667 -78 -182 -117 -250 -117c-70.667 0 -106 34.667 -106 104z" />
    <glyph glyph-name="aring" unicode="&#xe5;" horiz-adv-x="703" 
d="M450 603c0 -28.667 -10.166 -52.5 -30.499 -71.5s-44.833 -28.5 -73.5 -28.5c-28 0 -51.333 9.66699 -70 29s-28 43 -28 71s9.66699 51.667 29 71s43 29 71 29c27.333 0 51.166 -9.83301 71.499 -29.5s30.5 -43.167 30.5 -70.5zM282.001 603c0 -43.333 21.667 -65 65 -65
c44 0 66 21.667 66 65s-21.667 65 -65 65c-44 0 -66 -21.667 -66 -65zM-157.999 24c60 0 139 37.334 237 112.001c101.333 78 152 145.667 152 203c0 34 -19.333 51 -58 51c-48 0 -122.333 -43.333 -223 -130s-151 -153.334 -151 -200.001c0 -24 14.333 -36 43 -36z
M-255.999 101.001c0 77.333 51 150.999 153 220.999c94 64.667 181.667 97 263 97c67.333 0 101 -25.667 101 -77c0 -12 -2.33301 -25.667 -7 -41c16.667 16.667 51.667 56 105 118h115l-176 -192c-94.667 -106 -142.667 -166.667 -144 -182l16 -13
c34 -1.33301 93.833 28.834 179.5 90.501s129.834 92.834 132.501 93.501l12 -15c-0.666992 -22.667 -51.334 -62.334 -152.001 -119.001c-98 -56 -161.667 -84 -191 -84c-40 0 -60 21.333 -60 64c0 18 3 35.333 9 52c-98.667 -78 -182 -117 -250 -117
c-70.667 0 -106 34.667 -106 104z" />
    <glyph glyph-name="ae" unicode="&#xe6;" horiz-adv-x="895" 
d="M313 262c81.333 28.667 131 47 149 55c69.333 32 104 64 104 96c0 18 -8.33301 27 -25 27c-55.333 0 -131.333 -59.333 -228 -178zM192 439c-53.333 0 -135.999 -48.668 -247.999 -146.001c-113.333 -99.333 -170 -174.666 -170 -225.999c0 -26.667 20 -40 60 -40
c72 0 165.667 49.333 281 148c17.333 51.333 63.666 110.333 138.999 177c4 9.33301 6 19.333 6 30c0 16 -7.66699 30 -23 42c-14 10 -29 15 -45 15zM300.001 471.999h108.002l-28 -39c62 26.667 112 40 150 40c47.333 0 71 -17 71 -51c0 -48.667 -36.333 -91 -109 -127
l-201 -87c-72.667 -37.333 -109 -82.333 -109 -135c0 -27.333 17 -41 51 -41c73.333 0 164 35.333 272 106l163 109l12 -16l-6 -13c-98.667 -70.667 -166.334 -117 -203.001 -139c-92 -55.333 -166.333 -83 -223 -83c-97.333 0 -146 41.333 -146 124
c-106.667 -82.667 -194.334 -124 -263.001 -124c-84 0 -126 38.667 -126 116c0 88 57.333 171.333 172 250c104.667 72.667 203 109 295 109c46.667 0 78 -12 94 -36z" />
    <glyph glyph-name="ccedilla" unicode="&#xe7;" horiz-adv-x="466" 
d="M-256 101c0 72.667 46.001 144.332 138.001 214.999c87.333 67.333 168 101 242 101c62 0 93 -20.667 93 -62c0 -19.333 -7.16699 -36.5 -21.5 -51.5s-31.166 -22.5 -50.499 -22.5c-30 0 -45 12.667 -45 38c0 33.333 18.667 50 56 50
c9.33301 0 19.666 -3.66699 30.999 -11c-12.667 20.667 -29.667 31 -51 31c-52 0 -121.167 -41.833 -207.5 -125.5s-129.5 -151.5 -129.5 -203.5c0 -22.667 19 -34 57 -34c60 0 138.667 31 236 93c104 66 157 99 159 99l13 -12c0 -29.333 -62.667 -72.333 -188 -129
c-120.667 -54.667 -200.334 -81 -239.001 -79l-39 -57c16.667 10 33.667 15 51 15c45.333 0 68 -24.333 68 -73s-20.667 -92.667 -62 -132s-86.666 -59 -135.999 -59c-23.333 0 -41.333 11 -54 33c-0.666992 10.667 2.83301 21.167 10.5 31.5s16.5 15.5 26.5 15.5l11 -8
l5 -11c-10 -13.333 -20.333 -17.666 -31 -12.999c-3.33301 -20 7.66699 -30 33 -30c41.333 0 77.666 22.667 108.999 68c29.333 41.333 44 83.666 44 126.999c0 24 -10.667 36 -32 36c-42 0 -76.667 -19.667 -104 -59l-19 -13v9c27.333 26.667 58.333 67.334 93 122.001
c-44.667 13.333 -67 47 -67 101z" />
    <glyph glyph-name="egrave" unicode="&#xe8;" horiz-adv-x="453" 
d="M139 502c-40.667 20 -81 47.666 -121 82.999c-51.333 44.667 -77 83.334 -77 116.001c0 28 13 42 39 42c16.667 0 30 -11.667 40 -35c1.33301 -10.667 4 -26.667 8 -48c16 -56 55.333 -105.667 118 -149zM240 219.999l10.0029 -16l-4 -10
c-182 -131.333 -307.667 -197 -377 -197c-87.333 0 -131 33.667 -131 101c0 72 45.667 144.667 137 218c87.333 70 167.666 105 240.999 105c42 0 63 -17.333 63 -52c0 -40 -32 -75.333 -96 -106l-178 -77c-64 -33.333 -96 -74 -96 -122c0 -24 15 -36 45 -36
c63.333 0 143.166 32 239.499 96s145.166 96 146.499 96zM-75.9971 233.999c150 49.333 225 94 225 134c0 15.333 -7.33301 23 -22 23c-51.333 0 -119 -52.333 -203 -157z" />
    <glyph glyph-name="eacute" unicode="&#xe9;" horiz-adv-x="453" 
d="M304 743c18.667 0 27.999 -12.333 27.999 -37c0 -35.333 -24.667 -75.333 -74 -120c-39.333 -35.333 -80.333 -63.333 -123 -84l-7 9c47.333 32.667 85.333 82.667 114 150c22.667 54.667 43.334 82 62.001 82zM239.999 220l10.0029 -16l-4 -10
c-182 -131.333 -307.667 -197 -377 -197c-87.333 0 -131 33.667 -131 101c0 72 45.667 144.667 137 218c87.333 70 167.666 105 240.999 105c42 0 63 -17.333 63 -52c0 -40 -32 -75.333 -96 -106l-178 -77c-64 -33.333 -96 -74 -96 -122c0 -24 15 -36 45 -36
c63.333 0 143.166 32 239.499 96s145.166 96 146.499 96zM-75.998 234c150 49.333 225 94 225 134c0 15.333 -7.33301 23 -22 23c-51.333 0 -119 -52.333 -203 -157z" />
    <glyph glyph-name="ecircumflex" unicode="&#xea;" horiz-adv-x="453" 
d="M235 743c14.667 -91.333 42.666 -167.001 83.999 -227.001l-13 -11c-36.667 30.667 -69 78.667 -97 144c-89.333 -71.333 -165.666 -116.666 -228.999 -135.999v7c82 58 161.667 132.333 239 223h16zM239.999 219.999l10.0029 -16l-4 -10
c-182 -131.333 -307.667 -197 -377 -197c-87.333 0 -131 33.667 -131 101c0 72 45.667 144.667 137 218c87.333 70 167.666 105 240.999 105c42 0 63 -17.333 63 -52c0 -40 -32 -75.333 -96 -106l-178 -77c-64 -33.333 -96 -74 -96 -122c0 -24 15 -36 45 -36
c63.333 0 143.166 32 239.499 96s145.166 96 146.499 96zM-75.998 233.999c150 49.333 225 94 225 134c0 15.333 -7.33301 23 -22 23c-51.333 0 -119 -52.333 -203 -157z" />
    <glyph glyph-name="edieresis" unicode="&#xeb;" horiz-adv-x="453" 
d="M52 610c33.333 0 50 -18.333 50 -55c0 -35.333 -16.667 -53 -50 -53c-13.333 0 -25.333 5.5 -36 16.5s-16 23.167 -16 36.5c-0 14 5.33301 26.667 16 38s22.667 17 36 17zM261 610c33.333 0 50 -18.333 50 -55c0 -35.333 -16.667 -53 -50 -53
c-34.667 0 -52 17.667 -52 53c0 36.667 17.333 55 52 55zM240 220l10.0029 -16l-4 -10c-182 -131.333 -307.667 -197 -377 -197c-87.333 0 -131 33.667 -131 101c0 72 45.667 144.667 137 218c87.333 70 167.666 105 240.999 105c42 0 63 -17.333 63 -52
c0 -40 -32 -75.333 -96 -106l-178 -77c-64 -33.333 -96 -74 -96 -122c0 -24 15 -36 45 -36c63.333 0 143.166 32 239.499 96s145.166 96 146.499 96zM-75.9971 234c150 49.333 225 94 225 134c0 15.333 -7.33301 23 -22 23c-51.333 0 -119 -52.333 -203 -157z" />
    <glyph glyph-name="igrave" unicode="&#xec;" horiz-adv-x="420" 
d="M130 502c-40 20 -80.333 47.666 -121 82.999c-50.667 44.667 -76 83.334 -76 116.001c0 28 13 42 39 42c16 0 29 -11.667 39 -35c1.33301 -10.667 4.33301 -26.667 9 -48c15.333 -56 54.333 -105.667 117 -149zM163 418.999l-174.001 -193
c-94.667 -106.667 -142.667 -167 -144 -181l17 -11c42.667 -2 109.334 27.667 200.001 89c94 63.333 142.333 95 145 95l9 -14c-1.33301 -24 -57 -64.667 -167 -122c-106 -56 -175.333 -84 -208 -84c-40.667 0 -61 21.667 -61 65c0 33.333 13 69 39 107
c2 2.66699 26 32.667 72 90c-28 -20.667 -64.333 -43 -109 -67l-11 13l7 12c111.333 74 202 141 272 201h113z" />
    <glyph glyph-name="iacute" unicode="&#xed;" horiz-adv-x="420" 
d="M304 743c18.667 0 27.999 -12.333 27.999 -37c0 -35.333 -24.667 -75.333 -74 -120c-39.333 -35.333 -80.333 -63.333 -123 -84l-7 9c47.333 32.667 85.333 82.667 114 150c22.667 54.667 43.334 82 62.001 82zM162.999 419l-174.001 -193
c-94.667 -106.667 -142.667 -167 -144 -181l17 -11c42.667 -2 109.334 27.667 200.001 89c94 63.333 142.333 95 145 95l9 -14c-1.33301 -24 -57 -64.667 -167 -122c-106 -56 -175.333 -84 -208 -84c-40.667 0 -61 21.667 -61 65c0 33.333 13 69 39 107
c2 2.66699 26 32.667 72 90c-28 -20.667 -64.333 -43 -109 -67l-11 13l7 12c111.333 74 202 141 272 201h113z" />
    <glyph glyph-name="icircumflex" unicode="&#xee;" horiz-adv-x="420" 
d="M209 741c14.667 -92 43.332 -168.001 85.999 -228.001l-13 -11c-38 30.667 -71 79 -99 145c-89.333 -71.333 -165.666 -116.666 -228.999 -135.999v7c86 60.667 165.667 135 239 223h16zM162.998 418.999l-174.001 -193c-94.667 -106.667 -142.667 -167 -144 -181l17 -11
c42.667 -2 109.334 27.667 200.001 89c94 63.333 142.333 95 145 95l9 -14c-1.33301 -24 -57 -64.667 -167 -122c-106 -56 -175.333 -84 -208 -84c-40.667 0 -61 21.667 -61 65c0 33.333 13 69 39 107c2 2.66699 26 32.667 72 90c-28 -20.667 -64.333 -43 -109 -67l-11 13
l7 12c111.333 74 202 141 272 201h113z" />
    <glyph glyph-name="idieresis" unicode="&#xef;" horiz-adv-x="420" 
d="M30 610c35.333 0 53 -18.333 53 -55c0 -35.333 -17.667 -53 -53 -53c-12.667 0 -24.5 5.5 -35.5 16.5s-16.5 23.167 -16.5 36.5c0 14 5.33301 26.667 16 38s22.667 17 36 17zM239 610c34.667 0 52 -18.333 52 -55c0 -35.333 -17.333 -53 -52 -53s-52 17.667 -52 53
c0 36.667 17.333 55 52 55zM163 419l-174.001 -193c-94.667 -106.667 -142.667 -167 -144 -181l17 -11c42.667 -2 109.334 27.667 200.001 89c94 63.333 142.333 95 145 95l9 -14c-1.33301 -24 -57 -64.667 -167 -122c-106 -56 -175.333 -84 -208 -84
c-40.667 0 -61 21.667 -61 65c0 33.333 13 69 39 107c2 2.66699 26 32.667 72 90c-28 -20.667 -64.333 -43 -109 -67l-11 13l7 12c111.333 74 202 141 272 201h113z" />
    <glyph glyph-name="ntilde" unicode="&#xf1;" horiz-adv-x="875" 
d="M118 382l-12 8.99902c-40.667 0.666992 -148.667 -65 -324 -197l-10 12l4 10c50.667 44 106 85.333 166 124c80.667 52 141 78 181 78c32.667 0 49 -17.667 49 -53c0 -32 -13 -70 -39 -114c140.667 112 244.667 168 312 168c36.667 0 55 -21.667 55 -65
c0 -52 -33.833 -113.5 -101.5 -184.5s-101.5 -111.833 -101.5 -122.5c0 -8.66699 6.33301 -13 19 -13c48 0 116.333 30 205 90c91.333 61.333 138.333 92.333 141 93l7 -10c-0.666992 -28 -55.334 -70.333 -164.001 -127c-104 -54.667 -174 -82 -210 -82
c-41.333 0 -62 23.333 -62 70c0 40.667 30.333 97.334 91 170.001l139 151l-18 5c-111.333 0 -285.666 -131.333 -522.999 -394h-113zM541 630.999c-35.333 -86 -80.998 -129 -136.998 -129c-14.667 0 -36 7.16699 -64 21.5s-49.333 21.5 -64 21.5
c-35.333 0 -68 -21.333 -98 -64h-19c46.667 90 93.334 135 140.001 135c15.333 0 38.166 -8.66699 68.499 -26s53.166 -26 68.499 -26c31.333 0 59.666 22.333 84.999 67h20z" />
    <glyph glyph-name="ograve" unicode="&#xf2;" horiz-adv-x="525" 
d="M294 218l9.00098 -13.001l-5 -11c-33.333 -22 -82 -32.667 -146 -32c-121.333 -110.667 -222.333 -166 -303 -166c-73.333 0 -110 35 -110 105c0 76.667 51 150.334 153 221.001c94.667 64.667 182 97 262 97c25.333 0 47.666 -6 66.999 -18
c23.333 -14.667 35 -34 35 -58c0 -40.667 -25.333 -91 -76 -151c25.333 7.33301 63.333 16 114 26zM-162.999 23.999c60.667 0 139.667 37.334 237 112.001c102 78 153 145.667 153 203c0 34 -19.667 51 -59 51c-48 0 -122.333 -43.333 -223 -130
s-151 -153.334 -151 -200.001c0 -24 14.333 -36 43 -36zM230.001 502c-40 19.333 -80.333 47 -121 83c-50.667 44.667 -76 83.334 -76 116.001c0 28 13 42 39 42c14.667 0 27 -11.667 37 -35c1.33301 -10.667 4 -26.667 8 -48c16 -54.667 56 -104.334 120 -149.001z" />
    <glyph glyph-name="oacute" unicode="&#xf3;" horiz-adv-x="525" 
d="M294 218l9.00098 -13.001l-5 -11c-33.333 -22 -82 -32.667 -146 -32c-121.333 -110.667 -222.333 -166 -303 -166c-73.333 0 -110 35 -110 105c0 76.667 51 150.334 153 221.001c94.667 64.667 182 97 262 97c25.333 0 47.666 -6 66.999 -18
c23.333 -14.667 35 -34 35 -58c0 -40.667 -25.333 -91 -76 -151c25.333 7.33301 63.333 16 114 26zM-162.999 23.999c60.667 0 139.667 37.334 237 112.001c102 78 153 145.667 153 203c0 34 -19.667 51 -59 51c-48 0 -122.333 -43.333 -223 -130
s-151 -153.334 -151 -200.001c0 -24 14.333 -36 43 -36zM364.001 743c19.333 0 29 -12.333 29 -37c0 -35.333 -24.667 -75.333 -74 -120c-40 -35.333 -81 -63.333 -123 -84l-7 9c46.667 32.667 83.667 82.667 111 150c22.667 54.667 44 82 64 82z" />
    <glyph glyph-name="ocircumflex" unicode="&#xf4;" horiz-adv-x="525" 
d="M294 218l9.00098 -13.001l-5 -11c-33.333 -22 -82 -32.667 -146 -32c-121.333 -110.667 -222.333 -166 -303 -166c-73.333 0 -110 35 -110 105c0 76.667 51 150.334 153 221.001c94.667 64.667 182 97 262 97c25.333 0 47.666 -6 66.999 -18
c23.333 -14.667 35 -34 35 -58c0 -40.667 -25.333 -91 -76 -151c25.333 7.33301 63.333 16 114 26zM-162.999 23.999c60.667 0 139.667 37.334 237 112.001c102 78 153 145.667 153 203c0 34 -19.667 51 -59 51c-48 0 -122.333 -43.333 -223 -130
s-151 -153.334 -151 -200.001c0 -24 14.333 -36 43 -36zM300.001 741c15.333 -92 44.333 -168 87 -228l-13 -11c-40 32 -72.667 80.333 -98 145c-87.333 -70 -163.333 -115.333 -228 -136v7c94 68 173.667 140 239 216z" />
    <glyph glyph-name="otilde" unicode="&#xf5;" horiz-adv-x="525" 
d="M-163 24c60.667 0 139.667 37.334 237 112.001c102 78 153 145.667 153 203c0 34 -19.667 51 -59 51c-48 0 -122.333 -43.333 -223 -130s-151 -153.334 -151 -200.001c0 -24 14.333 -36 43 -36zM294 218.001l9.00098 -13.001l-5 -11c-33.333 -22 -82 -32.667 -146 -32
c-121.333 -110.667 -222.333 -166 -303 -166c-73.333 0 -110 35 -110 105c0 76.667 51 150.334 153 221.001c94.667 64.667 182 97 262 97c25.333 0 47.666 -6 66.999 -18c23.333 -14.667 35 -34 35 -58c0 -40.667 -25.333 -91 -76 -151c25.333 7.33301 63.333 16 114 26z
M408.001 631c-35.333 -85.333 -80.667 -128 -136 -128c-15.333 0 -37 7 -65 21s-49.667 21 -65 21c-36 0 -68 -23 -96 -69l-20 5c46.667 90 93 135 139 135c16 0 39 -8.66699 69 -26s53 -26 69 -26c30 0 58.667 22.333 86 67h19z" />
    <glyph glyph-name="odieresis" unicode="&#xf6;" horiz-adv-x="525" 
d="M294 218l9.00098 -13.001l-5 -11c-33.333 -22 -82 -32.667 -146 -32c-121.333 -110.667 -222.333 -166 -303 -166c-73.333 0 -110 35 -110 105c0 76.667 51 150.334 153 221.001c94.667 64.667 182 97 262 97c25.333 0 47.666 -6 66.999 -18
c23.333 -14.667 35 -34 35 -58c0 -40.667 -25.333 -91 -76 -151c25.333 7.33301 63.333 16 114 26zM-162.999 23.999c60.667 0 139.667 37.334 237 112.001c102 78 153 145.667 153 203c0 34 -19.667 51 -59 51c-48 0 -122.333 -43.333 -223 -130
s-151 -153.334 -151 -200.001c0 -24 14.333 -36 43 -36zM115.001 610c34.667 0 52 -18.333 52 -55c0 -35.333 -17.333 -53 -52 -53c-12.667 0 -24.167 5.66699 -34.5 17s-15.5 23.333 -15.5 36c0 13.333 5 25.833 15 37.5s21.667 17.5 35 17.5zM324.001 610
c34.667 0 52 -18.333 52 -55c0 -35.333 -17.333 -53 -52 -53c-33.333 0 -50 17.667 -50 53c0 36.667 16.667 55 50 55z" />
    <glyph glyph-name="divide" unicode="&#xf7;" horiz-adv-x="533" 
d="M23 332l-4.99805 4c7.33301 23.333 99.666 133 276.999 329c172 190.667 278 302.667 318 336l5 2l5 -4c-22.667 -38 -116.334 -148.667 -281.001 -332c-158 -175.333 -262 -286.333 -312 -333z" />
    <glyph glyph-name="oslash" unicode="&#xf8;" horiz-adv-x="590" 
d="M230 426c-13.333 8.66699 -27.333 13 -42 13c-58 0 -142.333 -48.667 -253 -146s-166 -174.333 -166 -231l1 -5zM-211 35c9.33301 -5.33301 19 -7.99902 29 -7.99902c68 0 156.667 42.333 266 127c114 87.333 171 163.666 171 228.999l-5 19zM287 387.001
c0 -48 -28.3311 -104.999 -84.998 -170.999c20 -0.666992 46.167 5.16602 78.5 17.499s55.833 18.833 70.5 19.5l12 -15l-7 -13c-44 -29.333 -105.333 -44 -184 -44c-137.333 -123.333 -253 -185 -347 -185c-18.667 0 -40 4.33301 -64 13l-89 -70h-46l111 89
c-19.333 17.333 -29 44.333 -29 81c0 88 56.333 172 169 252c105.333 74 203.666 111 294.999 111c31.333 0 58.666 -8.66699 81.999 -26l44 35h47l-71 -55c8.66699 -14 13 -27 13 -39z" />
    <glyph glyph-name="ugrave" unicode="&#xf9;" horiz-adv-x="742" 
d="M278 502c-40.667 19.333 -81.333 46.668 -122 82.001c-50.667 44.667 -76 83.667 -76 117c0 28 12.333 42 37 42c16.667 0 29.667 -11.667 39 -35l9 -48c16 -54.667 56 -104.334 120 -149.001zM-215.999 193.002l-11.998 14.999c1.33301 6 40 35.667 116 89
c81.333 58.667 131.666 99.334 150.999 122.001h133l-176 -195c-96 -108 -144.667 -168.667 -146 -182l14 -9c94.667 -4.66699 258.667 124 492 386h135l-176 -194c-96.667 -108 -145 -168.333 -145 -181c0 -9.33301 7 -14 21 -14c81.333 0 194.666 63 339.999 189l7 -13
l-3 -9c-143.333 -132.667 -265.333 -199 -366 -199c-41.333 0 -62 19.667 -62 59c0 29.333 13 66.333 39 111c-143.333 -116 -247.333 -174 -312 -174c-37.333 0 -56 21.667 -56 65c0 35.333 43 106 129 212c-34 -24.667 -75 -50.667 -123 -78z" />
    <glyph glyph-name="uacute" unicode="&#xfa;" horiz-adv-x="742" 
d="M438 743c19.333 0 29 -12.333 29 -37c0 -35.333 -25 -75.333 -75 -120c-38.667 -34.667 -79.667 -62.667 -123 -84l-6 9c46 34 83.333 84.667 112 152c22 53.333 43 80 63 80zM-216 193l-11.998 14.999c1.33301 6 40 35.667 116 89
c81.333 58.667 131.666 99.334 150.999 122.001h133l-176 -195c-96 -108 -144.667 -168.667 -146 -182l14 -9c94.667 -4.66699 258.667 124 492 386h135l-176 -194c-96.667 -108 -145 -168.333 -145 -181c0 -9.33301 7 -14 21 -14c81.333 0 194.666 63 339.999 189l7 -13
l-3 -9c-143.333 -132.667 -265.333 -199 -366 -199c-41.333 0 -62 19.667 -62 59c0 29.333 13 66.333 39 111c-143.333 -116 -247.333 -174 -312 -174c-37.333 0 -56 21.667 -56 65c0 35.333 43 106 129 212c-34 -24.667 -75 -50.667 -123 -78z" />
    <glyph glyph-name="ucircumflex" unicode="&#xfb;" horiz-adv-x="742" 
d="M387 738c14.667 -91.333 43.666 -167 86.999 -227l-13 -11c-38.667 30.667 -72 78.667 -100 144c-84.667 -69.333 -160.667 -114.333 -228 -135v7c94.667 67.333 174.334 139.333 239.001 216zM-216.001 193l-11.998 14.999c1.33301 6 40 35.667 116 89
c81.333 58.667 131.666 99.334 150.999 122.001h133l-176 -195c-96 -108 -144.667 -168.667 -146 -182l14 -9c94.667 -4.66699 258.667 124 492 386h135l-176 -194c-96.667 -108 -145 -168.333 -145 -181c0 -9.33301 7 -14 21 -14c81.333 0 194.666 63 339.999 189l7 -13
l-3 -9c-143.333 -132.667 -265.333 -199 -366 -199c-41.333 0 -62 19.667 -62 59c0 29.333 13 66.333 39 111c-143.333 -116 -247.333 -174 -312 -174c-37.333 0 -56 21.667 -56 65c0 35.333 43 106 129 212c-34 -24.667 -75 -50.667 -123 -78z" />
    <glyph glyph-name="udieresis" unicode="&#xfc;" horiz-adv-x="742" 
d="M180 610c34.667 0 52 -18.333 52 -55c0 -35.333 -17.333 -53 -52 -53c-12.667 0 -24.5 5.5 -35.5 16.5s-16.5 23.167 -16.5 36.5c0 14 5.33301 26.667 16 38s22.667 17 36 17zM389 610c34.667 0 52 -18.333 52 -55c0 -35.333 -17.333 -53 -52 -53s-52 17.667 -52 53
c0 36.667 17.333 55 52 55zM-216 193l-11.998 14.999c1.33301 6 40 35.667 116 89c81.333 58.667 131.666 99.334 150.999 122.001h133l-176 -195c-96 -108 -144.667 -168.667 -146 -182l14 -9c94.667 -4.66699 258.667 124 492 386h135l-176 -194
c-96.667 -108 -145 -168.333 -145 -181c0 -9.33301 7 -14 21 -14c81.333 0 194.666 63 339.999 189l7 -13l-3 -9c-143.333 -132.667 -265.333 -199 -366 -199c-41.333 0 -62 19.667 -62 59c0 29.333 13 66.333 39 111c-143.333 -116 -247.333 -174 -312 -174
c-37.333 0 -56 21.667 -56 65c0 35.333 43 106 129 212c-34 -24.667 -75 -50.667 -123 -78z" />
    <glyph glyph-name="ydieresis" unicode="&#xff;" horiz-adv-x="786" 
d="M469 419l112.999 0.00292969l-376 -428c82.667 28.667 173.667 82 273 160c16 16 42.333 37.667 79 65l11 1l7 -10l-2 -10c-38.667 -56 -140.667 -126 -306 -210c-24.667 -9.33301 -59 -25.333 -103 -48c-32.667 -22 -91.667 -76 -177 -162
c-90 -90 -160.667 -154 -212 -192c-83.333 -61.333 -158.666 -92 -225.999 -92c-51.333 0 -77 24.333 -77 73c0 78 74 154.333 222 229c40 20 149.667 63.667 329 131l182 214c-128.667 -93.333 -227.334 -140 -296.001 -140c-21.333 0 -40 8.66699 -56 26s-24 37 -24 59
c0 42 36.667 100.5 110 175.5s110.333 115.833 111 122.5l-14 10c-28.667 0.666992 -77.667 -32 -147 -98c-71.333 -68.667 -109.666 -103.334 -114.999 -104.001l-13 10c2 24.667 43.167 67.167 123.5 127.5s134.5 90.5 162.5 90.5c38 0 57 -23.667 57 -71
c0 -38.667 -35.167 -96.334 -105.5 -173.001s-105.5 -121.334 -105.5 -134.001c0 -8.66699 7 -13 21 -13c111.333 0 296 130.333 554 391zM-452.001 -481.997c79.333 0 163 45.668 251 137.001c6 5.33301 70 83.333 192 234
c-152.667 -58.667 -249.667 -98.334 -291 -119.001c-132 -68 -198 -136 -198 -204c0 -32 15.333 -48 46 -48zM190.999 610.004c34.667 0 52 -18.333 52 -55c0 -35.333 -17.333 -53 -52 -53c-13.333 0 -25.333 5.5 -36 16.5s-16 23.167 -16 36.5c0 14 5.33301 26.667 16 38
s22.667 17 36 17zM399.999 610.004c34.667 0 52 -18.333 52 -55c0 -35.333 -17.333 -53 -52 -53s-52 17.667 -52 53c0 36.667 17.333 55 52 55z" />
    <glyph glyph-name="dotlessi" unicode="&#x131;" horiz-adv-x="420" 
d="M165 419l-173.999 -193c-94 -106.667 -142 -167 -144 -181l17 -11c72.667 -3.33301 187.334 58 344.001 184l10 -14c-0.666992 -28.667 -55 -70.667 -163 -126c-103.333 -53.333 -173.333 -80 -210 -80c-42 0 -63 21.667 -63 65c0 33.333 13 69 39 107
c2 2.66699 26.333 32.667 73 90c-28.667 -20.667 -65.334 -43 -110.001 -67l-11 13l8 12c111.333 74 201.666 141 270.999 201h113z" />
    <glyph glyph-name="OE" unicode="&#x152;" horiz-adv-x="2257" 
d="M2687 1504c0 66.667 -52 100 -156 100c-122 0 -262.667 -64.333 -422 -193c-150 -122 -250.333 -243.667 -301 -365c164 32 333.667 84.333 509 157c246.667 102 370 202.333 370 301zM1987 850c21.333 0 32 7.00098 32 21.001c0 29.333 -42.333 42.666 -127 39.999h-19
c42.667 -40.667 80.667 -61 114 -61zM1760 1700c-418 0 -840.337 -317.001 -1267 -951.001c-152 -226 -228 -408.333 -228 -547c0 -54 24 -95 72 -123c39.333 -23.333 88 -35 146 -35c134 0 283.667 63.333 449 190c-6 22.667 -9 43 -9 61c0 138.667 66.667 266.667 200 384
c114.667 100.667 246.667 170 396 208c110 188 165 344.667 165 470c0 56 -11.333 102 -34 138c-27.333 42.667 -67.333 64 -120 64c-107.333 0 -222.166 -62.5 -344.499 -187.5s-183.5 -241.5 -183.5 -349.5c0 -34 10 -62.833 30 -86.5s46.667 -35.5 80 -35.5
c184.667 0 338.334 172.667 461.001 518l15 11c8.66699 0 13 -6 13 -18c0 -4.66699 -6.33301 -26.667 -19 -66c-37.333 -115.333 -95.666 -218.666 -174.999 -309.999c-96 -110.667 -195.667 -166 -299 -166c-42.667 0 -76.667 15.667 -102 47
c-24 28.667 -36 64.667 -36 108c0 129.333 57.833 255.833 173.5 379.5s237.5 185.5 365.5 185.5c134 0 201 -79 201 -237c0 -120 -50.667 -271.333 -152 -454c68.667 19.333 149 34 241 44c-14.667 20 -25.667 44.667 -33 74c-34 -7.33301 -72.333 -11 -115 -11
c-11.333 0 -17 4.33301 -17 13c0 14 42.667 22 128 24c-2 183.333 100 331.333 306 444l2 26c2.66699 68 -33.666 118.667 -108.999 152c-55.333 24 -122.333 36 -201 36zM1010 258c-2 -12 -2.99805 -25.334 -2.99805 -40.001c0 -63.333 39.333 -110.666 118 -141.999
c58 -22.667 124.667 -34 200 -34c150.667 0 302.334 35.667 455.001 107c186.667 86.667 280 196.667 280 330c0 40.667 -20 71.667 -60 93c-32 16.667 -70 25 -114 25c-120.667 0 -251.334 -43.667 -392.001 -131c-120 -74 -226.333 -165.333 -319 -274l-10 -5l-12 13l1 10
c60.667 99.333 169.167 193.833 325.5 283.5s291.833 134.5 406.5 134.5c50 0 94.333 -11.333 133 -34c46 -27.333 69 -64.333 69 -111c0 -146.667 -94.667 -266.334 -284 -359.001c-156 -76.667 -315.667 -115 -479 -115c-197.333 0 -325.333 64.667 -384 194
c-61.333 -52 -134.333 -96 -219 -132c-90.667 -39.333 -173 -59 -247 -59c-91.333 0 -162.333 29 -213 87c-48.667 55.333 -73 129.666 -73 222.999c0 134.667 50 283.334 150 446.001c79.333 128.667 180.666 252.667 303.999 372c404.667 392 776.667 588 1116 588
c225.333 0 337.333 -76.333 335.999 -229c175.333 90 319.666 135 433 135c48.667 0 90.334 -9.66699 125.001 -29c43.333 -24 65 -59 65 -105c0 -107.333 -127 -214.333 -381 -321c-194.667 -82 -371.667 -135 -531 -159c1.33301 -29.333 10.666 -55.333 27.999 -78l51 2
c111.333 4 167 -22 167 -78c0 -30.667 -23.667 -46 -71 -46c-35.333 0 -88 30.333 -158 91c-97.333 -4.66699 -200.333 -33 -309 -85c-43.333 -85.333 -119 -186.333 -227 -303c-92 -101.333 -184.333 -189.666 -277 -264.999zM1467 799.999
c-208 -119.333 -356 -283.333 -444 -492c176 147.333 324 311.333 444 492z" />
    <glyph glyph-name="oe" unicode="&#x153;" horiz-adv-x="886" 
d="M300 262c76.667 26 126.333 44.333 149 55c69.333 32 104 64 104 96c0 17.333 -8.33301 26 -25 26c-50 0 -126 -59 -228 -177zM187.999 439c-54 0 -137 -48.667 -249 -146c-114 -98.667 -171 -173.667 -171 -225c0 -10.667 5.5 -20.167 16.5 -28.5
s21.833 -12.5 32.5 -12.5c81.333 0 175.666 47 282.999 141c20.667 62 71.334 125.333 152.001 190l3 24c0 16 -7 29.5 -21 40.5s-29.333 16.5 -46 16.5zM587.999 416c0 -46 -36.002 -86.332 -108.002 -120.999l-201 -86c-72 -37.333 -108 -83 -108 -137
c0 -26.667 16.667 -40 50 -40c72 0 162 35.333 270 106l165 109l13 -17l-6 -12c-98 -70.667 -165.667 -117 -203 -139c-91.333 -55.333 -165.666 -83 -222.999 -83c-96 0 -144 40 -144 120c-107.333 -80.667 -199.666 -121 -276.999 -121c-72.667 0 -109 38.667 -109 116
c0 86.667 57 170 171 250c105.333 74 203 111 293 111c30 0 56.333 -7.33301 79 -22c26 -16.667 39 -39.334 39 -68.001c87.333 61.333 163.333 92 228 92c47.333 0 71 -19.333 71 -58z" />
    <glyph glyph-name="Ydieresis" unicode="&#x178;" horiz-adv-x="1406" 
d="M654 431c0 -33.333 29 -50.002 87 -50.002c78 0 182.333 46.667 313 140c102 73.333 191.667 151.666 269 234.999l491 529h139l-738 -824c-122 -136 -231.333 -237 -328 -303c-137.333 -93.333 -275.666 -140 -414.999 -140c-68 0 -125.667 9.66699 -173 29
c-65.333 28 -98 71 -98 129c0 34.667 9.66699 63.834 29 87.501s45.666 35.5 78.999 35.5c38.667 0 58 -16 58 -48c0 -17.333 -6.16699 -32.666 -18.5 -45.999s-26.833 -20 -43.5 -20c-19.333 0 -37.666 11 -54.999 33c-8 -17.333 -12 -35.666 -12 -54.999
c0 -44 29.667 -76.667 89 -98c42 -15.333 90.333 -23 145 -23c142 0 282 65.333 420 196c52 49.333 155.333 172.333 310 369c-194 -168.667 -349 -253 -465 -253c-95.333 0 -143 34.667 -143 104c0 84.667 53 183.334 159 296.001l295 283c106 106 159 193.333 159 262
c0 43.333 -31.667 77.666 -95 102.999c-49.333 20.667 -99.333 31 -150 31c-130 0 -267 -38.667 -411 -116c-166.667 -89.333 -250 -193 -250 -311c0 -76.667 54 -115 162 -115c154 0 335.667 96 545 288c22.667 22.667 48.334 46.334 77.001 71.001l12 -12l-4 -10
c-238.667 -242.667 -448.334 -364 -629.001 -364c-52 0 -95 10.667 -129 32c-40.667 25.333 -61 63 -61 113c0 128 86.333 238 259 330c147.333 78.667 291.666 118 432.999 118c63.333 0 121 -13 173 -39c64.667 -32 97 -77 97 -135c0 -103.333 -50 -214.333 -150 -333
c-6 -6.66699 -99.667 -100.334 -281 -281.001c-100.667 -100.667 -151 -180 -151 -238zM1662 1689c0 55.333 18.666 83.001 55.999 83.001c19.333 0 29 -12.667 29 -38c0 -35.333 -24.667 -75.333 -74 -120c-39.333 -34.667 -80.666 -62.334 -123.999 -83.001l-6 9
c57.333 40 97 89.667 119 149z" />
    <glyph glyph-name="florin" unicode="&#x192;" horiz-adv-x="879" 
d="M776 570c102 45.333 224.333 117.666 367 216.999c179.333 124.667 269 218.334 269 281.001c0 34 -21 51 -63 51c-64.667 0 -166.667 -76 -306 -228c-57.333 -62 -146.333 -169 -267 -321zM385 242l80 89.999c-18 -8.66699 -35.667 -17.667 -53 -27
c-20.667 -13.333 -31 -28.666 -31 -45.999zM302 154.999l57 63l-9 27zM337 569.999c102 45.333 224.333 117.666 367 216.999c179.333 124.667 269 218.334 269 281.001c0 34 -21 51 -63 51c-64.667 0 -166.667 -76 -306 -228c-57.333 -62 -146.333 -169 -267 -321z
M-54 242.999l80 88.999l-53 -27c-20.667 -13.333 -31 -28.666 -31 -45.999zM-135 154.998l55 63l-9 27zM-589 -513.002l-113.005 0.000976562l314 371c115.333 142.667 206.333 275.334 273 398.001c-26.667 -20 -61 -42.333 -103 -67l-11 14l5 11
c54.667 37.333 98.334 65.666 131.001 84.999c20.667 82 51.667 123 93 123c20.667 0 31.667 -14 33 -42c25.333 17.333 62 45.666 110 84.999l375 400c188 188.667 325.667 283 413 283c18.667 0 35.334 -6.16699 50.001 -18.5s22 -27.833 22 -46.5
c0 -60.667 -48.333 -132 -145 -214c-72 -60.667 -172.333 -128.667 -301 -204l-253 -141c-21.333 -12 -122.666 -130 -303.999 -354c17.333 -12 34.666 -18 51.999 -18c40.667 0 91.667 18 153 54c10.667 6 57.334 37 140.001 93c20.667 82 52 123 94 123
c20.667 0 31.334 -14 32.001 -42c26 17.333 63 45.666 111 84.999l375 400c188 188.667 325.667 283 413 283c18.667 0 35.167 -6.16699 49.5 -18.5s21.5 -27.833 21.5 -46.5c0 -60.667 -48.333 -132 -145 -214c-71.333 -60.667 -171.333 -128.667 -300 -204l-253 -141
c-21.333 -12 -122.666 -130 -303.999 -354c16.667 -12 34 -18 52 -18c32 0 67.333 10.333 106 31c41.333 22.667 64.666 34.334 69.999 35.001l10 -13l-6 -11c-68 -46 -129.667 -69 -185 -69c-22 0 -45.667 7 -71 21l-565 -659h-115l316 370
c116 142.667 206.333 275.667 271 399c-67.333 -47.333 -110.333 -76 -129 -86c-51.333 -28.667 -99.666 -43 -144.999 -43c-22 0 -46 6.33301 -72 19z" />
    <glyph glyph-name="circumflex" unicode="&#x2c6;" horiz-adv-x="396" 
d="M324 1770c14.667 -92 43.667 -168 87 -228l-13 -11c-38.667 30.667 -72 79 -100 145c-84.667 -69.333 -160 -114.666 -226 -135.999v7c84.667 61.333 163.667 135.666 237 222.999h15z" />
    <glyph glyph-name="ring" unicode="&#x2da;" horiz-adv-x="296" 
d="M359 581c0 -28 -10 -51.333 -30 -70s-44 -28 -72 -28c-28.667 0 -52.667 9.16699 -72 27.5s-29 41.833 -29 70.5s10 53 30 73s44.333 30 73 30c26.667 0 50 -10.333 70 -31s30 -44.667 30 -72zM191 581c0 -43.333 22.333 -65 67 -65c42.667 0 64 21.667 64 65
s-21 65 -63 65c-45.333 0 -68 -21.667 -68 -65z" />
    <glyph glyph-name="tilde" unicode="&#x2dc;" horiz-adv-x="359" 
d="M493 1665c-32 -86 -77.333 -129 -136 -129c-14 0 -35.167 7 -63.5 21s-49.833 21 -64.5 21c-38.667 0 -71.667 -22 -99 -66h-19c45.333 91.333 92.333 137 141 137c16 0 38.833 -8.5 68.5 -25.5s52.5 -25.5 68.5 -25.5c30.667 0 59.667 22.333 87 67h17z" />
    <glyph glyph-name="Delta" unicode="&#x394;" 
d="M29 419c-35.333 0 -52.999 19.6689 -52.999 59.002c0 53.333 41.167 117.666 123.5 192.999s150.5 113 204.5 113c28.667 0 43 -15.667 43 -47c0 -50.667 -40.333 -116.334 -121 -197.001s-146.334 -121 -197.001 -121zM31.001 432.002c44.667 0 106.333 39.667 185 119
s118 141.333 118 186c0 22.667 -9.33301 34 -28 34c-32.667 0 -92.167 -43.167 -178.5 -129.5s-129.5 -145.833 -129.5 -178.5c0 -20.667 11 -31 33 -31z" />
    <glyph glyph-name="Delta" unicode="&#x2206;" 
d="M29 419c-35.333 0 -52.999 19.6689 -52.999 59.002c0 53.333 41.167 117.666 123.5 192.999s150.5 113 204.5 113c28.667 0 43 -15.667 43 -47c0 -50.667 -40.333 -116.334 -121 -197.001s-146.334 -121 -197.001 -121zM31.001 432.002c44.667 0 106.333 39.667 185 119
s118 141.333 118 186c0 22.667 -9.33301 34 -28 34c-32.667 0 -92.167 -43.167 -178.5 -129.5s-129.5 -145.833 -129.5 -178.5c0 -20.667 11 -31 33 -31z" />
    <glyph glyph-name="Omega" unicode="&#x3a9;" horiz-adv-x="1572" 
d="M1440 1435l11.002 -12.001c-4.66699 -12 -40.667 -52 -108 -120c-78 -79.333 -120.667 -123.333 -128 -132c-44 -52 -97.667 -127 -161 -225c-72.667 -112.667 -124 -189 -154 -229c-62.667 -82.667 -162 -199.667 -298 -351c-145.333 -160.667 -251 -269 -317 -325
c189.333 68.667 414.666 226.667 675.999 474l636 614c234.667 203.333 436.334 305 605.001 305c49.333 0 92.666 -9 129.999 -27c48 -22.667 72 -56 72 -100c0 -23.333 -7.16699 -43.5 -21.5 -60.5s-32.833 -25.5 -55.5 -25.5c-40 0 -60 21.333 -60 64
c0 40 21.333 66 64 78c-27.333 26.667 -70 40 -128 40c-157.333 0 -341.333 -86.667 -552 -260c-71.333 -58.667 -224 -206.667 -458 -444c-173.333 -175.333 -302.666 -299 -387.999 -371c-150.667 -126.667 -300.667 -223 -450 -289
c-9.33301 -4.66699 -51 -21.334 -125 -50.001c-13.333 -0.666992 -20 3.33301 -20 12l3 12l100 99c50.667 50.667 108 120.334 172 209.001l326 447c113.333 145.333 234.666 286.333 363.999 423c-61.333 -35.333 -128.333 -53 -201 -53c-64 0 -104 14 -120 42
c-9.33301 16.667 -14 59 -14 127c0 35.333 -24.667 62.333 -74 81c-36 14 -75.667 21 -119 21c-97.333 0 -189 -23.667 -275 -71c-103.333 -56 -155 -128.333 -155 -217c0 -57.333 23.333 -100.666 70 -129.999c38.667 -24 88 -36 148 -36c122 0 248 59 378 177
c12 1.33301 18 -2.33398 18 -11.001l-1 -9c-31.333 -45.333 -91.333 -87.666 -180 -126.999c-84.667 -38 -156.334 -57 -215.001 -57c-67.333 0 -123.333 15 -168 45c-52 34 -78 83.333 -78 148c0 94 54.333 172 163 234c92.667 53.333 190 80 292 80
c84.667 0 148.667 -16.667 192 -50s73 -90 89 -170c6.66699 -30.667 32 -46 76 -46c85.333 0 180.333 43.333 285 130zM1432 569.999c202 125.333 326.333 204.999 373 238.999c180 128.667 270 228.334 270 299.001c0 32 -16.333 48 -49 48
c-74.667 0 -182.334 -80 -323.001 -240c-37.333 -42.667 -127.666 -158 -270.999 -346zM1356 216.998l6.99707 -10c-0.666992 -31.333 -54.667 -74.666 -162 -129.999c-101.333 -52.667 -171.666 -79 -210.999 -79c-42 0 -63 21.667 -63 65c0 33.333 13 69 39 107
c2.66699 4 27 34 73 90c-28.667 -20 -64.667 -42 -108 -66l-12 13l7 11c94.667 60.667 142.334 91.334 143.001 92.001c54.667 37.333 97.334 73.666 128.001 108.999l200 241c125.333 145.333 235.333 260.666 330 345.999c132 117.333 233.667 176 305 176
c19.333 0 35.666 -7.5 49 -22.5c13.333 -15 20 -32.167 20 -51.5c0 -69.333 -49.667 -145.666 -149 -228.999c-64 -52.667 -165.333 -119.667 -304 -201c-134.667 -78.667 -214.667 -129.334 -240 -152.001c-58.667 -51.333 -126.667 -123.333 -204 -216l-191 -229
c-6.66699 -7.33301 -14 -19.333 -22 -36l17 -11c50 -2 118 26.667 204 86c94 64.667 142 97 144 97z" />
    <glyph glyph-name="Omega" unicode="&#x2126;" horiz-adv-x="1572" 
d="M1440 1435l11.002 -12.001c-4.66699 -12 -40.667 -52 -108 -120c-78 -79.333 -120.667 -123.333 -128 -132c-44 -52 -97.667 -127 -161 -225c-72.667 -112.667 -124 -189 -154 -229c-62.667 -82.667 -162 -199.667 -298 -351c-145.333 -160.667 -251 -269 -317 -325
c189.333 68.667 414.666 226.667 675.999 474l636 614c234.667 203.333 436.334 305 605.001 305c49.333 0 92.666 -9 129.999 -27c48 -22.667 72 -56 72 -100c0 -23.333 -7.16699 -43.5 -21.5 -60.5s-32.833 -25.5 -55.5 -25.5c-40 0 -60 21.333 -60 64
c0 40 21.333 66 64 78c-27.333 26.667 -70 40 -128 40c-157.333 0 -341.333 -86.667 -552 -260c-71.333 -58.667 -224 -206.667 -458 -444c-173.333 -175.333 -302.666 -299 -387.999 -371c-150.667 -126.667 -300.667 -223 -450 -289
c-9.33301 -4.66699 -51 -21.334 -125 -50.001c-13.333 -0.666992 -20 3.33301 -20 12l3 12l100 99c50.667 50.667 108 120.334 172 209.001l326 447c113.333 145.333 234.666 286.333 363.999 423c-61.333 -35.333 -128.333 -53 -201 -53c-64 0 -104 14 -120 42
c-9.33301 16.667 -14 59 -14 127c0 35.333 -24.667 62.333 -74 81c-36 14 -75.667 21 -119 21c-97.333 0 -189 -23.667 -275 -71c-103.333 -56 -155 -128.333 -155 -217c0 -57.333 23.333 -100.666 70 -129.999c38.667 -24 88 -36 148 -36c122 0 248 59 378 177
c12 1.33301 18 -2.33398 18 -11.001l-1 -9c-31.333 -45.333 -91.333 -87.666 -180 -126.999c-84.667 -38 -156.334 -57 -215.001 -57c-67.333 0 -123.333 15 -168 45c-52 34 -78 83.333 -78 148c0 94 54.333 172 163 234c92.667 53.333 190 80 292 80
c84.667 0 148.667 -16.667 192 -50s73 -90 89 -170c6.66699 -30.667 32 -46 76 -46c85.333 0 180.333 43.333 285 130zM1432 569.999c202 125.333 326.333 204.999 373 238.999c180 128.667 270 228.334 270 299.001c0 32 -16.333 48 -49 48
c-74.667 0 -182.334 -80 -323.001 -240c-37.333 -42.667 -127.666 -158 -270.999 -346zM1356 216.998l6.99707 -10c-0.666992 -31.333 -54.667 -74.666 -162 -129.999c-101.333 -52.667 -171.666 -79 -210.999 -79c-42 0 -63 21.667 -63 65c0 33.333 13 69 39 107
c2.66699 4 27 34 73 90c-28.667 -20 -64.667 -42 -108 -66l-12 13l7 11c94.667 60.667 142.334 91.334 143.001 92.001c54.667 37.333 97.334 73.666 128.001 108.999l200 241c125.333 145.333 235.333 260.666 330 345.999c132 117.333 233.667 176 305 176
c19.333 0 35.666 -7.5 49 -22.5c13.333 -15 20 -32.167 20 -51.5c0 -69.333 -49.667 -145.666 -149 -228.999c-64 -52.667 -165.333 -119.667 -304 -201c-134.667 -78.667 -214.667 -129.334 -240 -152.001c-58.667 -51.333 -126.667 -123.333 -204 -216l-191 -229
c-6.66699 -7.33301 -14 -19.333 -22 -36l17 -11c50 -2 118 26.667 204 86c94 64.667 142 97 144 97z" />
    <glyph glyph-name="pi" unicode="&#x3c0;" horiz-adv-x="1977" 
d="M1530 741l109.999 12.998c76 94.667 139.333 142 190 142c31.333 0 47 -12.667 47 -38c0 -31.333 -25.333 -60.666 -76 -87.999c-39.333 -21.333 -78.333 -35.666 -117 -42.999l-50 -122c-26.667 -52.667 -54.334 -79 -83.001 -79c-6.66699 0 -16 0.333008 -28 1
s-20.667 1.33398 -26 2.00098l-13 7c2.66699 34 48.334 96.333 137.001 187l-107 -13c-139.333 -222.667 -274.333 -386.667 -405 -492c-172 -138.667 -368 -208 -588 -208c-86.667 0 -159.667 12 -219 36c-84 33.333 -126 86.666 -126 159.999c0 25.333 8 46.5 24 63.5
s36.667 25.5 62 25.5c16.667 0 31.167 -7.16699 43.5 -21.5s18.5 -30.166 18.5 -47.499c0 -14.667 -5 -29 -15 -43c-10.667 -16 -23 -24 -37 -24c-22 0 -42.333 6.66699 -61 20c20 -96.667 123 -145 309 -145c138.667 0 262 34 370 102c85.333 54 172 137.333 260 250
l225 315c-153.333 -8.66699 -313.333 -46.334 -480 -113.001l-15 13l9 11c122 62.667 290 101 504 115c64.667 86 164.667 197.333 300 334c146 148 256 245 330 291l13 3l7 -9l-3 -11c-19.333 -22.667 -47.666 -49.334 -84.999 -80.001
c-47.333 -39.333 -77 -64.666 -89 -75.999c-139.333 -131.333 -251.333 -277.333 -336 -438zM1849 850.998c0 12 -5.66699 17.999 -17 17.999c-22 0 -48 -13.667 -78 -41c-25.333 -22.667 -45 -46 -59 -70c23.333 4.66699 53 16.334 89 35.001c43.333 22 65 41.333 65 58z
M1445 1422c-161.333 0 -313.668 -31 -457.001 -93c-184 -79.333 -276 -189.333 -276 -330c0 -54 28.333 -95 85 -123c44 -22.667 96 -34 156 -34c90.667 0 194 27.333 310 82c135.333 64 203 136 203 216c0 36 -14.667 64 -44 84c-25.333 17.333 -56.333 26 -93 26
c-155.333 0 -307.666 -66.333 -456.999 -199c-20.667 -23.333 -53.334 -56.333 -98.001 -99l-9 -1l-8 8l3 11c34 68.667 117 137.334 249 206.001c126.667 66 231.334 99 314.001 99c42 0 78.667 -9.66699 110 -29c36.667 -23.333 55 -55 55 -95
c0 -94.667 -68 -176.667 -204 -246c-116 -59.333 -226.667 -89 -332 -89c-68 0 -126.333 13.667 -175 41c-60 33.333 -90 82 -90 146c0 57.333 15 107.333 45 150c104.667 149.333 278.334 244.666 521.001 285.999c108 18 314 27 618 27c76 0 189.833 -0.5 341.5 -1.5
s265.5 -1.5 341.5 -1.5c61.333 0 107.666 6.66699 139 20c22 8.66699 60 33.667 114 75l10 4l11 -14l-3 -10c-110 -118.667 -292.333 -178 -547 -178c-93.333 0 -232.333 10.333 -417 31s-323.334 31 -416.001 31zM1847 569.997
c204 127.333 328.666 206.999 373.999 238.999c179.333 128.667 269 228.334 269 299.001c0 32 -16.333 48 -49 48c-74.667 0 -182.334 -80 -323 -240c-37.333 -42.667 -127.666 -158 -270.999 -346zM1771 216.996l6.99707 -10.001
c-0.666992 -31.333 -54.667 -74.666 -162 -129.999c-101.333 -52.667 -171.666 -79 -210.999 -79c-42 0 -63 21.667 -63 65c0 33.333 13 69 39 107c2.66699 4 27 34 73 90c-28.667 -20 -64.667 -42 -108 -66l-12 13l7 11c94.667 60.667 142.334 91.334 143.001 92.001
c54.667 37.333 97.334 73.666 128.001 108.999l200 240c124.667 146 234.667 261.333 330 346c131.333 118 232.666 177 304 177c19.333 0 35.833 -7.5 49.5 -22.5s20.5 -32.167 20.5 -51.5c0 -69.333 -49.667 -145.666 -149 -228.999
c-64 -52.667 -165.333 -119.667 -304 -201c-134.667 -78.667 -214.667 -129.334 -240 -152.001c-58.667 -51.333 -126.667 -123.333 -204 -216l-191 -229c-6.66699 -7.33301 -14 -19.333 -22 -36l17 -11c50 -2 118 26.667 204 86c94 64.667 142 97 144 97z" />
    <glyph glyph-name="endash" unicode="&#x2013;" horiz-adv-x="781" 
d="M452 315l-24.001 -58c-11.333 -19.333 -27.333 -29 -48 -29c-6.66699 0 -74 2.33301 -202 7c-81.333 2.66699 -148.666 0.666992 -201.999 -6l24 59c10.667 18.667 27 28 49 28c6 0 73.333 -2.33301 202 -7c80.667 -2.66699 147.667 -0.666992 201 6z" />
    <glyph glyph-name="emdash" unicode="&#x2014;" horiz-adv-x="1104" 
d="M763 315l-24 -56c-12 -20.667 -27.333 -31 -46 -31c-57.333 0 -143.333 2 -258 6s-200.667 6 -258 6c-90 0 -165.667 -3.66699 -227 -11l24 58c11.333 19.333 27.333 29 48 29c58.667 0 146.167 -2 262.5 -6s203.5 -6 261.5 -6c86.667 0 159 3.66699 217 11z" />
    <glyph glyph-name="quoteleft" unicode="&#x2018;" horiz-adv-x="344" 
d="M702 1055c-20.667 0 -31 10.333 -31 31c0 19.333 24.5 48.833 73.5 88.5s83.167 59.5 102.5 59.5l11 -10c-83.333 -112.667 -135.333 -169 -156 -169z" />
    <glyph glyph-name="quoteright" unicode="&#x2019;" horiz-adv-x="331" 
d="M808 1232c22 0 33 -10.334 33 -31.001c0 -20 -24.5 -49.667 -73.5 -89s-83.5 -58.666 -103.5 -57.999l-10 9c82.667 112.667 134 169 154 169z" />
    <glyph glyph-name="quotesinglbase" unicode="&#x201a;" horiz-adv-x="331" 
d="M213 87c22 0 33 -10.334 33 -31.001c0 -20 -24.5 -49.667 -73.5 -89s-83.833 -58.666 -104.5 -57.999l-9 9c82.667 112.667 134 169 154 169z" />
    <glyph glyph-name="quotedblleft" unicode="&#x201c;" horiz-adv-x="496" 
d="M719 1055c-21.333 0 -32 10 -32 30c0 20.667 24.667 50.667 74 90s84.333 59 105 59l9 -9c-83.333 -113.333 -135.333 -170 -156 -170zM871 1055c-22 0 -32.999 10 -32.999 30c0 19.333 25 49.333 75 90c48 39.333 82 59 102 59l10 -10
c-3.33301 -13.333 -27 -44.333 -71 -93c-44.667 -50.667 -72.334 -76 -83.001 -76z" />
    <glyph glyph-name="quotedblright" unicode="&#x201d;" horiz-adv-x="496" 
d="M819 1232c22 0 33 -10.334 33 -31.001c0 -20 -24.5 -49.667 -73.5 -89s-83.833 -58.666 -104.5 -57.999l-9 9c82.667 112.667 134 169 154 169zM969 1232c22 0 33 -10.334 33 -31.001c0 -20 -24.5 -49.667 -73.5 -89s-83.833 -58.666 -104.5 -57.999l-9 9
c82.667 112.667 134 169 154 169z" />
    <glyph glyph-name="quotedblbase" unicode="&#x201e;" horiz-adv-x="496" 
d="M230 106c22 0 33 -10.333 33 -31c0 -20 -24.5 -49.5 -73.5 -88.5s-83.833 -58.5 -104.5 -58.5l-9 9c82.667 112.667 134 169 154 169zM380 106c22 0 33 -10.333 33 -31c0 -20 -24.5 -49.5 -73.5 -88.5s-83.833 -58.5 -104.5 -58.5l-9 9c82 112.667 133.333 169 154 169z
" />
    <glyph glyph-name="dagger" unicode="&#x2020;" horiz-adv-x="2371" 
d="M192 206c0 25.333 7.82715 46.5029 23.4941 63.5029s35.834 25.5 60.501 25.5c16.667 0 31.334 -7.33301 44.001 -22s19 -30.334 19 -47.001c0 -14.667 -5 -29 -15 -43c-11.333 -16 -23.666 -24 -36.999 -24c-22 0 -42.333 6.66699 -61 20
c20.667 -96.667 126.334 -145 317.001 -145c148 0 273.667 37.333 377 112c72.667 53.333 162.334 151.666 269.001 294.999l230 313c56.667 76.667 154.667 183 294 319c145.333 142 253.666 235 324.999 279l13 3l8 -9l-4 -11c-22 -26 -56.667 -59.333 -104 -100
c-50.667 -43.333 -86 -76 -106 -98c-72.667 -78.667 -190 -241.667 -352 -489c-137.333 -208.667 -260.666 -356.667 -369.999 -444c-163.333 -129.333 -358.666 -194 -585.999 -194c-86.667 0 -159.667 12 -219 36c-84 33.333 -126 86.666 -126 159.999zM1459.99 1424
c-161.333 0 -313.666 -30.999 -456.999 -92.999c-184 -79.333 -276 -189 -276 -329c0 -55.333 28.333 -97 85 -125c43.333 -22 95.333 -33 156 -33c91.333 0 194.666 27.333 309.999 82c135.333 64 203 136 203 216c0 74 -45.667 111 -137 111
c-155.333 0 -307.333 -66.667 -456 -200c-20.667 -23.333 -53.667 -56 -99 -98l-9 -2l-7 8l3 11c34 69.333 117 138.333 249 207c126 65.333 230.333 98 313 98c42.667 0 79.334 -10 110.001 -30c36.667 -22.667 55 -54.334 55 -95.001c0 -94 -68 -175.667 -204 -245
c-116.667 -59.333 -227 -89 -331 -89c-68.667 0 -127.334 13.667 -176.001 41c-60 33.333 -90 82.333 -90 147c0 56.667 15 106.667 45 150c106 148.667 279.667 243.667 521 285c108.667 18.667 314.667 28 618 28c76 0 190 -0.5 342 -1.5s266 -1.5 342 -1.5
c60.667 0 106.667 6.33301 138 19c22 9.33301 60 34.333 114 75l10 4l12 -14l-4 -10c-111.333 -118.667 -293 -178 -545 -178c-93.333 0 -232.666 10.333 -418 31c-185.333 20.667 -324.333 31 -417 31zM1894.99 570.004c483.333 222 725 399.666 725 532.999
c0 32.667 -17 49 -51 49c-68.667 0 -186.334 -80.667 -353 -242c-52 -51.333 -159 -164.666 -321 -339.999zM1092.99 61.0029c-12.667 -2 -18.999 2.33203 -18.999 12.999c0 4.66699 21 20.667 63 48c26 16.667 126.667 75.334 302 176.001c131.333 76 226 138.333 284 187
l408 407c198.667 190.667 346.667 286 444 286c19.333 0 36 -7.5 50 -22.5s21 -32.5 21 -52.5c0 -136 -257.667 -328.333 -773 -577l-239 -275c138 112 241.333 168 310 168c38 0 57 -21.667 57 -65c0 -49.333 -33.667 -110.333 -101 -183s-101.333 -114.667 -102 -126
l18 -11c53.333 -2 118.666 25.333 195.999 82c86 64 136 97.667 150 101l7 -10c-2 -30.667 -56.333 -73.667 -163 -129c-102 -53.333 -172 -80 -210 -80c-42.667 0 -64 23.333 -64 70c0 42.667 35.5 103.167 106.5 181.5s107.167 121.5 108.5 129.5l-11 14
c-106.667 2.66699 -277.667 -128.333 -513 -393h-126l376 404l-295 -164c-115.333 -65.333 -210.333 -125 -285 -179z" />
    <glyph glyph-name="daggerdbl" unicode="&#x2021;" horiz-adv-x="459" 
d="M187 767c28 10.667 52.6641 15.999 73.9971 15.999c8.66699 0 21.334 -1.66699 38.001 -5s29.334 -5 38.001 -5c20.667 0 40.334 5.33301 59.001 16l5 -5l-1 -6l-102 -104c-74 -76.667 -151 -161.667 -231 -255h-47c62 76.667 108 131 138 163
c54 58.667 107 105.667 159 141l-23 -2c-12 -0.666992 -28.667 2.33301 -50 9s-37 10 -47 10c-19.333 0 -39.5 -10.667 -60.5 -32s-33.167 -32 -36.5 -32l-4 4c1.33301 8.66699 33 46.334 95 113.001l6 -4z" />
    <glyph glyph-name="bullet" unicode="&#x2022;" horiz-adv-x="329" 
d="M46 354c-10.667 -26.667 -32.667 -48.667 -66 -66c-25.333 15.333 -45.333 36 -60 62c13.333 28.667 34.333 51 63 67c19.333 -9.33301 40.333 -30.333 63 -63z" />
    <glyph glyph-name="ellipsis" unicode="&#x2026;" horiz-adv-x="1051" 
d="M-52 0l-10.001 11l10 13h54l300 267l130 380h-54l-11 11l11 13h237l11 -12c0.666992 -8 -8.66602 -12.667 -27.999 -14c-12 -0.666992 -24.333 0 -37 2l-70 -221l248 221h-52l-12 11c0 11.333 23.333 17 70 17c11.333 0 28.5 -0.666992 51.5 -2s39.833 -2 50.5 -2l10 -12
l-10 -12h-54l-326 -295l-124 -352h55l11 -12l-11 -12h-237l-11 12c0 8 9.33301 12.667 28 14c12 0.666992 24.333 0 37 -2l65 192l-224 -192h53l11 -12c0.666992 -11.333 -22.333 -17 -69 -17c-12 0 -29.333 0.833008 -52 2.5s-39.667 2.5 -51 2.5z" />
    <glyph glyph-name="guilsinglleft" unicode="&#x2039;" 
d="M193 592c0 -47.333 -31.665 -89.001 -94.998 -125.001c-55.333 -31.333 -108.666 -47 -159.999 -47c-17.333 0 -33.333 4.66699 -48 14c-16.667 10.667 -25 24.334 -25 41.001c0 27.333 13 41 39 41c12 0 18 -7 18 -21c0 -28.667 -13 -37.667 -39 -27
c7.33301 -22 25.333 -33 54 -33c32 0 76.333 20.667 133 62c60 42.667 90 79 90 109c0 12 -6 18 -18 18c-10.667 0 -25.334 -4.66699 -44.001 -14s-33.334 -14 -44.001 -14l-8 5l4 9l121 59c53.333 31.333 79.666 63.333 78.999 96l-15 14c-15.333 0 -42 -11.167 -80 -33.5
s-57 -39.833 -57 -52.5l7 -7c28.667 -1.33301 69 25 121 79l5 -5c0 -12.667 -17.167 -30.667 -51.5 -54s-58.833 -35 -73.5 -35c-18.667 0 -28 9.33301 -28 28c0 24.667 17 47 51 67c30 18 58.333 27 85 27c44.667 0 67 -17 67 -51c0 -27.333 -15.333 -50.333 -46 -69
l-81 -37c26 -11.333 39 -26 39 -44z" />
    <glyph glyph-name="guilsinglright" unicode="&#x203a;" 
d="M263 791l-297.999 -262.001c29.333 8.66699 73.666 13 132.999 13l93 107h37l-85 -114c9.33301 0 23 2.33301 41 7s32 6.66699 42 6l13 -8c0 -10.667 -15.333 -17.667 -46 -21c-14.667 -1.33301 -34.667 -1.66602 -60 -0.999023l-77 -99h-56l83 103
c-20.667 2.66699 -33.667 4 -39 4c-12.667 0 -31.5 -3.66699 -56.5 -11s-43.833 -10.666 -56.5 -9.99902l-4 5c2 7.33301 14.667 21.333 38 42l47 40c59.333 57.333 121.333 123.666 186 198.999h65z" />
    <glyph glyph-name="fraction" unicode="&#x2044;" horiz-adv-x="1406" 
d="M633 431c0 -33.333 28.6641 -50.002 85.9971 -50.002c78 0 182.333 46.667 313 140c102.667 73.333 192.667 151.666 270 234.999l491 529h139l-739 -824c-122 -136 -231.333 -237 -328 -303c-137.333 -93.333 -275.666 -140 -414.999 -140
c-67.333 0 -125 9.66699 -173 29c-65.333 28 -98 71 -98 129c0 35.333 9.66699 64.666 29 87.999s46.333 35 81 35c37.333 0 56 -16 56 -48c0 -17.333 -6 -32.666 -18 -45.999s-26.667 -20 -44 -20c-19.333 0 -37.666 11 -54.999 33
c-7.33301 -17.333 -11 -35.666 -11 -54.999c0 -44 29.333 -76.667 88 -98c42.667 -15.333 91.334 -23 146.001 -23c143.333 0 283.666 65 420.999 195c57.333 54 160 177.333 308 370c-193.333 -168.667 -348.333 -253 -465 -253c-95.333 0 -143 34.667 -143 104
c0 84.667 53 183.334 159 296.001l295 283c106 106 159 193.333 159 262c0 43.333 -31.667 77.666 -95 102.999c-49.333 20.667 -99.333 31 -150 31c-130 0 -266.667 -38.333 -410 -115c-166 -88.667 -249 -191.667 -249 -309c0 -78.667 53.667 -118 161 -118
c90 0 184.667 29.667 284 89c65.333 39.333 138.333 96 219 170c70.667 64.667 110.334 98.334 119.001 101.001l14 -13l-5 -10c-240.667 -242.667 -451 -364 -631 -364c-51.333 0 -94 10.667 -128 32c-40.667 24.667 -61 61.334 -61 110.001
c0 128.667 86 239.334 258 332.001c148 79.333 292.333 119 433 119c64 0 121.667 -13 173 -39c65.333 -32 98 -77 98 -135c0 -103.333 -50.333 -214.333 -151 -333c-6 -6.66699 -99.333 -100.334 -280 -281.001c-100.667 -100.667 -151 -180 -151 -238zM1458 1641
c33.333 0 50 -18.333 50 -55c0 -34.667 -16.667 -52 -50 -52c-13.333 0 -25.333 5.33301 -36 16s-16 22.667 -16 36c0 14 5.16699 26.667 15.5 38s22.5 17 36.5 17zM1667 1641c33.333 0 50 -18.333 50 -55c0 -34.667 -16.667 -52 -50 -52c-35.333 0 -53 17.333 -53 52
c0 36.667 17.667 55 53 55z" />
    <glyph glyph-name="trademark" unicode="&#x2122;" 
d="M215 749l-5 1.00098c-22 0 -55.167 -22.833 -99.5 -68.5s-66.5 -79.834 -66.5 -102.501c0 -8.66699 7 -13.667 21 -15zM224 762.001c7.33301 8 29.001 34.668 65.001 80.001l6 -6l-56 -78c17.333 -10 26 -22.333 26 -37c0 -26.667 -9.66699 -39.334 -29 -38.001l-14 7
l-2 14l2 10c5.33301 9.33301 14 13.666 26 12.999c-3.33301 6.66699 -9.33301 13.334 -18 20.001l-145 -183c14 2 42 13.333 84 34l5 -5c0 -7.33301 -14.5 -16.5 -43.5 -27.5s-48.5 -16.833 -58.5 -17.5c-16.667 -22.667 -37.667 -45.334 -63 -68.001l-5 8l50 60
c-24.667 8.66699 -37 24.334 -37 47.001c0 44 23.667 84.167 71 120.5s92.666 51.833 135.999 46.5z" />
    </font>
</defs>
</svg>
