<?xml version="1.0" encoding="iso-8859-1"?>
<!-- Generator: Adobe Illustrator 16.0.0, SVG Export Plug-In . SVG Version: 6.00 Build 0)  -->
<!DOCTYPE svg PUBLIC "-//W3C//DTD SVG 1.1//EN" "http://www.w3.org/Graphics/SVG/1.1/DTD/svg11.dtd">
<svg version="1.1" id="Capa_1" xmlns="http://www.w3.org/2000/svg" xmlns:xlink="http://www.w3.org/1999/xlink" x="0px" y="0px"
	 width="410.629px" height="410.629px" viewBox="0 0 410.629 410.629" style="enable-background:new 0 0 410.629 410.629;"
	 xml:space="preserve">
<g>
	<path d="M179.779,111.836c0-3.118-2.551-5.669-5.67-5.669H55.267c-3.119,0-5.67,2.551-5.67,5.669v67.184
		c0,3.118,2.551,5.669,5.67,5.669h118.842c3.119,0,5.67-2.551,5.67-5.669V111.836L179.779,111.836z"/>
	<path d="M52.616,302.997c0,2.338,1.914,4.252,4.252,4.252H298.96c2.338,0,4.252-1.914,4.252-4.252v-8.739
		c0-2.338-1.914-4.252-4.252-4.252H56.868c-2.338,0-4.252,1.914-4.252,4.252V302.997z"/>
	<path d="M52.616,241.717c0,2.339,1.913,4.252,4.252,4.252H298.96c2.339,0,4.252-1.912,4.252-4.252v-8.738
		c0-2.34-1.913-4.252-4.252-4.252H56.868c-2.339,0-4.252,1.912-4.252,4.252V241.717z"/>
	<path d="M217.207,119.159c0,2.338,1.914,4.252,4.252,4.252h77.31c2.338,0,4.252-1.914,4.252-4.252v-8.739
		c0-2.338-1.914-4.252-4.252-4.252h-77.31c-2.338,0-4.252,1.914-4.252,4.252V119.159z"/>
	<path d="M217.207,180.438c0,2.338,1.913,4.252,4.252,4.252h77.31c2.339,0,4.252-1.914,4.252-4.252v-8.739
		c0-2.338-1.913-4.252-4.252-4.252h-77.31c-2.339,0-4.252,1.914-4.252,4.252V180.438z"/>
	<path d="M406.248,110.758c-3.812-4.709-9.703-7.409-16.16-7.409h-13.419c0,0-5.04-0.107-5.04,4.002c0,2.31,0,6.93,0,9.239
		c0,4.069,5.04,4.002,5.04,4.002h13.419c1.248,0,2.229,0.36,2.761,1.017c0.53,0.657,0.68,1.689,0.42,2.91
		c0,0-28.771,109.211-38.59,145.971c-0.117,0.435-0.886,0.246-0.886-0.29c-0.033-51.875,0-205.755,0-205.755
		c0-12.839-10.444-23.285-23.283-23.285H23.285C10.445,41.161,0,51.606,0,64.445v281.739c0,12.838,10.445,23.284,23.285,23.284
		H330.51c7.748,0,14.619-3.808,18.854-9.646c2.73-1.988,4.68-5.638,5.811-10.949l54.959-220.768
		C411.477,121.791,410.061,115.467,406.248,110.758z M336.551,346.184c0,3.332-2.711,6.042-6.041,6.042H23.285
		c-3.332,0-6.043-2.71-6.043-6.042V64.445c0-3.275,2.768-6.042,6.043-6.042H330.51c3.275,0,6.041,2.767,6.041,6.042V346.184z"/>
</g>
<g>
</g>
<g>
</g>
<g>
</g>
<g>
</g>
<g>
</g>
<g>
</g>
<g>
</g>
<g>
</g>
<g>
</g>
<g>
</g>
<g>
</g>
<g>
</g>
<g>
</g>
<g>
</g>
<g>
</g>
</svg>
