<?xml version="1.0" encoding="utf-8"?>
<!-- Generator: Adobe Illustrator 16.0.0, SVG Export Plug-In . SVG Version: 6.00 Build 0)  -->
<!DOCTYPE svg PUBLIC "-//W3C//DTD SVG 1.1//EN" "http://www.w3.org/Graphics/SVG/1.1/DTD/svg11.dtd">
<svg version="1.1" id="Layer_1" xmlns="http://www.w3.org/2000/svg" xmlns:xlink="http://www.w3.org/1999/xlink" x="0px" y="0px"
	 width="20px" height="20px" fill="#fff" viewBox="0 0 32 32" enable-background="new 0 0 32 32" xml:space="preserve">
<g>
	<path fill="#161616" d="M20.167,18.039h-8.39c-0.525,0-0.949,0.413-0.949,0.938c0,0.525,0.424,0.94,0.949,0.94h8.39
		c0.525,0,0.95-0.415,0.95-0.94C21.117,18.452,20.692,18.039,20.167,18.039z"/>
	<path fill="#161616" d="M29.086,12.354L14.641,0.664c-0.36-0.291-0.82-0.427-1.281-0.379c-0.46,0.048-0.882,0.277-1.173,0.638
		L3.324,11.875c-0.606,0.749-0.489,1.848,0.261,2.453l2.643,2.139v-2.55l-1.211-0.978l1.247-1.543
		c0.171-1.072,0.908-1.958,1.895-2.342l5.421-6.701l14.076,11.39l-2.026,2.49c0.037,0.234,0.047,0.473,0.047,0.714v2.365
		l3.657-4.505C29.939,14.058,29.835,12.96,29.086,12.354z"/>
	<path fill="#161616" d="M18.647,8.959c0.093-0.364-0.023-0.755-0.336-1.006c-0.428-0.348-1.051-0.288-1.396,0.141l-0.604,0.735
		h1.326C17.979,8.829,18.317,8.881,18.647,8.959z"/>
	<path fill="#161616" d="M15.332,5.542c-0.427-0.346-1.049-0.286-1.396,0.142l-2.554,3.146h2.55l1.545-1.898
		C15.823,6.502,15.762,5.889,15.332,5.542z"/>
	<path fill="#161616" d="M11.777,16.281h2.632c0.524,0,0.95-0.444,0.95-0.969s-0.426-0.97-0.95-0.97h-0.015h-2.55h-0.067
		c-0.471,0-0.886,0.364-0.945,0.812v0.317C10.892,15.919,11.307,16.281,11.777,16.281z"/>
	<path fill="#161616" d="M20.167,21.553h-8.39c-0.471,0-0.886,0.381-0.945,0.84v0.32c0.06,0.457,0.475,0.839,0.945,0.839h8.39
		c0.438,0,0.782-0.326,0.903-0.74v-0.519C20.949,21.88,20.604,21.553,20.167,21.553z"/>
	<path fill="#161616" d="M20.167,25.188h-8.39c-0.471,0-0.886,0.348-0.945,0.795v0.316c0.06,0.447,0.475,0.768,0.945,0.768h8.39
		c0.438,0,0.782-0.272,0.903-0.672v-0.508C20.949,25.487,20.604,25.188,20.167,25.188z"/>
	<path fill="#161616" d="M19.826,11.131c-0.577-0.583-1.367-0.907-2.188-0.907H9.25c-0.918,0-1.69,0.735-1.69,1.652v17.827
		c0,0.918,0.772,1.664,1.69,1.664h13.422c0.918,0,1.67-0.746,1.67-1.664V16.947c0-0.812-0.324-1.59-0.895-2.166L19.826,11.131z
		 M19.435,13.51l1.662,1.621h-0.004l-1.658,0.02V13.51z M22.464,29.49H9.498V12.223h8.059v3.59c0,0.326,0.119,0.638,0.35,0.868
		c0.231,0.229,0.539,0.354,0.864,0.353l3.643-0.024h0.051V29.49z"/>
</g>
</svg>
