<?xml version="1.0" encoding="utf-8"?>
<!-- Generator: Adobe Illustrator 18.1.0, SVG Export Plug-In . SVG Version: 6.00 Build 0)  -->
<svg version="1.1" id="Capa_1" xmlns="http://www.w3.org/2000/svg" xmlns:xlink="http://www.w3.org/1999/xlink" x="0px" y="0px"
	 width="20px" height="20px" fill="#fff" viewBox="0 0 1000 1000" enable-background="new 0 0 1000 1000" xml:space="preserve">
<g>
	<path d="M245,935h510c27.6,0,50-22.4,50-50V115c0-27.6-22.4-50-50-50H245c-27.6,0-50,22.4-50,50v770C195,912.6,217.4,935,245,935z
		 M718.9,873.6c-16.6,0-30-13.4-30-30c0-16.6,13.4-30,30-30c16.6,0,30,13.4,30,30C748.9,860.2,735.5,873.6,718.9,873.6z M718.9,133
		c16.6,0,30,13.4,30,30s-13.4,30-30,30c-16.6,0-30-13.4-30-30S702.3,133,718.9,133z M500,155.4c129.6,0,234.7,105.1,234.7,234.7
		S629.6,624.8,500,624.8c-20.4,0-40.2-2.6-59.1-7.5l44.1-74.8c13.1-22.2-12-47.4-34.2-34.2l-102.3,60.3c-0.2,0.1-0.3,0.2-0.4,0.3
		c-50.6-43-82.7-107.2-82.7-178.8C265.3,260.5,370.4,155.4,500,155.4z M287.1,133c16.6,0,30,13.4,30,30s-13.4,30-30,30
		s-30-13.4-30-30S270.5,133,287.1,133z M287.1,813.6c16.6,0,30,13.4,30,30c0,16.6-13.4,30-30,30s-30-13.4-30-30
		C257.1,827.1,270.5,813.6,287.1,813.6z"/>
	<circle cx="500" cy="390.1" r="62.7"/>
</g>
</svg>
